let cmaj, _8bars, wtc0, wtc1;

let test0 = {
  "header": {
    "keySignatures": [],
    "meta": [],
    "name": "test0",
    "ppq": 960,
    "tempos": [
      {
        "bpm": 120,
        "ticks": 0
      }
    ],
    "timeSignatures": [
      {
        "ticks": 0,
        "timeSignature": [
          4,
          4
        ],
        "measures": 0
      }
    ]
  },
  "tracks": [
    {
      "channel": 0,
      "controlChanges": {},
      "instrument": {
        "family": "piano",
        "name": "acoustic grand piano",
        "number": 0
      },
      "name": "MIDI",
      "notes": [
        {
          "duration": 0.126,
          "durationTicks": 241,
          "midi": 60,
          "name": "C4",
          "ticks": 0,
          "time": 0,
          "velocity": 0.7559055118110236
        },
        {
          "duration": 0.25,
          "durationTicks": 480,
          "midi": 62,
          "name": "D4",
          "ticks": 240,
          "time": 0.125,
          "velocity": 0.7559055118110236
        },
        {
          "duration": 0.125,
          "durationTicks": 240,
          "midi": 58,
          "name": "A#3",
          "ticks": 480,
          "time": 0.25,
          "velocity": 0.7559055118110236
        },
        {
          "duration": 0.125,
          "durationTicks": 240,
          "midi": 60,
          "name": "C4",
          "ticks": 720,
          "time": 0.375,
          "velocity": 0.7559055118110236
        }
      ]
    }
  ]
};

wtc0 = {
  "header": {
    "keySignatures": [],
    "meta": [],
    "name": "wtc",
    "ppq": 960,
    "tempos": [
      {
        "bpm": 120,
        "ticks": 0
      }
    ],
    "timeSignatures": [
      {
        "ticks": 0,
        "timeSignature": [
          4,
          4
        ],
        "measures": 0
      }
    ]
  },
  "tracks": [
    {
      "channel": 0,
      "controlChanges": {},
      "instrument": {
        "family": "piano",
        "name": "harpsichord",
        "number": 6
      },
      "name": "Track 1",
      "notes": [
        {
          "duration": 1.125,
          "durationTicks": 2160,
          "midi": 72,
          "name": "C5",
          "ticks": 240,
          "time": 0.125,
          "velocity": 1
        },
        {
          "duration": 1.125,
          "durationTicks": 2160,
          "midi": 48,
          "name": "C3",
          "ticks": 240,
          "time": 0.125,
          "velocity": 1
        },
        {
          "duration": 0.125,
          "durationTicks": 240,
          "midi": 63,
          "name": "D#4",
          "ticks": 480,
          "time": 0.25,
          "velocity": 1
        },
        {
          "duration": 0.125,
          "durationTicks": 240,
          "midi": 55,
          "name": "G3",
          "ticks": 480,
          "time": 0.25,
          "velocity": 1
        },
        {
          "duration": 0.125,
          "durationTicks": 240,
          "midi": 62,
          "name": "D4",
          "ticks": 720,
          "time": 0.375,
          "velocity": 1
        },
        {
          "duration": 0.125,
          "durationTicks": 240,
          "midi": 53,
          "name": "F3",
          "ticks": 720,
          "time": 0.375,
          "velocity": 1
        },
        {
          "duration": 0.125,
          "durationTicks": 240,
          "midi": 63,
          "name": "D#4",
          "ticks": 1200,
          "time": 0.625,
          "velocity": 1
        },
        {
          "duration": 0.125,
          "durationTicks": 240,
          "midi": 55,
          "name": "G3",
          "ticks": 1200,
          "time": 0.625,
          "velocity": 1
        },
        {
          "duration": 0.5,
          "durationTicks": 960,
          "midi": 60,
          "name": "C4",
          "ticks": 1440,
          "time": 0.75,
          "velocity": 1
        },
        {
          "duration": 0.5,
          "durationTicks": 960,
          "midi": 51,
          "name": "D#3",
          "ticks": 1440,
          "time": 0.75,
          "velocity": 1
        },
        {
          "duration": 0.125,
          "durationTicks": 240,
          "midi": 63,
          "name": "D#4",
          "ticks": 1680,
          "time": 0.875,
          "velocity": 1
        },
        {
          "duration": 0.125,
          "durationTicks": 240,
          "midi": 55,
          "name": "G3",
          "ticks": 1680,
          "time": 0.875,
          "velocity": 1
        },
        {
          "duration": 0.125,
          "durationTicks": 240,
          "midi": 62,
          "name": "D4",
          "ticks": 1920,
          "time": 1,
          "velocity": 1
        },
        {
          "duration": 0.125,
          "durationTicks": 240,
          "midi": 53,
          "name": "F3",
          "ticks": 1920,
          "time": 1,
          "velocity": 1
        },
        {
          "duration": 0.125,
          "durationTicks": 240,
          "midi": 63,
          "name": "D#4",
          "ticks": 2400,
          "time": 1.25,
          "velocity": 1
        },
        {
          "duration": 0.125,
          "durationTicks": 240,
          "midi": 55,
          "name": "G3",
          "ticks": 2400,
          "time": 1.25,
          "velocity": 1
        },
        {
          "duration": 1.125,
          "durationTicks": 2160,
          "midi": 72,
          "name": "C5",
          "ticks": 2640,
          "time": 1.375,
          "velocity": 1
        },
        {
          "duration": 1.125,
          "durationTicks": 2160,
          "midi": 48,
          "name": "C3",
          "ticks": 2640,
          "time": 1.375,
          "velocity": 1
        },
        {
          "duration": 0.125,
          "durationTicks": 240,
          "midi": 63,
          "name": "D#4",
          "ticks": 2880,
          "time": 1.5,
          "velocity": 1
        },
        {
          "duration": 0.125,
          "durationTicks": 240,
          "midi": 55,
          "name": "G3",
          "ticks": 2880,
          "time": 1.5,
          "velocity": 1
        },
        {
          "duration": 0.125,
          "durationTicks": 240,
          "midi": 62,
          "name": "D4",
          "ticks": 3120,
          "time": 1.625,
          "velocity": 1
        },
        {
          "duration": 0.125,
          "durationTicks": 240,
          "midi": 53,
          "name": "F3",
          "ticks": 3120,
          "time": 1.625,
          "velocity": 1
        },
        {
          "duration": 0.125,
          "durationTicks": 240,
          "midi": 63,
          "name": "D#4",
          "ticks": 3600,
          "time": 1.875,
          "velocity": 1
        },
        {
          "duration": 0.125,
          "durationTicks": 240,
          "midi": 55,
          "name": "G3",
          "ticks": 3600,
          "time": 1.875,
          "velocity": 1
        },
        {
          "duration": 0.5,
          "durationTicks": 960,
          "midi": 60,
          "name": "C4",
          "ticks": 3840,
          "time": 2,
          "velocity": 1
        },
        {
          "duration": 0.5,
          "durationTicks": 960,
          "midi": 51,
          "name": "D#3",
          "ticks": 3840,
          "time": 2,
          "velocity": 1
        },
        {
          "duration": 0.125,
          "durationTicks": 240,
          "midi": 63,
          "name": "D#4",
          "ticks": 4080,
          "time": 2.125,
          "velocity": 1
        },
        {
          "duration": 0.125,
          "durationTicks": 240,
          "midi": 55,
          "name": "G3",
          "ticks": 4080,
          "time": 2.125,
          "velocity": 1
        },
        {
          "duration": 0.125,
          "durationTicks": 240,
          "midi": 62,
          "name": "D4",
          "ticks": 4320,
          "time": 2.25,
          "velocity": 1
        },
        {
          "duration": 0.125,
          "durationTicks": 240,
          "midi": 53,
          "name": "F3",
          "ticks": 4320,
          "time": 2.25,
          "velocity": 1
        },
        {
          "duration": 0.125,
          "durationTicks": 240,
          "midi": 63,
          "name": "D#4",
          "ticks": 4800,
          "time": 2.5,
          "velocity": 1
        },
        {
          "duration": 0.125,
          "durationTicks": 240,
          "midi": 55,
          "name": "G3",
          "ticks": 4800,
          "time": 2.5,
          "velocity": 1
        },
        {
          "duration": 1.125,
          "durationTicks": 2160,
          "midi": 68,
          "name": "G#4",
          "ticks": 5040,
          "time": 2.625,
          "velocity": 1
        },
        {
          "duration": 1.125,
          "durationTicks": 2160,
          "midi": 48,
          "name": "C3",
          "ticks": 5040,
          "time": 2.625,
          "velocity": 1
        },
        {
          "duration": 0.125,
          "durationTicks": 240,
          "midi": 65,
          "name": "F4",
          "ticks": 5280,
          "time": 2.75,
          "velocity": 1
        },
        {
          "duration": 0.125,
          "durationTicks": 240,
          "midi": 56,
          "name": "G#3",
          "ticks": 5280,
          "time": 2.75,
          "velocity": 1
        },
        {
          "duration": 0.125,
          "durationTicks": 240,
          "midi": 64,
          "name": "E4",
          "ticks": 5520,
          "time": 2.875,
          "velocity": 1
        },
        {
          "duration": 0.125,
          "durationTicks": 240,
          "midi": 55,
          "name": "G3",
          "ticks": 5520,
          "time": 2.875,
          "velocity": 1
        },
        {
          "duration": 0.125,
          "durationTicks": 240,
          "midi": 65,
          "name": "F4",
          "ticks": 5760,
          "time": 3,
          "velocity": 1
        },
        {
          "duration": 0.125,
          "durationTicks": 240,
          "midi": 56,
          "name": "G#3",
          "ticks": 5760,
          "time": 3,
          "velocity": 1
        },
        {
          "duration": 0.5,
          "durationTicks": 960,
          "midi": 60,
          "name": "C4",
          "ticks": 6240,
          "time": 3.25,
          "velocity": 1
        },
        {
          "duration": 0.5,
          "durationTicks": 960,
          "midi": 53,
          "name": "F3",
          "ticks": 6240,
          "time": 3.25,
          "velocity": 1
        },
        {
          "duration": 0.125,
          "durationTicks": 240,
          "midi": 65,
          "name": "F4",
          "ticks": 6480,
          "time": 3.375,
          "velocity": 1
        },
        {
          "duration": 0.125,
          "durationTicks": 240,
          "midi": 56,
          "name": "G#3",
          "ticks": 6480,
          "time": 3.375,
          "velocity": 1
        },
        {
          "duration": 0.125,
          "durationTicks": 240,
          "midi": 64,
          "name": "E4",
          "ticks": 6720,
          "time": 3.5,
          "velocity": 1
        },
        {
          "duration": 0.125,
          "durationTicks": 240,
          "midi": 55,
          "name": "G3",
          "ticks": 6720,
          "time": 3.5,
          "velocity": 1
        },
        {
          "duration": 0.125,
          "durationTicks": 240,
          "midi": 65,
          "name": "F4",
          "ticks": 6960,
          "time": 3.625,
          "velocity": 1
        },
        {
          "duration": 0.125,
          "durationTicks": 240,
          "midi": 56,
          "name": "G#3",
          "ticks": 6960,
          "time": 3.625,
          "velocity": 1
        },
        {
          "duration": 1.125,
          "durationTicks": 2160,
          "midi": 68,
          "name": "G#4",
          "ticks": 7440,
          "time": 3.875,
          "velocity": 1
        },
        {
          "duration": 1.125,
          "durationTicks": 2160,
          "midi": 48,
          "name": "C3",
          "ticks": 7440,
          "time": 3.875,
          "velocity": 1
        },
        {
          "duration": 0.125,
          "durationTicks": 240,
          "midi": 65,
          "name": "F4",
          "ticks": 7680,
          "time": 4,
          "velocity": 1
        },
        {
          "duration": 0.125,
          "durationTicks": 240,
          "midi": 56,
          "name": "G#3",
          "ticks": 7680,
          "time": 4,
          "velocity": 1
        },
        {
          "duration": 0.125,
          "durationTicks": 240,
          "midi": 64,
          "name": "E4",
          "ticks": 7920,
          "time": 4.125,
          "velocity": 1
        },
        {
          "duration": 0.125,
          "durationTicks": 240,
          "midi": 55,
          "name": "G3",
          "ticks": 7920,
          "time": 4.125,
          "velocity": 1
        },
        {
          "duration": 0.125,
          "durationTicks": 240,
          "midi": 65,
          "name": "F4",
          "ticks": 8160,
          "time": 4.25,
          "velocity": 1
        },
        {
          "duration": 0.125,
          "durationTicks": 240,
          "midi": 56,
          "name": "G#3",
          "ticks": 8160,
          "time": 4.25,
          "velocity": 1
        },
        {
          "duration": 0.5,
          "durationTicks": 960,
          "midi": 60,
          "name": "C4",
          "ticks": 8640,
          "time": 4.5,
          "velocity": 1
        },
        {
          "duration": 0.5,
          "durationTicks": 960,
          "midi": 53,
          "name": "F3",
          "ticks": 8640,
          "time": 4.5,
          "velocity": 1
        },
        {
          "duration": 0.125,
          "durationTicks": 240,
          "midi": 65,
          "name": "F4",
          "ticks": 8880,
          "time": 4.625,
          "velocity": 1
        },
        {
          "duration": 0.125,
          "durationTicks": 240,
          "midi": 56,
          "name": "G#3",
          "ticks": 8880,
          "time": 4.625,
          "velocity": 1
        },
        {
          "duration": 0.125,
          "durationTicks": 240,
          "midi": 64,
          "name": "E4",
          "ticks": 9120,
          "time": 4.75,
          "velocity": 1
        },
        {
          "duration": 0.125,
          "durationTicks": 240,
          "midi": 55,
          "name": "G3",
          "ticks": 9120,
          "time": 4.75,
          "velocity": 1
        },
        {
          "duration": 0.125,
          "durationTicks": 240,
          "midi": 65,
          "name": "F4",
          "ticks": 9360,
          "time": 4.875,
          "velocity": 1
        },
        {
          "duration": 0.125,
          "durationTicks": 240,
          "midi": 56,
          "name": "G#3",
          "ticks": 9360,
          "time": 4.875,
          "velocity": 1
        },
        {
          "duration": 1.125,
          "durationTicks": 2160,
          "midi": 71,
          "name": "B4",
          "ticks": 9840,
          "time": 5.125,
          "velocity": 1
        },
        {
          "duration": 1.125,
          "durationTicks": 2160,
          "midi": 48,
          "name": "C3",
          "ticks": 9840,
          "time": 5.125,
          "velocity": 1
        },
        {
          "duration": 0.125,
          "durationTicks": 240,
          "midi": 65,
          "name": "F4",
          "ticks": 10080,
          "time": 5.25,
          "velocity": 1
        },
        {
          "duration": 0.125,
          "durationTicks": 240,
          "midi": 56,
          "name": "G#3",
          "ticks": 10080,
          "time": 5.25,
          "velocity": 1
        },
        {
          "duration": 0.125,
          "durationTicks": 240,
          "midi": 63,
          "name": "D#4",
          "ticks": 10320,
          "time": 5.375,
          "velocity": 1
        },
        {
          "duration": 0.125,
          "durationTicks": 240,
          "midi": 55,
          "name": "G3",
          "ticks": 10320,
          "time": 5.375,
          "velocity": 1
        },
        {
          "duration": 0.125,
          "durationTicks": 240,
          "midi": 65,
          "name": "F4",
          "ticks": 10560,
          "time": 5.5,
          "velocity": 1
        },
        {
          "duration": 0.125,
          "durationTicks": 240,
          "midi": 56,
          "name": "G#3",
          "ticks": 10560,
          "time": 5.5,
          "velocity": 1
        },
        {
          "duration": 0.5,
          "durationTicks": 960,
          "midi": 62,
          "name": "D4",
          "ticks": 11040,
          "time": 5.75,
          "velocity": 1
        },
        {
          "duration": 0.5,
          "durationTicks": 960,
          "midi": 53,
          "name": "F3",
          "ticks": 11040,
          "time": 5.75,
          "velocity": 1
        },
        {
          "duration": 0.125,
          "durationTicks": 240,
          "midi": 65,
          "name": "F4",
          "ticks": 11280,
          "time": 5.875,
          "velocity": 1
        },
        {
          "duration": 0.125,
          "durationTicks": 240,
          "midi": 56,
          "name": "G#3",
          "ticks": 11280,
          "time": 5.875,
          "velocity": 1
        },
        {
          "duration": 0.125,
          "durationTicks": 240,
          "midi": 63,
          "name": "D#4",
          "ticks": 11520,
          "time": 6,
          "velocity": 1
        },
        {
          "duration": 0.125,
          "durationTicks": 240,
          "midi": 55,
          "name": "G3",
          "ticks": 11520,
          "time": 6,
          "velocity": 1
        },
        {
          "duration": 0.125,
          "durationTicks": 240,
          "midi": 65,
          "name": "F4",
          "ticks": 11760,
          "time": 6.125,
          "velocity": 1
        },
        {
          "duration": 0.125,
          "durationTicks": 240,
          "midi": 56,
          "name": "G#3",
          "ticks": 11760,
          "time": 6.125,
          "velocity": 1
        },
        {
          "duration": 1.125,
          "durationTicks": 2160,
          "midi": 71,
          "name": "B4",
          "ticks": 12240,
          "time": 6.375,
          "velocity": 1
        },
        {
          "duration": 1.125,
          "durationTicks": 2160,
          "midi": 48,
          "name": "C3",
          "ticks": 12240,
          "time": 6.375,
          "velocity": 1
        },
        {
          "duration": 0.125,
          "durationTicks": 240,
          "midi": 65,
          "name": "F4",
          "ticks": 12480,
          "time": 6.5,
          "velocity": 1
        },
        {
          "duration": 0.125,
          "durationTicks": 240,
          "midi": 56,
          "name": "G#3",
          "ticks": 12480,
          "time": 6.5,
          "velocity": 1
        },
        {
          "duration": 0.125,
          "durationTicks": 240,
          "midi": 63,
          "name": "D#4",
          "ticks": 12720,
          "time": 6.625,
          "velocity": 1
        },
        {
          "duration": 0.125,
          "durationTicks": 240,
          "midi": 55,
          "name": "G3",
          "ticks": 12720,
          "time": 6.625,
          "velocity": 1
        },
        {
          "duration": 0.125,
          "durationTicks": 240,
          "midi": 65,
          "name": "F4",
          "ticks": 12960,
          "time": 6.75,
          "velocity": 1
        },
        {
          "duration": 0.125,
          "durationTicks": 240,
          "midi": 56,
          "name": "G#3",
          "ticks": 12960,
          "time": 6.75,
          "velocity": 1
        },
        {
          "duration": 0.625,
          "durationTicks": 1200,
          "midi": 62,
          "name": "D4",
          "ticks": 13200,
          "time": 6.875,
          "velocity": 1
        },
        {
          "duration": 0.625,
          "durationTicks": 1200,
          "midi": 53,
          "name": "F3",
          "ticks": 13200,
          "time": 6.875,
          "velocity": 1
        },
        {
          "duration": 0.125,
          "durationTicks": 240,
          "midi": 65,
          "name": "F4",
          "ticks": 13680,
          "time": 7.125,
          "velocity": 1
        },
        {
          "duration": 0.125,
          "durationTicks": 240,
          "midi": 56,
          "name": "G#3",
          "ticks": 13680,
          "time": 7.125,
          "velocity": 1
        },
        {
          "duration": 0.125,
          "durationTicks": 240,
          "midi": 63,
          "name": "D#4",
          "ticks": 13920,
          "time": 7.25,
          "velocity": 1
        },
        {
          "duration": 0.125,
          "durationTicks": 240,
          "midi": 55,
          "name": "G3",
          "ticks": 13920,
          "time": 7.25,
          "velocity": 1
        },
        {
          "duration": 0.125,
          "durationTicks": 240,
          "midi": 65,
          "name": "F4",
          "ticks": 14160,
          "time": 7.375,
          "velocity": 1
        },
        {
          "duration": 0.125,
          "durationTicks": 240,
          "midi": 56,
          "name": "G#3",
          "ticks": 14160,
          "time": 7.375,
          "velocity": 1
        },
        {
          "duration": 1.25,
          "durationTicks": 2400,
          "midi": 72,
          "name": "C5",
          "ticks": 14400,
          "time": 7.5,
          "velocity": 1
        },
        {
          "duration": 1.25,
          "durationTicks": 2400,
          "midi": 48,
          "name": "C3",
          "ticks": 14400,
          "time": 7.5,
          "velocity": 1
        },
        {
          "duration": 0.125,
          "durationTicks": 240,
          "midi": 67,
          "name": "G4",
          "ticks": 14880,
          "time": 7.75,
          "velocity": 1
        },
        {
          "duration": 0.125,
          "durationTicks": 240,
          "midi": 51,
          "name": "D#3",
          "ticks": 14880,
          "time": 7.75,
          "velocity": 1
        },
        {
          "duration": 0.125,
          "durationTicks": 240,
          "midi": 65,
          "name": "F4",
          "ticks": 15120,
          "time": 7.875,
          "velocity": 1
        },
        {
          "duration": 0.125,
          "durationTicks": 240,
          "midi": 50,
          "name": "D3",
          "ticks": 15120,
          "time": 7.875,
          "velocity": 1
        },
        {
          "duration": 0.125,
          "durationTicks": 240,
          "midi": 67,
          "name": "G4",
          "ticks": 15360,
          "time": 8,
          "velocity": 1
        },
        {
          "duration": 0.125,
          "durationTicks": 240,
          "midi": 51,
          "name": "D#3",
          "ticks": 15360,
          "time": 8,
          "velocity": 1
        },
        {
          "duration": 0.625,
          "durationTicks": 1200,
          "midi": 63,
          "name": "D#4",
          "ticks": 15600,
          "time": 8.125,
          "velocity": 1
        },
        {
          "duration": 0.625,
          "durationTicks": 1200,
          "midi": 55,
          "name": "G3",
          "ticks": 15600,
          "time": 8.125,
          "velocity": 1
        },
        {
          "duration": 0.125,
          "durationTicks": 240,
          "midi": 67,
          "name": "G4",
          "ticks": 16080,
          "time": 8.375,
          "velocity": 1
        },
        {
          "duration": 0.125,
          "durationTicks": 240,
          "midi": 51,
          "name": "D#3",
          "ticks": 16080,
          "time": 8.375,
          "velocity": 1
        },
        {
          "duration": 0.125,
          "durationTicks": 240,
          "midi": 65,
          "name": "F4",
          "ticks": 16320,
          "time": 8.5,
          "velocity": 1
        },
        {
          "duration": 0.125,
          "durationTicks": 240,
          "midi": 50,
          "name": "D3",
          "ticks": 16320,
          "time": 8.5,
          "velocity": 1
        },
        {
          "duration": 0.125,
          "durationTicks": 240,
          "midi": 67,
          "name": "G4",
          "ticks": 16560,
          "time": 8.625,
          "velocity": 1
        },
        {
          "duration": 0.125,
          "durationTicks": 240,
          "midi": 51,
          "name": "D#3",
          "ticks": 16560,
          "time": 8.625,
          "velocity": 1
        },
        {
          "duration": 1.25,
          "durationTicks": 2400,
          "midi": 72,
          "name": "C5",
          "ticks": 16800,
          "time": 8.75,
          "velocity": 1
        },
        {
          "duration": 1.25,
          "durationTicks": 2400,
          "midi": 48,
          "name": "C3",
          "ticks": 16800,
          "time": 8.75,
          "velocity": 1
        },
        {
          "duration": 0.125,
          "durationTicks": 240,
          "midi": 67,
          "name": "G4",
          "ticks": 17280,
          "time": 9,
          "velocity": 1
        },
        {
          "duration": 0.125,
          "durationTicks": 240,
          "midi": 51,
          "name": "D#3",
          "ticks": 17280,
          "time": 9,
          "velocity": 1
        },
        {
          "duration": 0.125,
          "durationTicks": 240,
          "midi": 65,
          "name": "F4",
          "ticks": 17520,
          "time": 9.125,
          "velocity": 1
        },
        {
          "duration": 0.125,
          "durationTicks": 240,
          "midi": 50,
          "name": "D3",
          "ticks": 17520,
          "time": 9.125,
          "velocity": 1
        },
        {
          "duration": 0.125,
          "durationTicks": 240,
          "midi": 67,
          "name": "G4",
          "ticks": 17760,
          "time": 9.25,
          "velocity": 1
        },
        {
          "duration": 0.125,
          "durationTicks": 240,
          "midi": 51,
          "name": "D#3",
          "ticks": 17760,
          "time": 9.25,
          "velocity": 1
        },
        {
          "duration": 0.375,
          "durationTicks": 720,
          "midi": 63,
          "name": "D#4",
          "ticks": 18000,
          "time": 9.375,
          "velocity": 1
        },
        {
          "duration": 0.375,
          "durationTicks": 720,
          "midi": 55,
          "name": "G3",
          "ticks": 18000,
          "time": 9.375,
          "velocity": 1
        },
        {
          "duration": 0.125,
          "durationTicks": 240,
          "midi": 67,
          "name": "G4",
          "ticks": 18480,
          "time": 9.625,
          "velocity": 1
        },
        {
          "duration": 0.125,
          "durationTicks": 240,
          "midi": 51,
          "name": "D#3",
          "ticks": 18480,
          "time": 9.625,
          "velocity": 1
        },
        {
          "duration": 0.125,
          "durationTicks": 240,
          "midi": 65,
          "name": "F4",
          "ticks": 18720,
          "time": 9.75,
          "velocity": 1
        },
        {
          "duration": 0.125,
          "durationTicks": 240,
          "midi": 50,
          "name": "D3",
          "ticks": 18720,
          "time": 9.75,
          "velocity": 1
        },
        {
          "duration": 0.125,
          "durationTicks": 240,
          "midi": 67,
          "name": "G4",
          "ticks": 18960,
          "time": 9.875,
          "velocity": 1
        },
        {
          "duration": 0.125,
          "durationTicks": 240,
          "midi": 51,
          "name": "D#3",
          "ticks": 18960,
          "time": 9.875,
          "velocity": 1
        },
        {
          "duration": 1.25,
          "durationTicks": 2400,
          "midi": 75,
          "name": "D#5",
          "ticks": 19200,
          "time": 10,
          "velocity": 1
        },
        {
          "duration": 1.25,
          "durationTicks": 2400,
          "midi": 48,
          "name": "C3",
          "ticks": 19200,
          "time": 10,
          "velocity": 1
        },
        {
          "duration": 0.125,
          "durationTicks": 240,
          "midi": 68,
          "name": "G#4",
          "ticks": 19680,
          "time": 10.25,
          "velocity": 1
        },
        {
          "duration": 0.125,
          "durationTicks": 240,
          "midi": 60,
          "name": "C4",
          "ticks": 19680,
          "time": 10.25,
          "velocity": 1
        },
        {
          "duration": 0.125,
          "durationTicks": 240,
          "midi": 67,
          "name": "G4",
          "ticks": 19920,
          "time": 10.375,
          "velocity": 1
        },
        {
          "duration": 0.125,
          "durationTicks": 240,
          "midi": 58,
          "name": "A#3",
          "ticks": 19920,
          "time": 10.375,
          "velocity": 1
        },
        {
          "duration": 0.125,
          "durationTicks": 240,
          "midi": 68,
          "name": "G#4",
          "ticks": 20160,
          "time": 10.5,
          "velocity": 1
        },
        {
          "duration": 0.125,
          "durationTicks": 240,
          "midi": 60,
          "name": "C4",
          "ticks": 20160,
          "time": 10.5,
          "velocity": 1
        },
        {
          "duration": 0.625,
          "durationTicks": 1200,
          "midi": 63,
          "name": "D#4",
          "ticks": 20400,
          "time": 10.625,
          "velocity": 1
        },
        {
          "duration": 0.625,
          "durationTicks": 1200,
          "midi": 56,
          "name": "G#3",
          "ticks": 20400,
          "time": 10.625,
          "velocity": 1
        },
        {
          "duration": 0.125,
          "durationTicks": 240,
          "midi": 68,
          "name": "G#4",
          "ticks": 20640,
          "time": 10.75,
          "velocity": 1
        },
        {
          "duration": 0.125,
          "durationTicks": 240,
          "midi": 60,
          "name": "C4",
          "ticks": 20640,
          "time": 10.75,
          "velocity": 1
        },
        {
          "duration": 0.125,
          "durationTicks": 240,
          "midi": 67,
          "name": "G4",
          "ticks": 21120,
          "time": 11,
          "velocity": 1
        },
        {
          "duration": 0.125,
          "durationTicks": 240,
          "midi": 58,
          "name": "A#3",
          "ticks": 21120,
          "time": 11,
          "velocity": 1
        },
        {
          "duration": 0.125,
          "durationTicks": 240,
          "midi": 68,
          "name": "G#4",
          "ticks": 21360,
          "time": 11.125,
          "velocity": 1
        },
        {
          "duration": 0.125,
          "durationTicks": 240,
          "midi": 60,
          "name": "C4",
          "ticks": 21360,
          "time": 11.125,
          "velocity": 1
        },
        {
          "duration": 1.25,
          "durationTicks": 2400,
          "midi": 75,
          "name": "D#5",
          "ticks": 21600,
          "time": 11.25,
          "velocity": 1
        },
        {
          "duration": 1.25,
          "durationTicks": 2400,
          "midi": 48,
          "name": "C3",
          "ticks": 21600,
          "time": 11.25,
          "velocity": 1
        },
        {
          "duration": 0.125,
          "durationTicks": 240,
          "midi": 68,
          "name": "G#4",
          "ticks": 21840,
          "time": 11.375,
          "velocity": 1
        },
        {
          "duration": 0.125,
          "durationTicks": 240,
          "midi": 60,
          "name": "C4",
          "ticks": 21840,
          "time": 11.375,
          "velocity": 1
        },
        {
          "duration": 0.125,
          "durationTicks": 240,
          "midi": 67,
          "name": "G4",
          "ticks": 22320,
          "time": 11.625,
          "velocity": 1
        },
        {
          "duration": 0.125,
          "durationTicks": 240,
          "midi": 58,
          "name": "A#3",
          "ticks": 22320,
          "time": 11.625,
          "velocity": 1
        },
        {
          "duration": 0.125,
          "durationTicks": 240,
          "midi": 68,
          "name": "G#4",
          "ticks": 22560,
          "time": 11.75,
          "velocity": 1
        },
        {
          "duration": 0.125,
          "durationTicks": 240,
          "midi": 60,
          "name": "C4",
          "ticks": 22560,
          "time": 11.75,
          "velocity": 1
        },
        {
          "duration": 0.625,
          "durationTicks": 1200,
          "midi": 63,
          "name": "D#4",
          "ticks": 22800,
          "time": 11.875,
          "velocity": 1
        },
        {
          "duration": 0.625,
          "durationTicks": 1200,
          "midi": 56,
          "name": "G#3",
          "ticks": 22800,
          "time": 11.875,
          "velocity": 1
        },
        {
          "duration": 0.125,
          "durationTicks": 240,
          "midi": 68,
          "name": "G#4",
          "ticks": 23040,
          "time": 12,
          "velocity": 1
        },
        {
          "duration": 0.125,
          "durationTicks": 240,
          "midi": 60,
          "name": "C4",
          "ticks": 23040,
          "time": 12,
          "velocity": 1
        },
        {
          "duration": 0.125,
          "durationTicks": 240,
          "midi": 67,
          "name": "G4",
          "ticks": 23520,
          "time": 12.25,
          "velocity": 1
        },
        {
          "duration": 0.125,
          "durationTicks": 240,
          "midi": 58,
          "name": "A#3",
          "ticks": 23520,
          "time": 12.25,
          "velocity": 1
        },
        {
          "duration": 0.125,
          "durationTicks": 240,
          "midi": 68,
          "name": "G#4",
          "ticks": 23760,
          "time": 12.375,
          "velocity": 1
        },
        {
          "duration": 0.125,
          "durationTicks": 240,
          "midi": 60,
          "name": "C4",
          "ticks": 23760,
          "time": 12.375,
          "velocity": 1
        },
        {
          "duration": 1.25,
          "durationTicks": 2400,
          "midi": 74,
          "name": "D5",
          "ticks": 24000,
          "time": 12.5,
          "velocity": 1
        },
        {
          "duration": 1.25,
          "durationTicks": 2400,
          "midi": 48,
          "name": "C3",
          "ticks": 24000,
          "time": 12.5,
          "velocity": 1
        },
        {
          "duration": 0.125,
          "durationTicks": 240,
          "midi": 66,
          "name": "F#4",
          "ticks": 24240,
          "time": 12.625,
          "velocity": 1
        },
        {
          "duration": 0.125,
          "durationTicks": 240,
          "midi": 57,
          "name": "A3",
          "ticks": 24240,
          "time": 12.625,
          "velocity": 1
        },
        {
          "duration": 0.125,
          "durationTicks": 240,
          "midi": 64,
          "name": "E4",
          "ticks": 24720,
          "time": 12.875,
          "velocity": 1
        },
        {
          "duration": 0.125,
          "durationTicks": 240,
          "midi": 55,
          "name": "G3",
          "ticks": 24720,
          "time": 12.875,
          "velocity": 1
        },
        {
          "duration": 0.125,
          "durationTicks": 240,
          "midi": 66,
          "name": "F#4",
          "ticks": 24960,
          "time": 13,
          "velocity": 1
        },
        {
          "duration": 0.125,
          "durationTicks": 240,
          "midi": 57,
          "name": "A3",
          "ticks": 24960,
          "time": 13,
          "velocity": 1
        },
        {
          "duration": 0.625,
          "durationTicks": 1200,
          "midi": 62,
          "name": "D4",
          "ticks": 25200,
          "time": 13.125,
          "velocity": 1
        },
        {
          "duration": 0.625,
          "durationTicks": 1200,
          "midi": 54,
          "name": "F#3",
          "ticks": 25200,
          "time": 13.125,
          "velocity": 1
        },
        {
          "duration": 0.125,
          "durationTicks": 240,
          "midi": 66,
          "name": "F#4",
          "ticks": 25440,
          "time": 13.25,
          "velocity": 1
        },
        {
          "duration": 0.125,
          "durationTicks": 240,
          "midi": 57,
          "name": "A3",
          "ticks": 25440,
          "time": 13.25,
          "velocity": 1
        },
        {
          "duration": 0.125,
          "durationTicks": 240,
          "midi": 64,
          "name": "E4",
          "ticks": 25920,
          "time": 13.5,
          "velocity": 1
        },
        {
          "duration": 0.125,
          "durationTicks": 240,
          "midi": 55,
          "name": "G3",
          "ticks": 25920,
          "time": 13.5,
          "velocity": 1
        },
        {
          "duration": 0.125,
          "durationTicks": 240,
          "midi": 66,
          "name": "F#4",
          "ticks": 26160,
          "time": 13.625,
          "velocity": 1
        },
        {
          "duration": 0.125,
          "durationTicks": 240,
          "midi": 57,
          "name": "A3",
          "ticks": 26160,
          "time": 13.625,
          "velocity": 1
        },
        {
          "duration": 1.25,
          "durationTicks": 2400,
          "midi": 74,
          "name": "D5",
          "ticks": 26400,
          "time": 13.75,
          "velocity": 1
        },
        {
          "duration": 1.25,
          "durationTicks": 2400,
          "midi": 48,
          "name": "C3",
          "ticks": 26400,
          "time": 13.75,
          "velocity": 1
        },
        {
          "duration": 0.125,
          "durationTicks": 240,
          "midi": 66,
          "name": "F#4",
          "ticks": 26640,
          "time": 13.875,
          "velocity": 1
        },
        {
          "duration": 0.125,
          "durationTicks": 240,
          "midi": 57,
          "name": "A3",
          "ticks": 26640,
          "time": 13.875,
          "velocity": 1
        },
        {
          "duration": 0.125,
          "durationTicks": 240,
          "midi": 64,
          "name": "E4",
          "ticks": 27120,
          "time": 14.125,
          "velocity": 1
        },
        {
          "duration": 0.125,
          "durationTicks": 240,
          "midi": 55,
          "name": "G3",
          "ticks": 27120,
          "time": 14.125,
          "velocity": 1
        },
        {
          "duration": 0.125,
          "durationTicks": 240,
          "midi": 66,
          "name": "F#4",
          "ticks": 27360,
          "time": 14.25,
          "velocity": 1
        },
        {
          "duration": 0.125,
          "durationTicks": 240,
          "midi": 57,
          "name": "A3",
          "ticks": 27360,
          "time": 14.25,
          "velocity": 1
        },
        {
          "duration": 0.5,
          "durationTicks": 960,
          "midi": 62,
          "name": "D4",
          "ticks": 27600,
          "time": 14.375,
          "velocity": 1
        },
        {
          "duration": 0.5,
          "durationTicks": 960,
          "midi": 54,
          "name": "F#3",
          "ticks": 27600,
          "time": 14.375,
          "velocity": 1
        },
        {
          "duration": 0.125,
          "durationTicks": 240,
          "midi": 66,
          "name": "F#4",
          "ticks": 27840,
          "time": 14.5,
          "velocity": 1
        },
        {
          "duration": 0.125,
          "durationTicks": 240,
          "midi": 57,
          "name": "A3",
          "ticks": 27840,
          "time": 14.5,
          "velocity": 1
        },
        {
          "duration": 0.125,
          "durationTicks": 240,
          "midi": 64,
          "name": "E4",
          "ticks": 28080,
          "time": 14.625,
          "velocity": 1
        },
        {
          "duration": 0.125,
          "durationTicks": 240,
          "midi": 55,
          "name": "G3",
          "ticks": 28080,
          "time": 14.625,
          "velocity": 1
        },
        {
          "duration": 0.125,
          "durationTicks": 240,
          "midi": 66,
          "name": "F#4",
          "ticks": 28560,
          "time": 14.875,
          "velocity": 1
        },
        {
          "duration": 0.125,
          "durationTicks": 240,
          "midi": 57,
          "name": "A3",
          "ticks": 28560,
          "time": 14.875,
          "velocity": 1
        },
        {
          "duration": 1.125,
          "durationTicks": 2160,
          "midi": 74,
          "name": "D5",
          "ticks": 28800,
          "time": 15,
          "velocity": 1
        },
        {
          "duration": 1.125,
          "durationTicks": 2160,
          "midi": 46,
          "name": "A#2",
          "ticks": 28800,
          "time": 15,
          "velocity": 1
        },
        {
          "duration": 0.125,
          "durationTicks": 240,
          "midi": 67,
          "name": "G4",
          "ticks": 29040,
          "time": 15.125,
          "velocity": 1
        },
        {
          "duration": 0.125,
          "durationTicks": 240,
          "midi": 58,
          "name": "A#3",
          "ticks": 29040,
          "time": 15.125,
          "velocity": 1
        },
        {
          "duration": 0.125,
          "durationTicks": 240,
          "midi": 66,
          "name": "F#4",
          "ticks": 29280,
          "time": 15.25,
          "velocity": 1
        },
        {
          "duration": 0.125,
          "durationTicks": 240,
          "midi": 57,
          "name": "A3",
          "ticks": 29280,
          "time": 15.25,
          "velocity": 1
        },
        {
          "duration": 0.125,
          "durationTicks": 240,
          "midi": 67,
          "name": "G4",
          "ticks": 29760,
          "time": 15.5,
          "velocity": 1
        },
        {
          "duration": 0.125,
          "durationTicks": 240,
          "midi": 58,
          "name": "A#3",
          "ticks": 29760,
          "time": 15.5,
          "velocity": 1
        },
        {
          "duration": 0.5,
          "durationTicks": 960,
          "midi": 62,
          "name": "D4",
          "ticks": 30000,
          "time": 15.625,
          "velocity": 1
        },
        {
          "duration": 0.5,
          "durationTicks": 960,
          "midi": 55,
          "name": "G3",
          "ticks": 30000,
          "time": 15.625,
          "velocity": 1
        },
        {
          "duration": 0.125,
          "durationTicks": 240,
          "midi": 67,
          "name": "G4",
          "ticks": 30240,
          "time": 15.75,
          "velocity": 1
        },
        {
          "duration": 0.125,
          "durationTicks": 240,
          "midi": 58,
          "name": "A#3",
          "ticks": 30240,
          "time": 15.75,
          "velocity": 1
        },
        {
          "duration": 0.125,
          "durationTicks": 240,
          "midi": 66,
          "name": "F#4",
          "ticks": 30480,
          "time": 15.875,
          "velocity": 1
        },
        {
          "duration": 0.125,
          "durationTicks": 240,
          "midi": 57,
          "name": "A3",
          "ticks": 30480,
          "time": 15.875,
          "velocity": 1
        },
        {
          "duration": 0.125,
          "durationTicks": 240,
          "midi": 67,
          "name": "G4",
          "ticks": 30960,
          "time": 16.125,
          "velocity": 1
        },
        {
          "duration": 0.125,
          "durationTicks": 240,
          "midi": 58,
          "name": "A#3",
          "ticks": 30960,
          "time": 16.125,
          "velocity": 1
        },
        {
          "duration": 1.125,
          "durationTicks": 2160,
          "midi": 74,
          "name": "D5",
          "ticks": 31200,
          "time": 16.25,
          "velocity": 1
        },
        {
          "duration": 1.125,
          "durationTicks": 2160,
          "midi": 46,
          "name": "A#2",
          "ticks": 31200,
          "time": 16.25,
          "velocity": 1
        },
        {
          "duration": 0.125,
          "durationTicks": 240,
          "midi": 67,
          "name": "G4",
          "ticks": 31440,
          "time": 16.375,
          "velocity": 1
        },
        {
          "duration": 0.125,
          "durationTicks": 240,
          "midi": 58,
          "name": "A#3",
          "ticks": 31440,
          "time": 16.375,
          "velocity": 1
        },
        {
          "duration": 0.125,
          "durationTicks": 240,
          "midi": 66,
          "name": "F#4",
          "ticks": 31680,
          "time": 16.5,
          "velocity": 1
        },
        {
          "duration": 0.125,
          "durationTicks": 240,
          "midi": 57,
          "name": "A3",
          "ticks": 31680,
          "time": 16.5,
          "velocity": 1
        },
        {
          "duration": 0.125,
          "durationTicks": 240,
          "midi": 67,
          "name": "G4",
          "ticks": 32160,
          "time": 16.75,
          "velocity": 1
        },
        {
          "duration": 0.125,
          "durationTicks": 240,
          "midi": 58,
          "name": "A#3",
          "ticks": 32160,
          "time": 16.75,
          "velocity": 1
        },
        {
          "duration": 0.5,
          "durationTicks": 960,
          "midi": 62,
          "name": "D4",
          "ticks": 32400,
          "time": 16.875,
          "velocity": 1
        },
        {
          "duration": 0.5,
          "durationTicks": 960,
          "midi": 55,
          "name": "G3",
          "ticks": 32400,
          "time": 16.875,
          "velocity": 1
        },
        {
          "duration": 0.125,
          "durationTicks": 240,
          "midi": 67,
          "name": "G4",
          "ticks": 32640,
          "time": 17,
          "velocity": 1
        },
        {
          "duration": 0.125,
          "durationTicks": 240,
          "midi": 58,
          "name": "A#3",
          "ticks": 32640,
          "time": 17,
          "velocity": 1
        },
        {
          "duration": 0.125,
          "durationTicks": 240,
          "midi": 66,
          "name": "F#4",
          "ticks": 32880,
          "time": 17.125,
          "velocity": 1
        },
        {
          "duration": 0.125,
          "durationTicks": 240,
          "midi": 57,
          "name": "A3",
          "ticks": 32880,
          "time": 17.125,
          "velocity": 1
        },
        {
          "duration": 0.125,
          "durationTicks": 240,
          "midi": 67,
          "name": "G4",
          "ticks": 33360,
          "time": 17.375,
          "velocity": 1
        },
        {
          "duration": 0.125,
          "durationTicks": 240,
          "midi": 58,
          "name": "A#3",
          "ticks": 33360,
          "time": 17.375,
          "velocity": 1
        },
        {
          "duration": 1.125,
          "durationTicks": 2160,
          "midi": 72,
          "name": "C5",
          "ticks": 33600,
          "time": 17.5,
          "velocity": 1
        },
        {
          "duration": 1.125,
          "durationTicks": 2160,
          "midi": 46,
          "name": "A#2",
          "ticks": 33600,
          "time": 17.5,
          "velocity": 1
        },
        {
          "duration": 0.125,
          "durationTicks": 240,
          "midi": 64,
          "name": "E4",
          "ticks": 33840,
          "time": 17.625,
          "velocity": 1
        },
        {
          "duration": 0.125,
          "durationTicks": 240,
          "midi": 55,
          "name": "G3",
          "ticks": 33840,
          "time": 17.625,
          "velocity": 1
        },
        {
          "duration": 0.125,
          "durationTicks": 240,
          "midi": 62,
          "name": "D4",
          "ticks": 34080,
          "time": 17.75,
          "velocity": 1
        },
        {
          "duration": 0.125,
          "durationTicks": 240,
          "midi": 53,
          "name": "F3",
          "ticks": 34080,
          "time": 17.75,
          "velocity": 1
        },
        {
          "duration": 0.125,
          "durationTicks": 240,
          "midi": 64,
          "name": "E4",
          "ticks": 34560,
          "time": 18,
          "velocity": 1
        },
        {
          "duration": 0.125,
          "durationTicks": 240,
          "midi": 55,
          "name": "G3",
          "ticks": 34560,
          "time": 18,
          "velocity": 1
        },
        {
          "duration": 0.5,
          "durationTicks": 960,
          "midi": 60,
          "name": "C4",
          "ticks": 34800,
          "time": 18.125,
          "velocity": 1
        },
        {
          "duration": 0.5,
          "durationTicks": 960,
          "midi": 52,
          "name": "E3",
          "ticks": 34800,
          "time": 18.125,
          "velocity": 1
        },
        {
          "duration": 0.125,
          "durationTicks": 240,
          "midi": 64,
          "name": "E4",
          "ticks": 35040,
          "time": 18.25,
          "velocity": 1
        },
        {
          "duration": 0.125,
          "durationTicks": 240,
          "midi": 55,
          "name": "G3",
          "ticks": 35040,
          "time": 18.25,
          "velocity": 1
        },
        {
          "duration": 0.125,
          "durationTicks": 240,
          "midi": 62,
          "name": "D4",
          "ticks": 35280,
          "time": 18.375,
          "velocity": 1
        },
        {
          "duration": 0.125,
          "durationTicks": 240,
          "midi": 53,
          "name": "F3",
          "ticks": 35280,
          "time": 18.375,
          "velocity": 1
        },
        {
          "duration": 0.125,
          "durationTicks": 240,
          "midi": 64,
          "name": "E4",
          "ticks": 35520,
          "time": 18.5,
          "velocity": 1
        },
        {
          "duration": 0.125,
          "durationTicks": 240,
          "midi": 55,
          "name": "G3",
          "ticks": 35520,
          "time": 18.5,
          "velocity": 1
        },
        {
          "duration": 1.125,
          "durationTicks": 2160,
          "midi": 72,
          "name": "C5",
          "ticks": 36000,
          "time": 18.75,
          "velocity": 1
        },
        {
          "duration": 1.125,
          "durationTicks": 2160,
          "midi": 46,
          "name": "A#2",
          "ticks": 36000,
          "time": 18.75,
          "velocity": 1
        },
        {
          "duration": 0.125,
          "durationTicks": 240,
          "midi": 64,
          "name": "E4",
          "ticks": 36240,
          "time": 18.875,
          "velocity": 1
        },
        {
          "duration": 0.125,
          "durationTicks": 240,
          "midi": 55,
          "name": "G3",
          "ticks": 36240,
          "time": 18.875,
          "velocity": 1
        },
        {
          "duration": 0.125,
          "durationTicks": 240,
          "midi": 62,
          "name": "D4",
          "ticks": 36480,
          "time": 19,
          "velocity": 1
        },
        {
          "duration": 0.125,
          "durationTicks": 240,
          "midi": 53,
          "name": "F3",
          "ticks": 36480,
          "time": 19,
          "velocity": 1
        },
        {
          "duration": 0.125,
          "durationTicks": 240,
          "midi": 64,
          "name": "E4",
          "ticks": 36720,
          "time": 19.125,
          "velocity": 1
        },
        {
          "duration": 0.125,
          "durationTicks": 240,
          "midi": 55,
          "name": "G3",
          "ticks": 36720,
          "time": 19.125,
          "velocity": 1
        },
        {
          "duration": 0.5,
          "durationTicks": 960,
          "midi": 60,
          "name": "C4",
          "ticks": 37200,
          "time": 19.375,
          "velocity": 1
        },
        {
          "duration": 0.5,
          "durationTicks": 960,
          "midi": 52,
          "name": "E3",
          "ticks": 37200,
          "time": 19.375,
          "velocity": 1
        },
        {
          "duration": 0.125,
          "durationTicks": 240,
          "midi": 64,
          "name": "E4",
          "ticks": 37440,
          "time": 19.5,
          "velocity": 1
        },
        {
          "duration": 0.125,
          "durationTicks": 240,
          "midi": 55,
          "name": "G3",
          "ticks": 37440,
          "time": 19.5,
          "velocity": 1
        },
        {
          "duration": 0.125,
          "durationTicks": 240,
          "midi": 62,
          "name": "D4",
          "ticks": 37680,
          "time": 19.625,
          "velocity": 1
        },
        {
          "duration": 0.125,
          "durationTicks": 240,
          "midi": 53,
          "name": "F3",
          "ticks": 37680,
          "time": 19.625,
          "velocity": 1
        },
        {
          "duration": 0.125,
          "durationTicks": 240,
          "midi": 64,
          "name": "E4",
          "ticks": 37920,
          "time": 19.75,
          "velocity": 1
        },
        {
          "duration": 0.125,
          "durationTicks": 240,
          "midi": 55,
          "name": "G3",
          "ticks": 37920,
          "time": 19.75,
          "velocity": 1
        },
        {
          "duration": 1.125,
          "durationTicks": 2160,
          "midi": 72,
          "name": "C5",
          "ticks": 38400,
          "time": 20,
          "velocity": 1
        },
        {
          "duration": 1.125,
          "durationTicks": 2160,
          "midi": 44,
          "name": "G#2",
          "ticks": 38400,
          "time": 20,
          "velocity": 1
        },
        {
          "duration": 0.125,
          "durationTicks": 240,
          "midi": 65,
          "name": "F4",
          "ticks": 38640,
          "time": 20.125,
          "velocity": 1
        },
        {
          "duration": 0.125,
          "durationTicks": 240,
          "midi": 56,
          "name": "G#3",
          "ticks": 38640,
          "time": 20.125,
          "velocity": 1
        },
        {
          "duration": 0.125,
          "durationTicks": 240,
          "midi": 64,
          "name": "E4",
          "ticks": 38880,
          "time": 20.25,
          "velocity": 1
        },
        {
          "duration": 0.125,
          "durationTicks": 240,
          "midi": 55,
          "name": "G3",
          "ticks": 38880,
          "time": 20.25,
          "velocity": 1
        },
        {
          "duration": 0.125,
          "durationTicks": 240,
          "midi": 65,
          "name": "F4",
          "ticks": 39120,
          "time": 20.375,
          "velocity": 1
        },
        {
          "duration": 0.125,
          "durationTicks": 240,
          "midi": 56,
          "name": "G#3",
          "ticks": 39120,
          "time": 20.375,
          "velocity": 1
        },
        {
          "duration": 0.5,
          "durationTicks": 960,
          "midi": 60,
          "name": "C4",
          "ticks": 39600,
          "time": 20.625,
          "velocity": 1
        },
        {
          "duration": 0.5,
          "durationTicks": 960,
          "midi": 53,
          "name": "F3",
          "ticks": 39600,
          "time": 20.625,
          "velocity": 1
        },
        {
          "duration": 0.125,
          "durationTicks": 240,
          "midi": 65,
          "name": "F4",
          "ticks": 39840,
          "time": 20.75,
          "velocity": 1
        },
        {
          "duration": 0.125,
          "durationTicks": 240,
          "midi": 56,
          "name": "G#3",
          "ticks": 39840,
          "time": 20.75,
          "velocity": 1
        },
        {
          "duration": 0.125,
          "durationTicks": 240,
          "midi": 64,
          "name": "E4",
          "ticks": 40080,
          "time": 20.875,
          "velocity": 1
        },
        {
          "duration": 0.125,
          "durationTicks": 240,
          "midi": 55,
          "name": "G3",
          "ticks": 40080,
          "time": 20.875,
          "velocity": 1
        },
        {
          "duration": 0.125,
          "durationTicks": 240,
          "midi": 65,
          "name": "F4",
          "ticks": 40320,
          "time": 21,
          "velocity": 1
        },
        {
          "duration": 0.125,
          "durationTicks": 240,
          "midi": 56,
          "name": "G#3",
          "ticks": 40320,
          "time": 21,
          "velocity": 1
        },
        {
          "duration": 1.125,
          "durationTicks": 2160,
          "midi": 72,
          "name": "C5",
          "ticks": 40800,
          "time": 21.25,
          "velocity": 1
        },
        {
          "duration": 1.125,
          "durationTicks": 2160,
          "midi": 44,
          "name": "G#2",
          "ticks": 40800,
          "time": 21.25,
          "velocity": 1
        },
        {
          "duration": 0.125,
          "durationTicks": 240,
          "midi": 65,
          "name": "F4",
          "ticks": 41040,
          "time": 21.375,
          "velocity": 1
        },
        {
          "duration": 0.125,
          "durationTicks": 240,
          "midi": 56,
          "name": "G#3",
          "ticks": 41040,
          "time": 21.375,
          "velocity": 1
        },
        {
          "duration": 0.125,
          "durationTicks": 240,
          "midi": 64,
          "name": "E4",
          "ticks": 41280,
          "time": 21.5,
          "velocity": 1
        },
        {
          "duration": 0.125,
          "durationTicks": 240,
          "midi": 55,
          "name": "G3",
          "ticks": 41280,
          "time": 21.5,
          "velocity": 1
        },
        {
          "duration": 0.125,
          "durationTicks": 240,
          "midi": 65,
          "name": "F4",
          "ticks": 41520,
          "time": 21.625,
          "velocity": 1
        },
        {
          "duration": 0.125,
          "durationTicks": 240,
          "midi": 56,
          "name": "G#3",
          "ticks": 41520,
          "time": 21.625,
          "velocity": 1
        },
        {
          "duration": 0.5,
          "durationTicks": 960,
          "midi": 60,
          "name": "C4",
          "ticks": 42000,
          "time": 21.875,
          "velocity": 1
        },
        {
          "duration": 0.5,
          "durationTicks": 960,
          "midi": 53,
          "name": "F3",
          "ticks": 42000,
          "time": 21.875,
          "velocity": 1
        },
        {
          "duration": 0.125,
          "durationTicks": 240,
          "midi": 65,
          "name": "F4",
          "ticks": 42240,
          "time": 22,
          "velocity": 1
        },
        {
          "duration": 0.125,
          "durationTicks": 240,
          "midi": 56,
          "name": "G#3",
          "ticks": 42240,
          "time": 22,
          "velocity": 1
        },
        {
          "duration": 0.125,
          "durationTicks": 240,
          "midi": 64,
          "name": "E4",
          "ticks": 42480,
          "time": 22.125,
          "velocity": 1
        },
        {
          "duration": 0.125,
          "durationTicks": 240,
          "midi": 55,
          "name": "G3",
          "ticks": 42480,
          "time": 22.125,
          "velocity": 1
        },
        {
          "duration": 0.125,
          "durationTicks": 240,
          "midi": 65,
          "name": "F4",
          "ticks": 42720,
          "time": 22.25,
          "velocity": 1
        },
        {
          "duration": 0.125,
          "durationTicks": 240,
          "midi": 56,
          "name": "G#3",
          "ticks": 42720,
          "time": 22.25,
          "velocity": 1
        },
        {
          "duration": 1.25,
          "durationTicks": 2400,
          "midi": 70,
          "name": "A#4",
          "ticks": 42960,
          "time": 22.375,
          "velocity": 1
        },
        {
          "duration": 1.25,
          "durationTicks": 2400,
          "midi": 44,
          "name": "G#2",
          "ticks": 42960,
          "time": 22.375,
          "velocity": 1
        },
        {
          "duration": 0.125,
          "durationTicks": 240,
          "midi": 65,
          "name": "F4",
          "ticks": 43440,
          "time": 22.625,
          "velocity": 1
        },
        {
          "duration": 0.125,
          "durationTicks": 240,
          "midi": 50,
          "name": "D3",
          "ticks": 43440,
          "time": 22.625,
          "velocity": 1
        },
        {
          "duration": 0.125,
          "durationTicks": 240,
          "midi": 63,
          "name": "D#4",
          "ticks": 43680,
          "time": 22.75,
          "velocity": 1
        },
        {
          "duration": 0.125,
          "durationTicks": 240,
          "midi": 48,
          "name": "C3",
          "ticks": 43680,
          "time": 22.75,
          "velocity": 1
        },
        {
          "duration": 0.125,
          "durationTicks": 240,
          "midi": 65,
          "name": "F4",
          "ticks": 43920,
          "time": 22.875,
          "velocity": 1
        },
        {
          "duration": 0.125,
          "durationTicks": 240,
          "midi": 50,
          "name": "D3",
          "ticks": 43920,
          "time": 22.875,
          "velocity": 1
        },
        {
          "duration": 0.625,
          "durationTicks": 1200,
          "midi": 62,
          "name": "D4",
          "ticks": 44160,
          "time": 23,
          "velocity": 1
        },
        {
          "duration": 0.625,
          "durationTicks": 1200,
          "midi": 53,
          "name": "F3",
          "ticks": 44160,
          "time": 23,
          "velocity": 1
        },
        {
          "duration": 0.125,
          "durationTicks": 240,
          "midi": 65,
          "name": "F4",
          "ticks": 44640,
          "time": 23.25,
          "velocity": 1
        },
        {
          "duration": 0.125,
          "durationTicks": 240,
          "midi": 50,
          "name": "D3",
          "ticks": 44640,
          "time": 23.25,
          "velocity": 1
        },
        {
          "duration": 0.125,
          "durationTicks": 240,
          "midi": 63,
          "name": "D#4",
          "ticks": 44880,
          "time": 23.375,
          "velocity": 1
        },
        {
          "duration": 0.125,
          "durationTicks": 240,
          "midi": 48,
          "name": "C3",
          "ticks": 44880,
          "time": 23.375,
          "velocity": 1
        },
        {
          "duration": 0.125,
          "durationTicks": 240,
          "midi": 65,
          "name": "F4",
          "ticks": 45120,
          "time": 23.5,
          "velocity": 1
        },
        {
          "duration": 0.125,
          "durationTicks": 240,
          "midi": 50,
          "name": "D3",
          "ticks": 45120,
          "time": 23.5,
          "velocity": 1
        },
        {
          "duration": 1.25,
          "durationTicks": 2400,
          "midi": 70,
          "name": "A#4",
          "ticks": 45360,
          "time": 23.625,
          "velocity": 1
        },
        {
          "duration": 1.25,
          "durationTicks": 2400,
          "midi": 44,
          "name": "G#2",
          "ticks": 45360,
          "time": 23.625,
          "velocity": 1
        },
        {
          "duration": 0.125,
          "durationTicks": 240,
          "midi": 65,
          "name": "F4",
          "ticks": 45840,
          "time": 23.875,
          "velocity": 1
        },
        {
          "duration": 0.125,
          "durationTicks": 240,
          "midi": 50,
          "name": "D3",
          "ticks": 45840,
          "time": 23.875,
          "velocity": 1
        },
        {
          "duration": 0.125,
          "durationTicks": 240,
          "midi": 63,
          "name": "D#4",
          "ticks": 46080,
          "time": 24,
          "velocity": 1
        },
        {
          "duration": 0.125,
          "durationTicks": 240,
          "midi": 48,
          "name": "C3",
          "ticks": 46080,
          "time": 24,
          "velocity": 1
        },
        {
          "duration": 0.125,
          "durationTicks": 240,
          "midi": 65,
          "name": "F4",
          "ticks": 46320,
          "time": 24.125,
          "velocity": 1
        },
        {
          "duration": 0.125,
          "durationTicks": 240,
          "midi": 50,
          "name": "D3",
          "ticks": 46320,
          "time": 24.125,
          "velocity": 1
        },
        {
          "duration": 0.625,
          "durationTicks": 1200,
          "midi": 62,
          "name": "D4",
          "ticks": 46560,
          "time": 24.25,
          "velocity": 1
        },
        {
          "duration": 0.625,
          "durationTicks": 1200,
          "midi": 53,
          "name": "F3",
          "ticks": 46560,
          "time": 24.25,
          "velocity": 1
        },
        {
          "duration": 0.125,
          "durationTicks": 240,
          "midi": 65,
          "name": "F4",
          "ticks": 47040,
          "time": 24.5,
          "velocity": 1
        },
        {
          "duration": 0.125,
          "durationTicks": 240,
          "midi": 50,
          "name": "D3",
          "ticks": 47040,
          "time": 24.5,
          "velocity": 1
        },
        {
          "duration": 0.125,
          "durationTicks": 240,
          "midi": 63,
          "name": "D#4",
          "ticks": 47280,
          "time": 24.625,
          "velocity": 1
        },
        {
          "duration": 0.125,
          "durationTicks": 240,
          "midi": 48,
          "name": "C3",
          "ticks": 47280,
          "time": 24.625,
          "velocity": 1
        },
        {
          "duration": 0.125,
          "durationTicks": 240,
          "midi": 65,
          "name": "F4",
          "ticks": 47520,
          "time": 24.75,
          "velocity": 1
        },
        {
          "duration": 0.125,
          "durationTicks": 240,
          "midi": 50,
          "name": "D3",
          "ticks": 47520,
          "time": 24.75,
          "velocity": 1
        },
        {
          "duration": 1.25,
          "durationTicks": 2400,
          "midi": 70,
          "name": "A#4",
          "ticks": 47760,
          "time": 24.875,
          "velocity": 1
        },
        {
          "duration": 1.25,
          "durationTicks": 2400,
          "midi": 43,
          "name": "G2",
          "ticks": 47760,
          "time": 24.875,
          "velocity": 1
        },
        {
          "duration": 0.125,
          "durationTicks": 240,
          "midi": 67,
          "name": "G4",
          "ticks": 48240,
          "time": 25.125,
          "velocity": 1
        },
        {
          "duration": 0.125,
          "durationTicks": 240,
          "midi": 51,
          "name": "D#3",
          "ticks": 48240,
          "time": 25.125,
          "velocity": 1
        },
        {
          "duration": 0.125,
          "durationTicks": 240,
          "midi": 65,
          "name": "F4",
          "ticks": 48480,
          "time": 25.25,
          "velocity": 1
        },
        {
          "duration": 0.125,
          "durationTicks": 240,
          "midi": 50,
          "name": "D3",
          "ticks": 48480,
          "time": 25.25,
          "velocity": 1
        },
        {
          "duration": 0.125,
          "durationTicks": 240,
          "midi": 67,
          "name": "G4",
          "ticks": 48720,
          "time": 25.375,
          "velocity": 1
        },
        {
          "duration": 0.125,
          "durationTicks": 240,
          "midi": 51,
          "name": "D#3",
          "ticks": 48720,
          "time": 25.375,
          "velocity": 1
        },
        {
          "duration": 0.625,
          "durationTicks": 1200,
          "midi": 63,
          "name": "D#4",
          "ticks": 48960,
          "time": 25.5,
          "velocity": 1
        },
        {
          "duration": 0.625,
          "durationTicks": 1200,
          "midi": 55,
          "name": "G3",
          "ticks": 48960,
          "time": 25.5,
          "velocity": 1
        },
        {
          "duration": 0.125,
          "durationTicks": 240,
          "midi": 67,
          "name": "G4",
          "ticks": 49440,
          "time": 25.75,
          "velocity": 1
        },
        {
          "duration": 0.125,
          "durationTicks": 240,
          "midi": 51,
          "name": "D#3",
          "ticks": 49440,
          "time": 25.75,
          "velocity": 1
        },
        {
          "duration": 0.125,
          "durationTicks": 240,
          "midi": 65,
          "name": "F4",
          "ticks": 49680,
          "time": 25.875,
          "velocity": 1
        },
        {
          "duration": 0.125,
          "durationTicks": 240,
          "midi": 50,
          "name": "D3",
          "ticks": 49680,
          "time": 25.875,
          "velocity": 1
        },
        {
          "duration": 0.125,
          "durationTicks": 240,
          "midi": 67,
          "name": "G4",
          "ticks": 49920,
          "time": 26,
          "velocity": 1
        },
        {
          "duration": 0.125,
          "durationTicks": 240,
          "midi": 51,
          "name": "D#3",
          "ticks": 49920,
          "time": 26,
          "velocity": 1
        },
        {
          "duration": 1.25,
          "durationTicks": 2400,
          "midi": 70,
          "name": "A#4",
          "ticks": 50160,
          "time": 26.125,
          "velocity": 1
        },
        {
          "duration": 1.25,
          "durationTicks": 2400,
          "midi": 43,
          "name": "G2",
          "ticks": 50160,
          "time": 26.125,
          "velocity": 1
        },
        {
          "duration": 0.125,
          "durationTicks": 240,
          "midi": 67,
          "name": "G4",
          "ticks": 50400,
          "time": 26.25,
          "velocity": 1
        },
        {
          "duration": 0.125,
          "durationTicks": 240,
          "midi": 51,
          "name": "D#3",
          "ticks": 50400,
          "time": 26.25,
          "velocity": 1
        },
        {
          "duration": 0.125,
          "durationTicks": 240,
          "midi": 65,
          "name": "F4",
          "ticks": 50880,
          "time": 26.5,
          "velocity": 1
        },
        {
          "duration": 0.125,
          "durationTicks": 240,
          "midi": 50,
          "name": "D3",
          "ticks": 50880,
          "time": 26.5,
          "velocity": 1
        },
        {
          "duration": 0.125,
          "durationTicks": 240,
          "midi": 67,
          "name": "G4",
          "ticks": 51120,
          "time": 26.625,
          "velocity": 1
        },
        {
          "duration": 0.125,
          "durationTicks": 240,
          "midi": 51,
          "name": "D#3",
          "ticks": 51120,
          "time": 26.625,
          "velocity": 1
        },
        {
          "duration": 0.625,
          "durationTicks": 1200,
          "midi": 63,
          "name": "D#4",
          "ticks": 51360,
          "time": 26.75,
          "velocity": 1
        },
        {
          "duration": 0.625,
          "durationTicks": 1200,
          "midi": 55,
          "name": "G3",
          "ticks": 51360,
          "time": 26.75,
          "velocity": 1
        },
        {
          "duration": 0.125,
          "durationTicks": 240,
          "midi": 67,
          "name": "G4",
          "ticks": 51600,
          "time": 26.875,
          "velocity": 1
        },
        {
          "duration": 0.125,
          "durationTicks": 240,
          "midi": 51,
          "name": "D#3",
          "ticks": 51600,
          "time": 26.875,
          "velocity": 1
        },
        {
          "duration": 0.125,
          "durationTicks": 240,
          "midi": 65,
          "name": "F4",
          "ticks": 52080,
          "time": 27.125,
          "velocity": 1
        },
        {
          "duration": 0.125,
          "durationTicks": 240,
          "midi": 50,
          "name": "D3",
          "ticks": 52080,
          "time": 27.125,
          "velocity": 1
        },
        {
          "duration": 0.125,
          "durationTicks": 240,
          "midi": 67,
          "name": "G4",
          "ticks": 52320,
          "time": 27.25,
          "velocity": 1
        },
        {
          "duration": 0.125,
          "durationTicks": 240,
          "midi": 51,
          "name": "D#3",
          "ticks": 52320,
          "time": 27.25,
          "velocity": 1
        },
        {
          "duration": 1.25,
          "durationTicks": 2400,
          "midi": 68,
          "name": "G#4",
          "ticks": 52560,
          "time": 27.375,
          "velocity": 1
        },
        {
          "duration": 1.25,
          "durationTicks": 2400,
          "midi": 48,
          "name": "C3",
          "ticks": 52560,
          "time": 27.375,
          "velocity": 1
        },
        {
          "duration": 0.125,
          "durationTicks": 240,
          "midi": 67,
          "name": "G4",
          "ticks": 52800,
          "time": 27.5,
          "velocity": 1
        },
        {
          "duration": 0.125,
          "durationTicks": 240,
          "midi": 51,
          "name": "D#3",
          "ticks": 52800,
          "time": 27.5,
          "velocity": 1
        },
        {
          "duration": 0.125,
          "durationTicks": 240,
          "midi": 65,
          "name": "F4",
          "ticks": 53280,
          "time": 27.75,
          "velocity": 1
        },
        {
          "duration": 0.125,
          "durationTicks": 240,
          "midi": 50,
          "name": "D3",
          "ticks": 53280,
          "time": 27.75,
          "velocity": 1
        },
        {
          "duration": 0.125,
          "durationTicks": 240,
          "midi": 67,
          "name": "G4",
          "ticks": 53520,
          "time": 27.875,
          "velocity": 1
        },
        {
          "duration": 0.125,
          "durationTicks": 240,
          "midi": 51,
          "name": "D#3",
          "ticks": 53520,
          "time": 27.875,
          "velocity": 1
        },
        {
          "duration": 0.125,
          "durationTicks": 240,
          "midi": 63,
          "name": "D#4",
          "ticks": 53760,
          "time": 28,
          "velocity": 1
        },
        {
          "duration": 0.5,
          "durationTicks": 960,
          "midi": 56,
          "name": "G#3",
          "ticks": 53760,
          "time": 28,
          "velocity": 1
        },
        {
          "duration": 0.125,
          "durationTicks": 240,
          "midi": 67,
          "name": "G4",
          "ticks": 54000,
          "time": 28.125,
          "velocity": 1
        },
        {
          "duration": 0.125,
          "durationTicks": 240,
          "midi": 51,
          "name": "D#3",
          "ticks": 54000,
          "time": 28.125,
          "velocity": 1
        },
        {
          "duration": 0.125,
          "durationTicks": 240,
          "midi": 65,
          "name": "F4",
          "ticks": 54480,
          "time": 28.375,
          "velocity": 1
        },
        {
          "duration": 0.125,
          "durationTicks": 240,
          "midi": 50,
          "name": "D3",
          "ticks": 54480,
          "time": 28.375,
          "velocity": 1
        },
        {
          "duration": 0.125,
          "durationTicks": 240,
          "midi": 67,
          "name": "G4",
          "ticks": 54720,
          "time": 28.5,
          "velocity": 1
        },
        {
          "duration": 0.125,
          "durationTicks": 240,
          "midi": 51,
          "name": "D#3",
          "ticks": 54720,
          "time": 28.5,
          "velocity": 1
        },
        {
          "duration": 1.25,
          "durationTicks": 2400,
          "midi": 68,
          "name": "G#4",
          "ticks": 54960,
          "time": 28.625,
          "velocity": 1
        },
        {
          "duration": 1.25,
          "durationTicks": 2400,
          "midi": 48,
          "name": "C3",
          "ticks": 54960,
          "time": 28.625,
          "velocity": 1
        },
        {
          "duration": 0.125,
          "durationTicks": 240,
          "midi": 67,
          "name": "G4",
          "ticks": 55200,
          "time": 28.75,
          "velocity": 1
        },
        {
          "duration": 0.125,
          "durationTicks": 240,
          "midi": 51,
          "name": "D#3",
          "ticks": 55200,
          "time": 28.75,
          "velocity": 1
        },
        {
          "duration": 0.125,
          "durationTicks": 240,
          "midi": 65,
          "name": "F4",
          "ticks": 55680,
          "time": 29,
          "velocity": 1
        },
        {
          "duration": 0.125,
          "durationTicks": 240,
          "midi": 50,
          "name": "D3",
          "ticks": 55680,
          "time": 29,
          "velocity": 1
        },
        {
          "duration": 0.125,
          "durationTicks": 240,
          "midi": 67,
          "name": "G4",
          "ticks": 55920,
          "time": 29.125,
          "velocity": 1
        },
        {
          "duration": 0.125,
          "durationTicks": 240,
          "midi": 51,
          "name": "D#3",
          "ticks": 55920,
          "time": 29.125,
          "velocity": 1
        },
        {
          "duration": 0.5,
          "durationTicks": 960,
          "midi": 63,
          "name": "D#4",
          "ticks": 56160,
          "time": 29.25,
          "velocity": 1
        },
        {
          "duration": 0.5,
          "durationTicks": 960,
          "midi": 56,
          "name": "G#3",
          "ticks": 56160,
          "time": 29.25,
          "velocity": 1
        },
        {
          "duration": 0.125,
          "durationTicks": 240,
          "midi": 67,
          "name": "G4",
          "ticks": 56400,
          "time": 29.375,
          "velocity": 1
        },
        {
          "duration": 0.125,
          "durationTicks": 240,
          "midi": 51,
          "name": "D#3",
          "ticks": 56400,
          "time": 29.375,
          "velocity": 1
        },
        {
          "duration": 0.125,
          "durationTicks": 240,
          "midi": 65,
          "name": "F4",
          "ticks": 56880,
          "time": 29.625,
          "velocity": 1
        },
        {
          "duration": 0.125,
          "durationTicks": 240,
          "midi": 50,
          "name": "D3",
          "ticks": 56880,
          "time": 29.625,
          "velocity": 1
        },
        {
          "duration": 0.125,
          "durationTicks": 240,
          "midi": 67,
          "name": "G4",
          "ticks": 57120,
          "time": 29.75,
          "velocity": 1
        },
        {
          "duration": 0.125,
          "durationTicks": 240,
          "midi": 51,
          "name": "D#3",
          "ticks": 57120,
          "time": 29.75,
          "velocity": 1
        },
        {
          "duration": 1.125,
          "durationTicks": 2160,
          "midi": 68,
          "name": "G#4",
          "ticks": 57360,
          "time": 29.875,
          "velocity": 1
        },
        {
          "duration": 1.125,
          "durationTicks": 2160,
          "midi": 50,
          "name": "D3",
          "ticks": 57360,
          "time": 29.875,
          "velocity": 1
        },
        {
          "duration": 0.125,
          "durationTicks": 240,
          "midi": 62,
          "name": "D4",
          "ticks": 57600,
          "time": 30,
          "velocity": 1
        },
        {
          "duration": 0.125,
          "durationTicks": 240,
          "midi": 53,
          "name": "F3",
          "ticks": 57600,
          "time": 30,
          "velocity": 1
        },
        {
          "duration": 0.125,
          "durationTicks": 240,
          "midi": 60,
          "name": "C4",
          "ticks": 57840,
          "time": 30.125,
          "velocity": 1
        },
        {
          "duration": 0.125,
          "durationTicks": 240,
          "midi": 51,
          "name": "D#3",
          "ticks": 57840,
          "time": 30.125,
          "velocity": 1
        },
        {
          "duration": 0.125,
          "durationTicks": 240,
          "midi": 62,
          "name": "D4",
          "ticks": 58320,
          "time": 30.375,
          "velocity": 1
        },
        {
          "duration": 0.125,
          "durationTicks": 240,
          "midi": 53,
          "name": "F3",
          "ticks": 58320,
          "time": 30.375,
          "velocity": 1
        },
        {
          "duration": 0.375,
          "durationTicks": 720,
          "midi": 58,
          "name": "A#3",
          "ticks": 58560,
          "time": 30.5,
          "velocity": 1
        },
        {
          "duration": 0.375,
          "durationTicks": 720,
          "midi": 56,
          "name": "G#3",
          "ticks": 58560,
          "time": 30.5,
          "velocity": 1
        },
        {
          "duration": 0.125,
          "durationTicks": 240,
          "midi": 62,
          "name": "D4",
          "ticks": 58800,
          "time": 30.625,
          "velocity": 1
        },
        {
          "duration": 0.125,
          "durationTicks": 240,
          "midi": 53,
          "name": "F3",
          "ticks": 58800,
          "time": 30.625,
          "velocity": 1
        },
        {
          "duration": 0.125,
          "durationTicks": 240,
          "midi": 60,
          "name": "C4",
          "ticks": 59040,
          "time": 30.75,
          "velocity": 1
        },
        {
          "duration": 0.125,
          "durationTicks": 240,
          "midi": 51,
          "name": "D#3",
          "ticks": 59040,
          "time": 30.75,
          "velocity": 1
        },
        {
          "duration": 0.125,
          "durationTicks": 240,
          "midi": 62,
          "name": "D4",
          "ticks": 59520,
          "time": 31,
          "velocity": 1
        },
        {
          "duration": 0.125,
          "durationTicks": 240,
          "midi": 53,
          "name": "F3",
          "ticks": 59520,
          "time": 31,
          "velocity": 1
        },
        {
          "duration": 1.125,
          "durationTicks": 2160,
          "midi": 68,
          "name": "G#4",
          "ticks": 59760,
          "time": 31.125,
          "velocity": 1
        },
        {
          "duration": 1.125,
          "durationTicks": 2160,
          "midi": 50,
          "name": "D3",
          "ticks": 59760,
          "time": 31.125,
          "velocity": 1
        },
        {
          "duration": 0.125,
          "durationTicks": 240,
          "midi": 62,
          "name": "D4",
          "ticks": 60000,
          "time": 31.25,
          "velocity": 1
        },
        {
          "duration": 0.125,
          "durationTicks": 240,
          "midi": 53,
          "name": "F3",
          "ticks": 60000,
          "time": 31.25,
          "velocity": 1
        },
        {
          "duration": 0.125,
          "durationTicks": 240,
          "midi": 60,
          "name": "C4",
          "ticks": 60240,
          "time": 31.375,
          "velocity": 1
        },
        {
          "duration": 0.125,
          "durationTicks": 240,
          "midi": 51,
          "name": "D#3",
          "ticks": 60240,
          "time": 31.375,
          "velocity": 1
        },
        {
          "duration": 0.125,
          "durationTicks": 240,
          "midi": 62,
          "name": "D4",
          "ticks": 60720,
          "time": 31.625,
          "velocity": 1
        },
        {
          "duration": 0.125,
          "durationTicks": 240,
          "midi": 53,
          "name": "F3",
          "ticks": 60720,
          "time": 31.625,
          "velocity": 1
        },
        {
          "duration": 0.375,
          "durationTicks": 720,
          "midi": 58,
          "name": "A#3",
          "ticks": 60960,
          "time": 31.75,
          "velocity": 1
        },
        {
          "duration": 0.375,
          "durationTicks": 720,
          "midi": 56,
          "name": "G#3",
          "ticks": 60960,
          "time": 31.75,
          "velocity": 1
        },
        {
          "duration": 0.125,
          "durationTicks": 240,
          "midi": 62,
          "name": "D4",
          "ticks": 61200,
          "time": 31.875,
          "velocity": 1
        },
        {
          "duration": 0.125,
          "durationTicks": 240,
          "midi": 53,
          "name": "F3",
          "ticks": 61200,
          "time": 31.875,
          "velocity": 1
        },
        {
          "duration": 0.125,
          "durationTicks": 240,
          "midi": 60,
          "name": "C4",
          "ticks": 61440,
          "time": 32,
          "velocity": 1
        },
        {
          "duration": 0.125,
          "durationTicks": 240,
          "midi": 51,
          "name": "D#3",
          "ticks": 61440,
          "time": 32,
          "velocity": 1
        },
        {
          "duration": 0.125,
          "durationTicks": 240,
          "midi": 62,
          "name": "D4",
          "ticks": 61920,
          "time": 32.25,
          "velocity": 1
        },
        {
          "duration": 0.125,
          "durationTicks": 240,
          "midi": 53,
          "name": "F3",
          "ticks": 61920,
          "time": 32.25,
          "velocity": 1
        },
        {
          "duration": 0.5,
          "durationTicks": 960,
          "midi": 67,
          "name": "G4",
          "ticks": 62160,
          "time": 32.375,
          "velocity": 1
        },
        {
          "duration": 1.125,
          "durationTicks": 2160,
          "midi": 51,
          "name": "D#3",
          "ticks": 62160,
          "time": 32.375,
          "velocity": 1
        },
        {
          "duration": 0.125,
          "durationTicks": 240,
          "midi": 58,
          "name": "A#3",
          "ticks": 62400,
          "time": 32.5,
          "velocity": 1
        },
        {
          "duration": 0.125,
          "durationTicks": 240,
          "midi": 55,
          "name": "G3",
          "ticks": 62400,
          "time": 32.5,
          "velocity": 1
        },
        {
          "duration": 0.125,
          "durationTicks": 240,
          "midi": 56,
          "name": "G#3",
          "ticks": 62640,
          "time": 32.625,
          "velocity": 1
        },
        {
          "duration": 0.125,
          "durationTicks": 240,
          "midi": 53,
          "name": "F3",
          "ticks": 62640,
          "time": 32.625,
          "velocity": 1
        },
        {
          "duration": 0.125,
          "durationTicks": 240,
          "midi": 58,
          "name": "A#3",
          "ticks": 63120,
          "time": 32.875,
          "velocity": 1
        },
        {
          "duration": 0.125,
          "durationTicks": 240,
          "midi": 55,
          "name": "G3",
          "ticks": 63120,
          "time": 32.875,
          "velocity": 1
        },
        {
          "duration": 0.5,
          "durationTicks": 960,
          "midi": 63,
          "name": "D#4",
          "ticks": 63360,
          "time": 33,
          "velocity": 1
        },
        {
          "duration": 0.125,
          "durationTicks": 240,
          "midi": 56,
          "name": "G#3",
          "ticks": 63360,
          "time": 33,
          "velocity": 1
        },
        {
          "duration": 0.125,
          "durationTicks": 240,
          "midi": 58,
          "name": "A#3",
          "ticks": 63600,
          "time": 33.125,
          "velocity": 1
        },
        {
          "duration": 0.125,
          "durationTicks": 240,
          "midi": 55,
          "name": "G3",
          "ticks": 63600,
          "time": 33.125,
          "velocity": 1
        },
        {
          "duration": 0.125,
          "durationTicks": 240,
          "midi": 56,
          "name": "G#3",
          "ticks": 63840,
          "time": 33.25,
          "velocity": 1
        },
        {
          "duration": 0.125,
          "durationTicks": 240,
          "midi": 53,
          "name": "F3",
          "ticks": 63840,
          "time": 33.25,
          "velocity": 1
        },
        {
          "duration": 0.125,
          "durationTicks": 240,
          "midi": 58,
          "name": "A#3",
          "ticks": 64320,
          "time": 33.5,
          "velocity": 1
        },
        {
          "duration": 0.125,
          "durationTicks": 240,
          "midi": 55,
          "name": "G3",
          "ticks": 64320,
          "time": 33.5,
          "velocity": 1
        },
        {
          "duration": 0.5,
          "durationTicks": 960,
          "midi": 67,
          "name": "G4",
          "ticks": 64560,
          "time": 33.625,
          "velocity": 1
        },
        {
          "duration": 1.125,
          "durationTicks": 2160,
          "midi": 51,
          "name": "D#3",
          "ticks": 64560,
          "time": 33.625,
          "velocity": 1
        },
        {
          "duration": 0.125,
          "durationTicks": 240,
          "midi": 58,
          "name": "A#3",
          "ticks": 64800,
          "time": 33.75,
          "velocity": 1
        },
        {
          "duration": 0.125,
          "durationTicks": 240,
          "midi": 55,
          "name": "G3",
          "ticks": 64800,
          "time": 33.75,
          "velocity": 1
        },
        {
          "duration": 0.125,
          "durationTicks": 240,
          "midi": 56,
          "name": "G#3",
          "ticks": 65040,
          "time": 33.875,
          "velocity": 1
        },
        {
          "duration": 0.125,
          "durationTicks": 240,
          "midi": 53,
          "name": "F3",
          "ticks": 65040,
          "time": 33.875,
          "velocity": 1
        },
        {
          "duration": 0.125,
          "durationTicks": 240,
          "midi": 58,
          "name": "A#3",
          "ticks": 65280,
          "time": 34,
          "velocity": 1
        },
        {
          "duration": 0.125,
          "durationTicks": 240,
          "midi": 55,
          "name": "G3",
          "ticks": 65280,
          "time": 34,
          "velocity": 1
        },
        {
          "duration": 0.5,
          "durationTicks": 960,
          "midi": 63,
          "name": "D#4",
          "ticks": 65760,
          "time": 34.25,
          "velocity": 1
        },
        {
          "duration": 0.125,
          "durationTicks": 240,
          "midi": 56,
          "name": "G#3",
          "ticks": 65760,
          "time": 34.25,
          "velocity": 1
        },
        {
          "duration": 0.125,
          "durationTicks": 240,
          "midi": 58,
          "name": "A#3",
          "ticks": 66000,
          "time": 34.375,
          "velocity": 1
        },
        {
          "duration": 0.125,
          "durationTicks": 240,
          "midi": 55,
          "name": "G3",
          "ticks": 66000,
          "time": 34.375,
          "velocity": 1
        },
        {
          "duration": 0.125,
          "durationTicks": 240,
          "midi": 56,
          "name": "G#3",
          "ticks": 66240,
          "time": 34.5,
          "velocity": 1
        },
        {
          "duration": 0.125,
          "durationTicks": 240,
          "midi": 53,
          "name": "F3",
          "ticks": 66240,
          "time": 34.5,
          "velocity": 1
        },
        {
          "duration": 0.125,
          "durationTicks": 240,
          "midi": 58,
          "name": "A#3",
          "ticks": 66480,
          "time": 34.625,
          "velocity": 1
        },
        {
          "duration": 0.125,
          "durationTicks": 240,
          "midi": 55,
          "name": "G3",
          "ticks": 66480,
          "time": 34.625,
          "velocity": 1
        },
        {
          "duration": 1.125,
          "durationTicks": 2160,
          "midi": 65,
          "name": "F4",
          "ticks": 66960,
          "time": 34.875,
          "velocity": 1
        },
        {
          "duration": 1.125,
          "durationTicks": 2160,
          "midi": 51,
          "name": "D#3",
          "ticks": 66960,
          "time": 34.875,
          "velocity": 1
        },
        {
          "duration": 0.125,
          "durationTicks": 240,
          "midi": 60,
          "name": "C4",
          "ticks": 67200,
          "time": 35,
          "velocity": 1
        },
        {
          "duration": 0.125,
          "durationTicks": 240,
          "midi": 57,
          "name": "A3",
          "ticks": 67200,
          "time": 35,
          "velocity": 1
        },
        {
          "duration": 0.125,
          "durationTicks": 240,
          "midi": 58,
          "name": "A#3",
          "ticks": 67440,
          "time": 35.125,
          "velocity": 1
        },
        {
          "duration": 0.125,
          "durationTicks": 240,
          "midi": 55,
          "name": "G3",
          "ticks": 67440,
          "time": 35.125,
          "velocity": 1
        },
        {
          "duration": 0.125,
          "durationTicks": 240,
          "midi": 60,
          "name": "C4",
          "ticks": 67680,
          "time": 35.25,
          "velocity": 1
        },
        {
          "duration": 0.125,
          "durationTicks": 240,
          "midi": 57,
          "name": "A3",
          "ticks": 67680,
          "time": 35.25,
          "velocity": 1
        },
        {
          "duration": 0.125,
          "durationTicks": 240,
          "midi": 57,
          "name": "A3",
          "ticks": 68160,
          "time": 35.5,
          "velocity": 1
        },
        {
          "duration": 0.5,
          "durationTicks": 960,
          "midi": 53,
          "name": "F3",
          "ticks": 68160,
          "time": 35.5,
          "velocity": 1
        },
        {
          "duration": 0.125,
          "durationTicks": 240,
          "midi": 60,
          "name": "C4",
          "ticks": 68400,
          "time": 35.625,
          "velocity": 1
        },
        {
          "duration": 0.125,
          "durationTicks": 240,
          "midi": 57,
          "name": "A3",
          "ticks": 68400,
          "time": 35.625,
          "velocity": 1
        },
        {
          "duration": 0.125,
          "durationTicks": 240,
          "midi": 58,
          "name": "A#3",
          "ticks": 68640,
          "time": 35.75,
          "velocity": 1
        },
        {
          "duration": 0.125,
          "durationTicks": 240,
          "midi": 55,
          "name": "G3",
          "ticks": 68640,
          "time": 35.75,
          "velocity": 1
        },
        {
          "duration": 0.125,
          "durationTicks": 240,
          "midi": 60,
          "name": "C4",
          "ticks": 68880,
          "time": 35.875,
          "velocity": 1
        },
        {
          "duration": 0.125,
          "durationTicks": 240,
          "midi": 57,
          "name": "A3",
          "ticks": 68880,
          "time": 35.875,
          "velocity": 1
        },
        {
          "duration": 1.125,
          "durationTicks": 2160,
          "midi": 65,
          "name": "F4",
          "ticks": 69360,
          "time": 36.125,
          "velocity": 1
        },
        {
          "duration": 1.125,
          "durationTicks": 2160,
          "midi": 51,
          "name": "D#3",
          "ticks": 69360,
          "time": 36.125,
          "velocity": 1
        },
        {
          "duration": 0.125,
          "durationTicks": 240,
          "midi": 60,
          "name": "C4",
          "ticks": 69600,
          "time": 36.25,
          "velocity": 1
        },
        {
          "duration": 0.125,
          "durationTicks": 240,
          "midi": 57,
          "name": "A3",
          "ticks": 69600,
          "time": 36.25,
          "velocity": 1
        },
        {
          "duration": 0.125,
          "durationTicks": 240,
          "midi": 58,
          "name": "A#3",
          "ticks": 69840,
          "time": 36.375,
          "velocity": 1
        },
        {
          "duration": 0.125,
          "durationTicks": 240,
          "midi": 55,
          "name": "G3",
          "ticks": 69840,
          "time": 36.375,
          "velocity": 1
        },
        {
          "duration": 0.125,
          "durationTicks": 240,
          "midi": 60,
          "name": "C4",
          "ticks": 70080,
          "time": 36.5,
          "velocity": 1
        },
        {
          "duration": 0.125,
          "durationTicks": 240,
          "midi": 57,
          "name": "A3",
          "ticks": 70080,
          "time": 36.5,
          "velocity": 1
        },
        {
          "duration": 0.125,
          "durationTicks": 240,
          "midi": 57,
          "name": "A3",
          "ticks": 70560,
          "time": 36.75,
          "velocity": 1
        },
        {
          "duration": 0.5,
          "durationTicks": 960,
          "midi": 53,
          "name": "F3",
          "ticks": 70560,
          "time": 36.75,
          "velocity": 1
        },
        {
          "duration": 0.125,
          "durationTicks": 240,
          "midi": 60,
          "name": "C4",
          "ticks": 70800,
          "time": 36.875,
          "velocity": 1
        },
        {
          "duration": 0.125,
          "durationTicks": 240,
          "midi": 57,
          "name": "A3",
          "ticks": 70800,
          "time": 36.875,
          "velocity": 1
        },
        {
          "duration": 0.125,
          "durationTicks": 240,
          "midi": 58,
          "name": "A#3",
          "ticks": 71040,
          "time": 37,
          "velocity": 1
        },
        {
          "duration": 0.125,
          "durationTicks": 240,
          "midi": 55,
          "name": "G3",
          "ticks": 71040,
          "time": 37,
          "velocity": 1
        },
        {
          "duration": 0.125,
          "durationTicks": 240,
          "midi": 60,
          "name": "C4",
          "ticks": 71280,
          "time": 37.125,
          "velocity": 1
        },
        {
          "duration": 0.125,
          "durationTicks": 240,
          "midi": 57,
          "name": "A3",
          "ticks": 71280,
          "time": 37.125,
          "velocity": 1
        },
        {
          "duration": 1.125,
          "durationTicks": 2160,
          "midi": 65,
          "name": "F4",
          "ticks": 71760,
          "time": 37.375,
          "velocity": 1
        },
        {
          "duration": 1.125,
          "durationTicks": 2160,
          "midi": 50,
          "name": "D3",
          "ticks": 71760,
          "time": 37.375,
          "velocity": 1
        },
        {
          "duration": 0.125,
          "durationTicks": 240,
          "midi": 62,
          "name": "D4",
          "ticks": 72000,
          "time": 37.5,
          "velocity": 1
        },
        {
          "duration": 0.125,
          "durationTicks": 240,
          "midi": 53,
          "name": "F3",
          "ticks": 72000,
          "time": 37.5,
          "velocity": 1
        },
        {
          "duration": 0.125,
          "durationTicks": 240,
          "midi": 60,
          "name": "C4",
          "ticks": 72240,
          "time": 37.625,
          "velocity": 1
        },
        {
          "duration": 0.125,
          "durationTicks": 240,
          "midi": 51,
          "name": "D#3",
          "ticks": 72240,
          "time": 37.625,
          "velocity": 1
        },
        {
          "duration": 0.125,
          "durationTicks": 240,
          "midi": 62,
          "name": "D4",
          "ticks": 72480,
          "time": 37.75,
          "velocity": 1
        },
        {
          "duration": 0.125,
          "durationTicks": 240,
          "midi": 53,
          "name": "F3",
          "ticks": 72480,
          "time": 37.75,
          "velocity": 1
        },
        {
          "duration": 0.75,
          "durationTicks": 1440,
          "midi": 59,
          "name": "B3",
          "ticks": 72720,
          "time": 37.875,
          "velocity": 1
        },
        {
          "duration": 0.25,
          "durationTicks": 480,
          "midi": 56,
          "name": "G#3",
          "ticks": 72720,
          "time": 37.875,
          "velocity": 1
        },
        {
          "duration": 0.125,
          "durationTicks": 240,
          "midi": 62,
          "name": "D4",
          "ticks": 73200,
          "time": 38.125,
          "velocity": 1
        },
        {
          "duration": 0.125,
          "durationTicks": 240,
          "midi": 53,
          "name": "F3",
          "ticks": 73200,
          "time": 38.125,
          "velocity": 1
        },
        {
          "duration": 0.125,
          "durationTicks": 240,
          "midi": 60,
          "name": "C4",
          "ticks": 73440,
          "time": 38.25,
          "velocity": 1
        },
        {
          "duration": 0.125,
          "durationTicks": 240,
          "midi": 51,
          "name": "D#3",
          "ticks": 73440,
          "time": 38.25,
          "velocity": 1
        },
        {
          "duration": 0.125,
          "durationTicks": 240,
          "midi": 62,
          "name": "D4",
          "ticks": 73680,
          "time": 38.375,
          "velocity": 1
        },
        {
          "duration": 0.125,
          "durationTicks": 240,
          "midi": 53,
          "name": "F3",
          "ticks": 73680,
          "time": 38.375,
          "velocity": 1
        },
        {
          "duration": 1.25,
          "durationTicks": 2400,
          "midi": 65,
          "name": "F4",
          "ticks": 73920,
          "time": 38.5,
          "velocity": 1
        },
        {
          "duration": 1.25,
          "durationTicks": 2400,
          "midi": 50,
          "name": "D3",
          "ticks": 73920,
          "time": 38.5,
          "velocity": 1
        },
        {
          "duration": 0.125,
          "durationTicks": 240,
          "midi": 62,
          "name": "D4",
          "ticks": 74400,
          "time": 38.75,
          "velocity": 1
        },
        {
          "duration": 0.125,
          "durationTicks": 240,
          "midi": 53,
          "name": "F3",
          "ticks": 74400,
          "time": 38.75,
          "velocity": 1
        },
        {
          "duration": 0.125,
          "durationTicks": 240,
          "midi": 60,
          "name": "C4",
          "ticks": 74640,
          "time": 38.875,
          "velocity": 1
        },
        {
          "duration": 0.125,
          "durationTicks": 240,
          "midi": 51,
          "name": "D#3",
          "ticks": 74640,
          "time": 38.875,
          "velocity": 1
        },
        {
          "duration": 0.125,
          "durationTicks": 240,
          "midi": 62,
          "name": "D4",
          "ticks": 74880,
          "time": 39,
          "velocity": 1
        },
        {
          "duration": 0.125,
          "durationTicks": 240,
          "midi": 53,
          "name": "F3",
          "ticks": 74880,
          "time": 39,
          "velocity": 1
        },
        {
          "duration": 0.625,
          "durationTicks": 1200,
          "midi": 59,
          "name": "B3",
          "ticks": 75120,
          "time": 39.125,
          "velocity": 1
        },
        {
          "duration": 0.25,
          "durationTicks": 480,
          "midi": 56,
          "name": "G#3",
          "ticks": 75120,
          "time": 39.125,
          "velocity": 1
        },
        {
          "duration": 0.125,
          "durationTicks": 240,
          "midi": 62,
          "name": "D4",
          "ticks": 75600,
          "time": 39.375,
          "velocity": 1
        },
        {
          "duration": 0.125,
          "durationTicks": 240,
          "midi": 53,
          "name": "F3",
          "ticks": 75600,
          "time": 39.375,
          "velocity": 1
        },
        {
          "duration": 0.125,
          "durationTicks": 240,
          "midi": 60,
          "name": "C4",
          "ticks": 75840,
          "time": 39.5,
          "velocity": 1
        },
        {
          "duration": 0.125,
          "durationTicks": 240,
          "midi": 51,
          "name": "D#3",
          "ticks": 75840,
          "time": 39.5,
          "velocity": 1
        },
        {
          "duration": 0.125,
          "durationTicks": 240,
          "midi": 62,
          "name": "D4",
          "ticks": 76080,
          "time": 39.625,
          "velocity": 1
        },
        {
          "duration": 0.125,
          "durationTicks": 240,
          "midi": 53,
          "name": "F3",
          "ticks": 76080,
          "time": 39.625,
          "velocity": 1
        },
        {
          "duration": 1.25,
          "durationTicks": 2400,
          "midi": 65,
          "name": "F4",
          "ticks": 76320,
          "time": 39.75,
          "velocity": 1
        },
        {
          "duration": 1.25,
          "durationTicks": 2400,
          "midi": 48,
          "name": "C3",
          "ticks": 76320,
          "time": 39.75,
          "velocity": 1
        },
        {
          "duration": 0.125,
          "durationTicks": 240,
          "midi": 62,
          "name": "D4",
          "ticks": 76800,
          "time": 40,
          "velocity": 1
        },
        {
          "duration": 0.125,
          "durationTicks": 240,
          "midi": 53,
          "name": "F3",
          "ticks": 76800,
          "time": 40,
          "velocity": 1
        },
        {
          "duration": 0.125,
          "durationTicks": 240,
          "midi": 60,
          "name": "C4",
          "ticks": 77040,
          "time": 40.125,
          "velocity": 1
        },
        {
          "duration": 0.125,
          "durationTicks": 240,
          "midi": 52,
          "name": "E3",
          "ticks": 77040,
          "time": 40.125,
          "velocity": 1
        },
        {
          "duration": 0.125,
          "durationTicks": 240,
          "midi": 62,
          "name": "D4",
          "ticks": 77280,
          "time": 40.25,
          "velocity": 1
        },
        {
          "duration": 0.125,
          "durationTicks": 240,
          "midi": 53,
          "name": "F3",
          "ticks": 77280,
          "time": 40.25,
          "velocity": 1
        },
        {
          "duration": 0.375,
          "durationTicks": 720,
          "midi": 59,
          "name": "B3",
          "ticks": 77520,
          "time": 40.375,
          "velocity": 1
        },
        {
          "duration": 0.625,
          "durationTicks": 1200,
          "midi": 56,
          "name": "G#3",
          "ticks": 77520,
          "time": 40.375,
          "velocity": 1
        },
        {
          "duration": 0.125,
          "durationTicks": 240,
          "midi": 62,
          "name": "D4",
          "ticks": 78000,
          "time": 40.625,
          "velocity": 1
        },
        {
          "duration": 0.125,
          "durationTicks": 240,
          "midi": 53,
          "name": "F3",
          "ticks": 78000,
          "time": 40.625,
          "velocity": 1
        },
        {
          "duration": 0.125,
          "durationTicks": 240,
          "midi": 60,
          "name": "C4",
          "ticks": 78240,
          "time": 40.75,
          "velocity": 1
        },
        {
          "duration": 0.125,
          "durationTicks": 240,
          "midi": 52,
          "name": "E3",
          "ticks": 78240,
          "time": 40.75,
          "velocity": 1
        },
        {
          "duration": 0.125,
          "durationTicks": 240,
          "midi": 62,
          "name": "D4",
          "ticks": 78480,
          "time": 40.875,
          "velocity": 1
        },
        {
          "duration": 0.125,
          "durationTicks": 240,
          "midi": 53,
          "name": "F3",
          "ticks": 78480,
          "time": 40.875,
          "velocity": 1
        },
        {
          "duration": 1.25,
          "durationTicks": 2400,
          "midi": 65,
          "name": "F4",
          "ticks": 78720,
          "time": 41,
          "velocity": 1
        },
        {
          "duration": 1.25,
          "durationTicks": 2400,
          "midi": 48,
          "name": "C3",
          "ticks": 78720,
          "time": 41,
          "velocity": 1
        },
        {
          "duration": 0.125,
          "durationTicks": 240,
          "midi": 62,
          "name": "D4",
          "ticks": 79200,
          "time": 41.25,
          "velocity": 1
        },
        {
          "duration": 0.125,
          "durationTicks": 240,
          "midi": 53,
          "name": "F3",
          "ticks": 79200,
          "time": 41.25,
          "velocity": 1
        },
        {
          "duration": 0.125,
          "durationTicks": 240,
          "midi": 60,
          "name": "C4",
          "ticks": 79440,
          "time": 41.375,
          "velocity": 1
        },
        {
          "duration": 0.125,
          "durationTicks": 240,
          "midi": 52,
          "name": "E3",
          "ticks": 79440,
          "time": 41.375,
          "velocity": 1
        },
        {
          "duration": 0.125,
          "durationTicks": 240,
          "midi": 62,
          "name": "D4",
          "ticks": 79680,
          "time": 41.5,
          "velocity": 1
        },
        {
          "duration": 0.125,
          "durationTicks": 240,
          "midi": 53,
          "name": "F3",
          "ticks": 79680,
          "time": 41.5,
          "velocity": 1
        },
        {
          "duration": 0.125,
          "durationTicks": 240,
          "midi": 59,
          "name": "B3",
          "ticks": 79920,
          "time": 41.625,
          "velocity": 1
        },
        {
          "duration": 0.375,
          "durationTicks": 720,
          "midi": 56,
          "name": "G#3",
          "ticks": 79920,
          "time": 41.625,
          "velocity": 1
        },
        {
          "duration": 0.125,
          "durationTicks": 240,
          "midi": 62,
          "name": "D4",
          "ticks": 80160,
          "time": 41.75,
          "velocity": 1
        },
        {
          "duration": 0.125,
          "durationTicks": 240,
          "midi": 53,
          "name": "F3",
          "ticks": 80160,
          "time": 41.75,
          "velocity": 1
        },
        {
          "duration": 0.125,
          "durationTicks": 240,
          "midi": 60,
          "name": "C4",
          "ticks": 80640,
          "time": 42,
          "velocity": 1
        },
        {
          "duration": 0.125,
          "durationTicks": 240,
          "midi": 52,
          "name": "E3",
          "ticks": 80640,
          "time": 42,
          "velocity": 1
        },
        {
          "duration": 0.125,
          "durationTicks": 240,
          "midi": 62,
          "name": "D4",
          "ticks": 80880,
          "time": 42.125,
          "velocity": 1
        },
        {
          "duration": 0.125,
          "durationTicks": 240,
          "midi": 53,
          "name": "F3",
          "ticks": 80880,
          "time": 42.125,
          "velocity": 1
        },
        {
          "duration": 1.25,
          "durationTicks": 2400,
          "midi": 63,
          "name": "D#4",
          "ticks": 81120,
          "time": 42.25,
          "velocity": 1
        },
        {
          "duration": 1.25,
          "durationTicks": 2400,
          "midi": 48,
          "name": "C3",
          "ticks": 81120,
          "time": 42.25,
          "velocity": 1
        },
        {
          "duration": 0.125,
          "durationTicks": 240,
          "midi": 60,
          "name": "C4",
          "ticks": 81360,
          "time": 42.375,
          "velocity": 1
        },
        {
          "duration": 0.125,
          "durationTicks": 240,
          "midi": 51,
          "name": "D#3",
          "ticks": 81360,
          "time": 42.375,
          "velocity": 1
        },
        {
          "duration": 0.125,
          "durationTicks": 240,
          "midi": 59,
          "name": "B3",
          "ticks": 81840,
          "time": 42.625,
          "velocity": 1
        },
        {
          "duration": 0.125,
          "durationTicks": 240,
          "midi": 50,
          "name": "D3",
          "ticks": 81840,
          "time": 42.625,
          "velocity": 1
        },
        {
          "duration": 0.125,
          "durationTicks": 240,
          "midi": 60,
          "name": "C4",
          "ticks": 82080,
          "time": 42.75,
          "velocity": 1
        },
        {
          "duration": 0.125,
          "durationTicks": 240,
          "midi": 51,
          "name": "D#3",
          "ticks": 82080,
          "time": 42.75,
          "velocity": 1
        },
        {
          "duration": 0.375,
          "durationTicks": 720,
          "midi": 55,
          "name": "G3",
          "ticks": 82320,
          "time": 42.875,
          "velocity": 1
        },
        {
          "duration": 0.125,
          "durationTicks": 240,
          "midi": 53,
          "name": "F3",
          "ticks": 82320,
          "time": 42.875,
          "velocity": 1
        },
        {
          "duration": 0.125,
          "durationTicks": 240,
          "midi": 60,
          "name": "C4",
          "ticks": 82560,
          "time": 43,
          "velocity": 1
        },
        {
          "duration": 0.125,
          "durationTicks": 240,
          "midi": 51,
          "name": "D#3",
          "ticks": 82560,
          "time": 43,
          "velocity": 1
        },
        {
          "duration": 0.125,
          "durationTicks": 240,
          "midi": 59,
          "name": "B3",
          "ticks": 83040,
          "time": 43.25,
          "velocity": 1
        },
        {
          "duration": 0.125,
          "durationTicks": 240,
          "midi": 50,
          "name": "D3",
          "ticks": 83040,
          "time": 43.25,
          "velocity": 1
        },
        {
          "duration": 0.125,
          "durationTicks": 240,
          "midi": 60,
          "name": "C4",
          "ticks": 83280,
          "time": 43.375,
          "velocity": 1
        },
        {
          "duration": 0.125,
          "durationTicks": 240,
          "midi": 51,
          "name": "D#3",
          "ticks": 83280,
          "time": 43.375,
          "velocity": 1
        },
        {
          "duration": 1.25,
          "durationTicks": 2400,
          "midi": 63,
          "name": "D#4",
          "ticks": 83520,
          "time": 43.5,
          "velocity": 1
        },
        {
          "duration": 1.25,
          "durationTicks": 2400,
          "midi": 46,
          "name": "A#2",
          "ticks": 83520,
          "time": 43.5,
          "velocity": 1
        },
        {
          "duration": 0.125,
          "durationTicks": 240,
          "midi": 60,
          "name": "C4",
          "ticks": 83760,
          "time": 43.625,
          "velocity": 1
        },
        {
          "duration": 0.125,
          "durationTicks": 240,
          "midi": 51,
          "name": "D#3",
          "ticks": 83760,
          "time": 43.625,
          "velocity": 1
        },
        {
          "duration": 0.125,
          "durationTicks": 240,
          "midi": 59,
          "name": "B3",
          "ticks": 84240,
          "time": 43.875,
          "velocity": 1
        },
        {
          "duration": 0.125,
          "durationTicks": 240,
          "midi": 50,
          "name": "D3",
          "ticks": 84240,
          "time": 43.875,
          "velocity": 1
        },
        {
          "duration": 0.125,
          "durationTicks": 240,
          "midi": 60,
          "name": "C4",
          "ticks": 84480,
          "time": 44,
          "velocity": 1
        },
        {
          "duration": 0.125,
          "durationTicks": 240,
          "midi": 51,
          "name": "D#3",
          "ticks": 84480,
          "time": 44,
          "velocity": 1
        },
        {
          "duration": 0.25,
          "durationTicks": 480,
          "midi": 55,
          "name": "G3",
          "ticks": 84720,
          "time": 44.125,
          "velocity": 1
        },
        {
          "duration": 0.125,
          "durationTicks": 240,
          "midi": 53,
          "name": "F3",
          "ticks": 84720,
          "time": 44.125,
          "velocity": 1
        },
        {
          "duration": 0.125,
          "durationTicks": 240,
          "midi": 60,
          "name": "C4",
          "ticks": 84960,
          "time": 44.25,
          "velocity": 1
        },
        {
          "duration": 0.125,
          "durationTicks": 240,
          "midi": 51,
          "name": "D#3",
          "ticks": 84960,
          "time": 44.25,
          "velocity": 1
        },
        {
          "duration": 0.125,
          "durationTicks": 240,
          "midi": 59,
          "name": "B3",
          "ticks": 85440,
          "time": 44.5,
          "velocity": 1
        },
        {
          "duration": 0.125,
          "durationTicks": 240,
          "midi": 50,
          "name": "D3",
          "ticks": 85440,
          "time": 44.5,
          "velocity": 1
        },
        {
          "duration": 0.125,
          "durationTicks": 240,
          "midi": 60,
          "name": "C4",
          "ticks": 85680,
          "time": 44.625,
          "velocity": 1
        },
        {
          "duration": 0.125,
          "durationTicks": 240,
          "midi": 51,
          "name": "D#3",
          "ticks": 85680,
          "time": 44.625,
          "velocity": 1
        },
        {
          "duration": 1.25,
          "durationTicks": 2400,
          "midi": 53,
          "name": "F3",
          "ticks": 85920,
          "time": 44.75,
          "velocity": 1
        },
        {
          "duration": 1.25,
          "durationTicks": 2400,
          "midi": 44,
          "name": "G#2",
          "ticks": 85920,
          "time": 44.75,
          "velocity": 1
        },
        {
          "duration": 0.125,
          "durationTicks": 240,
          "midi": 63,
          "name": "D#4",
          "ticks": 86160,
          "time": 44.875,
          "velocity": 1
        },
        {
          "duration": 0.125,
          "durationTicks": 240,
          "midi": 48,
          "name": "C3",
          "ticks": 86160,
          "time": 44.875,
          "velocity": 1
        },
        {
          "duration": 0.125,
          "durationTicks": 240,
          "midi": 62,
          "name": "D4",
          "ticks": 86640,
          "time": 45.125,
          "velocity": 1
        },
        {
          "duration": 0.125,
          "durationTicks": 240,
          "midi": 47,
          "name": "B2",
          "ticks": 86640,
          "time": 45.125,
          "velocity": 1
        },
        {
          "duration": 0.125,
          "durationTicks": 240,
          "midi": 63,
          "name": "D#4",
          "ticks": 86880,
          "time": 45.25,
          "velocity": 1
        },
        {
          "duration": 0.125,
          "durationTicks": 240,
          "midi": 48,
          "name": "C3",
          "ticks": 86880,
          "time": 45.25,
          "velocity": 1
        },
        {
          "duration": 0.125,
          "durationTicks": 240,
          "midi": 65,
          "name": "F4",
          "ticks": 87120,
          "time": 45.375,
          "velocity": 1
        },
        {
          "duration": 0.125,
          "durationTicks": 240,
          "midi": 50,
          "name": "D3",
          "ticks": 87120,
          "time": 45.375,
          "velocity": 1
        },
        {
          "duration": 0.125,
          "durationTicks": 240,
          "midi": 63,
          "name": "D#4",
          "ticks": 87360,
          "time": 45.5,
          "velocity": 1
        },
        {
          "duration": 0.125,
          "durationTicks": 240,
          "midi": 48,
          "name": "C3",
          "ticks": 87360,
          "time": 45.5,
          "velocity": 1
        },
        {
          "duration": 0.125,
          "durationTicks": 240,
          "midi": 62,
          "name": "D4",
          "ticks": 87840,
          "time": 45.75,
          "velocity": 1
        },
        {
          "duration": 0.125,
          "durationTicks": 240,
          "midi": 47,
          "name": "B2",
          "ticks": 87840,
          "time": 45.75,
          "velocity": 1
        },
        {
          "duration": 0.125,
          "durationTicks": 240,
          "midi": 63,
          "name": "D#4",
          "ticks": 88080,
          "time": 45.875,
          "velocity": 1
        },
        {
          "duration": 0.125,
          "durationTicks": 240,
          "midi": 48,
          "name": "C3",
          "ticks": 88080,
          "time": 45.875,
          "velocity": 1
        },
        {
          "duration": 1.25,
          "durationTicks": 2400,
          "midi": 53,
          "name": "F3",
          "ticks": 88320,
          "time": 46,
          "velocity": 1
        },
        {
          "duration": 1.25,
          "durationTicks": 2400,
          "midi": 44,
          "name": "G#2",
          "ticks": 88320,
          "time": 46,
          "velocity": 1
        },
        {
          "duration": 0.125,
          "durationTicks": 240,
          "midi": 63,
          "name": "D#4",
          "ticks": 88560,
          "time": 46.125,
          "velocity": 1
        },
        {
          "duration": 0.125,
          "durationTicks": 240,
          "midi": 48,
          "name": "C3",
          "ticks": 88560,
          "time": 46.125,
          "velocity": 1
        },
        {
          "duration": 0.125,
          "durationTicks": 240,
          "midi": 62,
          "name": "D4",
          "ticks": 89040,
          "time": 46.375,
          "velocity": 1
        },
        {
          "duration": 0.125,
          "durationTicks": 240,
          "midi": 47,
          "name": "B2",
          "ticks": 89040,
          "time": 46.375,
          "velocity": 1
        },
        {
          "duration": 0.125,
          "durationTicks": 240,
          "midi": 63,
          "name": "D#4",
          "ticks": 89280,
          "time": 46.5,
          "velocity": 1
        },
        {
          "duration": 0.125,
          "durationTicks": 240,
          "midi": 48,
          "name": "C3",
          "ticks": 89280,
          "time": 46.5,
          "velocity": 1
        },
        {
          "duration": 0.125,
          "durationTicks": 240,
          "midi": 65,
          "name": "F4",
          "ticks": 89520,
          "time": 46.625,
          "velocity": 1
        },
        {
          "duration": 0.125,
          "durationTicks": 240,
          "midi": 50,
          "name": "D3",
          "ticks": 89520,
          "time": 46.625,
          "velocity": 1
        },
        {
          "duration": 0.125,
          "durationTicks": 240,
          "midi": 63,
          "name": "D#4",
          "ticks": 89760,
          "time": 46.75,
          "velocity": 1
        },
        {
          "duration": 0.125,
          "durationTicks": 240,
          "midi": 48,
          "name": "C3",
          "ticks": 89760,
          "time": 46.75,
          "velocity": 1
        },
        {
          "duration": 0.125,
          "durationTicks": 240,
          "midi": 62,
          "name": "D4",
          "ticks": 90240,
          "time": 47,
          "velocity": 1
        },
        {
          "duration": 0.125,
          "durationTicks": 240,
          "midi": 47,
          "name": "B2",
          "ticks": 90240,
          "time": 47,
          "velocity": 1
        },
        {
          "duration": 0.125,
          "durationTicks": 240,
          "midi": 63,
          "name": "D#4",
          "ticks": 90480,
          "time": 47.125,
          "velocity": 1
        },
        {
          "duration": 0.125,
          "durationTicks": 240,
          "midi": 48,
          "name": "C3",
          "ticks": 90480,
          "time": 47.125,
          "velocity": 1
        },
        {
          "duration": 1.25,
          "durationTicks": 2400,
          "midi": 54,
          "name": "F#3",
          "ticks": 90720,
          "time": 47.25,
          "velocity": 1
        },
        {
          "duration": 1.25,
          "durationTicks": 2400,
          "midi": 45,
          "name": "A2",
          "ticks": 90720,
          "time": 47.25,
          "velocity": 1
        },
        {
          "duration": 0.125,
          "durationTicks": 240,
          "midi": 60,
          "name": "C4",
          "ticks": 90960,
          "time": 47.375,
          "velocity": 1
        },
        {
          "duration": 0.125,
          "durationTicks": 240,
          "midi": 51,
          "name": "D#3",
          "ticks": 90960,
          "time": 47.375,
          "velocity": 1
        },
        {
          "duration": 0.125,
          "durationTicks": 240,
          "midi": 59,
          "name": "B3",
          "ticks": 91440,
          "time": 47.625,
          "velocity": 1
        },
        {
          "duration": 0.125,
          "durationTicks": 240,
          "midi": 50,
          "name": "D3",
          "ticks": 91440,
          "time": 47.625,
          "velocity": 1
        },
        {
          "duration": 0.125,
          "durationTicks": 240,
          "midi": 60,
          "name": "C4",
          "ticks": 91680,
          "time": 47.75,
          "velocity": 1
        },
        {
          "duration": 0.125,
          "durationTicks": 240,
          "midi": 51,
          "name": "D#3",
          "ticks": 91680,
          "time": 47.75,
          "velocity": 1
        },
        {
          "duration": 0.125,
          "durationTicks": 240,
          "midi": 63,
          "name": "D#4",
          "ticks": 91920,
          "time": 47.875,
          "velocity": 1
        },
        {
          "duration": 0.625,
          "durationTicks": 1200,
          "midi": 48,
          "name": "C3",
          "ticks": 91920,
          "time": 47.875,
          "velocity": 1
        },
        {
          "duration": 0.125,
          "durationTicks": 240,
          "midi": 60,
          "name": "C4",
          "ticks": 92160,
          "time": 48,
          "velocity": 1
        },
        {
          "duration": 0.125,
          "durationTicks": 240,
          "midi": 51,
          "name": "D#3",
          "ticks": 92160,
          "time": 48,
          "velocity": 1
        },
        {
          "duration": 0.125,
          "durationTicks": 240,
          "midi": 59,
          "name": "B3",
          "ticks": 92640,
          "time": 48.25,
          "velocity": 1
        },
        {
          "duration": 0.125,
          "durationTicks": 240,
          "midi": 50,
          "name": "D3",
          "ticks": 92640,
          "time": 48.25,
          "velocity": 1
        },
        {
          "duration": 0.125,
          "durationTicks": 240,
          "midi": 60,
          "name": "C4",
          "ticks": 92880,
          "time": 48.375,
          "velocity": 1
        },
        {
          "duration": 0.125,
          "durationTicks": 240,
          "midi": 51,
          "name": "D#3",
          "ticks": 92880,
          "time": 48.375,
          "velocity": 1
        },
        {
          "duration": 0.625,
          "durationTicks": 1200,
          "midi": 54,
          "name": "F#3",
          "ticks": 93120,
          "time": 48.5,
          "velocity": 1
        },
        {
          "duration": 1.25,
          "durationTicks": 2400,
          "midi": 45,
          "name": "A2",
          "ticks": 93120,
          "time": 48.5,
          "velocity": 1
        },
        {
          "duration": 0.125,
          "durationTicks": 240,
          "midi": 60,
          "name": "C4",
          "ticks": 93360,
          "time": 48.625,
          "velocity": 1
        },
        {
          "duration": 0.125,
          "durationTicks": 240,
          "midi": 51,
          "name": "D#3",
          "ticks": 93360,
          "time": 48.625,
          "velocity": 1
        },
        {
          "duration": 0.125,
          "durationTicks": 240,
          "midi": 59,
          "name": "B3",
          "ticks": 93840,
          "time": 48.875,
          "velocity": 1
        },
        {
          "duration": 0.125,
          "durationTicks": 240,
          "midi": 50,
          "name": "D3",
          "ticks": 93840,
          "time": 48.875,
          "velocity": 1
        },
        {
          "duration": 0.125,
          "durationTicks": 240,
          "midi": 60,
          "name": "C4",
          "ticks": 94080,
          "time": 49,
          "velocity": 1
        },
        {
          "duration": 0.125,
          "durationTicks": 240,
          "midi": 51,
          "name": "D#3",
          "ticks": 94080,
          "time": 49,
          "velocity": 1
        },
        {
          "duration": 0.125,
          "durationTicks": 240,
          "midi": 63,
          "name": "D#4",
          "ticks": 94320,
          "time": 49.125,
          "velocity": 1
        },
        {
          "duration": 0.625,
          "durationTicks": 1200,
          "midi": 48,
          "name": "C3",
          "ticks": 94320,
          "time": 49.125,
          "velocity": 1
        },
        {
          "duration": 0.125,
          "durationTicks": 240,
          "midi": 60,
          "name": "C4",
          "ticks": 94560,
          "time": 49.25,
          "velocity": 1
        },
        {
          "duration": 0.125,
          "durationTicks": 240,
          "midi": 51,
          "name": "D#3",
          "ticks": 94560,
          "time": 49.25,
          "velocity": 1
        },
        {
          "duration": 0.125,
          "durationTicks": 240,
          "midi": 59,
          "name": "B3",
          "ticks": 95040,
          "time": 49.5,
          "velocity": 1
        },
        {
          "duration": 0.125,
          "durationTicks": 240,
          "midi": 50,
          "name": "D3",
          "ticks": 95040,
          "time": 49.5,
          "velocity": 1
        },
        {
          "duration": 0.125,
          "durationTicks": 240,
          "midi": 60,
          "name": "C4",
          "ticks": 95280,
          "time": 49.625,
          "velocity": 1
        },
        {
          "duration": 0.125,
          "durationTicks": 240,
          "midi": 51,
          "name": "D#3",
          "ticks": 95280,
          "time": 49.625,
          "velocity": 1
        },
        {
          "duration": 1.25,
          "durationTicks": 2400,
          "midi": 63,
          "name": "D#4",
          "ticks": 95520,
          "time": 49.75,
          "velocity": 1
        },
        {
          "duration": 1.25,
          "durationTicks": 2400,
          "midi": 43,
          "name": "G2",
          "ticks": 95520,
          "time": 49.75,
          "velocity": 1
        },
        {
          "duration": 0.125,
          "durationTicks": 240,
          "midi": 60,
          "name": "C4",
          "ticks": 95760,
          "time": 49.875,
          "velocity": 1
        },
        {
          "duration": 0.125,
          "durationTicks": 240,
          "midi": 51,
          "name": "D#3",
          "ticks": 95760,
          "time": 49.875,
          "velocity": 1
        },
        {
          "duration": 0.125,
          "durationTicks": 240,
          "midi": 59,
          "name": "B3",
          "ticks": 96240,
          "time": 50.125,
          "velocity": 1
        },
        {
          "duration": 0.125,
          "durationTicks": 240,
          "midi": 50,
          "name": "D3",
          "ticks": 96240,
          "time": 50.125,
          "velocity": 1
        },
        {
          "duration": 0.125,
          "durationTicks": 240,
          "midi": 60,
          "name": "C4",
          "ticks": 96480,
          "time": 50.25,
          "velocity": 1
        },
        {
          "duration": 0.125,
          "durationTicks": 240,
          "midi": 51,
          "name": "D#3",
          "ticks": 96480,
          "time": 50.25,
          "velocity": 1
        },
        {
          "duration": 0.5,
          "durationTicks": 960,
          "midi": 55,
          "name": "G3",
          "ticks": 96720,
          "time": 50.375,
          "velocity": 1
        },
        {
          "duration": 0.375,
          "durationTicks": 720,
          "midi": 53,
          "name": "F3",
          "ticks": 96720,
          "time": 50.375,
          "velocity": 1
        },
        {
          "duration": 0.125,
          "durationTicks": 240,
          "midi": 60,
          "name": "C4",
          "ticks": 96960,
          "time": 50.5,
          "velocity": 1
        },
        {
          "duration": 0.125,
          "durationTicks": 240,
          "midi": 51,
          "name": "D#3",
          "ticks": 96960,
          "time": 50.5,
          "velocity": 1
        },
        {
          "duration": 0.125,
          "durationTicks": 240,
          "midi": 59,
          "name": "B3",
          "ticks": 97440,
          "time": 50.75,
          "velocity": 1
        },
        {
          "duration": 0.125,
          "durationTicks": 240,
          "midi": 50,
          "name": "D3",
          "ticks": 97440,
          "time": 50.75,
          "velocity": 1
        },
        {
          "duration": 0.125,
          "durationTicks": 240,
          "midi": 60,
          "name": "C4",
          "ticks": 97680,
          "time": 50.875,
          "velocity": 1
        },
        {
          "duration": 0.125,
          "durationTicks": 240,
          "midi": 51,
          "name": "D#3",
          "ticks": 97680,
          "time": 50.875,
          "velocity": 1
        },
        {
          "duration": 1.25,
          "durationTicks": 2400,
          "midi": 63,
          "name": "D#4",
          "ticks": 97920,
          "time": 51,
          "velocity": 1
        },
        {
          "duration": 1.25,
          "durationTicks": 2400,
          "midi": 43,
          "name": "G2",
          "ticks": 97920,
          "time": 51,
          "velocity": 1
        },
        {
          "duration": 0.125,
          "durationTicks": 240,
          "midi": 60,
          "name": "C4",
          "ticks": 98160,
          "time": 51.125,
          "velocity": 1
        },
        {
          "duration": 0.125,
          "durationTicks": 240,
          "midi": 51,
          "name": "D#3",
          "ticks": 98160,
          "time": 51.125,
          "velocity": 1
        },
        {
          "duration": 0.125,
          "durationTicks": 240,
          "midi": 59,
          "name": "B3",
          "ticks": 98640,
          "time": 51.375,
          "velocity": 1
        },
        {
          "duration": 0.125,
          "durationTicks": 240,
          "midi": 50,
          "name": "D3",
          "ticks": 98640,
          "time": 51.375,
          "velocity": 1
        },
        {
          "duration": 0.125,
          "durationTicks": 240,
          "midi": 60,
          "name": "C4",
          "ticks": 98880,
          "time": 51.5,
          "velocity": 1
        },
        {
          "duration": 0.125,
          "durationTicks": 240,
          "midi": 51,
          "name": "D#3",
          "ticks": 98880,
          "time": 51.5,
          "velocity": 1
        },
        {
          "duration": 0.5,
          "durationTicks": 960,
          "midi": 55,
          "name": "G3",
          "ticks": 99120,
          "time": 51.625,
          "velocity": 1
        },
        {
          "duration": 0.375,
          "durationTicks": 720,
          "midi": 53,
          "name": "F3",
          "ticks": 99120,
          "time": 51.625,
          "velocity": 1
        },
        {
          "duration": 0.125,
          "durationTicks": 240,
          "midi": 60,
          "name": "C4",
          "ticks": 99360,
          "time": 51.75,
          "velocity": 1
        },
        {
          "duration": 0.125,
          "durationTicks": 240,
          "midi": 51,
          "name": "D#3",
          "ticks": 99360,
          "time": 51.75,
          "velocity": 1
        },
        {
          "duration": 0.125,
          "durationTicks": 240,
          "midi": 59,
          "name": "B3",
          "ticks": 99600,
          "time": 51.875,
          "velocity": 1
        },
        {
          "duration": 0.125,
          "durationTicks": 240,
          "midi": 50,
          "name": "D3",
          "ticks": 99600,
          "time": 51.875,
          "velocity": 1
        },
        {
          "duration": 0.125,
          "durationTicks": 240,
          "midi": 60,
          "name": "C4",
          "ticks": 100080,
          "time": 52.125,
          "velocity": 1
        },
        {
          "duration": 0.125,
          "durationTicks": 240,
          "midi": 51,
          "name": "D#3",
          "ticks": 100080,
          "time": 52.125,
          "velocity": 1
        },
        {
          "duration": 1.125,
          "durationTicks": 2160,
          "midi": 66,
          "name": "F#4",
          "ticks": 100320,
          "time": 52.25,
          "velocity": 1
        },
        {
          "duration": 1.125,
          "durationTicks": 2160,
          "midi": 43,
          "name": "G2",
          "ticks": 100320,
          "time": 52.25,
          "velocity": 1
        },
        {
          "duration": 0.125,
          "durationTicks": 240,
          "midi": 60,
          "name": "C4",
          "ticks": 100560,
          "time": 52.375,
          "velocity": 1
        },
        {
          "duration": 0.125,
          "durationTicks": 240,
          "midi": 51,
          "name": "D#3",
          "ticks": 100560,
          "time": 52.375,
          "velocity": 1
        },
        {
          "duration": 0.125,
          "durationTicks": 240,
          "midi": 59,
          "name": "B3",
          "ticks": 100800,
          "time": 52.5,
          "velocity": 1
        },
        {
          "duration": 0.125,
          "durationTicks": 240,
          "midi": 50,
          "name": "D3",
          "ticks": 100800,
          "time": 52.5,
          "velocity": 1
        },
        {
          "duration": 0.125,
          "durationTicks": 240,
          "midi": 60,
          "name": "C4",
          "ticks": 101280,
          "time": 52.75,
          "velocity": 1
        },
        {
          "duration": 0.125,
          "durationTicks": 240,
          "midi": 51,
          "name": "D#3",
          "ticks": 101280,
          "time": 52.75,
          "velocity": 1
        },
        {
          "duration": 0.375,
          "durationTicks": 720,
          "midi": 57,
          "name": "A3",
          "ticks": 101520,
          "time": 52.875,
          "velocity": 1
        },
        {
          "duration": 0.5,
          "durationTicks": 960,
          "midi": 48,
          "name": "C3",
          "ticks": 101520,
          "time": 52.875,
          "velocity": 1
        },
        {
          "duration": 0.125,
          "durationTicks": 240,
          "midi": 60,
          "name": "C4",
          "ticks": 101760,
          "time": 53,
          "velocity": 1
        },
        {
          "duration": 0.125,
          "durationTicks": 240,
          "midi": 51,
          "name": "D#3",
          "ticks": 101760,
          "time": 53,
          "velocity": 1
        },
        {
          "duration": 0.125,
          "durationTicks": 240,
          "midi": 59,
          "name": "B3",
          "ticks": 102000,
          "time": 53.125,
          "velocity": 1
        },
        {
          "duration": 0.125,
          "durationTicks": 240,
          "midi": 50,
          "name": "D3",
          "ticks": 102000,
          "time": 53.125,
          "velocity": 1
        },
        {
          "duration": 0.125,
          "durationTicks": 240,
          "midi": 60,
          "name": "C4",
          "ticks": 102480,
          "time": 53.375,
          "velocity": 1
        },
        {
          "duration": 0.125,
          "durationTicks": 240,
          "midi": 51,
          "name": "D#3",
          "ticks": 102480,
          "time": 53.375,
          "velocity": 1
        },
        {
          "duration": 1.125,
          "durationTicks": 2160,
          "midi": 66,
          "name": "F#4",
          "ticks": 102720,
          "time": 53.5,
          "velocity": 1
        },
        {
          "duration": 1.125,
          "durationTicks": 2160,
          "midi": 43,
          "name": "G2",
          "ticks": 102720,
          "time": 53.5,
          "velocity": 1
        },
        {
          "duration": 0.125,
          "durationTicks": 240,
          "midi": 60,
          "name": "C4",
          "ticks": 102960,
          "time": 53.625,
          "velocity": 1
        },
        {
          "duration": 0.125,
          "durationTicks": 240,
          "midi": 51,
          "name": "D#3",
          "ticks": 102960,
          "time": 53.625,
          "velocity": 1
        },
        {
          "duration": 0.125,
          "durationTicks": 240,
          "midi": 59,
          "name": "B3",
          "ticks": 103200,
          "time": 53.75,
          "velocity": 1
        },
        {
          "duration": 0.125,
          "durationTicks": 240,
          "midi": 50,
          "name": "D3",
          "ticks": 103200,
          "time": 53.75,
          "velocity": 1
        },
        {
          "duration": 0.125,
          "durationTicks": 240,
          "midi": 60,
          "name": "C4",
          "ticks": 103680,
          "time": 54,
          "velocity": 1
        },
        {
          "duration": 0.125,
          "durationTicks": 240,
          "midi": 51,
          "name": "D#3",
          "ticks": 103680,
          "time": 54,
          "velocity": 1
        },
        {
          "duration": 0.375,
          "durationTicks": 720,
          "midi": 57,
          "name": "A3",
          "ticks": 103920,
          "time": 54.125,
          "velocity": 1
        },
        {
          "duration": 0.5,
          "durationTicks": 960,
          "midi": 48,
          "name": "C3",
          "ticks": 103920,
          "time": 54.125,
          "velocity": 1
        },
        {
          "duration": 0.125,
          "durationTicks": 240,
          "midi": 60,
          "name": "C4",
          "ticks": 104160,
          "time": 54.25,
          "velocity": 1
        },
        {
          "duration": 0.125,
          "durationTicks": 240,
          "midi": 51,
          "name": "D#3",
          "ticks": 104160,
          "time": 54.25,
          "velocity": 1
        },
        {
          "duration": 0.125,
          "durationTicks": 240,
          "midi": 59,
          "name": "B3",
          "ticks": 104400,
          "time": 54.375,
          "velocity": 1
        },
        {
          "duration": 0.125,
          "durationTicks": 240,
          "midi": 50,
          "name": "D3",
          "ticks": 104400,
          "time": 54.375,
          "velocity": 1
        },
        {
          "duration": 0.125,
          "durationTicks": 240,
          "midi": 60,
          "name": "C4",
          "ticks": 104880,
          "time": 54.625,
          "velocity": 1
        },
        {
          "duration": 0.125,
          "durationTicks": 240,
          "midi": 51,
          "name": "D#3",
          "ticks": 104880,
          "time": 54.625,
          "velocity": 1
        },
        {
          "duration": 1.125,
          "durationTicks": 2160,
          "midi": 67,
          "name": "G4",
          "ticks": 105120,
          "time": 54.75,
          "velocity": 1
        },
        {
          "duration": 1.125,
          "durationTicks": 2160,
          "midi": 43,
          "name": "G2",
          "ticks": 105120,
          "time": 54.75,
          "velocity": 1
        },
        {
          "duration": 0.125,
          "durationTicks": 240,
          "midi": 60,
          "name": "C4",
          "ticks": 105360,
          "time": 54.875,
          "velocity": 1
        },
        {
          "duration": 0.125,
          "durationTicks": 240,
          "midi": 51,
          "name": "D#3",
          "ticks": 105360,
          "time": 54.875,
          "velocity": 1
        },
        {
          "duration": 0.125,
          "durationTicks": 240,
          "midi": 59,
          "name": "B3",
          "ticks": 105600,
          "time": 55,
          "velocity": 1
        },
        {
          "duration": 0.125,
          "durationTicks": 240,
          "midi": 50,
          "name": "D3",
          "ticks": 105600,
          "time": 55,
          "velocity": 1
        },
        {
          "duration": 0.125,
          "durationTicks": 240,
          "midi": 60,
          "name": "C4",
          "ticks": 106080,
          "time": 55.25,
          "velocity": 1
        },
        {
          "duration": 0.125,
          "durationTicks": 240,
          "midi": 51,
          "name": "D#3",
          "ticks": 106080,
          "time": 55.25,
          "velocity": 1
        },
        {
          "duration": 0.375,
          "durationTicks": 720,
          "midi": 62,
          "name": "D4",
          "ticks": 106320,
          "time": 55.375,
          "velocity": 1
        },
        {
          "duration": 0.25,
          "durationTicks": 480,
          "midi": 53,
          "name": "F3",
          "ticks": 106320,
          "time": 55.375,
          "velocity": 1
        },
        {
          "duration": 0.125,
          "durationTicks": 240,
          "midi": 60,
          "name": "C4",
          "ticks": 106560,
          "time": 55.5,
          "velocity": 1
        },
        {
          "duration": 0.125,
          "durationTicks": 240,
          "midi": 51,
          "name": "D#3",
          "ticks": 106560,
          "time": 55.5,
          "velocity": 1
        },
        {
          "duration": 0.125,
          "durationTicks": 240,
          "midi": 59,
          "name": "B3",
          "ticks": 106800,
          "time": 55.625,
          "velocity": 1
        },
        {
          "duration": 0.125,
          "durationTicks": 240,
          "midi": 50,
          "name": "D3",
          "ticks": 106800,
          "time": 55.625,
          "velocity": 1
        },
        {
          "duration": 0.125,
          "durationTicks": 240,
          "midi": 60,
          "name": "C4",
          "ticks": 107040,
          "time": 55.75,
          "velocity": 1
        },
        {
          "duration": 0.125,
          "durationTicks": 240,
          "midi": 51,
          "name": "D#3",
          "ticks": 107040,
          "time": 55.75,
          "velocity": 1
        },
        {
          "duration": 1.125,
          "durationTicks": 2160,
          "midi": 67,
          "name": "G4",
          "ticks": 107520,
          "time": 56,
          "velocity": 1
        },
        {
          "duration": 1.125,
          "durationTicks": 2160,
          "midi": 43,
          "name": "G2",
          "ticks": 107520,
          "time": 56,
          "velocity": 1
        },
        {
          "duration": 0.125,
          "durationTicks": 240,
          "midi": 60,
          "name": "C4",
          "ticks": 107760,
          "time": 56.125,
          "velocity": 1
        },
        {
          "duration": 0.125,
          "durationTicks": 240,
          "midi": 51,
          "name": "D#3",
          "ticks": 107760,
          "time": 56.125,
          "velocity": 1
        },
        {
          "duration": 0.125,
          "durationTicks": 240,
          "midi": 59,
          "name": "B3",
          "ticks": 108000,
          "time": 56.25,
          "velocity": 1
        },
        {
          "duration": 0.125,
          "durationTicks": 240,
          "midi": 50,
          "name": "D3",
          "ticks": 108000,
          "time": 56.25,
          "velocity": 1
        },
        {
          "duration": 0.125,
          "durationTicks": 240,
          "midi": 60,
          "name": "C4",
          "ticks": 108240,
          "time": 56.375,
          "velocity": 1
        },
        {
          "duration": 0.125,
          "durationTicks": 240,
          "midi": 51,
          "name": "D#3",
          "ticks": 108240,
          "time": 56.375,
          "velocity": 1
        },
        {
          "duration": 0.125,
          "durationTicks": 240,
          "midi": 62,
          "name": "D4",
          "ticks": 108720,
          "time": 56.625,
          "velocity": 1
        },
        {
          "duration": 0.125,
          "durationTicks": 240,
          "midi": 53,
          "name": "F3",
          "ticks": 108720,
          "time": 56.625,
          "velocity": 1
        },
        {
          "duration": 0.125,
          "durationTicks": 240,
          "midi": 60,
          "name": "C4",
          "ticks": 108960,
          "time": 56.75,
          "velocity": 1
        },
        {
          "duration": 0.125,
          "durationTicks": 240,
          "midi": 51,
          "name": "D#3",
          "ticks": 108960,
          "time": 56.75,
          "velocity": 1
        },
        {
          "duration": 0.125,
          "durationTicks": 240,
          "midi": 59,
          "name": "B3",
          "ticks": 109200,
          "time": 56.875,
          "velocity": 1
        },
        {
          "duration": 0.125,
          "durationTicks": 240,
          "midi": 50,
          "name": "D3",
          "ticks": 109200,
          "time": 56.875,
          "velocity": 1
        },
        {
          "duration": 0.125,
          "durationTicks": 240,
          "midi": 60,
          "name": "C4",
          "ticks": 109440,
          "time": 57,
          "velocity": 1
        },
        {
          "duration": 0.125,
          "durationTicks": 240,
          "midi": 51,
          "name": "D#3",
          "ticks": 109440,
          "time": 57,
          "velocity": 1
        },
        {
          "duration": 1.125,
          "durationTicks": 2160,
          "midi": 68,
          "name": "G#4",
          "ticks": 109920,
          "time": 57.25,
          "velocity": 1
        },
        {
          "duration": 1.125,
          "durationTicks": 2160,
          "midi": 43,
          "name": "G2",
          "ticks": 109920,
          "time": 57.25,
          "velocity": 1
        },
        {
          "duration": 0.125,
          "durationTicks": 240,
          "midi": 60,
          "name": "C4",
          "ticks": 110160,
          "time": 57.375,
          "velocity": 1
        },
        {
          "duration": 0.125,
          "durationTicks": 240,
          "midi": 51,
          "name": "D#3",
          "ticks": 110160,
          "time": 57.375,
          "velocity": 1
        },
        {
          "duration": 0.125,
          "durationTicks": 240,
          "midi": 59,
          "name": "B3",
          "ticks": 110400,
          "time": 57.5,
          "velocity": 1
        },
        {
          "duration": 0.125,
          "durationTicks": 240,
          "midi": 50,
          "name": "D3",
          "ticks": 110400,
          "time": 57.5,
          "velocity": 1
        },
        {
          "duration": 0.125,
          "durationTicks": 240,
          "midi": 60,
          "name": "C4",
          "ticks": 110640,
          "time": 57.625,
          "velocity": 1
        },
        {
          "duration": 0.125,
          "durationTicks": 240,
          "midi": 51,
          "name": "D#3",
          "ticks": 110640,
          "time": 57.625,
          "velocity": 1
        },
        {
          "duration": 0.125,
          "durationTicks": 240,
          "midi": 62,
          "name": "D4",
          "ticks": 111120,
          "time": 57.875,
          "velocity": 1
        },
        {
          "duration": 0.125,
          "durationTicks": 240,
          "midi": 53,
          "name": "F3",
          "ticks": 111120,
          "time": 57.875,
          "velocity": 1
        },
        {
          "duration": 0.125,
          "durationTicks": 240,
          "midi": 60,
          "name": "C4",
          "ticks": 111360,
          "time": 58,
          "velocity": 1
        },
        {
          "duration": 0.125,
          "durationTicks": 240,
          "midi": 51,
          "name": "D#3",
          "ticks": 111360,
          "time": 58,
          "velocity": 1
        },
        {
          "duration": 0.125,
          "durationTicks": 240,
          "midi": 59,
          "name": "B3",
          "ticks": 111600,
          "time": 58.125,
          "velocity": 1
        },
        {
          "duration": 0.125,
          "durationTicks": 240,
          "midi": 50,
          "name": "D3",
          "ticks": 111600,
          "time": 58.125,
          "velocity": 1
        },
        {
          "duration": 0.125,
          "durationTicks": 240,
          "midi": 60,
          "name": "C4",
          "ticks": 111840,
          "time": 58.25,
          "velocity": 1
        },
        {
          "duration": 0.125,
          "durationTicks": 240,
          "midi": 51,
          "name": "D#3",
          "ticks": 111840,
          "time": 58.25,
          "velocity": 1
        },
        {
          "duration": 0.125,
          "durationTicks": 240,
          "midi": 68,
          "name": "G#4",
          "ticks": 112320,
          "time": 58.5,
          "velocity": 1
        },
        {
          "duration": 1.125,
          "durationTicks": 2160,
          "midi": 43,
          "name": "G2",
          "ticks": 112320,
          "time": 58.5,
          "velocity": 1
        },
        {
          "duration": 0.125,
          "durationTicks": 240,
          "midi": 60,
          "name": "C4",
          "ticks": 112560,
          "time": 58.625,
          "velocity": 1
        },
        {
          "duration": 0.125,
          "durationTicks": 240,
          "midi": 51,
          "name": "D#3",
          "ticks": 112560,
          "time": 58.625,
          "velocity": 1
        },
        {
          "duration": 0.125,
          "durationTicks": 240,
          "midi": 59,
          "name": "B3",
          "ticks": 112800,
          "time": 58.75,
          "velocity": 1
        },
        {
          "duration": 0.125,
          "durationTicks": 240,
          "midi": 50,
          "name": "D3",
          "ticks": 112800,
          "time": 58.75,
          "velocity": 1
        },
        {
          "duration": 0.125,
          "durationTicks": 240,
          "midi": 60,
          "name": "C4",
          "ticks": 113040,
          "time": 58.875,
          "velocity": 1
        },
        {
          "duration": 0.125,
          "durationTicks": 240,
          "midi": 51,
          "name": "D#3",
          "ticks": 113040,
          "time": 58.875,
          "velocity": 1
        },
        {
          "duration": 0.125,
          "durationTicks": 240,
          "midi": 62,
          "name": "D4",
          "ticks": 113520,
          "time": 59.125,
          "velocity": 1
        },
        {
          "duration": 0.125,
          "durationTicks": 240,
          "midi": 53,
          "name": "F3",
          "ticks": 113520,
          "time": 59.125,
          "velocity": 1
        },
        {
          "duration": 0.125,
          "durationTicks": 240,
          "midi": 60,
          "name": "C4",
          "ticks": 113760,
          "time": 59.25,
          "velocity": 1
        },
        {
          "duration": 0.125,
          "durationTicks": 240,
          "midi": 51,
          "name": "D#3",
          "ticks": 113760,
          "time": 59.25,
          "velocity": 1
        },
        {
          "duration": 0.125,
          "durationTicks": 240,
          "midi": 59,
          "name": "B3",
          "ticks": 114000,
          "time": 59.375,
          "velocity": 1
        },
        {
          "duration": 0.125,
          "durationTicks": 240,
          "midi": 50,
          "name": "D3",
          "ticks": 114000,
          "time": 59.375,
          "velocity": 1
        },
        {
          "duration": 0.125,
          "durationTicks": 240,
          "midi": 60,
          "name": "C4",
          "ticks": 114240,
          "time": 59.5,
          "velocity": 1
        },
        {
          "duration": 0.125,
          "durationTicks": 240,
          "midi": 51,
          "name": "D#3",
          "ticks": 114240,
          "time": 59.5,
          "velocity": 1
        },
        {
          "duration": 0.5,
          "durationTicks": 960,
          "midi": 59,
          "name": "B3",
          "ticks": 114720,
          "time": 59.75,
          "velocity": 1
        },
        {
          "duration": 2.375,
          "durationTicks": 4560,
          "midi": 43,
          "name": "G2",
          "ticks": 114720,
          "time": 59.75,
          "velocity": 1
        },
        {
          "duration": 2.25,
          "durationTicks": 4320,
          "midi": 47,
          "name": "B2",
          "ticks": 114960,
          "time": 59.875,
          "velocity": 1
        },
        {
          "duration": 0.125,
          "durationTicks": 240,
          "midi": 50,
          "name": "D3",
          "ticks": 115200,
          "time": 60,
          "velocity": 1
        },
        {
          "duration": 0.125,
          "durationTicks": 240,
          "midi": 53,
          "name": "F3",
          "ticks": 115440,
          "time": 60.125,
          "velocity": 1
        },
        {
          "duration": 0.125,
          "durationTicks": 240,
          "midi": 56,
          "name": "G#3",
          "ticks": 115920,
          "time": 60.375,
          "velocity": 1
        },
        {
          "duration": 0.125,
          "durationTicks": 240,
          "midi": 53,
          "name": "F3",
          "ticks": 116160,
          "time": 60.5,
          "velocity": 1
        },
        {
          "duration": 0.125,
          "durationTicks": 240,
          "midi": 52,
          "name": "E3",
          "ticks": 116400,
          "time": 60.625,
          "velocity": 1
        },
        {
          "duration": 0.125,
          "durationTicks": 240,
          "midi": 53,
          "name": "F3",
          "ticks": 116640,
          "time": 60.75,
          "velocity": 1
        },
        {
          "duration": 0.125,
          "durationTicks": 240,
          "midi": 59,
          "name": "B3",
          "ticks": 117120,
          "time": 61,
          "velocity": 1
        },
        {
          "duration": 0.125,
          "durationTicks": 240,
          "midi": 53,
          "name": "F3",
          "ticks": 117360,
          "time": 61.125,
          "velocity": 1
        },
        {
          "duration": 0.125,
          "durationTicks": 240,
          "midi": 62,
          "name": "D4",
          "ticks": 117600,
          "time": 61.25,
          "velocity": 1
        },
        {
          "duration": 0.125,
          "durationTicks": 240,
          "midi": 59,
          "name": "B3",
          "ticks": 117840,
          "time": 61.375,
          "velocity": 1
        },
        {
          "duration": 0.125,
          "durationTicks": 240,
          "midi": 56,
          "name": "G#3",
          "ticks": 118080,
          "time": 61.5,
          "velocity": 1
        },
        {
          "duration": 0.125,
          "durationTicks": 240,
          "midi": 53,
          "name": "F3",
          "ticks": 118560,
          "time": 61.75,
          "velocity": 1
        },
        {
          "duration": 0.125,
          "durationTicks": 240,
          "midi": 52,
          "name": "E3",
          "ticks": 118800,
          "time": 61.875,
          "velocity": 1
        },
        {
          "duration": 0.125,
          "durationTicks": 240,
          "midi": 53,
          "name": "F3",
          "ticks": 119040,
          "time": 62,
          "velocity": 1
        },
        {
          "duration": 2.5,
          "durationTicks": 4800,
          "midi": 43,
          "name": "G2",
          "ticks": 119280,
          "time": 62.125,
          "velocity": 1
        },
        {
          "duration": 2.25,
          "durationTicks": 4320,
          "midi": 48,
          "name": "C3",
          "ticks": 119760,
          "time": 62.375,
          "velocity": 1
        },
        {
          "duration": 2.125,
          "durationTicks": 4080,
          "midi": 51,
          "name": "D#3",
          "ticks": 120000,
          "time": 62.5,
          "velocity": 1
        },
        {
          "duration": 0.125,
          "durationTicks": 240,
          "midi": 55,
          "name": "G3",
          "ticks": 120240,
          "time": 62.625,
          "velocity": 1
        },
        {
          "duration": 0.125,
          "durationTicks": 240,
          "midi": 60,
          "name": "C4",
          "ticks": 120720,
          "time": 62.875,
          "velocity": 1
        },
        {
          "duration": 0.125,
          "durationTicks": 240,
          "midi": 55,
          "name": "G3",
          "ticks": 120960,
          "time": 63,
          "velocity": 1
        },
        {
          "duration": 0.125,
          "durationTicks": 240,
          "midi": 54,
          "name": "F#3",
          "ticks": 121200,
          "time": 63.125,
          "velocity": 1
        },
        {
          "duration": 0.125,
          "durationTicks": 240,
          "midi": 55,
          "name": "G3",
          "ticks": 121440,
          "time": 63.25,
          "velocity": 1
        },
        {
          "duration": 0.125,
          "durationTicks": 240,
          "midi": 63,
          "name": "D#4",
          "ticks": 121920,
          "time": 63.5,
          "velocity": 1
        },
        {
          "duration": 0.125,
          "durationTicks": 240,
          "midi": 60,
          "name": "C4",
          "ticks": 122160,
          "time": 63.625,
          "velocity": 1
        },
        {
          "duration": 0.125,
          "durationTicks": 240,
          "midi": 67,
          "name": "G4",
          "ticks": 122400,
          "time": 63.75,
          "velocity": 1
        },
        {
          "duration": 0.125,
          "durationTicks": 240,
          "midi": 63,
          "name": "D#4",
          "ticks": 122640,
          "time": 63.875,
          "velocity": 1
        },
        {
          "duration": 0.125,
          "durationTicks": 240,
          "midi": 60,
          "name": "C4",
          "ticks": 122880,
          "time": 64,
          "velocity": 1
        },
        {
          "duration": 0.125,
          "durationTicks": 240,
          "midi": 56,
          "name": "G#3",
          "ticks": 123360,
          "time": 64.25,
          "velocity": 1
        },
        {
          "duration": 0.125,
          "durationTicks": 240,
          "midi": 55,
          "name": "G3",
          "ticks": 123600,
          "time": 64.375,
          "velocity": 1
        },
        {
          "duration": 0.125,
          "durationTicks": 240,
          "midi": 56,
          "name": "G#3",
          "ticks": 123840,
          "time": 64.5,
          "velocity": 1
        },
        {
          "duration": 2.625,
          "durationTicks": 5040,
          "midi": 43,
          "name": "G2",
          "ticks": 124080,
          "time": 64.625,
          "velocity": 1
        },
        {
          "duration": 2.5,
          "durationTicks": 4800,
          "midi": 45,
          "name": "A2",
          "ticks": 124560,
          "time": 64.875,
          "velocity": 1
        },
        {
          "duration": 2.25,
          "durationTicks": 4320,
          "midi": 54,
          "name": "F#3",
          "ticks": 124800,
          "time": 65,
          "velocity": 1
        },
        {
          "duration": 0.125,
          "durationTicks": 240,
          "midi": 60,
          "name": "C4",
          "ticks": 125280,
          "time": 65.25,
          "velocity": 1
        },
        {
          "duration": 0.125,
          "durationTicks": 240,
          "midi": 63,
          "name": "D#4",
          "ticks": 125520,
          "time": 65.375,
          "velocity": 1
        },
        {
          "duration": 0.125,
          "durationTicks": 240,
          "midi": 60,
          "name": "C4",
          "ticks": 125760,
          "time": 65.5,
          "velocity": 1
        },
        {
          "duration": 0.125,
          "durationTicks": 240,
          "midi": 59,
          "name": "B3",
          "ticks": 126000,
          "time": 65.625,
          "velocity": 1
        },
        {
          "duration": 0.125,
          "durationTicks": 240,
          "midi": 60,
          "name": "C4",
          "ticks": 126480,
          "time": 65.875,
          "velocity": 1
        },
        {
          "duration": 0.125,
          "durationTicks": 240,
          "midi": 66,
          "name": "F#4",
          "ticks": 126720,
          "time": 66,
          "velocity": 1
        },
        {
          "duration": 0.125,
          "durationTicks": 240,
          "midi": 60,
          "name": "C4",
          "ticks": 126960,
          "time": 66.125,
          "velocity": 1
        },
        {
          "duration": 0.125,
          "durationTicks": 240,
          "midi": 69,
          "name": "A4",
          "ticks": 127440,
          "time": 66.375,
          "velocity": 1
        },
        {
          "duration": 0.125,
          "durationTicks": 240,
          "midi": 66,
          "name": "F#4",
          "ticks": 127680,
          "time": 66.5,
          "velocity": 1
        },
        {
          "duration": 0.125,
          "durationTicks": 240,
          "midi": 63,
          "name": "D#4",
          "ticks": 127920,
          "time": 66.625,
          "velocity": 1
        },
        {
          "duration": 0.125,
          "durationTicks": 240,
          "midi": 60,
          "name": "C4",
          "ticks": 128160,
          "time": 66.75,
          "velocity": 1
        },
        {
          "duration": 0.125,
          "durationTicks": 240,
          "midi": 59,
          "name": "B3",
          "ticks": 128640,
          "time": 67,
          "velocity": 1
        },
        {
          "duration": 0.25,
          "durationTicks": 480,
          "midi": 60,
          "name": "C4",
          "ticks": 128880,
          "time": 67.125,
          "velocity": 1
        },
        {
          "duration": 2.125,
          "durationTicks": 4080,
          "midi": 43,
          "name": "G2",
          "ticks": 129360,
          "time": 67.375,
          "velocity": 1
        },
        {
          "duration": 0.125,
          "durationTicks": 240,
          "midi": 74,
          "name": "D5",
          "ticks": 130320,
          "time": 67.875,
          "velocity": 1
        },
        {
          "duration": 0.125,
          "durationTicks": 240,
          "midi": 72,
          "name": "C5",
          "ticks": 130560,
          "time": 68,
          "velocity": 1
        },
        {
          "duration": 0.125,
          "durationTicks": 240,
          "midi": 74,
          "name": "D5",
          "ticks": 130800,
          "time": 68.125,
          "velocity": 1
        },
        {
          "duration": 0.125,
          "durationTicks": 240,
          "midi": 75,
          "name": "D#5",
          "ticks": 131040,
          "time": 68.25,
          "velocity": 1
        },
        {
          "duration": 0.125,
          "durationTicks": 240,
          "midi": 72,
          "name": "C5",
          "ticks": 131280,
          "time": 68.375,
          "velocity": 1
        },
        {
          "duration": 0.125,
          "durationTicks": 240,
          "midi": 71,
          "name": "B4",
          "ticks": 131280,
          "time": 68.375,
          "velocity": 1
        },
        {
          "duration": 0.125,
          "durationTicks": 240,
          "midi": 72,
          "name": "C5",
          "ticks": 131520,
          "time": 68.5,
          "velocity": 1
        },
        {
          "duration": 0.25,
          "durationTicks": 480,
          "midi": 69,
          "name": "A4",
          "ticks": 131760,
          "time": 68.625,
          "velocity": 1
        },
        {
          "duration": 0.125,
          "durationTicks": 240,
          "midi": 72,
          "name": "C5",
          "ticks": 132000,
          "time": 68.75,
          "velocity": 1
        },
        {
          "duration": 0.125,
          "durationTicks": 240,
          "midi": 71,
          "name": "B4",
          "ticks": 132240,
          "time": 68.875,
          "velocity": 1
        },
        {
          "duration": 0.125,
          "durationTicks": 240,
          "midi": 72,
          "name": "C5",
          "ticks": 132480,
          "time": 69,
          "velocity": 1
        },
        {
          "duration": 0.125,
          "durationTicks": 240,
          "midi": 74,
          "name": "D5",
          "ticks": 132720,
          "time": 69.125,
          "velocity": 1
        },
        {
          "duration": 0.375,
          "durationTicks": 720,
          "midi": 55,
          "name": "G3",
          "ticks": 132720,
          "time": 69.125,
          "velocity": 1
        },
        {
          "duration": 0.125,
          "durationTicks": 240,
          "midi": 71,
          "name": "B4",
          "ticks": 132960,
          "time": 69.25,
          "velocity": 1
        },
        {
          "duration": 0.125,
          "durationTicks": 240,
          "midi": 69,
          "name": "A4",
          "ticks": 132960,
          "time": 69.25,
          "velocity": 1
        },
        {
          "duration": 0.125,
          "durationTicks": 240,
          "midi": 71,
          "name": "B4",
          "ticks": 133200,
          "time": 69.375,
          "velocity": 1
        },
        {
          "duration": 0.25,
          "durationTicks": 480,
          "midi": 67,
          "name": "G4",
          "ticks": 133440,
          "time": 69.5,
          "velocity": 1
        },
        {
          "duration": 0.125,
          "durationTicks": 240,
          "midi": 71,
          "name": "B4",
          "ticks": 133680,
          "time": 69.625,
          "velocity": 1
        },
        {
          "duration": 0.125,
          "durationTicks": 240,
          "midi": 62,
          "name": "D4",
          "ticks": 133680,
          "time": 69.625,
          "velocity": 1
        },
        {
          "duration": 0.125,
          "durationTicks": 240,
          "midi": 69,
          "name": "A4",
          "ticks": 133920,
          "time": 69.75,
          "velocity": 1
        },
        {
          "duration": 0.125,
          "durationTicks": 240,
          "midi": 60,
          "name": "C4",
          "ticks": 133920,
          "time": 69.75,
          "velocity": 1
        },
        {
          "duration": 0.125,
          "durationTicks": 240,
          "midi": 71,
          "name": "B4",
          "ticks": 134160,
          "time": 69.875,
          "velocity": 1
        },
        {
          "duration": 0.125,
          "durationTicks": 240,
          "midi": 62,
          "name": "D4",
          "ticks": 134160,
          "time": 69.875,
          "velocity": 1
        },
        {
          "duration": 0.125,
          "durationTicks": 240,
          "midi": 72,
          "name": "C5",
          "ticks": 134400,
          "time": 70,
          "velocity": 1
        },
        {
          "duration": 0.125,
          "durationTicks": 240,
          "midi": 63,
          "name": "D#4",
          "ticks": 134400,
          "time": 70,
          "velocity": 1
        },
        {
          "duration": 0.125,
          "durationTicks": 240,
          "midi": 69,
          "name": "A4",
          "ticks": 134640,
          "time": 70.125,
          "velocity": 1
        },
        {
          "duration": 0.125,
          "durationTicks": 240,
          "midi": 60,
          "name": "C4",
          "ticks": 134640,
          "time": 70.125,
          "velocity": 1
        },
        {
          "duration": 0.125,
          "durationTicks": 240,
          "midi": 67,
          "name": "G4",
          "ticks": 134880,
          "time": 70.25,
          "velocity": 1
        },
        {
          "duration": 0.125,
          "durationTicks": 240,
          "midi": 59,
          "name": "B3",
          "ticks": 134880,
          "time": 70.25,
          "velocity": 1
        },
        {
          "duration": 0.125,
          "durationTicks": 240,
          "midi": 69,
          "name": "A4",
          "ticks": 134880,
          "time": 70.25,
          "velocity": 1
        },
        {
          "duration": 0.125,
          "durationTicks": 240,
          "midi": 60,
          "name": "C4",
          "ticks": 134880,
          "time": 70.25,
          "velocity": 1
        },
        {
          "duration": 0.25,
          "durationTicks": 480,
          "midi": 66,
          "name": "F#4",
          "ticks": 135120,
          "time": 70.375,
          "velocity": 1
        },
        {
          "duration": 0.25,
          "durationTicks": 480,
          "midi": 57,
          "name": "A3",
          "ticks": 135120,
          "time": 70.375,
          "velocity": 1
        },
        {
          "duration": 0.125,
          "durationTicks": 240,
          "midi": 69,
          "name": "A4",
          "ticks": 135360,
          "time": 70.5,
          "velocity": 1
        },
        {
          "duration": 0.125,
          "durationTicks": 240,
          "midi": 60,
          "name": "C4",
          "ticks": 135360,
          "time": 70.5,
          "velocity": 1
        },
        {
          "duration": 0.125,
          "durationTicks": 240,
          "midi": 67,
          "name": "G4",
          "ticks": 135600,
          "time": 70.625,
          "velocity": 1
        },
        {
          "duration": 0.125,
          "durationTicks": 240,
          "midi": 59,
          "name": "B3",
          "ticks": 135600,
          "time": 70.625,
          "velocity": 1
        },
        {
          "duration": 0.125,
          "durationTicks": 240,
          "midi": 69,
          "name": "A4",
          "ticks": 135840,
          "time": 70.75,
          "velocity": 1
        },
        {
          "duration": 0.125,
          "durationTicks": 240,
          "midi": 60,
          "name": "C4",
          "ticks": 135840,
          "time": 70.75,
          "velocity": 1
        },
        {
          "duration": 0.125,
          "durationTicks": 240,
          "midi": 71,
          "name": "B4",
          "ticks": 136080,
          "time": 70.875,
          "velocity": 1
        },
        {
          "duration": 0.125,
          "durationTicks": 240,
          "midi": 62,
          "name": "D4",
          "ticks": 136080,
          "time": 70.875,
          "velocity": 1
        },
        {
          "duration": 0.125,
          "durationTicks": 240,
          "midi": 67,
          "name": "G4",
          "ticks": 136320,
          "time": 71,
          "velocity": 1
        },
        {
          "duration": 0.125,
          "durationTicks": 240,
          "midi": 59,
          "name": "B3",
          "ticks": 136320,
          "time": 71,
          "velocity": 1
        },
        {
          "duration": 0.125,
          "durationTicks": 240,
          "midi": 66,
          "name": "F#4",
          "ticks": 136560,
          "time": 71.125,
          "velocity": 1
        },
        {
          "duration": 0.125,
          "durationTicks": 240,
          "midi": 57,
          "name": "A3",
          "ticks": 136560,
          "time": 71.125,
          "velocity": 1
        },
        {
          "duration": 0.125,
          "durationTicks": 240,
          "midi": 67,
          "name": "G4",
          "ticks": 136560,
          "time": 71.125,
          "velocity": 1
        },
        {
          "duration": 0.125,
          "durationTicks": 240,
          "midi": 59,
          "name": "B3",
          "ticks": 136560,
          "time": 71.125,
          "velocity": 1
        },
        {
          "duration": 0.125,
          "durationTicks": 240,
          "midi": 62,
          "name": "D4",
          "ticks": 136800,
          "time": 71.25,
          "velocity": 1
        },
        {
          "duration": 0.125,
          "durationTicks": 240,
          "midi": 55,
          "name": "G3",
          "ticks": 136800,
          "time": 71.25,
          "velocity": 1
        },
        {
          "duration": 0.125,
          "durationTicks": 240,
          "midi": 79,
          "name": "G5",
          "ticks": 137040,
          "time": 71.375,
          "velocity": 1
        },
        {
          "duration": 0.125,
          "durationTicks": 240,
          "midi": 59,
          "name": "B3",
          "ticks": 137040,
          "time": 71.375,
          "velocity": 1
        },
        {
          "duration": 0.125,
          "durationTicks": 240,
          "midi": 77,
          "name": "F5",
          "ticks": 137280,
          "time": 71.5,
          "velocity": 1
        },
        {
          "duration": 0.125,
          "durationTicks": 240,
          "midi": 57,
          "name": "A3",
          "ticks": 137280,
          "time": 71.5,
          "velocity": 1
        },
        {
          "duration": 0.125,
          "durationTicks": 240,
          "midi": 79,
          "name": "G5",
          "ticks": 137520,
          "time": 71.625,
          "velocity": 1
        },
        {
          "duration": 0.125,
          "durationTicks": 240,
          "midi": 59,
          "name": "B3",
          "ticks": 137520,
          "time": 71.625,
          "velocity": 1
        },
        {
          "duration": 0.125,
          "durationTicks": 240,
          "midi": 80,
          "name": "G#5",
          "ticks": 137760,
          "time": 71.75,
          "velocity": 1
        },
        {
          "duration": 0.125,
          "durationTicks": 240,
          "midi": 60,
          "name": "C4",
          "ticks": 137760,
          "time": 71.75,
          "velocity": 1
        },
        {
          "duration": 0.125,
          "durationTicks": 240,
          "midi": 77,
          "name": "F5",
          "ticks": 138000,
          "time": 71.875,
          "velocity": 1
        },
        {
          "duration": 0.125,
          "durationTicks": 240,
          "midi": 56,
          "name": "G#3",
          "ticks": 138000,
          "time": 71.875,
          "velocity": 1
        },
        {
          "duration": 0.125,
          "durationTicks": 240,
          "midi": 75,
          "name": "D#5",
          "ticks": 138240,
          "time": 72,
          "velocity": 1
        },
        {
          "duration": 0.125,
          "durationTicks": 240,
          "midi": 55,
          "name": "G3",
          "ticks": 138240,
          "time": 72,
          "velocity": 1
        },
        {
          "duration": 0.125,
          "durationTicks": 240,
          "midi": 77,
          "name": "F5",
          "ticks": 138240,
          "time": 72,
          "velocity": 1
        },
        {
          "duration": 0.125,
          "durationTicks": 240,
          "midi": 56,
          "name": "G#3",
          "ticks": 138240,
          "time": 72,
          "velocity": 1
        },
        {
          "duration": 0.25,
          "durationTicks": 480,
          "midi": 74,
          "name": "D5",
          "ticks": 138480,
          "time": 72.125,
          "velocity": 1
        },
        {
          "duration": 0.25,
          "durationTicks": 480,
          "midi": 53,
          "name": "F3",
          "ticks": 138480,
          "time": 72.125,
          "velocity": 1
        },
        {
          "duration": 0.125,
          "durationTicks": 240,
          "midi": 77,
          "name": "F5",
          "ticks": 138720,
          "time": 72.25,
          "velocity": 1
        },
        {
          "duration": 0.125,
          "durationTicks": 240,
          "midi": 57,
          "name": "A3",
          "ticks": 138720,
          "time": 72.25,
          "velocity": 1
        },
        {
          "duration": 0.125,
          "durationTicks": 240,
          "midi": 75,
          "name": "D#5",
          "ticks": 138960,
          "time": 72.375,
          "velocity": 1
        },
        {
          "duration": 0.125,
          "durationTicks": 240,
          "midi": 55,
          "name": "G3",
          "ticks": 138960,
          "time": 72.375,
          "velocity": 1
        },
        {
          "duration": 0.125,
          "durationTicks": 240,
          "midi": 77,
          "name": "F5",
          "ticks": 139200,
          "time": 72.5,
          "velocity": 1
        },
        {
          "duration": 0.125,
          "durationTicks": 240,
          "midi": 57,
          "name": "A3",
          "ticks": 139200,
          "time": 72.5,
          "velocity": 1
        },
        {
          "duration": 0.125,
          "durationTicks": 240,
          "midi": 79,
          "name": "G5",
          "ticks": 139440,
          "time": 72.625,
          "velocity": 1
        },
        {
          "duration": 0.125,
          "durationTicks": 240,
          "midi": 59,
          "name": "B3",
          "ticks": 139440,
          "time": 72.625,
          "velocity": 1
        },
        {
          "duration": 0.125,
          "durationTicks": 240,
          "midi": 75,
          "name": "D#5",
          "ticks": 139680,
          "time": 72.75,
          "velocity": 1
        },
        {
          "duration": 0.125,
          "durationTicks": 240,
          "midi": 55,
          "name": "G3",
          "ticks": 139680,
          "time": 72.75,
          "velocity": 1
        },
        {
          "duration": 0.125,
          "durationTicks": 240,
          "midi": 74,
          "name": "D5",
          "ticks": 139920,
          "time": 72.875,
          "velocity": 1
        },
        {
          "duration": 0.125,
          "durationTicks": 240,
          "midi": 53,
          "name": "F3",
          "ticks": 139920,
          "time": 72.875,
          "velocity": 1
        },
        {
          "duration": 0.125,
          "durationTicks": 240,
          "midi": 75,
          "name": "D#5",
          "ticks": 139920,
          "time": 72.875,
          "velocity": 1
        },
        {
          "duration": 0.125,
          "durationTicks": 240,
          "midi": 55,
          "name": "G3",
          "ticks": 139920,
          "time": 72.875,
          "velocity": 1
        },
        {
          "duration": 0.25,
          "durationTicks": 480,
          "midi": 72,
          "name": "C5",
          "ticks": 140160,
          "time": 73,
          "velocity": 1
        },
        {
          "duration": 0.125,
          "durationTicks": 240,
          "midi": 51,
          "name": "D#3",
          "ticks": 140160,
          "time": 73,
          "velocity": 1
        },
        {
          "duration": 0.125,
          "durationTicks": 240,
          "midi": 75,
          "name": "D#5",
          "ticks": 140400,
          "time": 73.125,
          "velocity": 1
        },
        {
          "duration": 0.125,
          "durationTicks": 240,
          "midi": 67,
          "name": "G4",
          "ticks": 140400,
          "time": 73.125,
          "velocity": 1
        },
        {
          "duration": 0.125,
          "durationTicks": 240,
          "midi": 74,
          "name": "D5",
          "ticks": 140640,
          "time": 73.25,
          "velocity": 1
        },
        {
          "duration": 0.125,
          "durationTicks": 240,
          "midi": 65,
          "name": "F4",
          "ticks": 140640,
          "time": 73.25,
          "velocity": 1
        },
        {
          "duration": 0.125,
          "durationTicks": 240,
          "midi": 75,
          "name": "D#5",
          "ticks": 140880,
          "time": 73.375,
          "velocity": 1
        },
        {
          "duration": 0.125,
          "durationTicks": 240,
          "midi": 67,
          "name": "G4",
          "ticks": 140880,
          "time": 73.375,
          "velocity": 1
        },
        {
          "duration": 0.125,
          "durationTicks": 240,
          "midi": 77,
          "name": "F5",
          "ticks": 141120,
          "time": 73.5,
          "velocity": 1
        },
        {
          "duration": 0.125,
          "durationTicks": 240,
          "midi": 68,
          "name": "G#4",
          "ticks": 141120,
          "time": 73.5,
          "velocity": 1
        },
        {
          "duration": 0.125,
          "durationTicks": 240,
          "midi": 74,
          "name": "D5",
          "ticks": 141360,
          "time": 73.625,
          "velocity": 1
        },
        {
          "duration": 0.125,
          "durationTicks": 240,
          "midi": 65,
          "name": "F4",
          "ticks": 141360,
          "time": 73.625,
          "velocity": 1
        },
        {
          "duration": 0.125,
          "durationTicks": 240,
          "midi": 72,
          "name": "C5",
          "ticks": 141600,
          "time": 73.75,
          "velocity": 1
        },
        {
          "duration": 0.125,
          "durationTicks": 240,
          "midi": 63,
          "name": "D#4",
          "ticks": 141600,
          "time": 73.75,
          "velocity": 1
        },
        {
          "duration": 0.125,
          "durationTicks": 240,
          "midi": 74,
          "name": "D5",
          "ticks": 141840,
          "time": 73.875,
          "velocity": 1
        },
        {
          "duration": 0.125,
          "durationTicks": 240,
          "midi": 65,
          "name": "F4",
          "ticks": 141840,
          "time": 73.875,
          "velocity": 1
        },
        {
          "duration": 0.25,
          "durationTicks": 480,
          "midi": 71,
          "name": "B4",
          "ticks": 141840,
          "time": 73.875,
          "velocity": 1
        },
        {
          "duration": 0.25,
          "durationTicks": 480,
          "midi": 62,
          "name": "D4",
          "ticks": 141840,
          "time": 73.875,
          "velocity": 1
        },
        {
          "duration": 0.125,
          "durationTicks": 240,
          "midi": 74,
          "name": "D5",
          "ticks": 142080,
          "time": 74,
          "velocity": 1
        },
        {
          "duration": 0.125,
          "durationTicks": 240,
          "midi": 65,
          "name": "F4",
          "ticks": 142080,
          "time": 74,
          "velocity": 1
        },
        {
          "duration": 0.125,
          "durationTicks": 240,
          "midi": 72,
          "name": "C5",
          "ticks": 142320,
          "time": 74.125,
          "velocity": 1
        },
        {
          "duration": 0.125,
          "durationTicks": 240,
          "midi": 63,
          "name": "D#4",
          "ticks": 142320,
          "time": 74.125,
          "velocity": 1
        },
        {
          "duration": 0.125,
          "durationTicks": 240,
          "midi": 74,
          "name": "D5",
          "ticks": 142560,
          "time": 74.25,
          "velocity": 1
        },
        {
          "duration": 0.125,
          "durationTicks": 240,
          "midi": 65,
          "name": "F4",
          "ticks": 142560,
          "time": 74.25,
          "velocity": 1
        },
        {
          "duration": 0.125,
          "durationTicks": 240,
          "midi": 75,
          "name": "D#5",
          "ticks": 142800,
          "time": 74.375,
          "velocity": 1
        },
        {
          "duration": 0.125,
          "durationTicks": 240,
          "midi": 67,
          "name": "G4",
          "ticks": 142800,
          "time": 74.375,
          "velocity": 1
        },
        {
          "duration": 0.125,
          "durationTicks": 240,
          "midi": 72,
          "name": "C5",
          "ticks": 143040,
          "time": 74.5,
          "velocity": 1
        },
        {
          "duration": 0.125,
          "durationTicks": 240,
          "midi": 63,
          "name": "D#4",
          "ticks": 143040,
          "time": 74.5,
          "velocity": 1
        },
        {
          "duration": 0.125,
          "durationTicks": 240,
          "midi": 71,
          "name": "B4",
          "ticks": 143280,
          "time": 74.625,
          "velocity": 1
        },
        {
          "duration": 0.125,
          "durationTicks": 240,
          "midi": 62,
          "name": "D4",
          "ticks": 143280,
          "time": 74.625,
          "velocity": 1
        },
        {
          "duration": 0.125,
          "durationTicks": 240,
          "midi": 72,
          "name": "C5",
          "ticks": 143520,
          "time": 74.75,
          "velocity": 1
        },
        {
          "duration": 0.125,
          "durationTicks": 240,
          "midi": 63,
          "name": "D#4",
          "ticks": 143520,
          "time": 74.75,
          "velocity": 1
        },
        {
          "duration": 0.25,
          "durationTicks": 480,
          "midi": 67,
          "name": "G4",
          "ticks": 143520,
          "time": 74.75,
          "velocity": 1
        },
        {
          "duration": 0.25,
          "durationTicks": 480,
          "midi": 60,
          "name": "C4",
          "ticks": 143520,
          "time": 74.75,
          "velocity": 1
        },
        {
          "duration": 0.125,
          "durationTicks": 240,
          "midi": 72,
          "name": "C5",
          "ticks": 143760,
          "time": 74.875,
          "velocity": 1
        },
        {
          "duration": 0.125,
          "durationTicks": 240,
          "midi": 63,
          "name": "D#4",
          "ticks": 143760,
          "time": 74.875,
          "velocity": 1
        },
        {
          "duration": 0.125,
          "durationTicks": 240,
          "midi": 71,
          "name": "B4",
          "ticks": 144000,
          "time": 75,
          "velocity": 1
        },
        {
          "duration": 0.125,
          "durationTicks": 240,
          "midi": 62,
          "name": "D4",
          "ticks": 144000,
          "time": 75,
          "velocity": 1
        },
        {
          "duration": 0.125,
          "durationTicks": 240,
          "midi": 72,
          "name": "C5",
          "ticks": 144240,
          "time": 75.125,
          "velocity": 1
        },
        {
          "duration": 0.125,
          "durationTicks": 240,
          "midi": 63,
          "name": "D#4",
          "ticks": 144240,
          "time": 75.125,
          "velocity": 1
        },
        {
          "duration": 0.25,
          "durationTicks": 480,
          "midi": 68,
          "name": "G#4",
          "ticks": 144480,
          "time": 75.25,
          "velocity": 1
        },
        {
          "duration": 0.25,
          "durationTicks": 480,
          "midi": 65,
          "name": "F4",
          "ticks": 144480,
          "time": 75.25,
          "velocity": 1
        },
        {
          "duration": 0.125,
          "durationTicks": 240,
          "midi": 77,
          "name": "F5",
          "ticks": 144720,
          "time": 75.375,
          "velocity": 1
        },
        {
          "duration": 0.125,
          "durationTicks": 240,
          "midi": 62,
          "name": "D4",
          "ticks": 144720,
          "time": 75.375,
          "velocity": 1
        },
        {
          "duration": 0.125,
          "durationTicks": 240,
          "midi": 75,
          "name": "D#5",
          "ticks": 144960,
          "time": 75.5,
          "velocity": 1
        },
        {
          "duration": 0.125,
          "durationTicks": 240,
          "midi": 60,
          "name": "C4",
          "ticks": 144960,
          "time": 75.5,
          "velocity": 1
        },
        {
          "duration": 0.125,
          "durationTicks": 240,
          "midi": 77,
          "name": "F5",
          "ticks": 145200,
          "time": 75.625,
          "velocity": 1
        },
        {
          "duration": 0.125,
          "durationTicks": 240,
          "midi": 62,
          "name": "D4",
          "ticks": 145200,
          "time": 75.625,
          "velocity": 1
        },
        {
          "duration": 0.25,
          "durationTicks": 480,
          "midi": 67,
          "name": "G4",
          "ticks": 145440,
          "time": 75.75,
          "velocity": 1
        },
        {
          "duration": 0.25,
          "durationTicks": 480,
          "midi": 63,
          "name": "D#4",
          "ticks": 145440,
          "time": 75.75,
          "velocity": 1
        },
        {
          "duration": 0.125,
          "durationTicks": 240,
          "midi": 75,
          "name": "D#5",
          "ticks": 145440,
          "time": 75.75,
          "velocity": 1
        },
        {
          "duration": 0.125,
          "durationTicks": 240,
          "midi": 60,
          "name": "C4",
          "ticks": 145440,
          "time": 75.75,
          "velocity": 1
        },
        {
          "duration": 0.125,
          "durationTicks": 240,
          "midi": 74,
          "name": "D5",
          "ticks": 145680,
          "time": 75.875,
          "velocity": 1
        },
        {
          "duration": 0.125,
          "durationTicks": 240,
          "midi": 59,
          "name": "B3",
          "ticks": 145680,
          "time": 75.875,
          "velocity": 1
        },
        {
          "duration": 0.125,
          "durationTicks": 240,
          "midi": 75,
          "name": "D#5",
          "ticks": 145920,
          "time": 76,
          "velocity": 1
        },
        {
          "duration": 0.125,
          "durationTicks": 240,
          "midi": 60,
          "name": "C4",
          "ticks": 145920,
          "time": 76,
          "velocity": 1
        },
        {
          "duration": 0.375,
          "durationTicks": 720,
          "midi": 65,
          "name": "F4",
          "ticks": 146160,
          "time": 76.125,
          "velocity": 1
        },
        {
          "duration": 0.375,
          "durationTicks": 720,
          "midi": 62,
          "name": "D4",
          "ticks": 146160,
          "time": 76.125,
          "velocity": 1
        },
        {
          "duration": 0.125,
          "durationTicks": 240,
          "midi": 74,
          "name": "D5",
          "ticks": 146400,
          "time": 76.25,
          "velocity": 1
        },
        {
          "duration": 0.125,
          "durationTicks": 240,
          "midi": 59,
          "name": "B3",
          "ticks": 146400,
          "time": 76.25,
          "velocity": 1
        },
        {
          "duration": 0.125,
          "durationTicks": 240,
          "midi": 72,
          "name": "C5",
          "ticks": 146640,
          "time": 76.375,
          "velocity": 1
        },
        {
          "duration": 0.125,
          "durationTicks": 240,
          "midi": 57,
          "name": "A3",
          "ticks": 146640,
          "time": 76.375,
          "velocity": 1
        },
        {
          "duration": 0.125,
          "durationTicks": 240,
          "midi": 74,
          "name": "D5",
          "ticks": 146880,
          "time": 76.5,
          "velocity": 1
        },
        {
          "duration": 0.125,
          "durationTicks": 240,
          "midi": 59,
          "name": "B3",
          "ticks": 146880,
          "time": 76.5,
          "velocity": 1
        },
        {
          "duration": 0.125,
          "durationTicks": 240,
          "midi": 63,
          "name": "D#4",
          "ticks": 147120,
          "time": 76.625,
          "velocity": 1
        },
        {
          "duration": 0.25,
          "durationTicks": 480,
          "midi": 60,
          "name": "C4",
          "ticks": 147120,
          "time": 76.625,
          "velocity": 1
        },
        {
          "duration": 0.125,
          "durationTicks": 240,
          "midi": 72,
          "name": "C5",
          "ticks": 147360,
          "time": 76.75,
          "velocity": 1
        },
        {
          "duration": 0.125,
          "durationTicks": 240,
          "midi": 63,
          "name": "D#4",
          "ticks": 147360,
          "time": 76.75,
          "velocity": 1
        },
        {
          "duration": 0.125,
          "durationTicks": 240,
          "midi": 71,
          "name": "B4",
          "ticks": 147600,
          "time": 76.875,
          "velocity": 1
        },
        {
          "duration": 0.125,
          "durationTicks": 240,
          "midi": 62,
          "name": "D4",
          "ticks": 147600,
          "time": 76.875,
          "velocity": 1
        },
        {
          "duration": 0.125,
          "durationTicks": 240,
          "midi": 72,
          "name": "C5",
          "ticks": 147600,
          "time": 76.875,
          "velocity": 1
        },
        {
          "duration": 0.125,
          "durationTicks": 240,
          "midi": 63,
          "name": "D#4",
          "ticks": 147600,
          "time": 76.875,
          "velocity": 1
        },
        {
          "duration": 0.25,
          "durationTicks": 480,
          "midi": 68,
          "name": "G#4",
          "ticks": 147840,
          "time": 77,
          "velocity": 1
        },
        {
          "duration": 0.375,
          "durationTicks": 720,
          "midi": 53,
          "name": "F3",
          "ticks": 147840,
          "time": 77,
          "velocity": 1
        },
        {
          "duration": 0.125,
          "durationTicks": 240,
          "midi": 65,
          "name": "F4",
          "ticks": 148080,
          "time": 77.125,
          "velocity": 1
        },
        {
          "duration": 0.125,
          "durationTicks": 240,
          "midi": 62,
          "name": "D4",
          "ticks": 148080,
          "time": 77.125,
          "velocity": 1
        },
        {
          "duration": 0.125,
          "durationTicks": 240,
          "midi": 63,
          "name": "D#4",
          "ticks": 148320,
          "time": 77.25,
          "velocity": 1
        },
        {
          "duration": 0.125,
          "durationTicks": 240,
          "midi": 60,
          "name": "C4",
          "ticks": 148320,
          "time": 77.25,
          "velocity": 1
        },
        {
          "duration": 0.125,
          "durationTicks": 240,
          "midi": 65,
          "name": "F4",
          "ticks": 148560,
          "time": 77.375,
          "velocity": 1
        },
        {
          "duration": 0.125,
          "durationTicks": 240,
          "midi": 62,
          "name": "D4",
          "ticks": 148560,
          "time": 77.375,
          "velocity": 1
        },
        {
          "duration": 0.25,
          "durationTicks": 480,
          "midi": 67,
          "name": "G4",
          "ticks": 148800,
          "time": 77.5,
          "velocity": 1
        },
        {
          "duration": 0.375,
          "durationTicks": 720,
          "midi": 51,
          "name": "D#3",
          "ticks": 148800,
          "time": 77.5,
          "velocity": 1
        },
        {
          "duration": 0.125,
          "durationTicks": 240,
          "midi": 63,
          "name": "D#4",
          "ticks": 149040,
          "time": 77.625,
          "velocity": 1
        },
        {
          "duration": 0.125,
          "durationTicks": 240,
          "midi": 60,
          "name": "C4",
          "ticks": 149040,
          "time": 77.625,
          "velocity": 1
        },
        {
          "duration": 0.125,
          "durationTicks": 240,
          "midi": 62,
          "name": "D4",
          "ticks": 149280,
          "time": 77.75,
          "velocity": 1
        },
        {
          "duration": 0.125,
          "durationTicks": 240,
          "midi": 59,
          "name": "B3",
          "ticks": 149280,
          "time": 77.75,
          "velocity": 1
        },
        {
          "duration": 0.125,
          "durationTicks": 240,
          "midi": 63,
          "name": "D#4",
          "ticks": 149520,
          "time": 77.875,
          "velocity": 1
        },
        {
          "duration": 0.125,
          "durationTicks": 240,
          "midi": 60,
          "name": "C4",
          "ticks": 149520,
          "time": 77.875,
          "velocity": 1
        },
        {
          "duration": 0.25,
          "durationTicks": 480,
          "midi": 65,
          "name": "F4",
          "ticks": 149760,
          "time": 78,
          "velocity": 1
        },
        {
          "duration": 0.375,
          "durationTicks": 720,
          "midi": 50,
          "name": "D3",
          "ticks": 149760,
          "time": 78,
          "velocity": 1
        },
        {
          "duration": 0.125,
          "durationTicks": 240,
          "midi": 62,
          "name": "D4",
          "ticks": 150000,
          "time": 78.125,
          "velocity": 1
        },
        {
          "duration": 0.125,
          "durationTicks": 240,
          "midi": 59,
          "name": "B3",
          "ticks": 150000,
          "time": 78.125,
          "velocity": 1
        },
        {
          "duration": 0.125,
          "durationTicks": 240,
          "midi": 60,
          "name": "C4",
          "ticks": 150240,
          "time": 78.25,
          "velocity": 1
        },
        {
          "duration": 0.125,
          "durationTicks": 240,
          "midi": 57,
          "name": "A3",
          "ticks": 150240,
          "time": 78.25,
          "velocity": 1
        },
        {
          "duration": 0.125,
          "durationTicks": 240,
          "midi": 62,
          "name": "D4",
          "ticks": 150480,
          "time": 78.375,
          "velocity": 1
        },
        {
          "duration": 0.125,
          "durationTicks": 240,
          "midi": 59,
          "name": "B3",
          "ticks": 150480,
          "time": 78.375,
          "velocity": 1
        },
        {
          "duration": 3.375,
          "durationTicks": 6480,
          "midi": 58,
          "name": "A#3",
          "ticks": 150720,
          "time": 78.5,
          "velocity": 1
        },
        {
          "duration": 3.375,
          "durationTicks": 6480,
          "midi": 55,
          "name": "G3",
          "ticks": 150720,
          "time": 78.5,
          "velocity": 1
        },
        {
          "duration": 3.375,
          "durationTicks": 6480,
          "midi": 48,
          "name": "C3",
          "ticks": 150720,
          "time": 78.5,
          "velocity": 1
        },
        {
          "duration": 0.375,
          "durationTicks": 720,
          "midi": 65,
          "name": "F4",
          "ticks": 150720,
          "time": 78.5,
          "velocity": 1
        },
        {
          "duration": 0.125,
          "durationTicks": 240,
          "midi": 64,
          "name": "E4",
          "ticks": 151440,
          "time": 78.875,
          "velocity": 1
        },
        {
          "duration": 0.125,
          "durationTicks": 240,
          "midi": 65,
          "name": "F4",
          "ticks": 151680,
          "time": 79,
          "velocity": 1
        },
        {
          "duration": 0.125,
          "durationTicks": 240,
          "midi": 64,
          "name": "E4",
          "ticks": 151680,
          "time": 79,
          "velocity": 1
        },
        {
          "duration": 0.125,
          "durationTicks": 240,
          "midi": 65,
          "name": "F4",
          "ticks": 151920,
          "time": 79.125,
          "velocity": 1
        },
        {
          "duration": 0.125,
          "durationTicks": 240,
          "midi": 64,
          "name": "E4",
          "ticks": 152160,
          "time": 79.25,
          "velocity": 1
        },
        {
          "duration": 0.125,
          "durationTicks": 240,
          "midi": 65,
          "name": "F4",
          "ticks": 152160,
          "time": 79.25,
          "velocity": 1
        },
        {
          "duration": 1.125,
          "durationTicks": 2160,
          "midi": 64,
          "name": "E4",
          "ticks": 152400,
          "time": 79.375,
          "velocity": 1
        },
        {
          "duration": 0.125,
          "durationTicks": 240,
          "midi": 60,
          "name": "C4",
          "ticks": 155040,
          "time": 80.75,
          "velocity": 1
        },
        {
          "duration": 0.125,
          "durationTicks": 240,
          "midi": 62,
          "name": "D4",
          "ticks": 155280,
          "time": 80.875,
          "velocity": 1
        },
        {
          "duration": 0.125,
          "durationTicks": 240,
          "midi": 64,
          "name": "E4",
          "ticks": 155520,
          "time": 81,
          "velocity": 1
        },
        {
          "duration": 0.125,
          "durationTicks": 240,
          "midi": 65,
          "name": "F4",
          "ticks": 155760,
          "time": 81.125,
          "velocity": 1
        },
        {
          "duration": 0.125,
          "durationTicks": 240,
          "midi": 67,
          "name": "G4",
          "ticks": 156000,
          "time": 81.25,
          "velocity": 1
        },
        {
          "duration": 0.125,
          "durationTicks": 240,
          "midi": 68,
          "name": "G#4",
          "ticks": 156480,
          "time": 81.5,
          "velocity": 1
        },
        {
          "duration": 0.125,
          "durationTicks": 240,
          "midi": 70,
          "name": "A#4",
          "ticks": 156720,
          "time": 81.625,
          "velocity": 1
        },
        {
          "duration": 0.125,
          "durationTicks": 240,
          "midi": 72,
          "name": "C5",
          "ticks": 156960,
          "time": 81.75,
          "velocity": 1
        },
        {
          "duration": 0.125,
          "durationTicks": 240,
          "midi": 70,
          "name": "A#4",
          "ticks": 157200,
          "time": 81.875,
          "velocity": 1
        },
        {
          "duration": 0.125,
          "durationTicks": 240,
          "midi": 68,
          "name": "G#4",
          "ticks": 157440,
          "time": 82,
          "velocity": 1
        },
        {
          "duration": 0.125,
          "durationTicks": 240,
          "midi": 67,
          "name": "G4",
          "ticks": 157680,
          "time": 82.125,
          "velocity": 1
        },
        {
          "duration": 0.25,
          "durationTicks": 480,
          "midi": 65,
          "name": "F4",
          "ticks": 157920,
          "time": 82.25,
          "velocity": 1
        },
        {
          "duration": 0.125,
          "durationTicks": 240,
          "midi": 67,
          "name": "G4",
          "ticks": 158640,
          "time": 82.625,
          "velocity": 1
        },
        {
          "duration": 0.125,
          "durationTicks": 240,
          "midi": 64,
          "name": "E4",
          "ticks": 158880,
          "time": 82.75,
          "velocity": 1
        },
        {
          "duration": 0.125,
          "durationTicks": 240,
          "midi": 65,
          "name": "F4",
          "ticks": 159120,
          "time": 82.875,
          "velocity": 1
        },
        {
          "duration": 3,
          "durationTicks": 5760,
          "midi": 56,
          "name": "G#3",
          "ticks": 159120,
          "time": 82.875,
          "velocity": 1
        },
        {
          "duration": 1.25,
          "durationTicks": 2400,
          "midi": 60,
          "name": "C4",
          "ticks": 159120,
          "time": 82.875,
          "velocity": 1
        },
        {
          "duration": 3,
          "durationTicks": 5760,
          "midi": 53,
          "name": "F3",
          "ticks": 159120,
          "time": 82.875,
          "velocity": 1
        },
        {
          "duration": 3,
          "durationTicks": 5760,
          "midi": 48,
          "name": "C3",
          "ticks": 159120,
          "time": 82.875,
          "velocity": 1
        },
        {
          "duration": 0.125,
          "durationTicks": 240,
          "midi": 64,
          "name": "E4",
          "ticks": 159120,
          "time": 82.875,
          "velocity": 1
        },
        {
          "duration": 0.125,
          "durationTicks": 240,
          "midi": 65,
          "name": "F4",
          "ticks": 159360,
          "time": 83,
          "velocity": 1
        },
        {
          "duration": 0.125,
          "durationTicks": 240,
          "midi": 64,
          "name": "E4",
          "ticks": 159600,
          "time": 83.125,
          "velocity": 1
        },
        {
          "duration": 0.875,
          "durationTicks": 1680,
          "midi": 65,
          "name": "F4",
          "ticks": 159600,
          "time": 83.125,
          "velocity": 1
        },
        {
          "duration": 0.125,
          "durationTicks": 240,
          "midi": 67,
          "name": "G4",
          "ticks": 161520,
          "time": 84.125,
          "velocity": 1
        },
        {
          "duration": 0.125,
          "durationTicks": 240,
          "midi": 65,
          "name": "F4",
          "ticks": 161760,
          "time": 84.25,
          "velocity": 1
        },
        {
          "duration": 0.125,
          "durationTicks": 240,
          "midi": 64,
          "name": "E4",
          "ticks": 162000,
          "time": 84.375,
          "velocity": 1
        },
        {
          "duration": 0.125,
          "durationTicks": 240,
          "midi": 65,
          "name": "F4",
          "ticks": 162240,
          "time": 84.5,
          "velocity": 1
        },
        {
          "duration": 0.125,
          "durationTicks": 240,
          "midi": 67,
          "name": "G4",
          "ticks": 162720,
          "time": 84.75,
          "velocity": 1
        },
        {
          "duration": 0.125,
          "durationTicks": 240,
          "midi": 68,
          "name": "G#4",
          "ticks": 162960,
          "time": 84.875,
          "velocity": 1
        },
        {
          "duration": 0.125,
          "durationTicks": 240,
          "midi": 67,
          "name": "G4",
          "ticks": 163200,
          "time": 85,
          "velocity": 1
        },
        {
          "duration": 0.125,
          "durationTicks": 240,
          "midi": 65,
          "name": "F4",
          "ticks": 163440,
          "time": 85.125,
          "velocity": 1
        },
        {
          "duration": 0.125,
          "durationTicks": 240,
          "midi": 63,
          "name": "D#4",
          "ticks": 163920,
          "time": 85.375,
          "velocity": 1
        },
        {
          "duration": 0.125,
          "durationTicks": 240,
          "midi": 62,
          "name": "D4",
          "ticks": 164160,
          "time": 85.5,
          "velocity": 1
        },
        {
          "duration": 0.125,
          "durationTicks": 240,
          "midi": 63,
          "name": "D#4",
          "ticks": 164400,
          "time": 85.625,
          "velocity": 1
        },
        {
          "duration": 0.125,
          "durationTicks": 240,
          "midi": 65,
          "name": "F4",
          "ticks": 164640,
          "time": 85.75,
          "velocity": 1
        },
        {
          "duration": 0.125,
          "durationTicks": 240,
          "midi": 62,
          "name": "D4",
          "ticks": 164880,
          "time": 85.875,
          "velocity": 1
        },
        {
          "duration": 0.125,
          "durationTicks": 240,
          "midi": 63,
          "name": "D#4",
          "ticks": 165360,
          "time": 86.125,
          "velocity": 1
        },
        {
          "duration": 0.125,
          "durationTicks": 240,
          "midi": 65,
          "name": "F4",
          "ticks": 165600,
          "time": 86.25,
          "velocity": 1
        },
        {
          "duration": 0.75,
          "durationTicks": 1440,
          "midi": 59,
          "name": "B3",
          "ticks": 165840,
          "time": 86.375,
          "velocity": 1
        },
        {
          "duration": 2.25,
          "durationTicks": 4320,
          "midi": 36,
          "name": "C2",
          "ticks": 166320,
          "time": 86.625,
          "velocity": 1
        },
        {
          "duration": 2,
          "durationTicks": 3840,
          "midi": 47,
          "name": "B2",
          "ticks": 166800,
          "time": 86.875,
          "velocity": 1
        },
        {
          "duration": 0.125,
          "durationTicks": 240,
          "midi": 50,
          "name": "D3",
          "ticks": 167040,
          "time": 87,
          "velocity": 1
        },
        {
          "duration": 0.125,
          "durationTicks": 240,
          "midi": 53,
          "name": "F3",
          "ticks": 167280,
          "time": 87.125,
          "velocity": 1
        },
        {
          "duration": 0.125,
          "durationTicks": 240,
          "midi": 56,
          "name": "G#3",
          "ticks": 167520,
          "time": 87.25,
          "velocity": 1
        },
        {
          "duration": 0.125,
          "durationTicks": 240,
          "midi": 55,
          "name": "G3",
          "ticks": 167760,
          "time": 87.375,
          "velocity": 1
        },
        {
          "duration": 0.125,
          "durationTicks": 240,
          "midi": 53,
          "name": "F3",
          "ticks": 168240,
          "time": 87.625,
          "velocity": 1
        },
        {
          "duration": 0.25,
          "durationTicks": 480,
          "midi": 59,
          "name": "B3",
          "ticks": 168480,
          "time": 87.75,
          "velocity": 1
        },
        {
          "duration": 0.125,
          "durationTicks": 240,
          "midi": 53,
          "name": "F3",
          "ticks": 168720,
          "time": 87.875,
          "velocity": 1
        },
        {
          "duration": 0.25,
          "durationTicks": 480,
          "midi": 62,
          "name": "D4",
          "ticks": 168960,
          "time": 88,
          "velocity": 1
        },
        {
          "duration": 0.125,
          "durationTicks": 240,
          "midi": 53,
          "name": "F3",
          "ticks": 169440,
          "time": 88.25,
          "velocity": 1
        },
        {
          "duration": 0.125,
          "durationTicks": 240,
          "midi": 59,
          "name": "B3",
          "ticks": 169680,
          "time": 88.375,
          "velocity": 1
        },
        {
          "duration": 0.125,
          "durationTicks": 240,
          "midi": 56,
          "name": "G#3",
          "ticks": 169920,
          "time": 88.5,
          "velocity": 1
        },
        {
          "duration": 0.125,
          "durationTicks": 240,
          "midi": 55,
          "name": "G3",
          "ticks": 170160,
          "time": 88.625,
          "velocity": 1
        },
        {
          "duration": 0.125,
          "durationTicks": 240,
          "midi": 53,
          "name": "F3",
          "ticks": 170400,
          "time": 88.75,
          "velocity": 1
        },
        {
          "duration": 3.25,
          "durationTicks": 6240,
          "midi": 36,
          "name": "C2",
          "ticks": 170880,
          "time": 89,
          "velocity": 1
        },
        {
          "duration": 0.5,
          "durationTicks": 960,
          "midi": 52,
          "name": "E3",
          "ticks": 170880,
          "time": 89,
          "velocity": 1
        },
        {
          "duration": 0.125,
          "durationTicks": 240,
          "midi": 61,
          "name": "C#4",
          "ticks": 171120,
          "time": 89.125,
          "velocity": 1
        },
        {
          "duration": 0.125,
          "durationTicks": 240,
          "midi": 58,
          "name": "A#3",
          "ticks": 171360,
          "time": 89.25,
          "velocity": 1
        },
        {
          "duration": 0.125,
          "durationTicks": 240,
          "midi": 55,
          "name": "G3",
          "ticks": 171600,
          "time": 89.375,
          "velocity": 1
        },
        {
          "duration": 0.125,
          "durationTicks": 240,
          "midi": 60,
          "name": "C4",
          "ticks": 172080,
          "time": 89.625,
          "velocity": 1
        },
        {
          "duration": 0.125,
          "durationTicks": 240,
          "midi": 56,
          "name": "G#3",
          "ticks": 172320,
          "time": 89.75,
          "velocity": 1
        },
        {
          "duration": 0.125,
          "durationTicks": 240,
          "midi": 53,
          "name": "F3",
          "ticks": 172560,
          "time": 89.875,
          "velocity": 1
        },
        {
          "duration": 0.125,
          "durationTicks": 240,
          "midi": 56,
          "name": "G#3",
          "ticks": 172800,
          "time": 90,
          "velocity": 1
        },
        {
          "duration": 0.25,
          "durationTicks": 480,
          "midi": 55,
          "name": "G3",
          "ticks": 173040,
          "time": 90.125,
          "velocity": 1
        },
        {
          "duration": 0.125,
          "durationTicks": 240,
          "midi": 58,
          "name": "A#3",
          "ticks": 173520,
          "time": 90.375,
          "velocity": 1
        },
        {
          "duration": 0.125,
          "durationTicks": 240,
          "midi": 55,
          "name": "G3",
          "ticks": 173760,
          "time": 90.5,
          "velocity": 1
        },
        {
          "duration": 0.125,
          "durationTicks": 240,
          "midi": 52,
          "name": "E3",
          "ticks": 174000,
          "time": 90.625,
          "velocity": 1
        },
        {
          "duration": 0.125,
          "durationTicks": 240,
          "midi": 56,
          "name": "G#3",
          "ticks": 174240,
          "time": 90.75,
          "velocity": 1
        },
        {
          "duration": 0.125,
          "durationTicks": 240,
          "midi": 53,
          "name": "F3",
          "ticks": 174720,
          "time": 91,
          "velocity": 1
        },
        {
          "duration": 0.125,
          "durationTicks": 240,
          "midi": 50,
          "name": "D3",
          "ticks": 174960,
          "time": 91.125,
          "velocity": 1
        },
        {
          "duration": 0.125,
          "durationTicks": 240,
          "midi": 53,
          "name": "F3",
          "ticks": 175200,
          "time": 91.25,
          "velocity": 1
        },
        {
          "duration": 0.25,
          "durationTicks": 480,
          "midi": 52,
          "name": "E3",
          "ticks": 175440,
          "time": 91.375,
          "velocity": 1
        },
        {
          "duration": 0.125,
          "durationTicks": 240,
          "midi": 55,
          "name": "G3",
          "ticks": 175920,
          "time": 91.625,
          "velocity": 1
        },
        {
          "duration": 0.125,
          "durationTicks": 240,
          "midi": 52,
          "name": "E3",
          "ticks": 176160,
          "time": 91.75,
          "velocity": 1
        },
        {
          "duration": 0.125,
          "durationTicks": 240,
          "midi": 48,
          "name": "C3",
          "ticks": 176400,
          "time": 91.875,
          "velocity": 1
        },
        {
          "duration": 0.25,
          "durationTicks": 480,
          "midi": 53,
          "name": "F3",
          "ticks": 176640,
          "time": 92,
          "velocity": 1
        },
        {
          "duration": 0.125,
          "durationTicks": 240,
          "midi": 50,
          "name": "D3",
          "ticks": 177120,
          "time": 92.25,
          "velocity": 1
        },
        {
          "duration": 0.125,
          "durationTicks": 240,
          "midi": 47,
          "name": "B2",
          "ticks": 177360,
          "time": 92.375,
          "velocity": 1
        },
        {
          "duration": 0.125,
          "durationTicks": 240,
          "midi": 50,
          "name": "D3",
          "ticks": 177600,
          "time": 92.5,
          "velocity": 1
        },
        {
          "duration": 7.875,
          "durationTicks": 15120,
          "midi": 36,
          "name": "C2",
          "ticks": 178080,
          "time": 92.75,
          "velocity": 1
        },
        {
          "duration": 4.875,
          "durationTicks": 9360,
          "midi": 43,
          "name": "G2",
          "ticks": 178320,
          "time": 92.875,
          "velocity": 1
        },
        {
          "duration": 7.5,
          "durationTicks": 14400,
          "midi": 48,
          "name": "C3",
          "ticks": 178800,
          "time": 93.125,
          "velocity": 1
        },
        {
          "duration": 0.125,
          "durationTicks": 240,
          "midi": 50,
          "name": "D3",
          "ticks": 179040,
          "time": 93.25,
          "velocity": 1
        },
        {
          "duration": 0.5,
          "durationTicks": 960,
          "midi": 52,
          "name": "E3",
          "ticks": 179520,
          "time": 93.5,
          "velocity": 1
        },
        {
          "duration": 0.125,
          "durationTicks": 240,
          "midi": 55,
          "name": "G3",
          "ticks": 179760,
          "time": 93.625,
          "velocity": 1
        },
        {
          "duration": 0.125,
          "durationTicks": 240,
          "midi": 58,
          "name": "A#3",
          "ticks": 180240,
          "time": 93.875,
          "velocity": 1
        },
        {
          "duration": 0.125,
          "durationTicks": 240,
          "midi": 55,
          "name": "G3",
          "ticks": 180480,
          "time": 94,
          "velocity": 1
        },
        {
          "duration": 0.5,
          "durationTicks": 960,
          "midi": 56,
          "name": "G#3",
          "ticks": 180960,
          "time": 94.25,
          "velocity": 1
        },
        {
          "duration": 0.125,
          "durationTicks": 240,
          "midi": 60,
          "name": "C4",
          "ticks": 181200,
          "time": 94.375,
          "velocity": 1
        },
        {
          "duration": 0.125,
          "durationTicks": 240,
          "midi": 65,
          "name": "F4",
          "ticks": 181680,
          "time": 94.625,
          "velocity": 1
        },
        {
          "duration": 0.125,
          "durationTicks": 240,
          "midi": 62,
          "name": "D4",
          "ticks": 181920,
          "time": 94.75,
          "velocity": 1
        },
        {
          "duration": 0.25,
          "durationTicks": 480,
          "midi": 65,
          "name": "F4",
          "ticks": 182400,
          "time": 95,
          "velocity": 1
        },
        {
          "duration": 0.125,
          "durationTicks": 240,
          "midi": 68,
          "name": "G#4",
          "ticks": 182640,
          "time": 95.125,
          "velocity": 1
        },
        {
          "duration": 0.125,
          "durationTicks": 240,
          "midi": 72,
          "name": "C5",
          "ticks": 183120,
          "time": 95.375,
          "velocity": 1
        },
        {
          "duration": 0.25,
          "durationTicks": 480,
          "midi": 71,
          "name": "B4",
          "ticks": 183360,
          "time": 95.5,
          "velocity": 1
        },
        {
          "duration": 4.875,
          "durationTicks": 9360,
          "midi": 72,
          "name": "C5",
          "ticks": 184080,
          "time": 95.875,
          "velocity": 1
        },
        {
          "duration": 0.375,
          "durationTicks": 720,
          "midi": 67,
          "name": "G4",
          "ticks": 185040,
          "time": 96.375,
          "velocity": 1
        },
        {
          "duration": 0.875,
          "durationTicks": 1680,
          "midi": 65,
          "name": "F4",
          "ticks": 186000,
          "time": 96.875,
          "velocity": 1
        },
        {
          "duration": 0.5,
          "durationTicks": 960,
          "midi": 62,
          "name": "D4",
          "ticks": 186720,
          "time": 97.25,
          "velocity": 1
        },
        {
          "duration": 2.875,
          "durationTicks": 5520,
          "midi": 64,
          "name": "E4",
          "ticks": 187680,
          "time": 97.75,
          "velocity": 1
        },
        {
          "duration": 0.125,
          "durationTicks": 240,
          "midi": 72,
          "name": "C5",
          "ticks": 196080,
          "time": 102.125,
          "velocity": 1
        },
        {
          "duration": 0.125,
          "durationTicks": 240,
          "midi": 71,
          "name": "B4",
          "ticks": 196560,
          "time": 102.375,
          "velocity": 1
        },
        {
          "duration": 0.375,
          "durationTicks": 720,
          "midi": 72,
          "name": "C5",
          "ticks": 196800,
          "time": 102.5,
          "velocity": 1
        },
        {
          "duration": 0.25,
          "durationTicks": 480,
          "midi": 67,
          "name": "G4",
          "ticks": 197760,
          "time": 103,
          "velocity": 1
        },
        {
          "duration": 0.375,
          "durationTicks": 720,
          "midi": 68,
          "name": "G#4",
          "ticks": 198480,
          "time": 103.375,
          "velocity": 1
        },
        {
          "duration": 0.125,
          "durationTicks": 240,
          "midi": 72,
          "name": "C5",
          "ticks": 199440,
          "time": 103.875,
          "velocity": 1
        },
        {
          "duration": 0.125,
          "durationTicks": 240,
          "midi": 71,
          "name": "B4",
          "ticks": 199920,
          "time": 104.125,
          "velocity": 1
        },
        {
          "duration": 0.375,
          "durationTicks": 720,
          "midi": 72,
          "name": "C5",
          "ticks": 200160,
          "time": 104.25,
          "velocity": 1
        },
        {
          "duration": 0.25,
          "durationTicks": 480,
          "midi": 74,
          "name": "D5",
          "ticks": 201120,
          "time": 104.75,
          "velocity": 1
        },
        {
          "duration": 0.375,
          "durationTicks": 720,
          "midi": 67,
          "name": "G4",
          "ticks": 201840,
          "time": 105.125,
          "velocity": 1
        },
        {
          "duration": 0.125,
          "durationTicks": 240,
          "midi": 72,
          "name": "C5",
          "ticks": 202800,
          "time": 105.625,
          "velocity": 1
        },
        {
          "duration": 0.125,
          "durationTicks": 240,
          "midi": 71,
          "name": "B4",
          "ticks": 203280,
          "time": 105.875,
          "velocity": 1
        },
        {
          "duration": 0.375,
          "durationTicks": 720,
          "midi": 72,
          "name": "C5",
          "ticks": 203520,
          "time": 106,
          "velocity": 1
        },
        {
          "duration": 0.375,
          "durationTicks": 720,
          "midi": 74,
          "name": "D5",
          "ticks": 204480,
          "time": 106.5,
          "velocity": 1
        },
        {
          "duration": 0.25,
          "durationTicks": 480,
          "midi": 65,
          "name": "F4",
          "ticks": 205200,
          "time": 106.875,
          "velocity": 1
        },
        {
          "duration": 0.25,
          "durationTicks": 480,
          "midi": 67,
          "name": "G4",
          "ticks": 205680,
          "time": 107.125,
          "velocity": 1
        },
        {
          "duration": 0.125,
          "durationTicks": 240,
          "midi": 68,
          "name": "G#4",
          "ticks": 206160,
          "time": 107.375,
          "velocity": 1
        },
        {
          "duration": 0.125,
          "durationTicks": 240,
          "midi": 67,
          "name": "G4",
          "ticks": 206400,
          "time": 107.5,
          "velocity": 1
        },
        {
          "duration": 0.75,
          "durationTicks": 1440,
          "midi": 68,
          "name": "G#4",
          "ticks": 206400,
          "time": 107.5,
          "velocity": 1
        },
        {
          "duration": 0.125,
          "durationTicks": 240,
          "midi": 67,
          "name": "G4",
          "ticks": 207840,
          "time": 108.25,
          "velocity": 1
        },
        {
          "duration": 0.125,
          "durationTicks": 240,
          "midi": 65,
          "name": "F4",
          "ticks": 208320,
          "time": 108.5,
          "velocity": 1
        },
        {
          "duration": 0.25,
          "durationTicks": 480,
          "midi": 63,
          "name": "D#4",
          "ticks": 208560,
          "time": 108.625,
          "velocity": 1
        },
        {
          "duration": 0.25,
          "durationTicks": 480,
          "midi": 72,
          "name": "C5",
          "ticks": 209040,
          "time": 108.875,
          "velocity": 1
        },
        {
          "duration": 0.125,
          "durationTicks": 240,
          "midi": 79,
          "name": "G5",
          "ticks": 209520,
          "time": 109.125,
          "velocity": 1
        },
        {
          "duration": 0.125,
          "durationTicks": 240,
          "midi": 71,
          "name": "B4",
          "ticks": 209520,
          "time": 109.125,
          "velocity": 1
        },
        {
          "duration": 0.125,
          "durationTicks": 240,
          "midi": 78,
          "name": "F#5",
          "ticks": 210000,
          "time": 109.375,
          "velocity": 1
        },
        {
          "duration": 0.125,
          "durationTicks": 240,
          "midi": 69,
          "name": "A4",
          "ticks": 210000,
          "time": 109.375,
          "velocity": 1
        },
        {
          "duration": 0.375,
          "durationTicks": 720,
          "midi": 79,
          "name": "G5",
          "ticks": 210240,
          "time": 109.5,
          "velocity": 1
        },
        {
          "duration": 0.25,
          "durationTicks": 480,
          "midi": 67,
          "name": "G4",
          "ticks": 210240,
          "time": 109.5,
          "velocity": 1
        },
        {
          "duration": 0.25,
          "durationTicks": 480,
          "midi": 65,
          "name": "F4",
          "ticks": 210720,
          "time": 109.75,
          "velocity": 1
        },
        {
          "duration": 0.25,
          "durationTicks": 480,
          "midi": 72,
          "name": "C5",
          "ticks": 211200,
          "time": 110,
          "velocity": 1
        },
        {
          "duration": 0.125,
          "durationTicks": 240,
          "midi": 63,
          "name": "D#4",
          "ticks": 211200,
          "time": 110,
          "velocity": 1
        },
        {
          "duration": 0.125,
          "durationTicks": 240,
          "midi": 62,
          "name": "D4",
          "ticks": 211680,
          "time": 110.25,
          "velocity": 1
        },
        {
          "duration": 0.375,
          "durationTicks": 720,
          "midi": 75,
          "name": "D#5",
          "ticks": 211920,
          "time": 110.375,
          "velocity": 1
        },
        {
          "duration": 0.375,
          "durationTicks": 720,
          "midi": 60,
          "name": "C4",
          "ticks": 211920,
          "time": 110.375,
          "velocity": 1
        },
        {
          "duration": 0.125,
          "durationTicks": 240,
          "midi": 79,
          "name": "G5",
          "ticks": 212880,
          "time": 110.875,
          "velocity": 1
        },
        {
          "duration": 0.375,
          "durationTicks": 720,
          "midi": 75,
          "name": "D#5",
          "ticks": 212880,
          "time": 110.875,
          "velocity": 1
        },
        {
          "duration": 0.125,
          "durationTicks": 240,
          "midi": 78,
          "name": "F#5",
          "ticks": 213360,
          "time": 111.125,
          "velocity": 1
        },
        {
          "duration": 0.375,
          "durationTicks": 720,
          "midi": 79,
          "name": "G5",
          "ticks": 213600,
          "time": 111.25,
          "velocity": 1
        },
        {
          "duration": 0.375,
          "durationTicks": 720,
          "midi": 74,
          "name": "D5",
          "ticks": 213600,
          "time": 111.25,
          "velocity": 1
        },
        {
          "duration": 0.25,
          "durationTicks": 480,
          "midi": 81,
          "name": "A5",
          "ticks": 214560,
          "time": 111.75,
          "velocity": 1
        },
        {
          "duration": 0.375,
          "durationTicks": 720,
          "midi": 72,
          "name": "C5",
          "ticks": 214560,
          "time": 111.75,
          "velocity": 1
        },
        {
          "duration": 0.375,
          "durationTicks": 720,
          "midi": 74,
          "name": "D5",
          "ticks": 215280,
          "time": 112.125,
          "velocity": 1
        },
        {
          "duration": 0.375,
          "durationTicks": 720,
          "midi": 70,
          "name": "A#4",
          "ticks": 215280,
          "time": 112.125,
          "velocity": 1
        },
        {
          "duration": 0.125,
          "durationTicks": 240,
          "midi": 79,
          "name": "G5",
          "ticks": 216240,
          "time": 112.625,
          "velocity": 1
        },
        {
          "duration": 0.375,
          "durationTicks": 720,
          "midi": 69,
          "name": "A4",
          "ticks": 216240,
          "time": 112.625,
          "velocity": 1
        },
        {
          "duration": 0.125,
          "durationTicks": 240,
          "midi": 78,
          "name": "F#5",
          "ticks": 216720,
          "time": 112.875,
          "velocity": 1
        },
        {
          "duration": 0.375,
          "durationTicks": 720,
          "midi": 79,
          "name": "G5",
          "ticks": 216960,
          "time": 113,
          "velocity": 1
        },
        {
          "duration": 0.375,
          "durationTicks": 720,
          "midi": 70,
          "name": "A#4",
          "ticks": 216960,
          "time": 113,
          "velocity": 1
        },
        {
          "duration": 0.375,
          "durationTicks": 720,
          "midi": 81,
          "name": "A5",
          "ticks": 217920,
          "time": 113.5,
          "velocity": 1
        },
        {
          "duration": 0.375,
          "durationTicks": 720,
          "midi": 72,
          "name": "C5",
          "ticks": 217920,
          "time": 113.5,
          "velocity": 1
        },
        {
          "duration": 0.25,
          "durationTicks": 480,
          "midi": 72,
          "name": "C5",
          "ticks": 218640,
          "time": 113.875,
          "velocity": 1
        },
        {
          "duration": 0.375,
          "durationTicks": 720,
          "midi": 66,
          "name": "F#4",
          "ticks": 218640,
          "time": 113.875,
          "velocity": 1
        },
        {
          "duration": 0.25,
          "durationTicks": 480,
          "midi": 74,
          "name": "D5",
          "ticks": 219120,
          "time": 114.125,
          "velocity": 1
        },
        {
          "duration": 0.125,
          "durationTicks": 240,
          "midi": 72,
          "name": "C5",
          "ticks": 219600,
          "time": 114.375,
          "velocity": 1
        },
        {
          "duration": 0.375,
          "durationTicks": 720,
          "midi": 67,
          "name": "G4",
          "ticks": 219600,
          "time": 114.375,
          "velocity": 1
        },
        {
          "duration": 0.125,
          "durationTicks": 240,
          "midi": 74,
          "name": "D5",
          "ticks": 219840,
          "time": 114.5,
          "velocity": 1
        },
        {
          "duration": 0.625,
          "durationTicks": 1200,
          "midi": 75,
          "name": "D#5",
          "ticks": 220080,
          "time": 114.625,
          "velocity": 1
        },
        {
          "duration": 0.375,
          "durationTicks": 720,
          "midi": 69,
          "name": "A4",
          "ticks": 220320,
          "time": 114.75,
          "velocity": 1
        },
        {
          "duration": 0.125,
          "durationTicks": 240,
          "midi": 74,
          "name": "D5",
          "ticks": 221280,
          "time": 115.25,
          "velocity": 1
        },
        {
          "duration": 0.375,
          "durationTicks": 720,
          "midi": 66,
          "name": "F#4",
          "ticks": 221280,
          "time": 115.25,
          "velocity": 1
        },
        {
          "duration": 0.25,
          "durationTicks": 480,
          "midi": 72,
          "name": "C5",
          "ticks": 221520,
          "time": 115.375,
          "velocity": 1
        },
        {
          "duration": 0.375,
          "durationTicks": 720,
          "midi": 70,
          "name": "A#4",
          "ticks": 222000,
          "time": 115.625,
          "velocity": 1
        },
        {
          "duration": 0.625,
          "durationTicks": 1200,
          "midi": 67,
          "name": "G4",
          "ticks": 222000,
          "time": 115.625,
          "velocity": 1
        },
        {
          "duration": 0.125,
          "durationTicks": 240,
          "midi": 75,
          "name": "D#5",
          "ticks": 222960,
          "time": 116.125,
          "velocity": 1
        },
        {
          "duration": 0.25,
          "durationTicks": 480,
          "midi": 74,
          "name": "D5",
          "ticks": 223200,
          "time": 116.25,
          "velocity": 1
        },
        {
          "duration": 0.375,
          "durationTicks": 720,
          "midi": 75,
          "name": "D#5",
          "ticks": 223680,
          "time": 116.5,
          "velocity": 1
        },
        {
          "duration": 0.125,
          "durationTicks": 240,
          "midi": 60,
          "name": "C4",
          "ticks": 224160,
          "time": 116.75,
          "velocity": 1
        },
        {
          "duration": 0.375,
          "durationTicks": 720,
          "midi": 67,
          "name": "G4",
          "ticks": 224640,
          "time": 117,
          "velocity": 1
        },
        {
          "duration": 0.125,
          "durationTicks": 240,
          "midi": 62,
          "name": "D4",
          "ticks": 224640,
          "time": 117,
          "velocity": 1
        },
        {
          "duration": 0.25,
          "durationTicks": 480,
          "midi": 63,
          "name": "D#4",
          "ticks": 224880,
          "time": 117.125,
          "velocity": 1
        },
        {
          "duration": 0.375,
          "durationTicks": 720,
          "midi": 68,
          "name": "G#4",
          "ticks": 225360,
          "time": 117.375,
          "velocity": 1
        },
        {
          "duration": 0.25,
          "durationTicks": 480,
          "midi": 65,
          "name": "F4",
          "ticks": 225360,
          "time": 117.375,
          "velocity": 1
        },
        {
          "duration": 0.125,
          "durationTicks": 240,
          "midi": 67,
          "name": "G4",
          "ticks": 225840,
          "time": 117.625,
          "velocity": 1
        },
        {
          "duration": 0.125,
          "durationTicks": 240,
          "midi": 77,
          "name": "F5",
          "ticks": 226320,
          "time": 117.875,
          "velocity": 1
        },
        {
          "duration": 0.5,
          "durationTicks": 960,
          "midi": 68,
          "name": "G#4",
          "ticks": 226320,
          "time": 117.875,
          "velocity": 1
        },
        {
          "duration": 0.25,
          "durationTicks": 480,
          "midi": 75,
          "name": "D#5",
          "ticks": 226560,
          "time": 118,
          "velocity": 1
        },
        {
          "duration": 0.375,
          "durationTicks": 720,
          "midi": 77,
          "name": "F5",
          "ticks": 227040,
          "time": 118.25,
          "velocity": 1
        },
        {
          "duration": 0.125,
          "durationTicks": 240,
          "midi": 62,
          "name": "D4",
          "ticks": 227520,
          "time": 118.5,
          "velocity": 1
        },
        {
          "duration": 0.375,
          "durationTicks": 720,
          "midi": 69,
          "name": "A4",
          "ticks": 228000,
          "time": 118.75,
          "velocity": 1
        },
        {
          "duration": 0.125,
          "durationTicks": 240,
          "midi": 63,
          "name": "D#4",
          "ticks": 228000,
          "time": 118.75,
          "velocity": 1
        },
        {
          "duration": 0.25,
          "durationTicks": 480,
          "midi": 65,
          "name": "F4",
          "ticks": 228240,
          "time": 118.875,
          "velocity": 1
        },
        {
          "duration": 0.375,
          "durationTicks": 720,
          "midi": 70,
          "name": "A#4",
          "ticks": 228720,
          "time": 119.125,
          "velocity": 1
        },
        {
          "duration": 0.25,
          "durationTicks": 480,
          "midi": 67,
          "name": "G4",
          "ticks": 228720,
          "time": 119.125,
          "velocity": 1
        },
        {
          "duration": 0.125,
          "durationTicks": 240,
          "midi": 69,
          "name": "A4",
          "ticks": 229200,
          "time": 119.375,
          "velocity": 1
        },
        {
          "duration": 0.125,
          "durationTicks": 240,
          "midi": 79,
          "name": "G5",
          "ticks": 229680,
          "time": 119.625,
          "velocity": 1
        },
        {
          "duration": 0.5,
          "durationTicks": 960,
          "midi": 70,
          "name": "A#4",
          "ticks": 229680,
          "time": 119.625,
          "velocity": 1
        },
        {
          "duration": 0.25,
          "durationTicks": 480,
          "midi": 77,
          "name": "F5",
          "ticks": 229920,
          "time": 119.75,
          "velocity": 1
        },
        {
          "duration": 0.375,
          "durationTicks": 720,
          "midi": 79,
          "name": "G5",
          "ticks": 230400,
          "time": 120,
          "velocity": 1
        },
        {
          "duration": 0.125,
          "durationTicks": 240,
          "midi": 63,
          "name": "D#4",
          "ticks": 230880,
          "time": 120.25,
          "velocity": 1
        },
        {
          "duration": 0.375,
          "durationTicks": 720,
          "midi": 71,
          "name": "B4",
          "ticks": 231360,
          "time": 120.5,
          "velocity": 1
        },
        {
          "duration": 0.125,
          "durationTicks": 240,
          "midi": 65,
          "name": "F4",
          "ticks": 231360,
          "time": 120.5,
          "velocity": 1
        },
        {
          "duration": 0.25,
          "durationTicks": 480,
          "midi": 67,
          "name": "G4",
          "ticks": 231600,
          "time": 120.625,
          "velocity": 1
        },
        {
          "duration": 0.125,
          "durationTicks": 240,
          "midi": 72,
          "name": "C5",
          "ticks": 232080,
          "time": 120.875,
          "velocity": 1
        },
        {
          "duration": 0.25,
          "durationTicks": 480,
          "midi": 68,
          "name": "G#4",
          "ticks": 232080,
          "time": 120.875,
          "velocity": 1
        },
        {
          "duration": 0.125,
          "durationTicks": 240,
          "midi": 71,
          "name": "B4",
          "ticks": 232320,
          "time": 121,
          "velocity": 1
        },
        {
          "duration": 0.125,
          "durationTicks": 240,
          "midi": 72,
          "name": "C5",
          "ticks": 232560,
          "time": 121.125,
          "velocity": 1
        },
        {
          "duration": 0.125,
          "durationTicks": 240,
          "midi": 67,
          "name": "G4",
          "ticks": 232560,
          "time": 121.125,
          "velocity": 1
        },
        {
          "duration": 0.125,
          "durationTicks": 240,
          "midi": 74,
          "name": "D5",
          "ticks": 233040,
          "time": 121.375,
          "velocity": 1
        },
        {
          "duration": 0.125,
          "durationTicks": 240,
          "midi": 65,
          "name": "F4",
          "ticks": 233040,
          "time": 121.375,
          "velocity": 1
        },
        {
          "duration": 0.25,
          "durationTicks": 480,
          "midi": 75,
          "name": "D#5",
          "ticks": 233280,
          "time": 121.5,
          "velocity": 1
        },
        {
          "duration": 0.25,
          "durationTicks": 480,
          "midi": 63,
          "name": "D#4",
          "ticks": 233280,
          "time": 121.5,
          "velocity": 1
        },
        {
          "duration": 1.375,
          "durationTicks": 2640,
          "midi": 77,
          "name": "F5",
          "ticks": 233760,
          "time": 121.75,
          "velocity": 1
        },
        {
          "duration": 0.375,
          "durationTicks": 720,
          "midi": 62,
          "name": "D4",
          "ticks": 233760,
          "time": 121.75,
          "velocity": 1
        },
        {
          "duration": 0.125,
          "durationTicks": 240,
          "midi": 72,
          "name": "C5",
          "ticks": 234720,
          "time": 122.25,
          "velocity": 1
        },
        {
          "duration": 0.25,
          "durationTicks": 480,
          "midi": 71,
          "name": "B4",
          "ticks": 234960,
          "time": 122.375,
          "velocity": 1
        },
        {
          "duration": 0.625,
          "durationTicks": 1200,
          "midi": 72,
          "name": "C5",
          "ticks": 235440,
          "time": 122.625,
          "velocity": 1
        },
        {
          "duration": 0.125,
          "durationTicks": 240,
          "midi": 75,
          "name": "D#5",
          "ticks": 236400,
          "time": 123.125,
          "velocity": 1
        },
        {
          "duration": 0.125,
          "durationTicks": 240,
          "midi": 60,
          "name": "C4",
          "ticks": 236400,
          "time": 123.125,
          "velocity": 1
        },
        {
          "duration": 0.25,
          "durationTicks": 480,
          "midi": 74,
          "name": "D5",
          "ticks": 236640,
          "time": 123.25,
          "velocity": 1
        },
        {
          "duration": 0.25,
          "durationTicks": 480,
          "midi": 59,
          "name": "B3",
          "ticks": 236640,
          "time": 123.25,
          "velocity": 1
        },
        {
          "duration": 0.25,
          "durationTicks": 480,
          "midi": 72,
          "name": "C5",
          "ticks": 237120,
          "time": 123.5,
          "velocity": 1
        },
        {
          "duration": 0.375,
          "durationTicks": 720,
          "midi": 60,
          "name": "C4",
          "ticks": 237120,
          "time": 123.5,
          "velocity": 1
        },
        {
          "duration": 0.125,
          "durationTicks": 240,
          "midi": 70,
          "name": "A#4",
          "ticks": 237600,
          "time": 123.75,
          "velocity": 1
        },
        {
          "duration": 0.125,
          "durationTicks": 240,
          "midi": 68,
          "name": "G#4",
          "ticks": 238080,
          "time": 124,
          "velocity": 1
        },
        {
          "duration": 0.375,
          "durationTicks": 720,
          "midi": 55,
          "name": "G3",
          "ticks": 238080,
          "time": 124,
          "velocity": 1
        },
        {
          "duration": 0.25,
          "durationTicks": 480,
          "midi": 67,
          "name": "G4",
          "ticks": 238320,
          "time": 124.125,
          "velocity": 1
        },
        {
          "duration": 0.375,
          "durationTicks": 720,
          "midi": 65,
          "name": "F4",
          "ticks": 238800,
          "time": 124.375,
          "velocity": 1
        },
        {
          "duration": 0.375,
          "durationTicks": 720,
          "midi": 56,
          "name": "G#3",
          "ticks": 238800,
          "time": 124.375,
          "velocity": 1
        },
        {
          "duration": 0.375,
          "durationTicks": 720,
          "midi": 80,
          "name": "G#5",
          "ticks": 239760,
          "time": 124.875,
          "velocity": 1
        },
        {
          "duration": 0.375,
          "durationTicks": 720,
          "midi": 77,
          "name": "F5",
          "ticks": 239760,
          "time": 124.875,
          "velocity": 1
        },
        {
          "duration": 0.125,
          "durationTicks": 240,
          "midi": 60,
          "name": "C4",
          "ticks": 239760,
          "time": 124.875,
          "velocity": 1
        },
        {
          "duration": 0.25,
          "durationTicks": 480,
          "midi": 59,
          "name": "B3",
          "ticks": 240000,
          "time": 125,
          "velocity": 1
        },
        {
          "duration": 0.375,
          "durationTicks": 720,
          "midi": 79,
          "name": "G5",
          "ticks": 240480,
          "time": 125.25,
          "velocity": 1
        },
        {
          "duration": 0.375,
          "durationTicks": 720,
          "midi": 75,
          "name": "D#5",
          "ticks": 240480,
          "time": 125.25,
          "velocity": 1
        },
        {
          "duration": 0.375,
          "durationTicks": 720,
          "midi": 60,
          "name": "C4",
          "ticks": 240480,
          "time": 125.25,
          "velocity": 1
        },
        {
          "duration": 0.375,
          "durationTicks": 720,
          "midi": 77,
          "name": "F5",
          "ticks": 241440,
          "time": 125.75,
          "velocity": 1
        },
        {
          "duration": 0.375,
          "durationTicks": 720,
          "midi": 74,
          "name": "D5",
          "ticks": 241440,
          "time": 125.75,
          "velocity": 1
        },
        {
          "duration": 0.375,
          "durationTicks": 720,
          "midi": 62,
          "name": "D4",
          "ticks": 241440,
          "time": 125.75,
          "velocity": 1
        },
        {
          "duration": 0.375,
          "durationTicks": 720,
          "midi": 75,
          "name": "D#5",
          "ticks": 242160,
          "time": 126.125,
          "velocity": 1
        },
        {
          "duration": 0.375,
          "durationTicks": 720,
          "midi": 55,
          "name": "G3",
          "ticks": 242160,
          "time": 126.125,
          "velocity": 1
        },
        {
          "duration": 0.375,
          "durationTicks": 720,
          "midi": 74,
          "name": "D5",
          "ticks": 243120,
          "time": 126.625,
          "velocity": 1
        },
        {
          "duration": 0.375,
          "durationTicks": 720,
          "midi": 68,
          "name": "G#4",
          "ticks": 243120,
          "time": 126.625,
          "velocity": 1
        },
        {
          "duration": 0.125,
          "durationTicks": 240,
          "midi": 60,
          "name": "C4",
          "ticks": 243120,
          "time": 126.625,
          "velocity": 1
        },
        {
          "duration": 0.25,
          "durationTicks": 480,
          "midi": 59,
          "name": "B3",
          "ticks": 243360,
          "time": 126.75,
          "velocity": 1
        },
        {
          "duration": 0.375,
          "durationTicks": 720,
          "midi": 75,
          "name": "D#5",
          "ticks": 243840,
          "time": 127,
          "velocity": 1
        },
        {
          "duration": 0.375,
          "durationTicks": 720,
          "midi": 67,
          "name": "G4",
          "ticks": 243840,
          "time": 127,
          "velocity": 1
        },
        {
          "duration": 0.375,
          "durationTicks": 720,
          "midi": 60,
          "name": "C4",
          "ticks": 243840,
          "time": 127,
          "velocity": 1
        },
        {
          "duration": 0.375,
          "durationTicks": 720,
          "midi": 77,
          "name": "F5",
          "ticks": 244800,
          "time": 127.5,
          "velocity": 1
        },
        {
          "duration": 0.375,
          "durationTicks": 720,
          "midi": 65,
          "name": "F4",
          "ticks": 244800,
          "time": 127.5,
          "velocity": 1
        },
        {
          "duration": 0.375,
          "durationTicks": 720,
          "midi": 62,
          "name": "D4",
          "ticks": 244800,
          "time": 127.5,
          "velocity": 1
        },
        {
          "duration": 0.375,
          "durationTicks": 720,
          "midi": 71,
          "name": "B4",
          "ticks": 245520,
          "time": 127.875,
          "velocity": 1
        },
        {
          "duration": 0.375,
          "durationTicks": 720,
          "midi": 67,
          "name": "G4",
          "ticks": 245520,
          "time": 127.875,
          "velocity": 1
        },
        {
          "duration": 0.25,
          "durationTicks": 480,
          "midi": 53,
          "name": "F3",
          "ticks": 245520,
          "time": 127.875,
          "velocity": 1
        },
        {
          "duration": 0.125,
          "durationTicks": 240,
          "midi": 55,
          "name": "G3",
          "ticks": 246000,
          "time": 128.125,
          "velocity": 1
        },
        {
          "duration": 0.375,
          "durationTicks": 720,
          "midi": 72,
          "name": "C5",
          "ticks": 246480,
          "time": 128.375,
          "velocity": 1
        },
        {
          "duration": 0.125,
          "durationTicks": 240,
          "midi": 65,
          "name": "F4",
          "ticks": 246480,
          "time": 128.375,
          "velocity": 1
        },
        {
          "duration": 0.75,
          "durationTicks": 1440,
          "midi": 56,
          "name": "G#3",
          "ticks": 246480,
          "time": 128.375,
          "velocity": 1
        },
        {
          "duration": 0.25,
          "durationTicks": 480,
          "midi": 63,
          "name": "D#4",
          "ticks": 246720,
          "time": 128.5,
          "velocity": 1
        },
        {
          "duration": 0.375,
          "durationTicks": 720,
          "midi": 74,
          "name": "D5",
          "ticks": 247200,
          "time": 128.75,
          "velocity": 1
        },
        {
          "duration": 0.375,
          "durationTicks": 720,
          "midi": 65,
          "name": "F4",
          "ticks": 247200,
          "time": 128.75,
          "velocity": 1
        },
        {
          "duration": 0.125,
          "durationTicks": 240,
          "midi": 72,
          "name": "C5",
          "ticks": 247920,
          "time": 129.125,
          "velocity": 1
        },
        {
          "duration": 0.375,
          "durationTicks": 720,
          "midi": 62,
          "name": "D4",
          "ticks": 247920,
          "time": 129.125,
          "velocity": 1
        },
        {
          "duration": 0.25,
          "durationTicks": 480,
          "midi": 55,
          "name": "G3",
          "ticks": 247920,
          "time": 129.125,
          "velocity": 1
        },
        {
          "duration": 0.125,
          "durationTicks": 240,
          "midi": 71,
          "name": "B4",
          "ticks": 248160,
          "time": 129.25,
          "velocity": 1
        },
        {
          "duration": 0.125,
          "durationTicks": 240,
          "midi": 69,
          "name": "A4",
          "ticks": 248400,
          "time": 129.375,
          "velocity": 1
        },
        {
          "duration": 0.25,
          "durationTicks": 480,
          "midi": 53,
          "name": "F3",
          "ticks": 248400,
          "time": 129.375,
          "velocity": 1
        },
        {
          "duration": 0.125,
          "durationTicks": 240,
          "midi": 71,
          "name": "B4",
          "ticks": 248640,
          "time": 129.5,
          "velocity": 1
        },
        {
          "duration": 0.375,
          "durationTicks": 720,
          "midi": 72,
          "name": "C5",
          "ticks": 248880,
          "time": 129.625,
          "velocity": 1
        },
        {
          "duration": 1,
          "durationTicks": 1920,
          "midi": 67,
          "name": "G4",
          "ticks": 248880,
          "time": 129.625,
          "velocity": 1
        },
        {
          "duration": 0.125,
          "durationTicks": 240,
          "midi": 51,
          "name": "D#3",
          "ticks": 248880,
          "time": 129.625,
          "velocity": 1
        },
        {
          "duration": 0.125,
          "durationTicks": 240,
          "midi": 60,
          "name": "C4",
          "ticks": 249360,
          "time": 129.875,
          "velocity": 1
        },
        {
          "duration": 0.25,
          "durationTicks": 480,
          "midi": 79,
          "name": "G5",
          "ticks": 249600,
          "time": 130,
          "velocity": 1
        },
        {
          "duration": 0.25,
          "durationTicks": 480,
          "midi": 59,
          "name": "B3",
          "ticks": 249600,
          "time": 130,
          "velocity": 1
        },
        {
          "duration": 0.25,
          "durationTicks": 480,
          "midi": 78,
          "name": "F#5",
          "ticks": 250080,
          "time": 130.25,
          "velocity": 1
        },
        {
          "duration": 0.25,
          "durationTicks": 480,
          "midi": 57,
          "name": "A3",
          "ticks": 250080,
          "time": 130.25,
          "velocity": 1
        },
        {
          "duration": 0.25,
          "durationTicks": 480,
          "midi": 79,
          "name": "G5",
          "ticks": 250560,
          "time": 130.5,
          "velocity": 1
        },
        {
          "duration": 0.125,
          "durationTicks": 240,
          "midi": 55,
          "name": "G3",
          "ticks": 250560,
          "time": 130.5,
          "velocity": 1
        },
        {
          "duration": 0.125,
          "durationTicks": 240,
          "midi": 53,
          "name": "F3",
          "ticks": 251040,
          "time": 130.75,
          "velocity": 1
        },
        {
          "duration": 0.375,
          "durationTicks": 720,
          "midi": 74,
          "name": "D5",
          "ticks": 251280,
          "time": 130.875,
          "velocity": 1
        },
        {
          "duration": 0.375,
          "durationTicks": 720,
          "midi": 71,
          "name": "B4",
          "ticks": 251280,
          "time": 130.875,
          "velocity": 1
        },
        {
          "duration": 0.25,
          "durationTicks": 480,
          "midi": 51,
          "name": "D#3",
          "ticks": 251280,
          "time": 130.875,
          "velocity": 1
        },
        {
          "duration": 0.25,
          "durationTicks": 480,
          "midi": 50,
          "name": "D3",
          "ticks": 251760,
          "time": 131.125,
          "velocity": 1
        },
        {
          "duration": 1,
          "durationTicks": 1920,
          "midi": 75,
          "name": "D#5",
          "ticks": 252240,
          "time": 131.375,
          "velocity": 1
        },
        {
          "duration": 0.375,
          "durationTicks": 720,
          "midi": 72,
          "name": "C5",
          "ticks": 252240,
          "time": 131.375,
          "velocity": 1
        },
        {
          "duration": 0.125,
          "durationTicks": 240,
          "midi": 48,
          "name": "C3",
          "ticks": 252240,
          "time": 131.375,
          "velocity": 1
        },
        {
          "duration": 0.125,
          "durationTicks": 240,
          "midi": 50,
          "name": "D3",
          "ticks": 252720,
          "time": 131.625,
          "velocity": 1
        },
        {
          "duration": 0.25,
          "durationTicks": 480,
          "midi": 72,
          "name": "C5",
          "ticks": 252960,
          "time": 131.75,
          "velocity": 1
        },
        {
          "duration": 0.25,
          "durationTicks": 480,
          "midi": 51,
          "name": "D#3",
          "ticks": 252960,
          "time": 131.75,
          "velocity": 1
        },
        {
          "duration": 0.25,
          "durationTicks": 480,
          "midi": 71,
          "name": "B4",
          "ticks": 253440,
          "time": 132,
          "velocity": 1
        },
        {
          "duration": 0.25,
          "durationTicks": 480,
          "midi": 50,
          "name": "D3",
          "ticks": 253440,
          "time": 132,
          "velocity": 1
        },
        {
          "duration": 0.375,
          "durationTicks": 720,
          "midi": 72,
          "name": "C5",
          "ticks": 253920,
          "time": 132.25,
          "velocity": 1
        },
        {
          "duration": 0.125,
          "durationTicks": 240,
          "midi": 48,
          "name": "C3",
          "ticks": 253920,
          "time": 132.25,
          "velocity": 1
        },
        {
          "duration": 0.125,
          "durationTicks": 240,
          "midi": 46,
          "name": "A#2",
          "ticks": 254400,
          "time": 132.5,
          "velocity": 1
        },
        {
          "duration": 0.375,
          "durationTicks": 720,
          "midi": 76,
          "name": "E5",
          "ticks": 254640,
          "time": 132.625,
          "velocity": 1
        },
        {
          "duration": 0.375,
          "durationTicks": 720,
          "midi": 67,
          "name": "G4",
          "ticks": 254640,
          "time": 132.625,
          "velocity": 1
        },
        {
          "duration": 0.25,
          "durationTicks": 480,
          "midi": 44,
          "name": "G#2",
          "ticks": 254640,
          "time": 132.625,
          "velocity": 1
        },
        {
          "duration": 0.25,
          "durationTicks": 480,
          "midi": 43,
          "name": "G2",
          "ticks": 255120,
          "time": 132.875,
          "velocity": 1
        },
        {
          "duration": 0.375,
          "durationTicks": 720,
          "midi": 77,
          "name": "F5",
          "ticks": 255600,
          "time": 133.125,
          "velocity": 1
        },
        {
          "duration": 1,
          "durationTicks": 1920,
          "midi": 68,
          "name": "G#4",
          "ticks": 255600,
          "time": 133.125,
          "velocity": 1
        },
        {
          "duration": 0.125,
          "durationTicks": 240,
          "midi": 41,
          "name": "F2",
          "ticks": 255600,
          "time": 133.125,
          "velocity": 1
        },
        {
          "duration": 0.125,
          "durationTicks": 240,
          "midi": 58,
          "name": "A#3",
          "ticks": 256080,
          "time": 133.375,
          "velocity": 1
        },
        {
          "duration": 0.25,
          "durationTicks": 480,
          "midi": 77,
          "name": "F5",
          "ticks": 256320,
          "time": 133.5,
          "velocity": 1
        },
        {
          "duration": 0.25,
          "durationTicks": 480,
          "midi": 56,
          "name": "G#3",
          "ticks": 256320,
          "time": 133.5,
          "velocity": 1
        },
        {
          "duration": 0.25,
          "durationTicks": 480,
          "midi": 76,
          "name": "E5",
          "ticks": 256800,
          "time": 133.75,
          "velocity": 1
        },
        {
          "duration": 0.25,
          "durationTicks": 480,
          "midi": 55,
          "name": "G3",
          "ticks": 256800,
          "time": 133.75,
          "velocity": 1
        },
        {
          "duration": 0.25,
          "durationTicks": 480,
          "midi": 77,
          "name": "F5",
          "ticks": 257280,
          "time": 134,
          "velocity": 1
        },
        {
          "duration": 0.125,
          "durationTicks": 240,
          "midi": 53,
          "name": "F3",
          "ticks": 257280,
          "time": 134,
          "velocity": 1
        },
        {
          "duration": 0.125,
          "durationTicks": 240,
          "midi": 51,
          "name": "D#3",
          "ticks": 257760,
          "time": 134.25,
          "velocity": 1
        },
        {
          "duration": 0.375,
          "durationTicks": 720,
          "midi": 72,
          "name": "C5",
          "ticks": 258000,
          "time": 134.375,
          "velocity": 1
        },
        {
          "duration": 0.375,
          "durationTicks": 720,
          "midi": 69,
          "name": "A4",
          "ticks": 258000,
          "time": 134.375,
          "velocity": 1
        },
        {
          "duration": 0.25,
          "durationTicks": 480,
          "midi": 50,
          "name": "D3",
          "ticks": 258000,
          "time": 134.375,
          "velocity": 1
        },
        {
          "duration": 0.25,
          "durationTicks": 480,
          "midi": 48,
          "name": "C3",
          "ticks": 258480,
          "time": 134.625,
          "velocity": 1
        },
        {
          "duration": 1,
          "durationTicks": 1920,
          "midi": 74,
          "name": "D5",
          "ticks": 258960,
          "time": 134.875,
          "velocity": 1
        },
        {
          "duration": 0.375,
          "durationTicks": 720,
          "midi": 70,
          "name": "A#4",
          "ticks": 258960,
          "time": 134.875,
          "velocity": 1
        },
        {
          "duration": 0.125,
          "durationTicks": 240,
          "midi": 46,
          "name": "A#2",
          "ticks": 258960,
          "time": 134.875,
          "velocity": 1
        },
        {
          "duration": 0.125,
          "durationTicks": 240,
          "midi": 48,
          "name": "C3",
          "ticks": 259440,
          "time": 135.125,
          "velocity": 1
        },
        {
          "duration": 0.25,
          "durationTicks": 480,
          "midi": 70,
          "name": "A#4",
          "ticks": 259680,
          "time": 135.25,
          "velocity": 1
        },
        {
          "duration": 0.25,
          "durationTicks": 480,
          "midi": 50,
          "name": "D3",
          "ticks": 259680,
          "time": 135.25,
          "velocity": 1
        },
        {
          "duration": 0.25,
          "durationTicks": 480,
          "midi": 69,
          "name": "A4",
          "ticks": 260160,
          "time": 135.5,
          "velocity": 1
        },
        {
          "duration": 0.25,
          "durationTicks": 480,
          "midi": 48,
          "name": "C3",
          "ticks": 260160,
          "time": 135.5,
          "velocity": 1
        },
        {
          "duration": 0.375,
          "durationTicks": 720,
          "midi": 70,
          "name": "A#4",
          "ticks": 260640,
          "time": 135.75,
          "velocity": 1
        },
        {
          "duration": 0.125,
          "durationTicks": 240,
          "midi": 46,
          "name": "A#2",
          "ticks": 260640,
          "time": 135.75,
          "velocity": 1
        },
        {
          "duration": 0.125,
          "durationTicks": 240,
          "midi": 44,
          "name": "G#2",
          "ticks": 261120,
          "time": 136,
          "velocity": 1
        },
        {
          "duration": 0.375,
          "durationTicks": 720,
          "midi": 74,
          "name": "D5",
          "ticks": 261360,
          "time": 136.125,
          "velocity": 1
        },
        {
          "duration": 0.375,
          "durationTicks": 720,
          "midi": 65,
          "name": "F4",
          "ticks": 261360,
          "time": 136.125,
          "velocity": 1
        },
        {
          "duration": 0.25,
          "durationTicks": 480,
          "midi": 43,
          "name": "G2",
          "ticks": 261360,
          "time": 136.125,
          "velocity": 1
        },
        {
          "duration": 0.25,
          "durationTicks": 480,
          "midi": 41,
          "name": "F2",
          "ticks": 261840,
          "time": 136.375,
          "velocity": 1
        },
        {
          "duration": 0.375,
          "durationTicks": 720,
          "midi": 75,
          "name": "D#5",
          "ticks": 262320,
          "time": 136.625,
          "velocity": 1
        },
        {
          "duration": 1,
          "durationTicks": 1920,
          "midi": 67,
          "name": "G4",
          "ticks": 262320,
          "time": 136.625,
          "velocity": 1
        },
        {
          "duration": 0.125,
          "durationTicks": 240,
          "midi": 39,
          "name": "D#2",
          "ticks": 262320,
          "time": 136.625,
          "velocity": 1
        },
        {
          "duration": 0.125,
          "durationTicks": 240,
          "midi": 56,
          "name": "G#3",
          "ticks": 262800,
          "time": 136.875,
          "velocity": 1
        },
        {
          "duration": 0.25,
          "durationTicks": 480,
          "midi": 75,
          "name": "D#5",
          "ticks": 263040,
          "time": 137,
          "velocity": 1
        },
        {
          "duration": 0.25,
          "durationTicks": 480,
          "midi": 55,
          "name": "G3",
          "ticks": 263040,
          "time": 137,
          "velocity": 1
        },
        {
          "duration": 0.125,
          "durationTicks": 240,
          "midi": 74,
          "name": "D5",
          "ticks": 263520,
          "time": 137.25,
          "velocity": 1
        },
        {
          "duration": 0.125,
          "durationTicks": 240,
          "midi": 53,
          "name": "F3",
          "ticks": 263520,
          "time": 137.25,
          "velocity": 1
        },
        {
          "duration": 0.25,
          "durationTicks": 480,
          "midi": 75,
          "name": "D#5",
          "ticks": 264000,
          "time": 137.5,
          "velocity": 1
        },
        {
          "duration": 0.125,
          "durationTicks": 240,
          "midi": 51,
          "name": "D#3",
          "ticks": 264000,
          "time": 137.5,
          "velocity": 1
        },
        {
          "duration": 0.25,
          "durationTicks": 480,
          "midi": 49,
          "name": "C#3",
          "ticks": 264240,
          "time": 137.625,
          "velocity": 1
        },
        {
          "duration": 0.375,
          "durationTicks": 720,
          "midi": 70,
          "name": "A#4",
          "ticks": 264720,
          "time": 137.875,
          "velocity": 1
        },
        {
          "duration": 0.375,
          "durationTicks": 720,
          "midi": 67,
          "name": "G4",
          "ticks": 264720,
          "time": 137.875,
          "velocity": 1
        },
        {
          "duration": 0.25,
          "durationTicks": 480,
          "midi": 48,
          "name": "C3",
          "ticks": 264720,
          "time": 137.875,
          "velocity": 1
        },
        {
          "duration": 0.125,
          "durationTicks": 240,
          "midi": 46,
          "name": "A#2",
          "ticks": 265200,
          "time": 138.125,
          "velocity": 1
        },
        {
          "duration": 0.375,
          "durationTicks": 720,
          "midi": 72,
          "name": "C5",
          "ticks": 265680,
          "time": 138.375,
          "velocity": 1
        },
        {
          "duration": 0.375,
          "durationTicks": 720,
          "midi": 68,
          "name": "G#4",
          "ticks": 265680,
          "time": 138.375,
          "velocity": 1
        },
        {
          "duration": 0.375,
          "durationTicks": 720,
          "midi": 44,
          "name": "G#2",
          "ticks": 265680,
          "time": 138.375,
          "velocity": 1
        },
        {
          "duration": 0.25,
          "durationTicks": 480,
          "midi": 75,
          "name": "D#5",
          "ticks": 266400,
          "time": 138.75,
          "velocity": 1
        },
        {
          "duration": 0.375,
          "durationTicks": 720,
          "midi": 68,
          "name": "G#4",
          "ticks": 266400,
          "time": 138.75,
          "velocity": 1
        },
        {
          "duration": 0.375,
          "durationTicks": 720,
          "midi": 60,
          "name": "C4",
          "ticks": 266400,
          "time": 138.75,
          "velocity": 1
        },
        {
          "duration": 0.125,
          "durationTicks": 240,
          "midi": 74,
          "name": "D5",
          "ticks": 266880,
          "time": 139,
          "velocity": 1
        },
        {
          "duration": 0.375,
          "durationTicks": 720,
          "midi": 75,
          "name": "D#5",
          "ticks": 267360,
          "time": 139.25,
          "velocity": 1
        },
        {
          "duration": 0.375,
          "durationTicks": 720,
          "midi": 67,
          "name": "G4",
          "ticks": 267360,
          "time": 139.25,
          "velocity": 1
        },
        {
          "duration": 0.375,
          "durationTicks": 720,
          "midi": 58,
          "name": "A#3",
          "ticks": 267360,
          "time": 139.25,
          "velocity": 1
        },
        {
          "duration": 0.375,
          "durationTicks": 720,
          "midi": 77,
          "name": "F5",
          "ticks": 268080,
          "time": 139.625,
          "velocity": 1
        },
        {
          "duration": 0.375,
          "durationTicks": 720,
          "midi": 65,
          "name": "F4",
          "ticks": 268080,
          "time": 139.625,
          "velocity": 1
        },
        {
          "duration": 0.375,
          "durationTicks": 720,
          "midi": 56,
          "name": "G#3",
          "ticks": 268080,
          "time": 139.625,
          "velocity": 1
        },
        {
          "duration": 0.375,
          "durationTicks": 720,
          "midi": 70,
          "name": "A#4",
          "ticks": 269040,
          "time": 140.125,
          "velocity": 1
        },
        {
          "duration": 0.375,
          "durationTicks": 720,
          "midi": 55,
          "name": "G3",
          "ticks": 269040,
          "time": 140.125,
          "velocity": 1
        },
        {
          "duration": 0.25,
          "durationTicks": 480,
          "midi": 75,
          "name": "D#5",
          "ticks": 269760,
          "time": 140.5,
          "velocity": 1
        },
        {
          "duration": 0.375,
          "durationTicks": 720,
          "midi": 56,
          "name": "G#3",
          "ticks": 269760,
          "time": 140.5,
          "velocity": 1
        },
        {
          "duration": 0.375,
          "durationTicks": 720,
          "midi": 53,
          "name": "F3",
          "ticks": 269760,
          "time": 140.5,
          "velocity": 1
        },
        {
          "duration": 0.125,
          "durationTicks": 240,
          "midi": 74,
          "name": "D5",
          "ticks": 270240,
          "time": 140.75,
          "velocity": 1
        },
        {
          "duration": 0.375,
          "durationTicks": 720,
          "midi": 75,
          "name": "D#5",
          "ticks": 270720,
          "time": 141,
          "velocity": 1
        },
        {
          "duration": 0.375,
          "durationTicks": 720,
          "midi": 58,
          "name": "A#3",
          "ticks": 270720,
          "time": 141,
          "velocity": 1
        },
        {
          "duration": 0.375,
          "durationTicks": 720,
          "midi": 55,
          "name": "G3",
          "ticks": 270720,
          "time": 141,
          "velocity": 1
        },
        {
          "duration": 0.375,
          "durationTicks": 720,
          "midi": 77,
          "name": "F5",
          "ticks": 271440,
          "time": 141.375,
          "velocity": 1
        },
        {
          "duration": 0.625,
          "durationTicks": 1200,
          "midi": 60,
          "name": "C4",
          "ticks": 271440,
          "time": 141.375,
          "velocity": 1
        },
        {
          "duration": 0.375,
          "durationTicks": 720,
          "midi": 56,
          "name": "G#3",
          "ticks": 271440,
          "time": 141.375,
          "velocity": 1
        },
        {
          "duration": 0.125,
          "durationTicks": 240,
          "midi": 68,
          "name": "G#4",
          "ticks": 272400,
          "time": 141.875,
          "velocity": 1
        },
        {
          "duration": 0.375,
          "durationTicks": 720,
          "midi": 50,
          "name": "D3",
          "ticks": 272400,
          "time": 141.875,
          "velocity": 1
        },
        {
          "duration": 0.25,
          "durationTicks": 480,
          "midi": 70,
          "name": "A#4",
          "ticks": 272640,
          "time": 142,
          "velocity": 1
        },
        {
          "duration": 0.125,
          "durationTicks": 240,
          "midi": 68,
          "name": "G#4",
          "ticks": 273120,
          "time": 142.25,
          "velocity": 1
        },
        {
          "duration": 0.25,
          "durationTicks": 480,
          "midi": 56,
          "name": "G#3",
          "ticks": 273120,
          "time": 142.25,
          "velocity": 1
        },
        {
          "duration": 0.375,
          "durationTicks": 720,
          "midi": 51,
          "name": "D#3",
          "ticks": 273120,
          "time": 142.25,
          "velocity": 1
        },
        {
          "duration": 0.125,
          "durationTicks": 240,
          "midi": 70,
          "name": "A#4",
          "ticks": 273360,
          "time": 142.375,
          "velocity": 1
        },
        {
          "duration": 0.625,
          "durationTicks": 1200,
          "midi": 72,
          "name": "C5",
          "ticks": 273600,
          "time": 142.5,
          "velocity": 1
        },
        {
          "duration": 0.125,
          "durationTicks": 240,
          "midi": 55,
          "name": "G3",
          "ticks": 273600,
          "time": 142.5,
          "velocity": 1
        },
        {
          "duration": 0.375,
          "durationTicks": 720,
          "midi": 56,
          "name": "G#3",
          "ticks": 274080,
          "time": 142.75,
          "velocity": 1
        },
        {
          "duration": 0.375,
          "durationTicks": 720,
          "midi": 53,
          "name": "F3",
          "ticks": 274080,
          "time": 142.75,
          "velocity": 1
        },
        {
          "duration": 0.25,
          "durationTicks": 480,
          "midi": 70,
          "name": "A#4",
          "ticks": 274800,
          "time": 143.125,
          "velocity": 1
        },
        {
          "duration": 0.375,
          "durationTicks": 720,
          "midi": 53,
          "name": "F3",
          "ticks": 274800,
          "time": 143.125,
          "velocity": 1
        },
        {
          "duration": 0.375,
          "durationTicks": 720,
          "midi": 50,
          "name": "D3",
          "ticks": 274800,
          "time": 143.125,
          "velocity": 1
        },
        {
          "duration": 0.125,
          "durationTicks": 240,
          "midi": 68,
          "name": "G#4",
          "ticks": 275280,
          "time": 143.375,
          "velocity": 1
        },
        {
          "duration": 0.125,
          "durationTicks": 240,
          "midi": 67,
          "name": "G4",
          "ticks": 275760,
          "time": 143.625,
          "velocity": 1
        },
        {
          "duration": 0.375,
          "durationTicks": 720,
          "midi": 58,
          "name": "A#3",
          "ticks": 275760,
          "time": 143.625,
          "velocity": 1
        },
        {
          "duration": 0.375,
          "durationTicks": 720,
          "midi": 51,
          "name": "D#3",
          "ticks": 275760,
          "time": 143.625,
          "velocity": 1
        },
        {
          "duration": 0.25,
          "durationTicks": 480,
          "midi": 63,
          "name": "D#4",
          "ticks": 276000,
          "time": 143.75,
          "velocity": 1
        },
        {
          "duration": 0.25,
          "durationTicks": 480,
          "midi": 65,
          "name": "F4",
          "ticks": 276480,
          "time": 144,
          "velocity": 1
        },
        {
          "duration": 0.375,
          "durationTicks": 720,
          "midi": 60,
          "name": "C4",
          "ticks": 276480,
          "time": 144,
          "velocity": 1
        },
        {
          "duration": 0.375,
          "durationTicks": 720,
          "midi": 56,
          "name": "G#3",
          "ticks": 276480,
          "time": 144,
          "velocity": 1
        },
        {
          "duration": 0.125,
          "durationTicks": 240,
          "midi": 67,
          "name": "G4",
          "ticks": 276960,
          "time": 144.25,
          "velocity": 1
        },
        {
          "duration": 0.125,
          "durationTicks": 240,
          "midi": 68,
          "name": "G#4",
          "ticks": 277440,
          "time": 144.5,
          "velocity": 1
        },
        {
          "duration": 0.375,
          "durationTicks": 720,
          "midi": 58,
          "name": "A#3",
          "ticks": 277440,
          "time": 144.5,
          "velocity": 1
        },
        {
          "duration": 0.375,
          "durationTicks": 720,
          "midi": 55,
          "name": "G3",
          "ticks": 277440,
          "time": 144.5,
          "velocity": 1
        },
        {
          "duration": 0.25,
          "durationTicks": 480,
          "midi": 70,
          "name": "A#4",
          "ticks": 277680,
          "time": 144.625,
          "velocity": 1
        },
        {
          "duration": 0.25,
          "durationTicks": 480,
          "midi": 72,
          "name": "C5",
          "ticks": 278160,
          "time": 144.875,
          "velocity": 1
        },
        {
          "duration": 0.375,
          "durationTicks": 720,
          "midi": 56,
          "name": "G#3",
          "ticks": 278160,
          "time": 144.875,
          "velocity": 1
        },
        {
          "duration": 0.375,
          "durationTicks": 720,
          "midi": 53,
          "name": "F3",
          "ticks": 278160,
          "time": 144.875,
          "velocity": 1
        },
        {
          "duration": 0.125,
          "durationTicks": 240,
          "midi": 74,
          "name": "D5",
          "ticks": 278640,
          "time": 145.125,
          "velocity": 1
        },
        {
          "duration": 0.125,
          "durationTicks": 240,
          "midi": 75,
          "name": "D#5",
          "ticks": 279120,
          "time": 145.375,
          "velocity": 1
        },
        {
          "duration": 0.375,
          "durationTicks": 720,
          "midi": 58,
          "name": "A#3",
          "ticks": 279120,
          "time": 145.375,
          "velocity": 1
        },
        {
          "duration": 0.375,
          "durationTicks": 720,
          "midi": 55,
          "name": "G3",
          "ticks": 279120,
          "time": 145.375,
          "velocity": 1
        },
        {
          "duration": 0.25,
          "durationTicks": 480,
          "midi": 74,
          "name": "D5",
          "ticks": 279360,
          "time": 145.5,
          "velocity": 1
        },
        {
          "duration": 0.25,
          "durationTicks": 480,
          "midi": 72,
          "name": "C5",
          "ticks": 279840,
          "time": 145.75,
          "velocity": 1
        },
        {
          "duration": 0.375,
          "durationTicks": 720,
          "midi": 55,
          "name": "G3",
          "ticks": 279840,
          "time": 145.75,
          "velocity": 1
        },
        {
          "duration": 0.375,
          "durationTicks": 720,
          "midi": 51,
          "name": "D#3",
          "ticks": 279840,
          "time": 145.75,
          "velocity": 1
        },
        {
          "duration": 0.125,
          "durationTicks": 240,
          "midi": 74,
          "name": "D5",
          "ticks": 280320,
          "time": 146,
          "velocity": 1
        },
        {
          "duration": 0.125,
          "durationTicks": 240,
          "midi": 75,
          "name": "D#5",
          "ticks": 280800,
          "time": 146.25,
          "velocity": 1
        },
        {
          "duration": 0.375,
          "durationTicks": 720,
          "midi": 53,
          "name": "F3",
          "ticks": 280800,
          "time": 146.25,
          "velocity": 1
        },
        {
          "duration": 0.375,
          "durationTicks": 720,
          "midi": 50,
          "name": "D3",
          "ticks": 280800,
          "time": 146.25,
          "velocity": 1
        },
        {
          "duration": 0.25,
          "durationTicks": 480,
          "midi": 77,
          "name": "F5",
          "ticks": 281040,
          "time": 146.375,
          "velocity": 1
        },
        {
          "duration": 0.25,
          "durationTicks": 480,
          "midi": 79,
          "name": "G5",
          "ticks": 281520,
          "time": 146.625,
          "velocity": 1
        },
        {
          "duration": 0.375,
          "durationTicks": 720,
          "midi": 51,
          "name": "D#3",
          "ticks": 281520,
          "time": 146.625,
          "velocity": 1
        },
        {
          "duration": 0.375,
          "durationTicks": 720,
          "midi": 48,
          "name": "C3",
          "ticks": 281520,
          "time": 146.625,
          "velocity": 1
        },
        {
          "duration": 0.125,
          "durationTicks": 240,
          "midi": 81,
          "name": "A5",
          "ticks": 282000,
          "time": 146.875,
          "velocity": 1
        },
        {
          "duration": 0.125,
          "durationTicks": 240,
          "midi": 82,
          "name": "A#5",
          "ticks": 282480,
          "time": 147.125,
          "velocity": 1
        },
        {
          "duration": 0.375,
          "durationTicks": 720,
          "midi": 53,
          "name": "F3",
          "ticks": 282480,
          "time": 147.125,
          "velocity": 1
        },
        {
          "duration": 0.375,
          "durationTicks": 720,
          "midi": 50,
          "name": "D3",
          "ticks": 282480,
          "time": 147.125,
          "velocity": 1
        },
        {
          "duration": 0.25,
          "durationTicks": 480,
          "midi": 65,
          "name": "F4",
          "ticks": 282720,
          "time": 147.25,
          "velocity": 1
        },
        {
          "duration": 0.25,
          "durationTicks": 480,
          "midi": 67,
          "name": "G4",
          "ticks": 283200,
          "time": 147.5,
          "velocity": 1
        },
        {
          "duration": 0.375,
          "durationTicks": 720,
          "midi": 61,
          "name": "C#4",
          "ticks": 283200,
          "time": 147.5,
          "velocity": 1
        },
        {
          "duration": 0.375,
          "durationTicks": 720,
          "midi": 58,
          "name": "A#3",
          "ticks": 283200,
          "time": 147.5,
          "velocity": 1
        },
        {
          "duration": 0.125,
          "durationTicks": 240,
          "midi": 68,
          "name": "G#4",
          "ticks": 283680,
          "time": 147.75,
          "velocity": 1
        },
        {
          "duration": 0.125,
          "durationTicks": 240,
          "midi": 70,
          "name": "A#4",
          "ticks": 284160,
          "time": 148,
          "velocity": 1
        },
        {
          "duration": 0.375,
          "durationTicks": 720,
          "midi": 60,
          "name": "C4",
          "ticks": 284160,
          "time": 148,
          "velocity": 1
        },
        {
          "duration": 0.375,
          "durationTicks": 720,
          "midi": 56,
          "name": "G#3",
          "ticks": 284160,
          "time": 148,
          "velocity": 1
        },
        {
          "duration": 0.25,
          "durationTicks": 480,
          "midi": 72,
          "name": "C5",
          "ticks": 284400,
          "time": 148.125,
          "velocity": 1
        },
        {
          "duration": 0.125,
          "durationTicks": 240,
          "midi": 74,
          "name": "D5",
          "ticks": 284880,
          "time": 148.375,
          "velocity": 1
        },
        {
          "duration": 0.375,
          "durationTicks": 720,
          "midi": 58,
          "name": "A#3",
          "ticks": 284880,
          "time": 148.375,
          "velocity": 1
        },
        {
          "duration": 0.375,
          "durationTicks": 720,
          "midi": 55,
          "name": "G3",
          "ticks": 284880,
          "time": 148.375,
          "velocity": 1
        },
        {
          "duration": 0.125,
          "durationTicks": 240,
          "midi": 76,
          "name": "E5",
          "ticks": 285360,
          "time": 148.625,
          "velocity": 1
        },
        {
          "duration": 0.25,
          "durationTicks": 480,
          "midi": 77,
          "name": "F5",
          "ticks": 285600,
          "time": 148.75,
          "velocity": 1
        },
        {
          "duration": 0.375,
          "durationTicks": 720,
          "midi": 60,
          "name": "C4",
          "ticks": 285600,
          "time": 148.75,
          "velocity": 1
        },
        {
          "duration": 0.375,
          "durationTicks": 720,
          "midi": 56,
          "name": "G#3",
          "ticks": 285600,
          "time": 148.75,
          "velocity": 1
        },
        {
          "duration": 0.25,
          "durationTicks": 480,
          "midi": 75,
          "name": "D#5",
          "ticks": 286080,
          "time": 149,
          "velocity": 1
        },
        {
          "duration": 0.125,
          "durationTicks": 240,
          "midi": 74,
          "name": "D5",
          "ticks": 286560,
          "time": 149.25,
          "velocity": 1
        },
        {
          "duration": 0.375,
          "durationTicks": 720,
          "midi": 56,
          "name": "G#3",
          "ticks": 286560,
          "time": 149.25,
          "velocity": 1
        },
        {
          "duration": 0.375,
          "durationTicks": 720,
          "midi": 53,
          "name": "F3",
          "ticks": 286560,
          "time": 149.25,
          "velocity": 1
        },
        {
          "duration": 0.125,
          "durationTicks": 240,
          "midi": 75,
          "name": "D#5",
          "ticks": 287040,
          "time": 149.5,
          "velocity": 1
        },
        {
          "duration": 0.25,
          "durationTicks": 480,
          "midi": 77,
          "name": "F5",
          "ticks": 287280,
          "time": 149.625,
          "velocity": 1
        },
        {
          "duration": 0.375,
          "durationTicks": 720,
          "midi": 55,
          "name": "G3",
          "ticks": 287280,
          "time": 149.625,
          "velocity": 1
        },
        {
          "duration": 0.375,
          "durationTicks": 720,
          "midi": 51,
          "name": "D#3",
          "ticks": 287280,
          "time": 149.625,
          "velocity": 1
        },
        {
          "duration": 0.25,
          "durationTicks": 480,
          "midi": 79,
          "name": "G5",
          "ticks": 287760,
          "time": 149.875,
          "velocity": 1
        },
        {
          "duration": 0.125,
          "durationTicks": 240,
          "midi": 81,
          "name": "A5",
          "ticks": 288240,
          "time": 150.125,
          "velocity": 1
        },
        {
          "duration": 0.375,
          "durationTicks": 720,
          "midi": 53,
          "name": "F3",
          "ticks": 288240,
          "time": 150.125,
          "velocity": 1
        },
        {
          "duration": 0.375,
          "durationTicks": 720,
          "midi": 50,
          "name": "D3",
          "ticks": 288240,
          "time": 150.125,
          "velocity": 1
        },
        {
          "duration": 0.125,
          "durationTicks": 240,
          "midi": 83,
          "name": "B5",
          "ticks": 288720,
          "time": 150.375,
          "velocity": 1
        },
        {
          "duration": 0.375,
          "durationTicks": 720,
          "midi": 84,
          "name": "C6",
          "ticks": 288960,
          "time": 150.5,
          "velocity": 1
        },
        {
          "duration": 0.5,
          "durationTicks": 960,
          "midi": 55,
          "name": "G3",
          "ticks": 288960,
          "time": 150.5,
          "velocity": 1
        },
        {
          "duration": 0.5,
          "durationTicks": 960,
          "midi": 51,
          "name": "D#3",
          "ticks": 288960,
          "time": 150.5,
          "velocity": 1
        },
        {
          "duration": 0.125,
          "durationTicks": 240,
          "midi": 83,
          "name": "B5",
          "ticks": 289920,
          "time": 151,
          "velocity": 1
        },
        {
          "duration": 0.125,
          "durationTicks": 240,
          "midi": 67,
          "name": "G4",
          "ticks": 289920,
          "time": 151,
          "velocity": 1
        },
        {
          "duration": 0.125,
          "durationTicks": 240,
          "midi": 81,
          "name": "A5",
          "ticks": 290400,
          "time": 151.25,
          "velocity": 1
        },
        {
          "duration": 0.125,
          "durationTicks": 240,
          "midi": 66,
          "name": "F#4",
          "ticks": 290400,
          "time": 151.25,
          "velocity": 1
        },
        {
          "duration": 0.25,
          "durationTicks": 480,
          "midi": 79,
          "name": "G5",
          "ticks": 290640,
          "time": 151.375,
          "velocity": 1
        },
        {
          "duration": 0.375,
          "durationTicks": 720,
          "midi": 67,
          "name": "G4",
          "ticks": 290640,
          "time": 151.375,
          "velocity": 1
        },
        {
          "duration": 0.25,
          "durationTicks": 480,
          "midi": 77,
          "name": "F5",
          "ticks": 291120,
          "time": 151.625,
          "velocity": 1
        },
        {
          "duration": 0.125,
          "durationTicks": 240,
          "midi": 75,
          "name": "D#5",
          "ticks": 291600,
          "time": 151.875,
          "velocity": 1
        },
        {
          "duration": 0.375,
          "durationTicks": 720,
          "midi": 60,
          "name": "C4",
          "ticks": 291600,
          "time": 151.875,
          "velocity": 1
        },
        {
          "duration": 0.125,
          "durationTicks": 240,
          "midi": 74,
          "name": "D5",
          "ticks": 292080,
          "time": 152.125,
          "velocity": 1
        },
        {
          "duration": 0.375,
          "durationTicks": 720,
          "midi": 72,
          "name": "C5",
          "ticks": 292320,
          "time": 152.25,
          "velocity": 1
        },
        {
          "duration": 0.375,
          "durationTicks": 720,
          "midi": 63,
          "name": "D#4",
          "ticks": 292320,
          "time": 152.25,
          "velocity": 1
        },
        {
          "duration": 0.375,
          "durationTicks": 720,
          "midi": 75,
          "name": "D#5",
          "ticks": 293280,
          "time": 152.75,
          "velocity": 1
        },
        {
          "duration": 0.125,
          "durationTicks": 240,
          "midi": 67,
          "name": "G4",
          "ticks": 293280,
          "time": 152.75,
          "velocity": 1
        },
        {
          "duration": 0.375,
          "durationTicks": 720,
          "midi": 48,
          "name": "C3",
          "ticks": 293280,
          "time": 152.75,
          "velocity": 1
        },
        {
          "duration": 0.125,
          "durationTicks": 240,
          "midi": 66,
          "name": "F#4",
          "ticks": 293760,
          "time": 153,
          "velocity": 1
        },
        {
          "duration": 0.375,
          "durationTicks": 720,
          "midi": 74,
          "name": "D5",
          "ticks": 294000,
          "time": 153.125,
          "velocity": 1
        },
        {
          "duration": 0.375,
          "durationTicks": 720,
          "midi": 67,
          "name": "G4",
          "ticks": 294000,
          "time": 153.125,
          "velocity": 1
        },
        {
          "duration": 0.375,
          "durationTicks": 720,
          "midi": 46,
          "name": "A#2",
          "ticks": 294000,
          "time": 153.125,
          "velocity": 1
        },
        {
          "duration": 0.375,
          "durationTicks": 720,
          "midi": 72,
          "name": "C5",
          "ticks": 294960,
          "time": 153.625,
          "velocity": 1
        },
        {
          "duration": 0.375,
          "durationTicks": 720,
          "midi": 69,
          "name": "A4",
          "ticks": 294960,
          "time": 153.625,
          "velocity": 1
        },
        {
          "duration": 0.375,
          "durationTicks": 720,
          "midi": 45,
          "name": "A2",
          "ticks": 294960,
          "time": 153.625,
          "velocity": 1
        },
        {
          "duration": 0.375,
          "durationTicks": 720,
          "midi": 70,
          "name": "A#4",
          "ticks": 295680,
          "time": 154,
          "velocity": 1
        },
        {
          "duration": 0.375,
          "durationTicks": 720,
          "midi": 62,
          "name": "D4",
          "ticks": 295680,
          "time": 154,
          "velocity": 1
        },
        {
          "duration": 0.375,
          "durationTicks": 720,
          "midi": 69,
          "name": "A4",
          "ticks": 296640,
          "time": 154.5,
          "velocity": 1
        },
        {
          "duration": 0.125,
          "durationTicks": 240,
          "midi": 67,
          "name": "G4",
          "ticks": 296640,
          "time": 154.5,
          "velocity": 1
        },
        {
          "duration": 0.375,
          "durationTicks": 720,
          "midi": 51,
          "name": "D#3",
          "ticks": 296640,
          "time": 154.5,
          "velocity": 1
        },
        {
          "duration": 0.125,
          "durationTicks": 240,
          "midi": 66,
          "name": "F#4",
          "ticks": 297120,
          "time": 154.75,
          "velocity": 1
        },
        {
          "duration": 0.375,
          "durationTicks": 720,
          "midi": 70,
          "name": "A#4",
          "ticks": 297360,
          "time": 154.875,
          "velocity": 1
        },
        {
          "duration": 0.375,
          "durationTicks": 720,
          "midi": 67,
          "name": "G4",
          "ticks": 297360,
          "time": 154.875,
          "velocity": 1
        },
        {
          "duration": 0.375,
          "durationTicks": 720,
          "midi": 50,
          "name": "D3",
          "ticks": 297360,
          "time": 154.875,
          "velocity": 1
        },
        {
          "duration": 0.375,
          "durationTicks": 720,
          "midi": 72,
          "name": "C5",
          "ticks": 298320,
          "time": 155.375,
          "velocity": 1
        },
        {
          "duration": 0.375,
          "durationTicks": 720,
          "midi": 69,
          "name": "A4",
          "ticks": 298320,
          "time": 155.375,
          "velocity": 1
        },
        {
          "duration": 0.375,
          "durationTicks": 720,
          "midi": 48,
          "name": "C3",
          "ticks": 298320,
          "time": 155.375,
          "velocity": 1
        },
        {
          "duration": 0.375,
          "durationTicks": 720,
          "midi": 66,
          "name": "F#4",
          "ticks": 299040,
          "time": 155.75,
          "velocity": 1
        },
        {
          "duration": 0.25,
          "durationTicks": 480,
          "midi": 60,
          "name": "C4",
          "ticks": 299040,
          "time": 155.75,
          "velocity": 1
        },
        {
          "duration": 0.375,
          "durationTicks": 720,
          "midi": 50,
          "name": "D3",
          "ticks": 299040,
          "time": 155.75,
          "velocity": 1
        },
        {
          "duration": 0.25,
          "durationTicks": 480,
          "midi": 62,
          "name": "D4",
          "ticks": 299520,
          "time": 156,
          "velocity": 1
        },
        {
          "duration": 0.375,
          "durationTicks": 720,
          "midi": 67,
          "name": "G4",
          "ticks": 300000,
          "time": 156.25,
          "velocity": 1
        },
        {
          "duration": 0.125,
          "durationTicks": 240,
          "midi": 60,
          "name": "C4",
          "ticks": 300000,
          "time": 156.25,
          "velocity": 1
        },
        {
          "duration": 0.125,
          "durationTicks": 240,
          "midi": 48,
          "name": "C3",
          "ticks": 300000,
          "time": 156.25,
          "velocity": 1
        },
        {
          "duration": 0.125,
          "durationTicks": 240,
          "midi": 62,
          "name": "D4",
          "ticks": 300240,
          "time": 156.375,
          "velocity": 1
        },
        {
          "duration": 0.625,
          "durationTicks": 1200,
          "midi": 63,
          "name": "D#4",
          "ticks": 300480,
          "time": 156.5,
          "velocity": 1
        },
        {
          "duration": 0.125,
          "durationTicks": 240,
          "midi": 46,
          "name": "A#2",
          "ticks": 300480,
          "time": 156.5,
          "velocity": 1
        },
        {
          "duration": 0.375,
          "durationTicks": 720,
          "midi": 69,
          "name": "A4",
          "ticks": 300720,
          "time": 156.625,
          "velocity": 1
        },
        {
          "duration": 0.375,
          "durationTicks": 720,
          "midi": 48,
          "name": "C3",
          "ticks": 300720,
          "time": 156.625,
          "velocity": 1
        },
        {
          "duration": 0.375,
          "durationTicks": 720,
          "midi": 66,
          "name": "F#4",
          "ticks": 301680,
          "time": 157.125,
          "velocity": 1
        },
        {
          "duration": 0.125,
          "durationTicks": 240,
          "midi": 62,
          "name": "D4",
          "ticks": 301680,
          "time": 157.125,
          "velocity": 1
        },
        {
          "duration": 0.375,
          "durationTicks": 720,
          "midi": 50,
          "name": "D3",
          "ticks": 301680,
          "time": 157.125,
          "velocity": 1
        },
        {
          "duration": 0.125,
          "durationTicks": 240,
          "midi": 60,
          "name": "C4",
          "ticks": 302160,
          "time": 157.375,
          "velocity": 1
        },
        {
          "duration": 0.375,
          "durationTicks": 720,
          "midi": 67,
          "name": "G4",
          "ticks": 302400,
          "time": 157.5,
          "velocity": 1
        },
        {
          "duration": 0.375,
          "durationTicks": 720,
          "midi": 58,
          "name": "A#3",
          "ticks": 302400,
          "time": 157.5,
          "velocity": 1
        },
        {
          "duration": 0.375,
          "durationTicks": 720,
          "midi": 43,
          "name": "G2",
          "ticks": 302400,
          "time": 157.5,
          "velocity": 1
        },
        {
          "duration": 0.125,
          "durationTicks": 240,
          "midi": 74,
          "name": "D5",
          "ticks": 303360,
          "time": 158,
          "velocity": 1
        },
        {
          "duration": 0.125,
          "durationTicks": 240,
          "midi": 58,
          "name": "A#3",
          "ticks": 303360,
          "time": 158,
          "velocity": 1
        },
        {
          "duration": 0.125,
          "durationTicks": 240,
          "midi": 72,
          "name": "C5",
          "ticks": 303840,
          "time": 158.25,
          "velocity": 1
        },
        {
          "duration": 0.125,
          "durationTicks": 240,
          "midi": 57,
          "name": "A3",
          "ticks": 303840,
          "time": 158.25,
          "velocity": 1
        },
        {
          "duration": 1.125,
          "durationTicks": 2160,
          "midi": 74,
          "name": "D5",
          "ticks": 304080,
          "time": 158.375,
          "velocity": 1
        },
        {
          "duration": 0.375,
          "durationTicks": 720,
          "midi": 58,
          "name": "A#3",
          "ticks": 304080,
          "time": 158.375,
          "velocity": 1
        },
        {
          "duration": 0.25,
          "durationTicks": 480,
          "midi": 62,
          "name": "D4",
          "ticks": 304560,
          "time": 158.625,
          "velocity": 1
        },
        {
          "duration": 0.125,
          "durationTicks": 240,
          "midi": 64,
          "name": "E4",
          "ticks": 305040,
          "time": 158.875,
          "velocity": 1
        },
        {
          "duration": 0.375,
          "durationTicks": 720,
          "midi": 50,
          "name": "D3",
          "ticks": 305040,
          "time": 158.875,
          "velocity": 1
        },
        {
          "duration": 0.125,
          "durationTicks": 240,
          "midi": 66,
          "name": "F#4",
          "ticks": 305520,
          "time": 159.125,
          "velocity": 1
        },
        {
          "duration": 0.25,
          "durationTicks": 480,
          "midi": 67,
          "name": "G4",
          "ticks": 305760,
          "time": 159.25,
          "velocity": 1
        },
        {
          "duration": 0.375,
          "durationTicks": 720,
          "midi": 51,
          "name": "D#3",
          "ticks": 305760,
          "time": 159.25,
          "velocity": 1
        },
        {
          "duration": 0.25,
          "durationTicks": 480,
          "midi": 69,
          "name": "A4",
          "ticks": 306240,
          "time": 159.5,
          "velocity": 1
        },
        {
          "duration": 0.125,
          "durationTicks": 240,
          "midi": 76,
          "name": "E5",
          "ticks": 306720,
          "time": 159.75,
          "velocity": 1
        },
        {
          "duration": 0.625,
          "durationTicks": 1200,
          "midi": 70,
          "name": "A#4",
          "ticks": 306720,
          "time": 159.75,
          "velocity": 1
        },
        {
          "duration": 0.125,
          "durationTicks": 240,
          "midi": 60,
          "name": "C4",
          "ticks": 306720,
          "time": 159.75,
          "velocity": 1
        },
        {
          "duration": 0.125,
          "durationTicks": 240,
          "midi": 74,
          "name": "D5",
          "ticks": 307200,
          "time": 160,
          "velocity": 1
        },
        {
          "duration": 0.125,
          "durationTicks": 240,
          "midi": 58,
          "name": "A#3",
          "ticks": 307200,
          "time": 160,
          "velocity": 1
        },
        {
          "duration": 0.875,
          "durationTicks": 1680,
          "midi": 76,
          "name": "E5",
          "ticks": 307440,
          "time": 160.125,
          "velocity": 1
        },
        {
          "duration": 0.375,
          "durationTicks": 720,
          "midi": 60,
          "name": "C4",
          "ticks": 307440,
          "time": 160.125,
          "velocity": 1
        },
        {
          "duration": 0.125,
          "durationTicks": 240,
          "midi": 64,
          "name": "E4",
          "ticks": 307920,
          "time": 160.375,
          "velocity": 1
        },
        {
          "duration": 0.125,
          "durationTicks": 240,
          "midi": 65,
          "name": "F4",
          "ticks": 308400,
          "time": 160.625,
          "velocity": 1
        },
        {
          "duration": 0.375,
          "durationTicks": 720,
          "midi": 52,
          "name": "E3",
          "ticks": 308400,
          "time": 160.625,
          "velocity": 1
        },
        {
          "duration": 0.25,
          "durationTicks": 480,
          "midi": 67,
          "name": "G4",
          "ticks": 308640,
          "time": 160.75,
          "velocity": 1
        },
        {
          "duration": 0.25,
          "durationTicks": 480,
          "midi": 69,
          "name": "A4",
          "ticks": 309120,
          "time": 161,
          "velocity": 1
        },
        {
          "duration": 0.375,
          "durationTicks": 720,
          "midi": 53,
          "name": "F3",
          "ticks": 309120,
          "time": 161,
          "velocity": 1
        },
        {
          "duration": 0.125,
          "durationTicks": 240,
          "midi": 70,
          "name": "A#4",
          "ticks": 309600,
          "time": 161.25,
          "velocity": 1
        },
        {
          "duration": 0.125,
          "durationTicks": 240,
          "midi": 78,
          "name": "F#5",
          "ticks": 310080,
          "time": 161.5,
          "velocity": 1
        },
        {
          "duration": 0.625,
          "durationTicks": 1200,
          "midi": 72,
          "name": "C5",
          "ticks": 310080,
          "time": 161.5,
          "velocity": 1
        },
        {
          "duration": 0.125,
          "durationTicks": 240,
          "midi": 62,
          "name": "D4",
          "ticks": 310080,
          "time": 161.5,
          "velocity": 1
        },
        {
          "duration": 0.25,
          "durationTicks": 480,
          "midi": 76,
          "name": "E5",
          "ticks": 310320,
          "time": 161.625,
          "velocity": 1
        },
        {
          "duration": 0.25,
          "durationTicks": 480,
          "midi": 60,
          "name": "C4",
          "ticks": 310320,
          "time": 161.625,
          "velocity": 1
        },
        {
          "duration": 0.375,
          "durationTicks": 720,
          "midi": 78,
          "name": "F#5",
          "ticks": 310800,
          "time": 161.875,
          "velocity": 1
        },
        {
          "duration": 0.375,
          "durationTicks": 720,
          "midi": 62,
          "name": "D4",
          "ticks": 310800,
          "time": 161.875,
          "velocity": 1
        },
        {
          "duration": 0.125,
          "durationTicks": 240,
          "midi": 66,
          "name": "F#4",
          "ticks": 311280,
          "time": 162.125,
          "velocity": 1
        },
        {
          "duration": 0.125,
          "durationTicks": 240,
          "midi": 67,
          "name": "G4",
          "ticks": 311760,
          "time": 162.375,
          "velocity": 1
        },
        {
          "duration": 0.375,
          "durationTicks": 720,
          "midi": 54,
          "name": "F#3",
          "ticks": 311760,
          "time": 162.375,
          "velocity": 1
        },
        {
          "duration": 0.25,
          "durationTicks": 480,
          "midi": 69,
          "name": "A4",
          "ticks": 312000,
          "time": 162.5,
          "velocity": 1
        },
        {
          "duration": 0.375,
          "durationTicks": 720,
          "midi": 70,
          "name": "A#4",
          "ticks": 312480,
          "time": 162.75,
          "velocity": 1
        },
        {
          "duration": 1,
          "durationTicks": 1920,
          "midi": 55,
          "name": "G3",
          "ticks": 312480,
          "time": 162.75,
          "velocity": 1
        },
        {
          "duration": 0.125,
          "durationTicks": 240,
          "midi": 67,
          "name": "G4",
          "ticks": 313440,
          "time": 163.25,
          "velocity": 1
        },
        {
          "duration": 0.125,
          "durationTicks": 240,
          "midi": 63,
          "name": "D#4",
          "ticks": 313440,
          "time": 163.25,
          "velocity": 1
        },
        {
          "duration": 0.25,
          "durationTicks": 480,
          "midi": 65,
          "name": "F4",
          "ticks": 313680,
          "time": 163.375,
          "velocity": 1
        },
        {
          "duration": 0.25,
          "durationTicks": 480,
          "midi": 62,
          "name": "D4",
          "ticks": 313680,
          "time": 163.375,
          "velocity": 1
        },
        {
          "duration": 0.875,
          "durationTicks": 1680,
          "midi": 67,
          "name": "G4",
          "ticks": 314160,
          "time": 163.625,
          "velocity": 1
        },
        {
          "duration": 0.375,
          "durationTicks": 720,
          "midi": 63,
          "name": "D#4",
          "ticks": 314160,
          "time": 163.625,
          "velocity": 1
        },
        {
          "duration": 0.125,
          "durationTicks": 240,
          "midi": 43,
          "name": "G2",
          "ticks": 314640,
          "time": 163.875,
          "velocity": 1
        },
        {
          "duration": 0.375,
          "durationTicks": 720,
          "midi": 55,
          "name": "G3",
          "ticks": 315120,
          "time": 164.125,
          "velocity": 1
        },
        {
          "duration": 0.125,
          "durationTicks": 240,
          "midi": 45,
          "name": "A2",
          "ticks": 315120,
          "time": 164.125,
          "velocity": 1
        },
        {
          "duration": 0.25,
          "durationTicks": 480,
          "midi": 47,
          "name": "B2",
          "ticks": 315360,
          "time": 164.25,
          "velocity": 1
        },
        {
          "duration": 0.375,
          "durationTicks": 720,
          "midi": 56,
          "name": "G#3",
          "ticks": 315840,
          "time": 164.5,
          "velocity": 1
        },
        {
          "duration": 0.25,
          "durationTicks": 480,
          "midi": 48,
          "name": "C3",
          "ticks": 315840,
          "time": 164.5,
          "velocity": 1
        },
        {
          "duration": 0.125,
          "durationTicks": 240,
          "midi": 50,
          "name": "D3",
          "ticks": 316320,
          "time": 164.75,
          "velocity": 1
        },
        {
          "duration": 0.125,
          "durationTicks": 240,
          "midi": 69,
          "name": "A4",
          "ticks": 316800,
          "time": 165,
          "velocity": 1
        },
        {
          "duration": 0.125,
          "durationTicks": 240,
          "midi": 65,
          "name": "F4",
          "ticks": 316800,
          "time": 165,
          "velocity": 1
        },
        {
          "duration": 0.5,
          "durationTicks": 960,
          "midi": 51,
          "name": "D#3",
          "ticks": 316800,
          "time": 165,
          "velocity": 1
        },
        {
          "duration": 0.25,
          "durationTicks": 480,
          "midi": 67,
          "name": "G4",
          "ticks": 317040,
          "time": 165.125,
          "velocity": 1
        },
        {
          "duration": 0.25,
          "durationTicks": 480,
          "midi": 63,
          "name": "D#4",
          "ticks": 317040,
          "time": 165.125,
          "velocity": 1
        },
        {
          "duration": 0.875,
          "durationTicks": 1680,
          "midi": 69,
          "name": "A4",
          "ticks": 317520,
          "time": 165.375,
          "velocity": 1
        },
        {
          "duration": 0.375,
          "durationTicks": 720,
          "midi": 65,
          "name": "F4",
          "ticks": 317520,
          "time": 165.375,
          "velocity": 1
        },
        {
          "duration": 0.125,
          "durationTicks": 240,
          "midi": 45,
          "name": "A2",
          "ticks": 318000,
          "time": 165.625,
          "velocity": 1
        },
        {
          "duration": 0.375,
          "durationTicks": 720,
          "midi": 57,
          "name": "A3",
          "ticks": 318480,
          "time": 165.875,
          "velocity": 1
        },
        {
          "duration": 0.125,
          "durationTicks": 240,
          "midi": 46,
          "name": "A#2",
          "ticks": 318480,
          "time": 165.875,
          "velocity": 1
        },
        {
          "duration": 0.25,
          "durationTicks": 480,
          "midi": 48,
          "name": "C3",
          "ticks": 318720,
          "time": 166,
          "velocity": 1
        },
        {
          "duration": 0.375,
          "durationTicks": 720,
          "midi": 58,
          "name": "A#3",
          "ticks": 319200,
          "time": 166.25,
          "velocity": 1
        },
        {
          "duration": 0.25,
          "durationTicks": 480,
          "midi": 50,
          "name": "D3",
          "ticks": 319200,
          "time": 166.25,
          "velocity": 1
        },
        {
          "duration": 0.125,
          "durationTicks": 240,
          "midi": 51,
          "name": "D#3",
          "ticks": 319680,
          "time": 166.5,
          "velocity": 1
        },
        {
          "duration": 0.125,
          "durationTicks": 240,
          "midi": 71,
          "name": "B4",
          "ticks": 320160,
          "time": 166.75,
          "velocity": 1
        },
        {
          "duration": 0.125,
          "durationTicks": 240,
          "midi": 67,
          "name": "G4",
          "ticks": 320160,
          "time": 166.75,
          "velocity": 1
        },
        {
          "duration": 0.5,
          "durationTicks": 960,
          "midi": 53,
          "name": "F3",
          "ticks": 320160,
          "time": 166.75,
          "velocity": 1
        },
        {
          "duration": 0.25,
          "durationTicks": 480,
          "midi": 69,
          "name": "A4",
          "ticks": 320400,
          "time": 166.875,
          "velocity": 1
        },
        {
          "duration": 0.25,
          "durationTicks": 480,
          "midi": 65,
          "name": "F4",
          "ticks": 320400,
          "time": 166.875,
          "velocity": 1
        },
        {
          "duration": 0.875,
          "durationTicks": 1680,
          "midi": 71,
          "name": "B4",
          "ticks": 320880,
          "time": 167.125,
          "velocity": 1
        },
        {
          "duration": 0.375,
          "durationTicks": 720,
          "midi": 67,
          "name": "G4",
          "ticks": 320880,
          "time": 167.125,
          "velocity": 1
        },
        {
          "duration": 0.125,
          "durationTicks": 240,
          "midi": 47,
          "name": "B2",
          "ticks": 321360,
          "time": 167.375,
          "velocity": 1
        },
        {
          "duration": 0.375,
          "durationTicks": 720,
          "midi": 59,
          "name": "B3",
          "ticks": 321840,
          "time": 167.625,
          "velocity": 1
        },
        {
          "duration": 0.125,
          "durationTicks": 240,
          "midi": 48,
          "name": "C3",
          "ticks": 321840,
          "time": 167.625,
          "velocity": 1
        },
        {
          "duration": 0.25,
          "durationTicks": 480,
          "midi": 50,
          "name": "D3",
          "ticks": 322080,
          "time": 167.75,
          "velocity": 1
        },
        {
          "duration": 0.25,
          "durationTicks": 480,
          "midi": 60,
          "name": "C4",
          "ticks": 322560,
          "time": 168,
          "velocity": 1
        },
        {
          "duration": 1,
          "durationTicks": 1920,
          "midi": 51,
          "name": "D#3",
          "ticks": 322560,
          "time": 168,
          "velocity": 1
        },
        {
          "duration": 0.125,
          "durationTicks": 240,
          "midi": 65,
          "name": "F4",
          "ticks": 323040,
          "time": 168.25,
          "velocity": 1
        },
        {
          "duration": 0.125,
          "durationTicks": 240,
          "midi": 72,
          "name": "C5",
          "ticks": 323520,
          "time": 168.5,
          "velocity": 1
        },
        {
          "duration": 0.125,
          "durationTicks": 240,
          "midi": 63,
          "name": "D#4",
          "ticks": 323520,
          "time": 168.5,
          "velocity": 1
        },
        {
          "duration": 0.25,
          "durationTicks": 480,
          "midi": 71,
          "name": "B4",
          "ticks": 323760,
          "time": 168.625,
          "velocity": 1
        },
        {
          "duration": 0.25,
          "durationTicks": 480,
          "midi": 62,
          "name": "D4",
          "ticks": 323760,
          "time": 168.625,
          "velocity": 1
        },
        {
          "duration": 0.375,
          "durationTicks": 720,
          "midi": 72,
          "name": "C5",
          "ticks": 324240,
          "time": 168.875,
          "velocity": 1
        },
        {
          "duration": 0.25,
          "durationTicks": 480,
          "midi": 60,
          "name": "C4",
          "ticks": 324240,
          "time": 168.875,
          "velocity": 1
        },
        {
          "duration": 0.125,
          "durationTicks": 240,
          "midi": 58,
          "name": "A#3",
          "ticks": 324720,
          "time": 169.125,
          "velocity": 1
        },
        {
          "duration": 0.375,
          "durationTicks": 720,
          "midi": 67,
          "name": "G4",
          "ticks": 325200,
          "time": 169.375,
          "velocity": 1
        },
        {
          "duration": 0.125,
          "durationTicks": 240,
          "midi": 56,
          "name": "G#3",
          "ticks": 325200,
          "time": 169.375,
          "velocity": 1
        },
        {
          "duration": 0.375,
          "durationTicks": 720,
          "midi": 52,
          "name": "E3",
          "ticks": 325200,
          "time": 169.375,
          "velocity": 1
        },
        {
          "duration": 0.25,
          "durationTicks": 480,
          "midi": 55,
          "name": "G3",
          "ticks": 325440,
          "time": 169.5,
          "velocity": 1
        },
        {
          "duration": 0.375,
          "durationTicks": 720,
          "midi": 68,
          "name": "G#4",
          "ticks": 325920,
          "time": 169.75,
          "velocity": 1
        },
        {
          "duration": 0.375,
          "durationTicks": 720,
          "midi": 53,
          "name": "F3",
          "ticks": 325920,
          "time": 169.75,
          "velocity": 1
        },
        {
          "duration": 0.125,
          "durationTicks": 240,
          "midi": 72,
          "name": "C5",
          "ticks": 326880,
          "time": 170.25,
          "velocity": 1
        },
        {
          "duration": 0.375,
          "durationTicks": 720,
          "midi": 68,
          "name": "G#4",
          "ticks": 326880,
          "time": 170.25,
          "velocity": 1
        },
        {
          "duration": 0.375,
          "durationTicks": 720,
          "midi": 41,
          "name": "F2",
          "ticks": 326880,
          "time": 170.25,
          "velocity": 1
        },
        {
          "duration": 0.25,
          "durationTicks": 480,
          "midi": 71,
          "name": "B4",
          "ticks": 327120,
          "time": 170.375,
          "velocity": 1
        },
        {
          "duration": 0.375,
          "durationTicks": 720,
          "midi": 72,
          "name": "C5",
          "ticks": 327600,
          "time": 170.625,
          "velocity": 1
        },
        {
          "duration": 0.375,
          "durationTicks": 720,
          "midi": 67,
          "name": "G4",
          "ticks": 327600,
          "time": 170.625,
          "velocity": 1
        },
        {
          "duration": 0.375,
          "durationTicks": 720,
          "midi": 39,
          "name": "D#2",
          "ticks": 327600,
          "time": 170.625,
          "velocity": 1
        },
        {
          "duration": 0.375,
          "durationTicks": 720,
          "midi": 74,
          "name": "D5",
          "ticks": 328560,
          "time": 171.125,
          "velocity": 1
        },
        {
          "duration": 0.375,
          "durationTicks": 720,
          "midi": 65,
          "name": "F4",
          "ticks": 328560,
          "time": 171.125,
          "velocity": 1
        },
        {
          "duration": 0.375,
          "durationTicks": 720,
          "midi": 38,
          "name": "D2",
          "ticks": 328560,
          "time": 171.125,
          "velocity": 1
        },
        {
          "duration": 0.375,
          "durationTicks": 720,
          "midi": 67,
          "name": "G4",
          "ticks": 329280,
          "time": 171.5,
          "velocity": 1
        },
        {
          "duration": 0.375,
          "durationTicks": 720,
          "midi": 63,
          "name": "D#4",
          "ticks": 329280,
          "time": 171.5,
          "velocity": 1
        },
        {
          "duration": 0.25,
          "durationTicks": 480,
          "midi": 72,
          "name": "C5",
          "ticks": 330000,
          "time": 171.875,
          "velocity": 1
        },
        {
          "duration": 0.375,
          "durationTicks": 720,
          "midi": 62,
          "name": "D4",
          "ticks": 330000,
          "time": 171.875,
          "velocity": 1
        },
        {
          "duration": 0.375,
          "durationTicks": 720,
          "midi": 44,
          "name": "G#2",
          "ticks": 330000,
          "time": 171.875,
          "velocity": 1
        },
        {
          "duration": 0.25,
          "durationTicks": 480,
          "midi": 71,
          "name": "B4",
          "ticks": 330480,
          "time": 172.125,
          "velocity": 1
        },
        {
          "duration": 0.375,
          "durationTicks": 720,
          "midi": 72,
          "name": "C5",
          "ticks": 330960,
          "time": 172.375,
          "velocity": 1
        },
        {
          "duration": 0.375,
          "durationTicks": 720,
          "midi": 63,
          "name": "D#4",
          "ticks": 330960,
          "time": 172.375,
          "velocity": 1
        },
        {
          "duration": 0.375,
          "durationTicks": 720,
          "midi": 43,
          "name": "G2",
          "ticks": 330960,
          "time": 172.375,
          "velocity": 1
        },
        {
          "duration": 0.375,
          "durationTicks": 720,
          "midi": 74,
          "name": "D5",
          "ticks": 331680,
          "time": 172.75,
          "velocity": 1
        },
        {
          "duration": 0.375,
          "durationTicks": 720,
          "midi": 65,
          "name": "F4",
          "ticks": 331680,
          "time": 172.75,
          "velocity": 1
        },
        {
          "duration": 0.375,
          "durationTicks": 720,
          "midi": 41,
          "name": "F2",
          "ticks": 331680,
          "time": 172.75,
          "velocity": 1
        },
        {
          "duration": 0.125,
          "durationTicks": 240,
          "midi": 65,
          "name": "F4",
          "ticks": 332640,
          "time": 173.25,
          "velocity": 1
        },
        {
          "duration": 0.375,
          "durationTicks": 720,
          "midi": 59,
          "name": "B3",
          "ticks": 332640,
          "time": 173.25,
          "velocity": 1
        },
        {
          "duration": 0.375,
          "durationTicks": 720,
          "midi": 43,
          "name": "G2",
          "ticks": 332640,
          "time": 173.25,
          "velocity": 1
        },
        {
          "duration": 0.125,
          "durationTicks": 240,
          "midi": 67,
          "name": "G4",
          "ticks": 333120,
          "time": 173.5,
          "velocity": 1
        },
        {
          "duration": 0.125,
          "durationTicks": 240,
          "midi": 65,
          "name": "F4",
          "ticks": 333360,
          "time": 173.625,
          "velocity": 1
        },
        {
          "duration": 0.375,
          "durationTicks": 720,
          "midi": 60,
          "name": "C4",
          "ticks": 333360,
          "time": 173.625,
          "velocity": 1
        },
        {
          "duration": 0.25,
          "durationTicks": 480,
          "midi": 41,
          "name": "F2",
          "ticks": 333360,
          "time": 173.625,
          "velocity": 1
        },
        {
          "duration": 0.125,
          "durationTicks": 240,
          "midi": 67,
          "name": "G4",
          "ticks": 333600,
          "time": 173.75,
          "velocity": 1
        },
        {
          "duration": 0.625,
          "durationTicks": 1200,
          "midi": 68,
          "name": "G#4",
          "ticks": 333840,
          "time": 173.875,
          "velocity": 1
        },
        {
          "duration": 0.25,
          "durationTicks": 480,
          "midi": 39,
          "name": "D#2",
          "ticks": 333840,
          "time": 173.875,
          "velocity": 1
        },
        {
          "duration": 0.375,
          "durationTicks": 720,
          "midi": 62,
          "name": "D4",
          "ticks": 334320,
          "time": 174.125,
          "velocity": 1
        },
        {
          "duration": 0.375,
          "durationTicks": 720,
          "midi": 41,
          "name": "F2",
          "ticks": 334320,
          "time": 174.125,
          "velocity": 1
        },
        {
          "duration": 0.25,
          "durationTicks": 480,
          "midi": 67,
          "name": "G4",
          "ticks": 335040,
          "time": 174.5,
          "velocity": 1
        },
        {
          "duration": 0.375,
          "durationTicks": 720,
          "midi": 59,
          "name": "B3",
          "ticks": 335040,
          "time": 174.5,
          "velocity": 1
        },
        {
          "duration": 0.375,
          "durationTicks": 720,
          "midi": 43,
          "name": "G2",
          "ticks": 335040,
          "time": 174.5,
          "velocity": 1
        },
        {
          "duration": 0.25,
          "durationTicks": 480,
          "midi": 65,
          "name": "F4",
          "ticks": 335520,
          "time": 174.75,
          "velocity": 1
        },
        {
          "duration": 0.375,
          "durationTicks": 720,
          "midi": 63,
          "name": "D#4",
          "ticks": 336000,
          "time": 175,
          "velocity": 1
        },
        {
          "duration": 0.75,
          "durationTicks": 1440,
          "midi": 60,
          "name": "C4",
          "ticks": 336000,
          "time": 175,
          "velocity": 1
        },
        {
          "duration": 0.125,
          "durationTicks": 240,
          "midi": 48,
          "name": "C3",
          "ticks": 336000,
          "time": 175,
          "velocity": 1
        },
        {
          "duration": 0.125,
          "durationTicks": 240,
          "midi": 50,
          "name": "D3",
          "ticks": 336480,
          "time": 175.25,
          "velocity": 1
        },
        {
          "duration": 0.25,
          "durationTicks": 480,
          "midi": 72,
          "name": "C5",
          "ticks": 336720,
          "time": 175.375,
          "velocity": 1
        },
        {
          "duration": 0.25,
          "durationTicks": 480,
          "midi": 51,
          "name": "D#3",
          "ticks": 336720,
          "time": 175.375,
          "velocity": 1
        },
        {
          "duration": 0.25,
          "durationTicks": 480,
          "midi": 71,
          "name": "B4",
          "ticks": 337200,
          "time": 175.625,
          "velocity": 1
        },
        {
          "duration": 0.25,
          "durationTicks": 480,
          "midi": 50,
          "name": "D3",
          "ticks": 337200,
          "time": 175.625,
          "velocity": 1
        },
        {
          "duration": 0.25,
          "durationTicks": 480,
          "midi": 72,
          "name": "C5",
          "ticks": 337680,
          "time": 175.875,
          "velocity": 1
        },
        {
          "duration": 0.125,
          "durationTicks": 240,
          "midi": 48,
          "name": "C3",
          "ticks": 337680,
          "time": 175.875,
          "velocity": 1
        },
        {
          "duration": 0.125,
          "durationTicks": 240,
          "midi": 46,
          "name": "A#2",
          "ticks": 338160,
          "time": 176.125,
          "velocity": 1
        },
        {
          "duration": 0.375,
          "durationTicks": 720,
          "midi": 67,
          "name": "G4",
          "ticks": 338400,
          "time": 176.25,
          "velocity": 1
        },
        {
          "duration": 0.375,
          "durationTicks": 720,
          "midi": 64,
          "name": "E4",
          "ticks": 338400,
          "time": 176.25,
          "velocity": 1
        },
        {
          "duration": 0.25,
          "durationTicks": 480,
          "midi": 44,
          "name": "G#2",
          "ticks": 338400,
          "time": 176.25,
          "velocity": 1
        },
        {
          "duration": 0.25,
          "durationTicks": 480,
          "midi": 43,
          "name": "G2",
          "ticks": 338880,
          "time": 176.5,
          "velocity": 1
        },
        {
          "duration": 1.125,
          "durationTicks": 2160,
          "midi": 68,
          "name": "G#4",
          "ticks": 339360,
          "time": 176.75,
          "velocity": 1
        },
        {
          "duration": 0.375,
          "durationTicks": 720,
          "midi": 65,
          "name": "F4",
          "ticks": 339360,
          "time": 176.75,
          "velocity": 1
        },
        {
          "duration": 0.125,
          "durationTicks": 240,
          "midi": 41,
          "name": "F2",
          "ticks": 339360,
          "time": 176.75,
          "velocity": 1
        },
        {
          "duration": 0.125,
          "durationTicks": 240,
          "midi": 58,
          "name": "A#3",
          "ticks": 339840,
          "time": 177,
          "velocity": 1
        },
        {
          "duration": 0.25,
          "durationTicks": 480,
          "midi": 65,
          "name": "F4",
          "ticks": 340080,
          "time": 177.125,
          "velocity": 1
        },
        {
          "duration": 0.25,
          "durationTicks": 480,
          "midi": 56,
          "name": "G#3",
          "ticks": 340080,
          "time": 177.125,
          "velocity": 1
        },
        {
          "duration": 0.25,
          "durationTicks": 480,
          "midi": 64,
          "name": "E4",
          "ticks": 340560,
          "time": 177.375,
          "velocity": 1
        },
        {
          "duration": 0.25,
          "durationTicks": 480,
          "midi": 55,
          "name": "G3",
          "ticks": 340560,
          "time": 177.375,
          "velocity": 1
        },
        {
          "duration": 0.375,
          "durationTicks": 720,
          "midi": 65,
          "name": "F4",
          "ticks": 341040,
          "time": 177.625,
          "velocity": 1
        },
        {
          "duration": 0.125,
          "durationTicks": 240,
          "midi": 53,
          "name": "F3",
          "ticks": 341040,
          "time": 177.625,
          "velocity": 1
        },
        {
          "duration": 0.125,
          "durationTicks": 240,
          "midi": 51,
          "name": "D#3",
          "ticks": 341520,
          "time": 177.875,
          "velocity": 1
        },
        {
          "duration": 0.375,
          "durationTicks": 720,
          "midi": 69,
          "name": "A4",
          "ticks": 341760,
          "time": 178,
          "velocity": 1
        },
        {
          "duration": 0.375,
          "durationTicks": 720,
          "midi": 60,
          "name": "C4",
          "ticks": 341760,
          "time": 178,
          "velocity": 1
        },
        {
          "duration": 0.25,
          "durationTicks": 480,
          "midi": 50,
          "name": "D3",
          "ticks": 341760,
          "time": 178,
          "velocity": 1
        },
        {
          "duration": 0.25,
          "durationTicks": 480,
          "midi": 48,
          "name": "C3",
          "ticks": 342240,
          "time": 178.25,
          "velocity": 1
        },
        {
          "duration": 0.375,
          "durationTicks": 720,
          "midi": 70,
          "name": "A#4",
          "ticks": 342720,
          "time": 178.5,
          "velocity": 1
        },
        {
          "duration": 1,
          "durationTicks": 1920,
          "midi": 62,
          "name": "D4",
          "ticks": 342720,
          "time": 178.5,
          "velocity": 1
        },
        {
          "duration": 0.125,
          "durationTicks": 240,
          "midi": 46,
          "name": "A#2",
          "ticks": 342720,
          "time": 178.5,
          "velocity": 1
        },
        {
          "duration": 0.125,
          "durationTicks": 240,
          "midi": 48,
          "name": "C3",
          "ticks": 343200,
          "time": 178.75,
          "velocity": 1
        },
        {
          "duration": 0.25,
          "durationTicks": 480,
          "midi": 70,
          "name": "A#4",
          "ticks": 343440,
          "time": 178.875,
          "velocity": 1
        },
        {
          "duration": 0.25,
          "durationTicks": 480,
          "midi": 50,
          "name": "D3",
          "ticks": 343440,
          "time": 178.875,
          "velocity": 1
        },
        {
          "duration": 0.25,
          "durationTicks": 480,
          "midi": 69,
          "name": "A4",
          "ticks": 343920,
          "time": 179.125,
          "velocity": 1
        },
        {
          "duration": 0.25,
          "durationTicks": 480,
          "midi": 48,
          "name": "C3",
          "ticks": 343920,
          "time": 179.125,
          "velocity": 1
        },
        {
          "duration": 0.25,
          "durationTicks": 480,
          "midi": 70,
          "name": "A#4",
          "ticks": 344400,
          "time": 179.375,
          "velocity": 1
        },
        {
          "duration": 0.125,
          "durationTicks": 240,
          "midi": 46,
          "name": "A#2",
          "ticks": 344400,
          "time": 179.375,
          "velocity": 1
        },
        {
          "duration": 0.125,
          "durationTicks": 240,
          "midi": 44,
          "name": "G#2",
          "ticks": 344880,
          "time": 179.625,
          "velocity": 1
        },
        {
          "duration": 0.375,
          "durationTicks": 720,
          "midi": 65,
          "name": "F4",
          "ticks": 345120,
          "time": 179.75,
          "velocity": 1
        },
        {
          "duration": 0.375,
          "durationTicks": 720,
          "midi": 62,
          "name": "D4",
          "ticks": 345120,
          "time": 179.75,
          "velocity": 1
        },
        {
          "duration": 0.25,
          "durationTicks": 480,
          "midi": 43,
          "name": "G2",
          "ticks": 345120,
          "time": 179.75,
          "velocity": 1
        },
        {
          "duration": 0.25,
          "durationTicks": 480,
          "midi": 41,
          "name": "F2",
          "ticks": 345600,
          "time": 180,
          "velocity": 1
        },
        {
          "duration": 1.125,
          "durationTicks": 2160,
          "midi": 67,
          "name": "G4",
          "ticks": 346080,
          "time": 180.25,
          "velocity": 1
        },
        {
          "duration": 0.375,
          "durationTicks": 720,
          "midi": 63,
          "name": "D#4",
          "ticks": 346080,
          "time": 180.25,
          "velocity": 1
        },
        {
          "duration": 0.125,
          "durationTicks": 240,
          "midi": 39,
          "name": "D#2",
          "ticks": 346080,
          "time": 180.25,
          "velocity": 1
        },
        {
          "duration": 0.125,
          "durationTicks": 240,
          "midi": 56,
          "name": "G#3",
          "ticks": 346560,
          "time": 180.5,
          "velocity": 1
        },
        {
          "duration": 0.25,
          "durationTicks": 480,
          "midi": 63,
          "name": "D#4",
          "ticks": 346800,
          "time": 180.625,
          "velocity": 1
        },
        {
          "duration": 0.25,
          "durationTicks": 480,
          "midi": 55,
          "name": "G3",
          "ticks": 346800,
          "time": 180.625,
          "velocity": 1
        },
        {
          "duration": 0.25,
          "durationTicks": 480,
          "midi": 62,
          "name": "D4",
          "ticks": 347280,
          "time": 180.875,
          "velocity": 1
        },
        {
          "duration": 0.25,
          "durationTicks": 480,
          "midi": 53,
          "name": "F3",
          "ticks": 347280,
          "time": 180.875,
          "velocity": 1
        },
        {
          "duration": 0.375,
          "durationTicks": 720,
          "midi": 63,
          "name": "D#4",
          "ticks": 347760,
          "time": 181.125,
          "velocity": 1
        },
        {
          "duration": 0.125,
          "durationTicks": 240,
          "midi": 51,
          "name": "D#3",
          "ticks": 347760,
          "time": 181.125,
          "velocity": 1
        },
        {
          "duration": 0.25,
          "durationTicks": 480,
          "midi": 49,
          "name": "C#3",
          "ticks": 348000,
          "time": 181.25,
          "velocity": 1
        },
        {
          "duration": 0.875,
          "durationTicks": 1680,
          "midi": 67,
          "name": "G4",
          "ticks": 348480,
          "time": 181.5,
          "velocity": 1
        },
        {
          "duration": 0.375,
          "durationTicks": 720,
          "midi": 58,
          "name": "A#3",
          "ticks": 348480,
          "time": 181.5,
          "velocity": 1
        },
        {
          "duration": 0.25,
          "durationTicks": 480,
          "midi": 48,
          "name": "C3",
          "ticks": 348480,
          "time": 181.5,
          "velocity": 1
        },
        {
          "duration": 0.125,
          "durationTicks": 240,
          "midi": 46,
          "name": "A#2",
          "ticks": 348960,
          "time": 181.75,
          "velocity": 1
        },
        {
          "duration": 2,
          "durationTicks": 3840,
          "midi": 60,
          "name": "C4",
          "ticks": 349440,
          "time": 182,
          "velocity": 1
        },
        {
          "duration": 0.125,
          "durationTicks": 240,
          "midi": 44,
          "name": "G#2",
          "ticks": 349440,
          "time": 182,
          "velocity": 1
        },
        {
          "duration": 0.25,
          "durationTicks": 480,
          "midi": 46,
          "name": "A#2",
          "ticks": 349680,
          "time": 182.125,
          "velocity": 1
        },
        {
          "duration": 0.25,
          "durationTicks": 480,
          "midi": 68,
          "name": "G#4",
          "ticks": 350160,
          "time": 182.375,
          "velocity": 1
        },
        {
          "duration": 0.25,
          "durationTicks": 480,
          "midi": 48,
          "name": "C3",
          "ticks": 350160,
          "time": 182.375,
          "velocity": 1
        },
        {
          "duration": 0.125,
          "durationTicks": 240,
          "midi": 70,
          "name": "A#4",
          "ticks": 350640,
          "time": 182.625,
          "velocity": 1
        },
        {
          "duration": 0.125,
          "durationTicks": 240,
          "midi": 46,
          "name": "A#2",
          "ticks": 350640,
          "time": 182.625,
          "velocity": 1
        },
        {
          "duration": 0.125,
          "durationTicks": 240,
          "midi": 72,
          "name": "C5",
          "ticks": 351120,
          "time": 182.875,
          "velocity": 1
        },
        {
          "duration": 0.125,
          "durationTicks": 240,
          "midi": 44,
          "name": "G#2",
          "ticks": 351120,
          "time": 182.875,
          "velocity": 1
        },
        {
          "duration": 0.25,
          "durationTicks": 480,
          "midi": 71,
          "name": "B4",
          "ticks": 351360,
          "time": 183,
          "velocity": 1
        },
        {
          "duration": 0.25,
          "durationTicks": 480,
          "midi": 43,
          "name": "G2",
          "ticks": 351360,
          "time": 183,
          "velocity": 1
        },
        {
          "duration": 0.25,
          "durationTicks": 480,
          "midi": 72,
          "name": "C5",
          "ticks": 351840,
          "time": 183.25,
          "velocity": 1
        },
        {
          "duration": 0.25,
          "durationTicks": 480,
          "midi": 41,
          "name": "F2",
          "ticks": 351840,
          "time": 183.25,
          "velocity": 1
        },
        {
          "duration": 0.125,
          "durationTicks": 240,
          "midi": 68,
          "name": "G#4",
          "ticks": 352320,
          "time": 183.5,
          "velocity": 1
        },
        {
          "duration": 0.125,
          "durationTicks": 240,
          "midi": 39,
          "name": "D#2",
          "ticks": 352320,
          "time": 183.5,
          "velocity": 1
        },
        {
          "duration": 0.75,
          "durationTicks": 1440,
          "midi": 65,
          "name": "F4",
          "ticks": 352800,
          "time": 183.75,
          "velocity": 1
        },
        {
          "duration": 0.125,
          "durationTicks": 240,
          "midi": 38,
          "name": "D2",
          "ticks": 352800,
          "time": 183.75,
          "velocity": 1
        },
        {
          "duration": 0.25,
          "durationTicks": 480,
          "midi": 55,
          "name": "G3",
          "ticks": 353040,
          "time": 183.875,
          "velocity": 1
        },
        {
          "duration": 0.25,
          "durationTicks": 480,
          "midi": 62,
          "name": "D4",
          "ticks": 353520,
          "time": 184.125,
          "velocity": 1
        },
        {
          "duration": 0.25,
          "durationTicks": 480,
          "midi": 53,
          "name": "F3",
          "ticks": 353520,
          "time": 184.125,
          "velocity": 1
        },
        {
          "duration": 0.125,
          "durationTicks": 240,
          "midi": 63,
          "name": "D#4",
          "ticks": 354000,
          "time": 184.375,
          "velocity": 1
        },
        {
          "duration": 0.125,
          "durationTicks": 240,
          "midi": 51,
          "name": "D#3",
          "ticks": 354000,
          "time": 184.375,
          "velocity": 1
        },
        {
          "duration": 0.125,
          "durationTicks": 240,
          "midi": 65,
          "name": "F4",
          "ticks": 354480,
          "time": 184.625,
          "velocity": 1
        },
        {
          "duration": 0.125,
          "durationTicks": 240,
          "midi": 50,
          "name": "D3",
          "ticks": 354480,
          "time": 184.625,
          "velocity": 1
        },
        {
          "duration": 0.25,
          "durationTicks": 480,
          "midi": 63,
          "name": "D#4",
          "ticks": 354720,
          "time": 184.75,
          "velocity": 1
        },
        {
          "duration": 0.25,
          "durationTicks": 480,
          "midi": 48,
          "name": "C3",
          "ticks": 354720,
          "time": 184.75,
          "velocity": 1
        },
        {
          "duration": 0.375,
          "durationTicks": 720,
          "midi": 65,
          "name": "F4",
          "ticks": 355200,
          "time": 185,
          "velocity": 1
        },
        {
          "duration": 0.25,
          "durationTicks": 480,
          "midi": 47,
          "name": "B2",
          "ticks": 355200,
          "time": 185,
          "velocity": 1
        },
        {
          "duration": 0.125,
          "durationTicks": 240,
          "midi": 62,
          "name": "D4",
          "ticks": 355680,
          "time": 185.25,
          "velocity": 1
        },
        {
          "duration": 0.125,
          "durationTicks": 240,
          "midi": 45,
          "name": "A2",
          "ticks": 355680,
          "time": 185.25,
          "velocity": 1
        },
        {
          "duration": 0.375,
          "durationTicks": 720,
          "midi": 59,
          "name": "B3",
          "ticks": 356160,
          "time": 185.5,
          "velocity": 1
        },
        {
          "duration": 1.75,
          "durationTicks": 3360,
          "midi": 43,
          "name": "G2",
          "ticks": 356160,
          "time": 185.5,
          "velocity": 1
        },
        {
          "duration": 0.25,
          "durationTicks": 480,
          "midi": 74,
          "name": "D5",
          "ticks": 356880,
          "time": 185.875,
          "velocity": 1
        },
        {
          "duration": 0.125,
          "durationTicks": 240,
          "midi": 72,
          "name": "C5",
          "ticks": 357360,
          "time": 186.125,
          "velocity": 1
        },
        {
          "duration": 0.25,
          "durationTicks": 480,
          "midi": 74,
          "name": "D5",
          "ticks": 357840,
          "time": 186.375,
          "velocity": 1
        },
        {
          "duration": 0.375,
          "durationTicks": 720,
          "midi": 65,
          "name": "F4",
          "ticks": 358560,
          "time": 186.75,
          "velocity": 1
        },
        {
          "duration": 0.375,
          "durationTicks": 720,
          "midi": 59,
          "name": "B3",
          "ticks": 358560,
          "time": 186.75,
          "velocity": 1
        },
        {
          "duration": 0.375,
          "durationTicks": 720,
          "midi": 63,
          "name": "D#4",
          "ticks": 359520,
          "time": 187.25,
          "velocity": 1
        },
        {
          "duration": 0.375,
          "durationTicks": 720,
          "midi": 60,
          "name": "C4",
          "ticks": 359520,
          "time": 187.25,
          "velocity": 1
        },
        {
          "duration": 0.25,
          "durationTicks": 480,
          "midi": 43,
          "name": "G2",
          "ticks": 359760,
          "time": 187.375,
          "velocity": 1
        },
        {
          "duration": 0.25,
          "durationTicks": 480,
          "midi": 75,
          "name": "D#5",
          "ticks": 360240,
          "time": 187.625,
          "velocity": 1
        },
        {
          "duration": 0.25,
          "durationTicks": 480,
          "midi": 45,
          "name": "A2",
          "ticks": 360240,
          "time": 187.625,
          "velocity": 1
        },
        {
          "duration": 0.125,
          "durationTicks": 240,
          "midi": 74,
          "name": "D5",
          "ticks": 360720,
          "time": 187.875,
          "velocity": 1
        },
        {
          "duration": 0.125,
          "durationTicks": 240,
          "midi": 47,
          "name": "B2",
          "ticks": 360720,
          "time": 187.875,
          "velocity": 1
        },
        {
          "duration": 0.25,
          "durationTicks": 480,
          "midi": 75,
          "name": "D#5",
          "ticks": 361200,
          "time": 188.125,
          "velocity": 1
        },
        {
          "duration": 0.125,
          "durationTicks": 240,
          "midi": 48,
          "name": "C3",
          "ticks": 361200,
          "time": 188.125,
          "velocity": 1
        },
        {
          "duration": 0.25,
          "durationTicks": 480,
          "midi": 50,
          "name": "D3",
          "ticks": 361440,
          "time": 188.25,
          "velocity": 1
        },
        {
          "duration": 0.375,
          "durationTicks": 720,
          "midi": 67,
          "name": "G4",
          "ticks": 361920,
          "time": 188.5,
          "velocity": 1
        },
        {
          "duration": 0.375,
          "durationTicks": 720,
          "midi": 63,
          "name": "D#4",
          "ticks": 361920,
          "time": 188.5,
          "velocity": 1
        },
        {
          "duration": 0.25,
          "durationTicks": 480,
          "midi": 51,
          "name": "D#3",
          "ticks": 361920,
          "time": 188.5,
          "velocity": 1
        },
        {
          "duration": 0.125,
          "durationTicks": 240,
          "midi": 53,
          "name": "F3",
          "ticks": 362400,
          "time": 188.75,
          "velocity": 1
        },
        {
          "duration": 0.375,
          "durationTicks": 720,
          "midi": 65,
          "name": "F4",
          "ticks": 362880,
          "time": 189,
          "velocity": 1
        },
        {
          "duration": 1,
          "durationTicks": 1920,
          "midi": 62,
          "name": "D4",
          "ticks": 362880,
          "time": 189,
          "velocity": 1
        },
        {
          "duration": 0.125,
          "durationTicks": 240,
          "midi": 55,
          "name": "G3",
          "ticks": 362880,
          "time": 189,
          "velocity": 1
        },
        {
          "duration": 0.25,
          "durationTicks": 480,
          "midi": 53,
          "name": "F3",
          "ticks": 363120,
          "time": 189.125,
          "velocity": 1
        },
        {
          "duration": 0.25,
          "durationTicks": 480,
          "midi": 77,
          "name": "F5",
          "ticks": 363600,
          "time": 189.375,
          "velocity": 1
        },
        {
          "duration": 0.25,
          "durationTicks": 480,
          "midi": 56,
          "name": "G#3",
          "ticks": 363600,
          "time": 189.375,
          "velocity": 1
        },
        {
          "duration": 0.125,
          "durationTicks": 240,
          "midi": 75,
          "name": "D#5",
          "ticks": 364080,
          "time": 189.625,
          "velocity": 1
        },
        {
          "duration": 0.125,
          "durationTicks": 240,
          "midi": 55,
          "name": "G3",
          "ticks": 364080,
          "time": 189.625,
          "velocity": 1
        },
        {
          "duration": 0.25,
          "durationTicks": 480,
          "midi": 77,
          "name": "F5",
          "ticks": 364560,
          "time": 189.875,
          "velocity": 1
        },
        {
          "duration": 0.125,
          "durationTicks": 240,
          "midi": 53,
          "name": "F3",
          "ticks": 364560,
          "time": 189.875,
          "velocity": 1
        },
        {
          "duration": 0.25,
          "durationTicks": 480,
          "midi": 51,
          "name": "D#3",
          "ticks": 364800,
          "time": 190,
          "velocity": 1
        },
        {
          "duration": 0.375,
          "durationTicks": 720,
          "midi": 68,
          "name": "G#4",
          "ticks": 365280,
          "time": 190.25,
          "velocity": 1
        },
        {
          "duration": 0.875,
          "durationTicks": 1680,
          "midi": 65,
          "name": "F4",
          "ticks": 365280,
          "time": 190.25,
          "velocity": 1
        },
        {
          "duration": 0.25,
          "durationTicks": 480,
          "midi": 50,
          "name": "D3",
          "ticks": 365280,
          "time": 190.25,
          "velocity": 1
        },
        {
          "duration": 0.125,
          "durationTicks": 240,
          "midi": 48,
          "name": "C3",
          "ticks": 365760,
          "time": 190.5,
          "velocity": 1
        },
        {
          "duration": 0.125,
          "durationTicks": 240,
          "midi": 67,
          "name": "G4",
          "ticks": 366240,
          "time": 190.75,
          "velocity": 1
        },
        {
          "duration": 0.375,
          "durationTicks": 720,
          "midi": 47,
          "name": "B2",
          "ticks": 366240,
          "time": 190.75,
          "velocity": 1
        },
        {
          "duration": 0.25,
          "durationTicks": 480,
          "midi": 77,
          "name": "F5",
          "ticks": 366480,
          "time": 190.875,
          "velocity": 1
        },
        {
          "duration": 0.25,
          "durationTicks": 480,
          "midi": 75,
          "name": "D#5",
          "ticks": 366960,
          "time": 191.125,
          "velocity": 1
        },
        {
          "duration": 0.25,
          "durationTicks": 480,
          "midi": 48,
          "name": "C3",
          "ticks": 366960,
          "time": 191.125,
          "velocity": 1
        },
        {
          "duration": 0.125,
          "durationTicks": 240,
          "midi": 74,
          "name": "D5",
          "ticks": 367440,
          "time": 191.375,
          "velocity": 1
        },
        {
          "duration": 0.125,
          "durationTicks": 240,
          "midi": 47,
          "name": "B2",
          "ticks": 367440,
          "time": 191.375,
          "velocity": 1
        },
        {
          "duration": 0.125,
          "durationTicks": 240,
          "midi": 72,
          "name": "C5",
          "ticks": 367920,
          "time": 191.625,
          "velocity": 1
        },
        {
          "duration": 0.375,
          "durationTicks": 720,
          "midi": 48,
          "name": "C3",
          "ticks": 367920,
          "time": 191.625,
          "velocity": 1
        },
        {
          "duration": 0.25,
          "durationTicks": 480,
          "midi": 71,
          "name": "B4",
          "ticks": 368160,
          "time": 191.75,
          "velocity": 1
        },
        {
          "duration": 0.125,
          "durationTicks": 240,
          "midi": 69,
          "name": "A4",
          "ticks": 368640,
          "time": 192,
          "velocity": 1
        },
        {
          "duration": 0.375,
          "durationTicks": 720,
          "midi": 65,
          "name": "F4",
          "ticks": 368640,
          "time": 192,
          "velocity": 1
        },
        {
          "duration": 0.375,
          "durationTicks": 720,
          "midi": 43,
          "name": "G2",
          "ticks": 368640,
          "time": 192,
          "velocity": 1
        },
        {
          "duration": 0.125,
          "durationTicks": 240,
          "midi": 67,
          "name": "G4",
          "ticks": 369120,
          "time": 192.25,
          "velocity": 1
        },
        {
          "duration": 0.375,
          "durationTicks": 720,
          "midi": 72,
          "name": "C5",
          "ticks": 369360,
          "time": 192.375,
          "velocity": 1
        },
        {
          "duration": 0.375,
          "durationTicks": 720,
          "midi": 63,
          "name": "D#4",
          "ticks": 369360,
          "time": 192.375,
          "velocity": 1
        },
        {
          "duration": 0.375,
          "durationTicks": 720,
          "midi": 44,
          "name": "G#2",
          "ticks": 369360,
          "time": 192.375,
          "velocity": 1
        },
        {
          "duration": 0.375,
          "durationTicks": 720,
          "midi": 77,
          "name": "F5",
          "ticks": 370320,
          "time": 192.875,
          "velocity": 1
        },
        {
          "duration": 0.375,
          "durationTicks": 720,
          "midi": 68,
          "name": "G#4",
          "ticks": 370320,
          "time": 192.875,
          "velocity": 1
        },
        {
          "duration": 0.125,
          "durationTicks": 240,
          "midi": 48,
          "name": "C3",
          "ticks": 370320,
          "time": 192.875,
          "velocity": 1
        },
        {
          "duration": 0.125,
          "durationTicks": 240,
          "midi": 47,
          "name": "B2",
          "ticks": 370800,
          "time": 193.125,
          "velocity": 1
        },
        {
          "duration": 0.375,
          "durationTicks": 720,
          "midi": 75,
          "name": "D#5",
          "ticks": 371040,
          "time": 193.25,
          "velocity": 1
        },
        {
          "duration": 0.375,
          "durationTicks": 720,
          "midi": 67,
          "name": "G4",
          "ticks": 371040,
          "time": 193.25,
          "velocity": 1
        },
        {
          "duration": 0.375,
          "durationTicks": 720,
          "midi": 48,
          "name": "C3",
          "ticks": 371040,
          "time": 193.25,
          "velocity": 1
        },
        {
          "duration": 0.375,
          "durationTicks": 720,
          "midi": 74,
          "name": "D5",
          "ticks": 372000,
          "time": 193.75,
          "velocity": 1
        },
        {
          "duration": 0.375,
          "durationTicks": 720,
          "midi": 65,
          "name": "F4",
          "ticks": 372000,
          "time": 193.75,
          "velocity": 1
        },
        {
          "duration": 0.375,
          "durationTicks": 720,
          "midi": 50,
          "name": "D3",
          "ticks": 372000,
          "time": 193.75,
          "velocity": 1
        },
        {
          "duration": 0.375,
          "durationTicks": 720,
          "midi": 63,
          "name": "D#4",
          "ticks": 372720,
          "time": 194.125,
          "velocity": 1
        },
        {
          "duration": 0.375,
          "durationTicks": 720,
          "midi": 43,
          "name": "G2",
          "ticks": 372720,
          "time": 194.125,
          "velocity": 1
        },
        {
          "duration": 0.375,
          "durationTicks": 720,
          "midi": 68,
          "name": "G#4",
          "ticks": 373680,
          "time": 194.625,
          "velocity": 1
        },
        {
          "duration": 0.375,
          "durationTicks": 720,
          "midi": 62,
          "name": "D4",
          "ticks": 373680,
          "time": 194.625,
          "velocity": 1
        },
        {
          "duration": 0.125,
          "durationTicks": 240,
          "midi": 48,
          "name": "C3",
          "ticks": 373680,
          "time": 194.625,
          "velocity": 1
        },
        {
          "duration": 0.125,
          "durationTicks": 240,
          "midi": 47,
          "name": "B2",
          "ticks": 374160,
          "time": 194.875,
          "velocity": 1
        },
        {
          "duration": 0.375,
          "durationTicks": 720,
          "midi": 67,
          "name": "G4",
          "ticks": 374400,
          "time": 195,
          "velocity": 1
        },
        {
          "duration": 0.375,
          "durationTicks": 720,
          "midi": 63,
          "name": "D#4",
          "ticks": 374400,
          "time": 195,
          "velocity": 1
        },
        {
          "duration": 0.375,
          "durationTicks": 720,
          "midi": 48,
          "name": "C3",
          "ticks": 374400,
          "time": 195,
          "velocity": 1
        },
        {
          "duration": 0.375,
          "durationTicks": 720,
          "midi": 65,
          "name": "F4",
          "ticks": 375360,
          "time": 195.5,
          "velocity": 1
        },
        {
          "duration": 0.375,
          "durationTicks": 720,
          "midi": 62,
          "name": "D4",
          "ticks": 375360,
          "time": 195.5,
          "velocity": 1
        },
        {
          "duration": 0.375,
          "durationTicks": 720,
          "midi": 50,
          "name": "D3",
          "ticks": 375360,
          "time": 195.5,
          "velocity": 1
        },
        {
          "duration": 0.5,
          "durationTicks": 960,
          "midi": 67,
          "name": "G4",
          "ticks": 376080,
          "time": 195.875,
          "velocity": 1
        },
        {
          "duration": 0.5,
          "durationTicks": 960,
          "midi": 59,
          "name": "B3",
          "ticks": 376080,
          "time": 195.875,
          "velocity": 1
        },
        {
          "duration": 0.25,
          "durationTicks": 480,
          "midi": 41,
          "name": "F2",
          "ticks": 376080,
          "time": 195.875,
          "velocity": 1
        },
        {
          "duration": 0.25,
          "durationTicks": 480,
          "midi": 43,
          "name": "G2",
          "ticks": 376560,
          "time": 196.125,
          "velocity": 1
        },
        {
          "duration": 0.25,
          "durationTicks": 480,
          "midi": 65,
          "name": "F4",
          "ticks": 377040,
          "time": 196.375,
          "velocity": 1
        },
        {
          "duration": 0.5,
          "durationTicks": 960,
          "midi": 60,
          "name": "C4",
          "ticks": 377040,
          "time": 196.375,
          "velocity": 1
        },
        {
          "duration": 0.5,
          "durationTicks": 960,
          "midi": 44,
          "name": "G#2",
          "ticks": 377040,
          "time": 196.375,
          "velocity": 1
        },
        {
          "duration": 0.25,
          "durationTicks": 480,
          "midi": 63,
          "name": "D#4",
          "ticks": 377520,
          "time": 196.625,
          "velocity": 1
        },
        {
          "duration": 0.375,
          "durationTicks": 720,
          "midi": 65,
          "name": "F4",
          "ticks": 378000,
          "time": 196.875,
          "velocity": 1
        },
        {
          "duration": 0.375,
          "durationTicks": 720,
          "midi": 62,
          "name": "D4",
          "ticks": 378000,
          "time": 196.875,
          "velocity": 1
        },
        {
          "duration": 0.375,
          "durationTicks": 720,
          "midi": 44,
          "name": "G#2",
          "ticks": 378000,
          "time": 196.875,
          "velocity": 1
        },
        {
          "duration": 0.375,
          "durationTicks": 720,
          "midi": 62,
          "name": "D4",
          "ticks": 378960,
          "time": 197.375,
          "velocity": 1
        },
        {
          "duration": 0.375,
          "durationTicks": 720,
          "midi": 59,
          "name": "B3",
          "ticks": 378960,
          "time": 197.375,
          "velocity": 1
        },
        {
          "duration": 0.125,
          "durationTicks": 240,
          "midi": 43,
          "name": "G2",
          "ticks": 378960,
          "time": 197.375,
          "velocity": 1
        },
        {
          "duration": 0.25,
          "durationTicks": 480,
          "midi": 41,
          "name": "F2",
          "ticks": 379200,
          "time": 197.5,
          "velocity": 1
        },
        {
          "duration": 1.5,
          "durationTicks": 2880,
          "midi": 39,
          "name": "D#2",
          "ticks": 379680,
          "time": 197.75,
          "velocity": 1
        },
        {
          "duration": 0.5,
          "durationTicks": 960,
          "midi": 59,
          "name": "B3",
          "ticks": 379680,
          "time": 197.75,
          "velocity": 1
        },
        {
          "duration": 0.5,
          "durationTicks": 960,
          "midi": 68,
          "name": "G#4",
          "ticks": 379680,
          "time": 197.75,
          "velocity": 1
        },
        {
          "duration": 0.5,
          "durationTicks": 960,
          "midi": 62,
          "name": "D4",
          "ticks": 379680,
          "time": 197.75,
          "velocity": 1
        },
        {
          "duration": 1,
          "durationTicks": 1920,
          "midi": 60,
          "name": "C4",
          "ticks": 380880,
          "time": 198.375,
          "velocity": 1
        },
        {
          "duration": 1,
          "durationTicks": 1920,
          "midi": 67,
          "name": "G4",
          "ticks": 380880,
          "time": 198.375,
          "velocity": 1
        },
        {
          "duration": 0.5,
          "durationTicks": 960,
          "midi": 69,
          "name": "A4",
          "ticks": 382800,
          "time": 199.375,
          "velocity": 1
        },
        {
          "duration": 0.5,
          "durationTicks": 960,
          "midi": 60,
          "name": "C4",
          "ticks": 382800,
          "time": 199.375,
          "velocity": 1
        },
        {
          "duration": 0.5,
          "durationTicks": 960,
          "midi": 51,
          "name": "D#3",
          "ticks": 382800,
          "time": 199.375,
          "velocity": 1
        },
        {
          "duration": 0.5,
          "durationTicks": 960,
          "midi": 71,
          "name": "B4",
          "ticks": 383760,
          "time": 199.875,
          "velocity": 1
        },
        {
          "duration": 0.25,
          "durationTicks": 480,
          "midi": 65,
          "name": "F4",
          "ticks": 383760,
          "time": 199.875,
          "velocity": 1
        },
        {
          "duration": 0.5,
          "durationTicks": 960,
          "midi": 50,
          "name": "D3",
          "ticks": 383760,
          "time": 199.875,
          "velocity": 1
        },
        {
          "duration": 0.25,
          "durationTicks": 480,
          "midi": 62,
          "name": "D4",
          "ticks": 384240,
          "time": 200.125,
          "velocity": 1
        },
        {
          "duration": 0.5,
          "durationTicks": 960,
          "midi": 72,
          "name": "C5",
          "ticks": 384960,
          "time": 200.5,
          "velocity": 1
        },
        {
          "duration": 0.25,
          "durationTicks": 480,
          "midi": 63,
          "name": "D#4",
          "ticks": 384960,
          "time": 200.5,
          "velocity": 1
        },
        {
          "duration": 0.5,
          "durationTicks": 960,
          "midi": 48,
          "name": "C3",
          "ticks": 384960,
          "time": 200.5,
          "velocity": 1
        },
        {
          "duration": 0.75,
          "durationTicks": 1440,
          "midi": 60,
          "name": "C4",
          "ticks": 385440,
          "time": 200.75,
          "velocity": 1
        },
        {
          "duration": 0.25,
          "durationTicks": 480,
          "midi": 65,
          "name": "F4",
          "ticks": 385920,
          "time": 201,
          "velocity": 1
        },
        {
          "duration": 0.5,
          "durationTicks": 960,
          "midi": 55,
          "name": "G3",
          "ticks": 385920,
          "time": 201,
          "velocity": 1
        },
        {
          "duration": 0.25,
          "durationTicks": 480,
          "midi": 63,
          "name": "D#4",
          "ticks": 386400,
          "time": 201.25,
          "velocity": 1
        },
        {
          "duration": 0.25,
          "durationTicks": 480,
          "midi": 62,
          "name": "D4",
          "ticks": 386880,
          "time": 201.5,
          "velocity": 1
        },
        {
          "duration": 0.25,
          "durationTicks": 480,
          "midi": 59,
          "name": "B3",
          "ticks": 386880,
          "time": 201.5,
          "velocity": 1
        },
        {
          "duration": 0.5,
          "durationTicks": 960,
          "midi": 43,
          "name": "G2",
          "ticks": 386880,
          "time": 201.5,
          "velocity": 1
        },
        {
          "duration": 0.25,
          "durationTicks": 480,
          "midi": 60,
          "name": "C4",
          "ticks": 387360,
          "time": 201.75,
          "velocity": 1
        },
        {
          "duration": 1.5,
          "durationTicks": 2880,
          "midi": 60,
          "name": "C4",
          "ticks": 387840,
          "time": 202,
          "velocity": 1
        },
        {
          "duration": 13.875,
          "durationTicks": 26640,
          "midi": 36,
          "name": "C2",
          "ticks": 387840,
          "time": 202,
          "velocity": 1
        },
        {
          "duration": 2,
          "durationTicks": 3840,
          "midi": 48,
          "name": "C3",
          "ticks": 387840,
          "time": 202,
          "velocity": 1
        },
        {
          "duration": 0.25,
          "durationTicks": 480,
          "midi": 72,
          "name": "C5",
          "ticks": 388800,
          "time": 202.5,
          "velocity": 1
        },
        {
          "duration": 0.25,
          "durationTicks": 480,
          "midi": 71,
          "name": "B4",
          "ticks": 389280,
          "time": 202.75,
          "velocity": 1
        },
        {
          "duration": 0.5,
          "durationTicks": 960,
          "midi": 72,
          "name": "C5",
          "ticks": 389760,
          "time": 203,
          "velocity": 1
        },
        {
          "duration": 0.5,
          "durationTicks": 960,
          "midi": 67,
          "name": "G4",
          "ticks": 390720,
          "time": 203.5,
          "velocity": 1
        },
        {
          "duration": 0.5,
          "durationTicks": 960,
          "midi": 64,
          "name": "E4",
          "ticks": 390720,
          "time": 203.5,
          "velocity": 1
        },
        {
          "duration": 0.5,
          "durationTicks": 960,
          "midi": 68,
          "name": "G#4",
          "ticks": 391680,
          "time": 204,
          "velocity": 1
        },
        {
          "duration": 1.5,
          "durationTicks": 2880,
          "midi": 65,
          "name": "F4",
          "ticks": 391680,
          "time": 204,
          "velocity": 1
        },
        {
          "duration": 2,
          "durationTicks": 3840,
          "midi": 48,
          "name": "C3",
          "ticks": 391680,
          "time": 204,
          "velocity": 1
        },
        {
          "duration": 0.25,
          "durationTicks": 480,
          "midi": 72,
          "name": "C5",
          "ticks": 392640,
          "time": 204.5,
          "velocity": 1
        },
        {
          "duration": 0.25,
          "durationTicks": 480,
          "midi": 71,
          "name": "B4",
          "ticks": 393120,
          "time": 204.75,
          "velocity": 1
        },
        {
          "duration": 0.5,
          "durationTicks": 960,
          "midi": 72,
          "name": "C5",
          "ticks": 393600,
          "time": 205,
          "velocity": 1
        },
        {
          "duration": 0.5,
          "durationTicks": 960,
          "midi": 74,
          "name": "D5",
          "ticks": 394800,
          "time": 205.625,
          "velocity": 1
        },
        {
          "duration": 0.5,
          "durationTicks": 960,
          "midi": 71,
          "name": "B4",
          "ticks": 394800,
          "time": 205.625,
          "velocity": 1
        },
        {
          "duration": 0.5,
          "durationTicks": 960,
          "midi": 68,
          "name": "G#4",
          "ticks": 394800,
          "time": 205.625,
          "velocity": 1
        },
        {
          "duration": 0.5,
          "durationTicks": 960,
          "midi": 65,
          "name": "F4",
          "ticks": 394800,
          "time": 205.625,
          "velocity": 1
        },
        {
          "duration": 0.5,
          "durationTicks": 960,
          "midi": 67,
          "name": "G4",
          "ticks": 395760,
          "time": 206.125,
          "velocity": 1
        },
        {
          "duration": 0.5,
          "durationTicks": 960,
          "midi": 65,
          "name": "F4",
          "ticks": 395760,
          "time": 206.125,
          "velocity": 1
        },
        {
          "duration": 4.375,
          "durationTicks": 8400,
          "midi": 48,
          "name": "C3",
          "ticks": 395760,
          "time": 206.125,
          "velocity": 1
        },
        {
          "duration": 0.25,
          "durationTicks": 480,
          "midi": 72,
          "name": "C5",
          "ticks": 396720,
          "time": 206.625,
          "velocity": 1
        },
        {
          "duration": 0.25,
          "durationTicks": 480,
          "midi": 63,
          "name": "D#4",
          "ticks": 396720,
          "time": 206.625,
          "velocity": 1
        },
        {
          "duration": 0.25,
          "durationTicks": 480,
          "midi": 71,
          "name": "B4",
          "ticks": 397200,
          "time": 206.875,
          "velocity": 1
        },
        {
          "duration": 0.25,
          "durationTicks": 480,
          "midi": 62,
          "name": "D4",
          "ticks": 397200,
          "time": 206.875,
          "velocity": 1
        },
        {
          "duration": 0.5,
          "durationTicks": 960,
          "midi": 72,
          "name": "C5",
          "ticks": 397680,
          "time": 207.125,
          "velocity": 1
        },
        {
          "duration": 0.5,
          "durationTicks": 960,
          "midi": 63,
          "name": "D#4",
          "ticks": 397680,
          "time": 207.125,
          "velocity": 1
        },
        {
          "duration": 0.5,
          "durationTicks": 960,
          "midi": 74,
          "name": "D5",
          "ticks": 398640,
          "time": 207.625,
          "velocity": 1
        },
        {
          "duration": 0.5,
          "durationTicks": 960,
          "midi": 68,
          "name": "G#4",
          "ticks": 398640,
          "time": 207.625,
          "velocity": 1
        },
        {
          "duration": 0.5,
          "durationTicks": 960,
          "midi": 65,
          "name": "F4",
          "ticks": 398640,
          "time": 207.625,
          "velocity": 1
        },
        {
          "duration": 1.125,
          "durationTicks": 2160,
          "midi": 62,
          "name": "D4",
          "ticks": 399600,
          "time": 208.125,
          "velocity": 1
        },
        {
          "duration": 1.125,
          "durationTicks": 2160,
          "midi": 59,
          "name": "B3",
          "ticks": 399600,
          "time": 208.125,
          "velocity": 1
        },
        {
          "duration": 0.25,
          "durationTicks": 480,
          "midi": 65,
          "name": "F4",
          "ticks": 399600,
          "time": 208.125,
          "velocity": 1
        },
        {
          "duration": 0.25,
          "durationTicks": 480,
          "midi": 67,
          "name": "G4",
          "ticks": 400080,
          "time": 208.375,
          "velocity": 1
        },
        {
          "duration": 1.125,
          "durationTicks": 2160,
          "midi": 68,
          "name": "G#4",
          "ticks": 400800,
          "time": 208.75,
          "velocity": 1
        },
        {
          "duration": 1.375,
          "durationTicks": 2640,
          "midi": 62,
          "name": "D4",
          "ticks": 401760,
          "time": 209.25,
          "velocity": 1
        },
        {
          "duration": 1,
          "durationTicks": 1920,
          "midi": 65,
          "name": "F4",
          "ticks": 401760,
          "time": 209.25,
          "velocity": 1
        },
        {
          "duration": 1.375,
          "durationTicks": 2640,
          "midi": 59,
          "name": "B3",
          "ticks": 401760,
          "time": 209.25,
          "velocity": 1
        },
        {
          "duration": 0.25,
          "durationTicks": 480,
          "midi": 67,
          "name": "G4",
          "ticks": 403200,
          "time": 210,
          "velocity": 1
        },
        {
          "duration": 0.25,
          "durationTicks": 480,
          "midi": 65,
          "name": "F4",
          "ticks": 403920,
          "time": 210.375,
          "velocity": 1
        },
        {
          "duration": 5.375,
          "durationTicks": 10320,
          "midi": 64,
          "name": "E4",
          "ticks": 404400,
          "time": 210.625,
          "velocity": 1
        },
        {
          "duration": 5.375,
          "durationTicks": 10320,
          "midi": 60,
          "name": "C4",
          "ticks": 404400,
          "time": 210.625,
          "velocity": 1
        },
        {
          "duration": 5.375,
          "durationTicks": 10320,
          "midi": 55,
          "name": "G3",
          "ticks": 404400,
          "time": 210.625,
          "velocity": 1
        },
        {
          "duration": 5.375,
          "durationTicks": 10320,
          "midi": 48,
          "name": "C3",
          "ticks": 404400,
          "time": 210.625,
          "velocity": 1
        }
      ]
    },
    {
      "channel": 0,
      "controlChanges": {},
      "instrument": {
        "family": "piano",
        "name": "acoustic grand piano",
        "number": 0
      },
      "name": "MIDI",
      "notes": []
    }
  ]
}

//hardcodeded example midi file, JSON-parsed
cmaj = {
  "header": {
    "keySignatures": [],
    "meta": [],
    "name": "C Major",
    "ppq": 960,
    "tempos": [
      {
        "bpm": 120,
        "ticks": 0
      }
    ],
    "timeSignatures": []
  },
  "tracks": [
    {
      "channel": 0,
      "controlChanges": {},
      "instrument": {
        "family": "piano",
        "name": "acoustic grand piano",
        "number": 0
      },
      "name": "C Major",
      "notes": [
        {
          "duration": 0.5,
          "durationTicks": 960,
          "midi": 48,
          "name": "C3",
          "ticks": 0,
          "time": 0,
          "velocity": 0.7874015748031497
        },
        {
          "duration": 0.5,
          "durationTicks": 960,
          "midi": 50,
          "name": "D3",
          "ticks": 960,
          "time": 0.5,
          "velocity": 0.7874015748031497
        },
        {
          "duration": 0.5,
          "durationTicks": 960,
          "midi": 52,
          "name": "E3",
          "ticks": 1920,
          "time": 1,
          "velocity": 0.7874015748031497
        },
        {
          "duration": 0.5,
          "durationTicks": 960,
          "midi": 53,
          "name": "F3",
          "ticks": 2880,
          "time": 1.5,
          "velocity": 0.7874015748031497
        },
        {
          "duration": 0.5,
          "durationTicks": 960,
          "midi": 55,
          "name": "G3",
          "ticks": 3840,
          "time": 2,
          "velocity": 0.7874015748031497
        },
        {
          "duration": 0.5,
          "durationTicks": 960,
          "midi": 57,
          "name": "A3",
          "ticks": 4800,
          "time": 2.5,
          "velocity": 0.7874015748031497
        },
        {
          "duration": 0.5,
          "durationTicks": 960,
          "midi": 59,
          "name": "B3",
          "ticks": 5760,
          "time": 3,
          "velocity": 0.7874015748031497
        },
        {
          "duration": 0.5,
          "durationTicks": 960,
          "midi": 48,
          "name": "C3",
          "ticks": 8640,
          "time": 4.5,
          "velocity": 0.7874015748031497
        },
        {
          "duration": 0.5,
          "durationTicks": 960,
          "midi": 52,
          "name": "E3",
          "ticks": 8640,
          "time": 4.5,
          "velocity": 0.7874015748031497
        },
        {
          "duration": 0.5,
          "durationTicks": 960,
          "midi": 55,
          "name": "G3",
          "ticks": 8640,
          "time": 4.5,
          "velocity": 0.7874015748031497
        },
        {
          "duration": 0.5,
          "durationTicks": 960,
          "midi": 57,
          "name": "A3",
          "ticks": 9600,
          "time": 5,
          "velocity": 0.7874015748031497
        },
        {
          "duration": 0.5,
          "durationTicks": 960,
          "midi": 53,
          "name": "F3",
          "ticks": 9600,
          "time": 5,
          "velocity": 0.7874015748031497
        },
        {
          "duration": 0.5,
          "durationTicks": 960,
          "midi": 50,
          "name": "D3",
          "ticks": 9600,
          "time": 5,
          "velocity": 0.7874015748031497
        },
        {
          "duration": 0.5,
          "durationTicks": 960,
          "midi": 55,
          "name": "G3",
          "ticks": 10560,
          "time": 5.5,
          "velocity": 0.7874015748031497
        },
        {
          "duration": 0.5,
          "durationTicks": 960,
          "midi": 59,
          "name": "B3",
          "ticks": 10560,
          "time": 5.5,
          "velocity": 0.7874015748031497
        },
        {
          "duration": 0.5,
          "durationTicks": 960,
          "midi": 52,
          "name": "E3",
          "ticks": 10560,
          "time": 5.5,
          "velocity": 0.7874015748031497
        },
        {
          "duration": 0.5,
          "durationTicks": 960,
          "midi": 53,
          "name": "F3",
          "ticks": 11520,
          "time": 6,
          "velocity": 0.7874015748031497
        },
        {
          "duration": 0.5,
          "durationTicks": 960,
          "midi": 60,
          "name": "C4",
          "ticks": 11520,
          "time": 6,
          "velocity": 0.7874015748031497
        },
        {
          "duration": 0.5,
          "durationTicks": 960,
          "midi": 57,
          "name": "A3",
          "ticks": 11520,
          "time": 6,
          "velocity": 0.7874015748031497
        },
        {
          "duration": 0.5,
          "durationTicks": 960,
          "midi": 62,
          "name": "D4",
          "ticks": 12480,
          "time": 6.5,
          "velocity": 0.7874015748031497
        },
        {
          "duration": 0.5,
          "durationTicks": 960,
          "midi": 59,
          "name": "B3",
          "ticks": 12480,
          "time": 6.5,
          "velocity": 0.7874015748031497
        },
        {
          "duration": 0.5,
          "durationTicks": 960,
          "midi": 55,
          "name": "G3",
          "ticks": 12480,
          "time": 6.5,
          "velocity": 0.7874015748031497
        },
        {
          "duration": 0.5,
          "durationTicks": 960,
          "midi": 57,
          "name": "A3",
          "ticks": 13440,
          "time": 7,
          "velocity": 0.7874015748031497
        },
        {
          "duration": 0.5,
          "durationTicks": 960,
          "midi": 64,
          "name": "E4",
          "ticks": 13440,
          "time": 7,
          "velocity": 0.7874015748031497
        },
        {
          "duration": 0.5,
          "durationTicks": 960,
          "midi": 60,
          "name": "C4",
          "ticks": 13440,
          "time": 7,
          "velocity": 0.7874015748031497
        },
        {
          "duration": 0.5,
          "durationTicks": 960,
          "midi": 59,
          "name": "B3",
          "ticks": 14400,
          "time": 7.5,
          "velocity": 0.7874015748031497
        },
        {
          "duration": 0.5,
          "durationTicks": 960,
          "midi": 65,
          "name": "F4",
          "ticks": 14400,
          "time": 7.5,
          "velocity": 0.7874015748031497
        },
        {
          "duration": 0.5,
          "durationTicks": 960,
          "midi": 62,
          "name": "D4",
          "ticks": 14400,
          "time": 7.5,
          "velocity": 0.7874015748031497
        },
        {
          "duration": 0.5,
          "durationTicks": 960,
          "midi": 55,
          "name": "G3",
          "ticks": 17280,
          "time": 9,
          "velocity": 0.7874015748031497
        },
        {
          "duration": 0.5,
          "durationTicks": 960,
          "midi": 52,
          "name": "E3",
          "ticks": 17280,
          "time": 9,
          "velocity": 0.7874015748031497
        },
        {
          "duration": 0.5,
          "durationTicks": 960,
          "midi": 48,
          "name": "C3",
          "ticks": 17280,
          "time": 9,
          "velocity": 0.7874015748031497
        },
        {
          "duration": 0.5,
          "durationTicks": 960,
          "midi": 59,
          "name": "B3",
          "ticks": 17280,
          "time": 9,
          "velocity": 0.7874015748031497
        },
        {
          "duration": 0.5,
          "durationTicks": 960,
          "midi": 50,
          "name": "D3",
          "ticks": 18240,
          "time": 9.5,
          "velocity": 0.7874015748031497
        },
        {
          "duration": 0.5,
          "durationTicks": 960,
          "midi": 57,
          "name": "A3",
          "ticks": 18240,
          "time": 9.5,
          "velocity": 0.7874015748031497
        },
        {
          "duration": 0.5,
          "durationTicks": 960,
          "midi": 53,
          "name": "F3",
          "ticks": 18240,
          "time": 9.5,
          "velocity": 0.7874015748031497
        },
        {
          "duration": 0.5,
          "durationTicks": 960,
          "midi": 60,
          "name": "C4",
          "ticks": 18240,
          "time": 9.5,
          "velocity": 0.7874015748031497
        },
        {
          "duration": 0.5,
          "durationTicks": 960,
          "midi": 55,
          "name": "G3",
          "ticks": 19200,
          "time": 10,
          "velocity": 0.7874015748031497
        },
        {
          "duration": 0.5,
          "durationTicks": 960,
          "midi": 59,
          "name": "B3",
          "ticks": 19200,
          "time": 10,
          "velocity": 0.7874015748031497
        },
        {
          "duration": 0.5,
          "durationTicks": 960,
          "midi": 52,
          "name": "E3",
          "ticks": 19200,
          "time": 10,
          "velocity": 0.7874015748031497
        },
        {
          "duration": 0.5,
          "durationTicks": 960,
          "midi": 62,
          "name": "D4",
          "ticks": 19200,
          "time": 10,
          "velocity": 0.7874015748031497
        },
        {
          "duration": 0.5,
          "durationTicks": 960,
          "midi": 60,
          "name": "C4",
          "ticks": 20160,
          "time": 10.5,
          "velocity": 0.7874015748031497
        },
        {
          "duration": 0.5,
          "durationTicks": 960,
          "midi": 53,
          "name": "F3",
          "ticks": 20160,
          "time": 10.5,
          "velocity": 0.7874015748031497
        },
        {
          "duration": 0.5,
          "durationTicks": 960,
          "midi": 64,
          "name": "E4",
          "ticks": 20160,
          "time": 10.5,
          "velocity": 0.7874015748031497
        },
        {
          "duration": 0.5,
          "durationTicks": 960,
          "midi": 57,
          "name": "A3",
          "ticks": 20160,
          "time": 10.5,
          "velocity": 0.7874015748031497
        },
        {
          "duration": 0.5,
          "durationTicks": 960,
          "midi": 59,
          "name": "B3",
          "ticks": 21120,
          "time": 11,
          "velocity": 0.7874015748031497
        },
        {
          "duration": 0.5,
          "durationTicks": 960,
          "midi": 62,
          "name": "D4",
          "ticks": 21120,
          "time": 11,
          "velocity": 0.7874015748031497
        },
        {
          "duration": 0.5,
          "durationTicks": 960,
          "midi": 55,
          "name": "G3",
          "ticks": 21120,
          "time": 11,
          "velocity": 0.7874015748031497
        },
        {
          "duration": 0.5,
          "durationTicks": 960,
          "midi": 65,
          "name": "F4",
          "ticks": 21120,
          "time": 11,
          "velocity": 0.7874015748031497
        },
        {
          "duration": 0.5,
          "durationTicks": 960,
          "midi": 64,
          "name": "E4",
          "ticks": 22080,
          "time": 11.5,
          "velocity": 0.7874015748031497
        },
        {
          "duration": 0.5,
          "durationTicks": 960,
          "midi": 67,
          "name": "G4",
          "ticks": 22080,
          "time": 11.5,
          "velocity": 0.7874015748031497
        },
        {
          "duration": 0.5,
          "durationTicks": 960,
          "midi": 60,
          "name": "C4",
          "ticks": 22080,
          "time": 11.5,
          "velocity": 0.7874015748031497
        },
        {
          "duration": 0.5,
          "durationTicks": 960,
          "midi": 57,
          "name": "A3",
          "ticks": 22080,
          "time": 11.5,
          "velocity": 0.7874015748031497
        },
        {
          "duration": 0.5,
          "durationTicks": 960,
          "midi": 59,
          "name": "B3",
          "ticks": 23040,
          "time": 12,
          "velocity": 0.7874015748031497
        },
        {
          "duration": 0.5,
          "durationTicks": 960,
          "midi": 65,
          "name": "F4",
          "ticks": 23040,
          "time": 12,
          "velocity": 0.7874015748031497
        },
        {
          "duration": 0.5,
          "durationTicks": 960,
          "midi": 62,
          "name": "D4",
          "ticks": 23040,
          "time": 12,
          "velocity": 0.7874015748031497
        },
        {
          "duration": 0.5,
          "durationTicks": 960,
          "midi": 69,
          "name": "A4",
          "ticks": 23040,
          "time": 12,
          "velocity": 0.7874015748031497
        },
        {
          "duration": 0.5,
          "durationTicks": 960,
          "midi": 55,
          "name": "G3",
          "ticks": 25920,
          "time": 13.5,
          "velocity": 0.7874015748031497
        },
        {
          "duration": 0.5,
          "durationTicks": 960,
          "midi": 50,
          "name": "D3",
          "ticks": 25920,
          "time": 13.5,
          "velocity": 0.7874015748031497
        },
        {
          "duration": 0.5,
          "durationTicks": 960,
          "midi": 48,
          "name": "C3",
          "ticks": 25920,
          "time": 13.5,
          "velocity": 0.7874015748031497
        },
        {
          "duration": 0.5,
          "durationTicks": 960,
          "midi": 48,
          "name": "C3",
          "ticks": 26880,
          "time": 14,
          "velocity": 0.7874015748031497
        },
        {
          "duration": 0.5,
          "durationTicks": 960,
          "midi": 52,
          "name": "E3",
          "ticks": 26880,
          "time": 14,
          "velocity": 0.7874015748031497
        },
        {
          "duration": 0.5,
          "durationTicks": 960,
          "midi": 55,
          "name": "G3",
          "ticks": 26880,
          "time": 14,
          "velocity": 0.7874015748031497
        },
        {
          "duration": 0.5,
          "durationTicks": 960,
          "midi": 48,
          "name": "C3",
          "ticks": 27840,
          "time": 14.5,
          "velocity": 0.7874015748031497
        },
        {
          "duration": 0.5,
          "durationTicks": 960,
          "midi": 57,
          "name": "A3",
          "ticks": 27840,
          "time": 14.5,
          "velocity": 0.7874015748031497
        },
        {
          "duration": 0.5,
          "durationTicks": 960,
          "midi": 52,
          "name": "E3",
          "ticks": 27840,
          "time": 14.5,
          "velocity": 0.7874015748031497
        },
        {
          "duration": 0.5,
          "durationTicks": 960,
          "midi": 48,
          "name": "C3",
          "ticks": 28800,
          "time": 15,
          "velocity": 0.7874015748031497
        },
        {
          "duration": 0.5,
          "durationTicks": 960,
          "midi": 53,
          "name": "F3",
          "ticks": 28800,
          "time": 15,
          "velocity": 0.7874015748031497
        },
        {
          "duration": 0.5,
          "durationTicks": 960,
          "midi": 55,
          "name": "G3",
          "ticks": 28800,
          "time": 15,
          "velocity": 0.7874015748031497
        },
        {
          "duration": 0.5,
          "durationTicks": 960,
          "midi": 53,
          "name": "F3",
          "ticks": 29760,
          "time": 15.5,
          "velocity": 0.7874015748031497
        },
        {
          "duration": 0.5,
          "durationTicks": 960,
          "midi": 57,
          "name": "A3",
          "ticks": 29760,
          "time": 15.5,
          "velocity": 0.7874015748031497
        },
        {
          "duration": 0.5,
          "durationTicks": 960,
          "midi": 48,
          "name": "C3",
          "ticks": 29760,
          "time": 15.5,
          "velocity": 0.7874015748031497
        },
        {
          "duration": 0.5,
          "durationTicks": 960,
          "midi": 60,
          "name": "C4",
          "ticks": 30720,
          "time": 16,
          "velocity": 0.7874015748031497
        },
        {
          "duration": 0.5,
          "durationTicks": 960,
          "midi": 55,
          "name": "G3",
          "ticks": 30720,
          "time": 16,
          "velocity": 0.7874015748031497
        },
        {
          "duration": 0.5,
          "durationTicks": 960,
          "midi": 48,
          "name": "C3",
          "ticks": 30720,
          "time": 16,
          "velocity": 0.7874015748031497
        },
        {
          "duration": 0.5,
          "durationTicks": 960,
          "midi": 57,
          "name": "A3",
          "ticks": 31680,
          "time": 16.5,
          "velocity": 0.7874015748031497
        },
        {
          "duration": 0.5,
          "durationTicks": 960,
          "midi": 48,
          "name": "C3",
          "ticks": 31680,
          "time": 16.5,
          "velocity": 0.7874015748031497
        },
        {
          "duration": 0.5,
          "durationTicks": 960,
          "midi": 53,
          "name": "F3",
          "ticks": 31680,
          "time": 16.5,
          "velocity": 0.7874015748031497
        },
        {
          "duration": 0.5,
          "durationTicks": 960,
          "midi": 50,
          "name": "D3",
          "ticks": 31680,
          "time": 16.5,
          "velocity": 0.7874015748031497
        },
        {
          "duration": 0.5,
          "durationTicks": 960,
          "midi": 53,
          "name": "F3",
          "ticks": 32640,
          "time": 17,
          "velocity": 0.7874015748031497
        },
        {
          "duration": 0.5,
          "durationTicks": 960,
          "midi": 52,
          "name": "E3",
          "ticks": 32640,
          "time": 17,
          "velocity": 0.7874015748031497
        },
        {
          "duration": 0.5,
          "durationTicks": 960,
          "midi": 48,
          "name": "C3",
          "ticks": 32640,
          "time": 17,
          "velocity": 0.7874015748031497
        },
        {
          "duration": 0.5,
          "durationTicks": 960,
          "midi": 57,
          "name": "A3",
          "ticks": 32640,
          "time": 17,
          "velocity": 0.7874015748031497
        },
        {
          "duration": 0.5,
          "durationTicks": 960,
          "midi": 57,
          "name": "A3",
          "ticks": 33600,
          "time": 17.5,
          "velocity": 0.7874015748031497
        },
        {
          "duration": 0.5,
          "durationTicks": 960,
          "midi": 55,
          "name": "G3",
          "ticks": 33600,
          "time": 17.5,
          "velocity": 0.7874015748031497
        },
        {
          "duration": 0.5,
          "durationTicks": 960,
          "midi": 52,
          "name": "E3",
          "ticks": 33600,
          "time": 17.5,
          "velocity": 0.7874015748031497
        },
        {
          "duration": 0.5,
          "durationTicks": 960,
          "midi": 48,
          "name": "C3",
          "ticks": 33600,
          "time": 17.5,
          "velocity": 0.7874015748031497
        },
        {
          "duration": 0.5,
          "durationTicks": 960,
          "midi": 48,
          "name": "C3",
          "ticks": 34560,
          "time": 18,
          "velocity": 0.7874015748031497
        },
        {
          "duration": 0.5,
          "durationTicks": 960,
          "midi": 52,
          "name": "E3",
          "ticks": 34560,
          "time": 18,
          "velocity": 0.7874015748031497
        },
        {
          "duration": 0.5,
          "durationTicks": 960,
          "midi": 55,
          "name": "G3",
          "ticks": 34560,
          "time": 18,
          "velocity": 0.7874015748031497
        },
        {
          "duration": 0.5,
          "durationTicks": 960,
          "midi": 59,
          "name": "B3",
          "ticks": 34560,
          "time": 18,
          "velocity": 0.7874015748031497
        },
        {
          "duration": 0.5,
          "durationTicks": 960,
          "midi": 52,
          "name": "E3",
          "ticks": 35520,
          "time": 18.5,
          "velocity": 0.7874015748031497
        },
        {
          "duration": 0.5,
          "durationTicks": 960,
          "midi": 62,
          "name": "D4",
          "ticks": 35520,
          "time": 18.5,
          "velocity": 0.7874015748031497
        },
        {
          "duration": 0.5,
          "durationTicks": 960,
          "midi": 48,
          "name": "C3",
          "ticks": 35520,
          "time": 18.5,
          "velocity": 0.7874015748031497
        },
        {
          "duration": 0.5,
          "durationTicks": 960,
          "midi": 55,
          "name": "G3",
          "ticks": 35520,
          "time": 18.5,
          "velocity": 0.7874015748031497
        },
        {
          "duration": 0.5,
          "durationTicks": 960,
          "midi": 52,
          "name": "E3",
          "ticks": 38400,
          "time": 20,
          "velocity": 0.7874015748031497
        },
        {
          "duration": 0.5,
          "durationTicks": 960,
          "midi": 57,
          "name": "A3",
          "ticks": 38400,
          "time": 20,
          "velocity": 0.7874015748031497
        },
        {
          "duration": 0.5,
          "durationTicks": 960,
          "midi": 50,
          "name": "D3",
          "ticks": 38400,
          "time": 20,
          "velocity": 0.7874015748031497
        },
        {
          "duration": 0.5,
          "durationTicks": 960,
          "midi": 53,
          "name": "F3",
          "ticks": 39360,
          "time": 20.5,
          "velocity": 0.7874015748031497
        },
        {
          "duration": 0.5,
          "durationTicks": 960,
          "midi": 57,
          "name": "A3",
          "ticks": 39360,
          "time": 20.5,
          "velocity": 0.7874015748031497
        },
        {
          "duration": 0.5,
          "durationTicks": 960,
          "midi": 50,
          "name": "D3",
          "ticks": 39360,
          "time": 20.5,
          "velocity": 0.7874015748031497
        },
        {
          "duration": 0.5,
          "durationTicks": 960,
          "midi": 50,
          "name": "D3",
          "ticks": 40320,
          "time": 21,
          "velocity": 0.7874015748031497
        },
        {
          "duration": 0.5,
          "durationTicks": 960,
          "midi": 53,
          "name": "F3",
          "ticks": 40320,
          "time": 21,
          "velocity": 0.7874015748031497
        },
        {
          "duration": 0.5,
          "durationTicks": 960,
          "midi": 59,
          "name": "B3",
          "ticks": 40320,
          "time": 21,
          "velocity": 0.7874015748031497
        },
        {
          "duration": 0.5,
          "durationTicks": 960,
          "midi": 57,
          "name": "A3",
          "ticks": 41280,
          "time": 21.5,
          "velocity": 0.7874015748031497
        },
        {
          "duration": 0.5,
          "durationTicks": 960,
          "midi": 50,
          "name": "D3",
          "ticks": 41280,
          "time": 21.5,
          "velocity": 0.7874015748031497
        },
        {
          "duration": 0.5,
          "durationTicks": 960,
          "midi": 55,
          "name": "G3",
          "ticks": 41280,
          "time": 21.5,
          "velocity": 0.7874015748031497
        },
        {
          "duration": 0.5,
          "durationTicks": 960,
          "midi": 50,
          "name": "D3",
          "ticks": 42240,
          "time": 22,
          "velocity": 0.7874015748031497
        },
        {
          "duration": 0.5,
          "durationTicks": 960,
          "midi": 55,
          "name": "G3",
          "ticks": 42240,
          "time": 22,
          "velocity": 0.7874015748031497
        },
        {
          "duration": 0.5,
          "durationTicks": 960,
          "midi": 59,
          "name": "B3",
          "ticks": 42240,
          "time": 22,
          "velocity": 0.7874015748031497
        },
        {
          "duration": 0.5,
          "durationTicks": 960,
          "midi": 57,
          "name": "A3",
          "ticks": 43200,
          "time": 22.5,
          "velocity": 0.7874015748031497
        },
        {
          "duration": 0.5,
          "durationTicks": 960,
          "midi": 62,
          "name": "D4",
          "ticks": 43200,
          "time": 22.5,
          "velocity": 0.7874015748031497
        },
        {
          "duration": 0.5,
          "durationTicks": 960,
          "midi": 50,
          "name": "D3",
          "ticks": 43200,
          "time": 22.5,
          "velocity": 0.7874015748031497
        },
        {
          "duration": 0.5,
          "durationTicks": 960,
          "midi": 52,
          "name": "E3",
          "ticks": 44160,
          "time": 23,
          "velocity": 0.7874015748031497
        },
        {
          "duration": 0.5,
          "durationTicks": 960,
          "midi": 59,
          "name": "B3",
          "ticks": 44160,
          "time": 23,
          "velocity": 0.7874015748031497
        },
        {
          "duration": 0.5,
          "durationTicks": 960,
          "midi": 50,
          "name": "D3",
          "ticks": 44160,
          "time": 23,
          "velocity": 0.7874015748031497
        },
        {
          "duration": 0.5,
          "durationTicks": 960,
          "midi": 55,
          "name": "G3",
          "ticks": 44160,
          "time": 23,
          "velocity": 0.7874015748031497
        },
        {
          "duration": 0.5,
          "durationTicks": 960,
          "midi": 52,
          "name": "E3",
          "ticks": 45120,
          "time": 23.5,
          "velocity": 0.7874015748031497
        },
        {
          "duration": 0.5,
          "durationTicks": 960,
          "midi": 60,
          "name": "C4",
          "ticks": 45120,
          "time": 23.5,
          "velocity": 0.7874015748031497
        },
        {
          "duration": 0.5,
          "durationTicks": 960,
          "midi": 57,
          "name": "A3",
          "ticks": 45120,
          "time": 23.5,
          "velocity": 0.7874015748031497
        },
        {
          "duration": 0.5,
          "durationTicks": 960,
          "midi": 50,
          "name": "D3",
          "ticks": 45120,
          "time": 23.5,
          "velocity": 0.7874015748031497
        },
        {
          "duration": 0.5,
          "durationTicks": 960,
          "midi": 59,
          "name": "B3",
          "ticks": 46080,
          "time": 24,
          "velocity": 0.7874015748031497
        },
        {
          "duration": 0.5,
          "durationTicks": 960,
          "midi": 50,
          "name": "D3",
          "ticks": 46080,
          "time": 24,
          "velocity": 0.7874015748031497
        },
        {
          "duration": 0.5,
          "durationTicks": 960,
          "midi": 53,
          "name": "F3",
          "ticks": 46080,
          "time": 24,
          "velocity": 0.7874015748031497
        },
        {
          "duration": 0.5,
          "durationTicks": 960,
          "midi": 55,
          "name": "G3",
          "ticks": 46080,
          "time": 24,
          "velocity": 0.7874015748031497
        },
        {
          "duration": 0.5,
          "durationTicks": 960,
          "midi": 50,
          "name": "D3",
          "ticks": 47040,
          "time": 24.5,
          "velocity": 0.7874015748031497
        },
        {
          "duration": 0.5,
          "durationTicks": 960,
          "midi": 57,
          "name": "A3",
          "ticks": 47040,
          "time": 24.5,
          "velocity": 0.7874015748031497
        },
        {
          "duration": 0.5,
          "durationTicks": 960,
          "midi": 53,
          "name": "F3",
          "ticks": 47040,
          "time": 24.5,
          "velocity": 0.7874015748031497
        },
        {
          "duration": 0.5,
          "durationTicks": 960,
          "midi": 59,
          "name": "B3",
          "ticks": 47040,
          "time": 24.5,
          "velocity": 0.7874015748031497
        },
        {
          "duration": 0.5,
          "durationTicks": 960,
          "midi": 50,
          "name": "D3",
          "ticks": 48000,
          "time": 25,
          "velocity": 0.7874015748031497
        },
        {
          "duration": 0.5,
          "durationTicks": 960,
          "midi": 57,
          "name": "A3",
          "ticks": 48000,
          "time": 25,
          "velocity": 0.7874015748031497
        },
        {
          "duration": 0.5,
          "durationTicks": 960,
          "midi": 60,
          "name": "C4",
          "ticks": 48000,
          "time": 25,
          "velocity": 0.7874015748031497
        },
        {
          "duration": 0.5,
          "durationTicks": 960,
          "midi": 53,
          "name": "F3",
          "ticks": 48000,
          "time": 25,
          "velocity": 0.7874015748031497
        },
        {
          "duration": 0.5,
          "durationTicks": 960,
          "midi": 55,
          "name": "G3",
          "ticks": 48960,
          "time": 25.5,
          "velocity": 0.7874015748031497
        },
        {
          "duration": 0.5,
          "durationTicks": 960,
          "midi": 57,
          "name": "A3",
          "ticks": 48960,
          "time": 25.5,
          "velocity": 0.7874015748031497
        },
        {
          "duration": 0.5,
          "durationTicks": 960,
          "midi": 60,
          "name": "C4",
          "ticks": 48960,
          "time": 25.5,
          "velocity": 0.7874015748031497
        },
        {
          "duration": 0.5,
          "durationTicks": 960,
          "midi": 50,
          "name": "D3",
          "ticks": 48960,
          "time": 25.5,
          "velocity": 0.7874015748031497
        },
        {
          "duration": 0.5,
          "durationTicks": 960,
          "midi": 52,
          "name": "E3",
          "ticks": 51840,
          "time": 27,
          "velocity": 0.7874015748031497
        },
        {
          "duration": 0.5,
          "durationTicks": 960,
          "midi": 55,
          "name": "G3",
          "ticks": 51840,
          "time": 27,
          "velocity": 0.7874015748031497
        },
        {
          "duration": 0.5,
          "durationTicks": 960,
          "midi": 59,
          "name": "B3",
          "ticks": 51840,
          "time": 27,
          "velocity": 0.7874015748031497
        },
        {
          "duration": 0.5,
          "durationTicks": 960,
          "midi": 60,
          "name": "C4",
          "ticks": 52800,
          "time": 27.5,
          "velocity": 0.7874015748031497
        },
        {
          "duration": 0.5,
          "durationTicks": 960,
          "midi": 52,
          "name": "E3",
          "ticks": 52800,
          "time": 27.5,
          "velocity": 0.7874015748031497
        },
        {
          "duration": 0.5,
          "durationTicks": 960,
          "midi": 55,
          "name": "G3",
          "ticks": 52800,
          "time": 27.5,
          "velocity": 0.7874015748031497
        },
        {
          "duration": 0.5,
          "durationTicks": 960,
          "midi": 59,
          "name": "B3",
          "ticks": 53760,
          "time": 28,
          "velocity": 0.7874015748031497
        },
        {
          "duration": 0.5,
          "durationTicks": 960,
          "midi": 52,
          "name": "E3",
          "ticks": 53760,
          "time": 28,
          "velocity": 0.7874015748031497
        },
        {
          "duration": 0.5,
          "durationTicks": 960,
          "midi": 57,
          "name": "A3",
          "ticks": 53760,
          "time": 28,
          "velocity": 0.7874015748031497
        },
        {
          "duration": 0.5,
          "durationTicks": 960,
          "midi": 52,
          "name": "E3",
          "ticks": 54720,
          "time": 28.5,
          "velocity": 0.7874015748031497
        },
        {
          "duration": 0.5,
          "durationTicks": 960,
          "midi": 60,
          "name": "C4",
          "ticks": 54720,
          "time": 28.5,
          "velocity": 0.7874015748031497
        },
        {
          "duration": 0.5,
          "durationTicks": 960,
          "midi": 57,
          "name": "A3",
          "ticks": 54720,
          "time": 28.5,
          "velocity": 0.7874015748031497
        },
        {
          "duration": 0.5,
          "durationTicks": 960,
          "midi": 52,
          "name": "E3",
          "ticks": 55680,
          "time": 29,
          "velocity": 0.7874015748031497
        },
        {
          "duration": 0.5,
          "durationTicks": 960,
          "midi": 59,
          "name": "B3",
          "ticks": 55680,
          "time": 29,
          "velocity": 0.7874015748031497
        },
        {
          "duration": 0.5,
          "durationTicks": 960,
          "midi": 64,
          "name": "E4",
          "ticks": 55680,
          "time": 29,
          "velocity": 0.7874015748031497
        },
        {
          "duration": 0.5,
          "durationTicks": 960,
          "midi": 57,
          "name": "A3",
          "ticks": 56640,
          "time": 29.5,
          "velocity": 0.7874015748031497
        },
        {
          "duration": 0.5,
          "durationTicks": 960,
          "midi": 52,
          "name": "E3",
          "ticks": 56640,
          "time": 29.5,
          "velocity": 0.7874015748031497
        },
        {
          "duration": 0.5,
          "durationTicks": 960,
          "midi": 60,
          "name": "C4",
          "ticks": 56640,
          "time": 29.5,
          "velocity": 0.7874015748031497
        },
        {
          "duration": 0.5,
          "durationTicks": 960,
          "midi": 53,
          "name": "F3",
          "ticks": 56640,
          "time": 29.5,
          "velocity": 0.7874015748031497
        },
        {
          "duration": 0.5,
          "durationTicks": 960,
          "midi": 55,
          "name": "G3",
          "ticks": 57600,
          "time": 30,
          "velocity": 0.7874015748031497
        },
        {
          "duration": 0.5,
          "durationTicks": 960,
          "midi": 57,
          "name": "A3",
          "ticks": 57600,
          "time": 30,
          "velocity": 0.7874015748031497
        },
        {
          "duration": 0.5,
          "durationTicks": 960,
          "midi": 52,
          "name": "E3",
          "ticks": 57600,
          "time": 30,
          "velocity": 0.7874015748031497
        },
        {
          "duration": 0.5,
          "durationTicks": 960,
          "midi": 60,
          "name": "C4",
          "ticks": 57600,
          "time": 30,
          "velocity": 0.7874015748031497
        },
        {
          "duration": 0.5,
          "durationTicks": 960,
          "midi": 60,
          "name": "C4",
          "ticks": 58560,
          "time": 30.5,
          "velocity": 0.7874015748031497
        },
        {
          "duration": 0.5,
          "durationTicks": 960,
          "midi": 55,
          "name": "G3",
          "ticks": 58560,
          "time": 30.5,
          "velocity": 0.7874015748031497
        },
        {
          "duration": 0.5,
          "durationTicks": 960,
          "midi": 52,
          "name": "E3",
          "ticks": 58560,
          "time": 30.5,
          "velocity": 0.7874015748031497
        },
        {
          "duration": 0.5,
          "durationTicks": 960,
          "midi": 59,
          "name": "B3",
          "ticks": 58560,
          "time": 30.5,
          "velocity": 0.7874015748031497
        },
        {
          "duration": 0.5,
          "durationTicks": 960,
          "midi": 55,
          "name": "G3",
          "ticks": 59520,
          "time": 31,
          "velocity": 0.7874015748031497
        },
        {
          "duration": 0.5,
          "durationTicks": 960,
          "midi": 62,
          "name": "D4",
          "ticks": 59520,
          "time": 31,
          "velocity": 0.7874015748031497
        },
        {
          "duration": 0.5,
          "durationTicks": 960,
          "midi": 59,
          "name": "B3",
          "ticks": 59520,
          "time": 31,
          "velocity": 0.7874015748031497
        },
        {
          "duration": 0.5,
          "durationTicks": 960,
          "midi": 52,
          "name": "E3",
          "ticks": 59520,
          "time": 31,
          "velocity": 0.7874015748031497
        },
        {
          "duration": 0.5,
          "durationTicks": 960,
          "midi": 57,
          "name": "A3",
          "ticks": 60480,
          "time": 31.5,
          "velocity": 0.7874015748031497
        },
        {
          "duration": 0.5,
          "durationTicks": 960,
          "midi": 62,
          "name": "D4",
          "ticks": 60480,
          "time": 31.5,
          "velocity": 0.7874015748031497
        },
        {
          "duration": 0.5,
          "durationTicks": 960,
          "midi": 52,
          "name": "E3",
          "ticks": 60480,
          "time": 31.5,
          "velocity": 0.7874015748031497
        },
        {
          "duration": 0.5,
          "durationTicks": 960,
          "midi": 59,
          "name": "B3",
          "ticks": 60480,
          "time": 31.5,
          "velocity": 0.7874015748031497
        },
        {
          "duration": 0.5,
          "durationTicks": 960,
          "midi": 53,
          "name": "F3",
          "ticks": 63360,
          "time": 33,
          "velocity": 0.7874015748031497
        },
        {
          "duration": 0.5,
          "durationTicks": 960,
          "midi": 55,
          "name": "G3",
          "ticks": 63360,
          "time": 33,
          "velocity": 0.7874015748031497
        },
        {
          "duration": 0.5,
          "durationTicks": 960,
          "midi": 60,
          "name": "C4",
          "ticks": 63360,
          "time": 33,
          "velocity": 0.7874015748031497
        },
        {
          "duration": 0.5,
          "durationTicks": 960,
          "midi": 53,
          "name": "F3",
          "ticks": 64320,
          "time": 33.5,
          "velocity": 0.7874015748031497
        },
        {
          "duration": 0.5,
          "durationTicks": 960,
          "midi": 57,
          "name": "A3",
          "ticks": 64320,
          "time": 33.5,
          "velocity": 0.7874015748031497
        },
        {
          "duration": 0.5,
          "durationTicks": 960,
          "midi": 60,
          "name": "C4",
          "ticks": 64320,
          "time": 33.5,
          "velocity": 0.7874015748031497
        },
        {
          "duration": 0.5,
          "durationTicks": 960,
          "midi": 53,
          "name": "F3",
          "ticks": 65280,
          "time": 34,
          "velocity": 0.7874015748031497
        },
        {
          "duration": 0.5,
          "durationTicks": 960,
          "midi": 62,
          "name": "D4",
          "ticks": 65280,
          "time": 34,
          "velocity": 0.7874015748031497
        },
        {
          "duration": 0.5,
          "durationTicks": 960,
          "midi": 57,
          "name": "A3",
          "ticks": 65280,
          "time": 34,
          "velocity": 0.7874015748031497
        },
        {
          "duration": 0.5,
          "durationTicks": 960,
          "midi": 62,
          "name": "D4",
          "ticks": 66240,
          "time": 34.5,
          "velocity": 0.7874015748031497
        },
        {
          "duration": 0.5,
          "durationTicks": 960,
          "midi": 53,
          "name": "F3",
          "ticks": 66240,
          "time": 34.5,
          "velocity": 0.7874015748031497
        },
        {
          "duration": 0.5,
          "durationTicks": 960,
          "midi": 59,
          "name": "B3",
          "ticks": 66240,
          "time": 34.5,
          "velocity": 0.7874015748031497
        },
        {
          "duration": 0.5,
          "durationTicks": 960,
          "midi": 65,
          "name": "F4",
          "ticks": 67200,
          "time": 35,
          "velocity": 0.7874015748031497
        },
        {
          "duration": 0.5,
          "durationTicks": 960,
          "midi": 60,
          "name": "C4",
          "ticks": 67200,
          "time": 35,
          "velocity": 0.7874015748031497
        },
        {
          "duration": 0.5,
          "durationTicks": 960,
          "midi": 53,
          "name": "F3",
          "ticks": 67200,
          "time": 35,
          "velocity": 0.7874015748031497
        },
        {
          "duration": 0.5,
          "durationTicks": 960,
          "midi": 55,
          "name": "G3",
          "ticks": 68160,
          "time": 35.5,
          "velocity": 0.7874015748031497
        },
        {
          "duration": 0.5,
          "durationTicks": 960,
          "midi": 53,
          "name": "F3",
          "ticks": 68160,
          "time": 35.5,
          "velocity": 0.7874015748031497
        },
        {
          "duration": 0.5,
          "durationTicks": 960,
          "midi": 62,
          "name": "D4",
          "ticks": 68160,
          "time": 35.5,
          "velocity": 0.7874015748031497
        },
        {
          "duration": 0.5,
          "durationTicks": 960,
          "midi": 59,
          "name": "B3",
          "ticks": 68160,
          "time": 35.5,
          "velocity": 0.7874015748031497
        },
        {
          "duration": 0.5,
          "durationTicks": 960,
          "midi": 62,
          "name": "D4",
          "ticks": 69120,
          "time": 36,
          "velocity": 0.7874015748031497
        },
        {
          "duration": 0.5,
          "durationTicks": 960,
          "midi": 53,
          "name": "F3",
          "ticks": 69120,
          "time": 36,
          "velocity": 0.7874015748031497
        },
        {
          "duration": 0.5,
          "durationTicks": 960,
          "midi": 59,
          "name": "B3",
          "ticks": 69120,
          "time": 36,
          "velocity": 0.7874015748031497
        },
        {
          "duration": 0.5,
          "durationTicks": 960,
          "midi": 57,
          "name": "A3",
          "ticks": 69120,
          "time": 36,
          "velocity": 0.7874015748031497
        },
        {
          "duration": 0.5,
          "durationTicks": 960,
          "midi": 57,
          "name": "A3",
          "ticks": 70080,
          "time": 36.5,
          "velocity": 0.7874015748031497
        },
        {
          "duration": 0.5,
          "durationTicks": 960,
          "midi": 62,
          "name": "D4",
          "ticks": 70080,
          "time": 36.5,
          "velocity": 0.7874015748031497
        },
        {
          "duration": 0.5,
          "durationTicks": 960,
          "midi": 53,
          "name": "F3",
          "ticks": 70080,
          "time": 36.5,
          "velocity": 0.7874015748031497
        },
        {
          "duration": 0.5,
          "durationTicks": 960,
          "midi": 60,
          "name": "C4",
          "ticks": 70080,
          "time": 36.5,
          "velocity": 0.7874015748031497
        },
        {
          "duration": 0.5,
          "durationTicks": 960,
          "midi": 57,
          "name": "A3",
          "ticks": 71040,
          "time": 37,
          "velocity": 0.7874015748031497
        },
        {
          "duration": 0.5,
          "durationTicks": 960,
          "midi": 60,
          "name": "C4",
          "ticks": 71040,
          "time": 37,
          "velocity": 0.7874015748031497
        },
        {
          "duration": 0.5,
          "durationTicks": 960,
          "midi": 53,
          "name": "F3",
          "ticks": 71040,
          "time": 37,
          "velocity": 0.7874015748031497
        },
        {
          "duration": 0.5,
          "durationTicks": 960,
          "midi": 64,
          "name": "E4",
          "ticks": 71040,
          "time": 37,
          "velocity": 0.7874015748031497
        },
        {
          "duration": 0.5,
          "durationTicks": 960,
          "midi": 57,
          "name": "A3",
          "ticks": 72000,
          "time": 37.5,
          "velocity": 0.7874015748031497
        },
        {
          "duration": 0.5,
          "durationTicks": 960,
          "midi": 60,
          "name": "C4",
          "ticks": 72000,
          "time": 37.5,
          "velocity": 0.7874015748031497
        },
        {
          "duration": 0.5,
          "durationTicks": 960,
          "midi": 53,
          "name": "F3",
          "ticks": 72000,
          "time": 37.5,
          "velocity": 0.7874015748031497
        },
        {
          "duration": 0.5,
          "durationTicks": 960,
          "midi": 67,
          "name": "G4",
          "ticks": 72000,
          "time": 37.5,
          "velocity": 0.7874015748031497
        },
        {
          "duration": 0.5,
          "durationTicks": 960,
          "midi": 57,
          "name": "A3",
          "ticks": 74880,
          "time": 39,
          "velocity": 0.7874015748031497
        },
        {
          "duration": 0.5,
          "durationTicks": 960,
          "midi": 62,
          "name": "D4",
          "ticks": 74880,
          "time": 39,
          "velocity": 0.7874015748031497
        },
        {
          "duration": 0.5,
          "durationTicks": 960,
          "midi": 55,
          "name": "G3",
          "ticks": 74880,
          "time": 39,
          "velocity": 0.7874015748031497
        },
        {
          "duration": 0.5,
          "durationTicks": 960,
          "midi": 55,
          "name": "G3",
          "ticks": 75840,
          "time": 39.5,
          "velocity": 0.7874015748031497
        },
        {
          "duration": 0.5,
          "durationTicks": 960,
          "midi": 62,
          "name": "D4",
          "ticks": 75840,
          "time": 39.5,
          "velocity": 0.7874015748031497
        },
        {
          "duration": 0.5,
          "durationTicks": 960,
          "midi": 59,
          "name": "B3",
          "ticks": 75840,
          "time": 39.5,
          "velocity": 0.7874015748031497
        },
        {
          "duration": 0.5,
          "durationTicks": 960,
          "midi": 59,
          "name": "B3",
          "ticks": 76800,
          "time": 40,
          "velocity": 0.7874015748031497
        },
        {
          "duration": 0.5,
          "durationTicks": 960,
          "midi": 55,
          "name": "G3",
          "ticks": 76800,
          "time": 40,
          "velocity": 0.7874015748031497
        },
        {
          "duration": 0.5,
          "durationTicks": 960,
          "midi": 64,
          "name": "E4",
          "ticks": 76800,
          "time": 40,
          "velocity": 0.7874015748031497
        },
        {
          "duration": 0.5,
          "durationTicks": 960,
          "midi": 62,
          "name": "D4",
          "ticks": 77760,
          "time": 40.5,
          "velocity": 0.7874015748031497
        },
        {
          "duration": 0.5,
          "durationTicks": 960,
          "midi": 55,
          "name": "G3",
          "ticks": 77760,
          "time": 40.5,
          "velocity": 0.7874015748031497
        },
        {
          "duration": 0.5,
          "durationTicks": 960,
          "midi": 60,
          "name": "C4",
          "ticks": 77760,
          "time": 40.5,
          "velocity": 0.7874015748031497
        },
        {
          "duration": 0.5,
          "durationTicks": 960,
          "midi": 55,
          "name": "G3",
          "ticks": 78720,
          "time": 41,
          "velocity": 0.7874015748031497
        },
        {
          "duration": 0.5,
          "durationTicks": 960,
          "midi": 60,
          "name": "C4",
          "ticks": 78720,
          "time": 41,
          "velocity": 0.7874015748031497
        },
        {
          "duration": 0.5,
          "durationTicks": 960,
          "midi": 64,
          "name": "E4",
          "ticks": 78720,
          "time": 41,
          "velocity": 0.7874015748031497
        },
        {
          "duration": 0.5,
          "durationTicks": 960,
          "midi": 67,
          "name": "G4",
          "ticks": 79680,
          "time": 41.5,
          "velocity": 0.7874015748031497
        },
        {
          "duration": 0.5,
          "durationTicks": 960,
          "midi": 62,
          "name": "D4",
          "ticks": 79680,
          "time": 41.5,
          "velocity": 0.7874015748031497
        },
        {
          "duration": 0.5,
          "durationTicks": 960,
          "midi": 55,
          "name": "G3",
          "ticks": 79680,
          "time": 41.5,
          "velocity": 0.7874015748031497
        },
        {
          "duration": 0.5,
          "durationTicks": 960,
          "midi": 64,
          "name": "E4",
          "ticks": 80640,
          "time": 42,
          "velocity": 0.7874015748031497
        },
        {
          "duration": 0.5,
          "durationTicks": 960,
          "midi": 60,
          "name": "C4",
          "ticks": 80640,
          "time": 42,
          "velocity": 0.7874015748031497
        },
        {
          "duration": 0.5,
          "durationTicks": 960,
          "midi": 57,
          "name": "A3",
          "ticks": 80640,
          "time": 42,
          "velocity": 0.7874015748031497
        },
        {
          "duration": 0.5,
          "durationTicks": 960,
          "midi": 55,
          "name": "G3",
          "ticks": 80640,
          "time": 42,
          "velocity": 0.7874015748031497
        },
        {
          "duration": 0.5,
          "durationTicks": 960,
          "midi": 57,
          "name": "A3",
          "ticks": 81600,
          "time": 42.5,
          "velocity": 0.7874015748031497
        },
        {
          "duration": 0.5,
          "durationTicks": 960,
          "midi": 55,
          "name": "G3",
          "ticks": 81600,
          "time": 42.5,
          "velocity": 0.7874015748031497
        },
        {
          "duration": 0.5,
          "durationTicks": 960,
          "midi": 62,
          "name": "D4",
          "ticks": 81600,
          "time": 42.5,
          "velocity": 0.7874015748031497
        },
        {
          "duration": 0.5,
          "durationTicks": 960,
          "midi": 65,
          "name": "F4",
          "ticks": 81600,
          "time": 42.5,
          "velocity": 0.7874015748031497
        },
        {
          "duration": 0.5,
          "durationTicks": 960,
          "midi": 55,
          "name": "G3",
          "ticks": 82560,
          "time": 43,
          "velocity": 0.7874015748031497
        },
        {
          "duration": 0.5,
          "durationTicks": 960,
          "midi": 64,
          "name": "E4",
          "ticks": 82560,
          "time": 43,
          "velocity": 0.7874015748031497
        },
        {
          "duration": 0.5,
          "durationTicks": 960,
          "midi": 60,
          "name": "C4",
          "ticks": 82560,
          "time": 43,
          "velocity": 0.7874015748031497
        },
        {
          "duration": 0.5,
          "durationTicks": 960,
          "midi": 59,
          "name": "B3",
          "ticks": 82560,
          "time": 43,
          "velocity": 0.7874015748031497
        },
        {
          "duration": 0.5,
          "durationTicks": 960,
          "midi": 59,
          "name": "B3",
          "ticks": 83520,
          "time": 43.5,
          "velocity": 0.7874015748031497
        },
        {
          "duration": 0.5,
          "durationTicks": 960,
          "midi": 55,
          "name": "G3",
          "ticks": 83520,
          "time": 43.5,
          "velocity": 0.7874015748031497
        },
        {
          "duration": 0.5,
          "durationTicks": 960,
          "midi": 64,
          "name": "E4",
          "ticks": 83520,
          "time": 43.5,
          "velocity": 0.7874015748031497
        },
        {
          "duration": 0.5,
          "durationTicks": 960,
          "midi": 62,
          "name": "D4",
          "ticks": 83520,
          "time": 43.5,
          "velocity": 0.7874015748031497
        },
        {
          "duration": 0.5,
          "durationTicks": 960,
          "midi": 62,
          "name": "D4",
          "ticks": 84480,
          "time": 44,
          "velocity": 0.7874015748031497
        },
        {
          "duration": 0.5,
          "durationTicks": 960,
          "midi": 59,
          "name": "B3",
          "ticks": 84480,
          "time": 44,
          "velocity": 0.7874015748031497
        },
        {
          "duration": 0.5,
          "durationTicks": 960,
          "midi": 55,
          "name": "G3",
          "ticks": 84480,
          "time": 44,
          "velocity": 0.7874015748031497
        },
        {
          "duration": 0.5,
          "durationTicks": 960,
          "midi": 65,
          "name": "F4",
          "ticks": 84480,
          "time": 44,
          "velocity": 0.7874015748031497
        },
        {
          "duration": 0.5,
          "durationTicks": 960,
          "midi": 59,
          "name": "B3",
          "ticks": 85440,
          "time": 44.5,
          "velocity": 0.7874015748031497
        },
        {
          "duration": 0.5,
          "durationTicks": 960,
          "midi": 62,
          "name": "D4",
          "ticks": 85440,
          "time": 44.5,
          "velocity": 0.7874015748031497
        },
        {
          "duration": 0.5,
          "durationTicks": 960,
          "midi": 69,
          "name": "A4",
          "ticks": 85440,
          "time": 44.5,
          "velocity": 0.7874015748031497
        },
        {
          "duration": 0.5,
          "durationTicks": 960,
          "midi": 55,
          "name": "G3",
          "ticks": 85440,
          "time": 44.5,
          "velocity": 0.7874015748031497
        },
        {
          "duration": 0.5,
          "durationTicks": 960,
          "midi": 55,
          "name": "G3",
          "ticks": 86400,
          "time": 45,
          "velocity": 0.7874015748031497
        },
        {
          "duration": 0.5,
          "durationTicks": 960,
          "midi": 62,
          "name": "D4",
          "ticks": 86400,
          "time": 45,
          "velocity": 0.7874015748031497
        },
        {
          "duration": 0.5,
          "durationTicks": 960,
          "midi": 60,
          "name": "C4",
          "ticks": 86400,
          "time": 45,
          "velocity": 0.7874015748031497
        },
        {
          "duration": 0.5,
          "durationTicks": 960,
          "midi": 65,
          "name": "F4",
          "ticks": 86400,
          "time": 45,
          "velocity": 0.7874015748031497
        },
        {
          "duration": 0.5,
          "durationTicks": 960,
          "midi": 59,
          "name": "B3",
          "ticks": 89280,
          "time": 46.5,
          "velocity": 0.7874015748031497
        },
        {
          "duration": 0.5,
          "durationTicks": 960,
          "midi": 57,
          "name": "A3",
          "ticks": 89280,
          "time": 46.5,
          "velocity": 0.7874015748031497
        },
        {
          "duration": 0.5,
          "durationTicks": 960,
          "midi": 64,
          "name": "E4",
          "ticks": 89280,
          "time": 46.5,
          "velocity": 0.7874015748031497
        },
        {
          "duration": 0.5,
          "durationTicks": 960,
          "midi": 64,
          "name": "E4",
          "ticks": 90240,
          "time": 47,
          "velocity": 0.7874015748031497
        },
        {
          "duration": 0.5,
          "durationTicks": 960,
          "midi": 60,
          "name": "C4",
          "ticks": 90240,
          "time": 47,
          "velocity": 0.7874015748031497
        },
        {
          "duration": 0.5,
          "durationTicks": 960,
          "midi": 57,
          "name": "A3",
          "ticks": 90240,
          "time": 47,
          "velocity": 0.7874015748031497
        },
        {
          "duration": 0.5,
          "durationTicks": 960,
          "midi": 60,
          "name": "C4",
          "ticks": 91200,
          "time": 47.5,
          "velocity": 0.7874015748031497
        },
        {
          "duration": 0.5,
          "durationTicks": 960,
          "midi": 65,
          "name": "F4",
          "ticks": 91200,
          "time": 47.5,
          "velocity": 0.7874015748031497
        },
        {
          "duration": 0.5,
          "durationTicks": 960,
          "midi": 57,
          "name": "A3",
          "ticks": 91200,
          "time": 47.5,
          "velocity": 0.7874015748031497
        },
        {
          "duration": 0.5,
          "durationTicks": 960,
          "midi": 57,
          "name": "A3",
          "ticks": 92160,
          "time": 48,
          "velocity": 0.7874015748031497
        },
        {
          "duration": 0.5,
          "durationTicks": 960,
          "midi": 62,
          "name": "D4",
          "ticks": 92160,
          "time": 48,
          "velocity": 0.7874015748031497
        },
        {
          "duration": 0.5,
          "durationTicks": 960,
          "midi": 64,
          "name": "E4",
          "ticks": 92160,
          "time": 48,
          "velocity": 0.7874015748031497
        },
        {
          "duration": 0.5,
          "durationTicks": 960,
          "midi": 57,
          "name": "A3",
          "ticks": 93120,
          "time": 48.5,
          "velocity": 0.7874015748031497
        },
        {
          "duration": 0.5,
          "durationTicks": 960,
          "midi": 65,
          "name": "F4",
          "ticks": 93120,
          "time": 48.5,
          "velocity": 0.7874015748031497
        },
        {
          "duration": 0.5,
          "durationTicks": 960,
          "midi": 62,
          "name": "D4",
          "ticks": 93120,
          "time": 48.5,
          "velocity": 0.7874015748031497
        },
        {
          "duration": 0.5,
          "durationTicks": 960,
          "midi": 57,
          "name": "A3",
          "ticks": 94080,
          "time": 49,
          "velocity": 0.7874015748031497
        },
        {
          "duration": 0.5,
          "durationTicks": 960,
          "midi": 69,
          "name": "A4",
          "ticks": 94080,
          "time": 49,
          "velocity": 0.7874015748031497
        },
        {
          "duration": 0.5,
          "durationTicks": 960,
          "midi": 64,
          "name": "E4",
          "ticks": 94080,
          "time": 49,
          "velocity": 0.7874015748031497
        },
        {
          "duration": 0.5,
          "durationTicks": 960,
          "midi": 62,
          "name": "D4",
          "ticks": 95040,
          "time": 49.5,
          "velocity": 0.7874015748031497
        },
        {
          "duration": 0.5,
          "durationTicks": 960,
          "midi": 57,
          "name": "A3",
          "ticks": 95040,
          "time": 49.5,
          "velocity": 0.7874015748031497
        },
        {
          "duration": 0.5,
          "durationTicks": 960,
          "midi": 65,
          "name": "F4",
          "ticks": 95040,
          "time": 49.5,
          "velocity": 0.7874015748031497
        },
        {
          "duration": 0.5,
          "durationTicks": 960,
          "midi": 59,
          "name": "B3",
          "ticks": 95040,
          "time": 49.5,
          "velocity": 0.7874015748031497
        },
        {
          "duration": 0.5,
          "durationTicks": 960,
          "midi": 64,
          "name": "E4",
          "ticks": 96000,
          "time": 50,
          "velocity": 0.7874015748031497
        },
        {
          "duration": 0.5,
          "durationTicks": 960,
          "midi": 67,
          "name": "G4",
          "ticks": 96000,
          "time": 50,
          "velocity": 0.7874015748031497
        },
        {
          "duration": 0.5,
          "durationTicks": 960,
          "midi": 57,
          "name": "A3",
          "ticks": 96000,
          "time": 50,
          "velocity": 0.7874015748031497
        },
        {
          "duration": 0.5,
          "durationTicks": 960,
          "midi": 59,
          "name": "B3",
          "ticks": 96000,
          "time": 50,
          "velocity": 0.7874015748031497
        },
        {
          "duration": 0.5,
          "durationTicks": 960,
          "midi": 62,
          "name": "D4",
          "ticks": 96960,
          "time": 50.5,
          "velocity": 0.7874015748031497
        },
        {
          "duration": 0.5,
          "durationTicks": 960,
          "midi": 60,
          "name": "C4",
          "ticks": 96960,
          "time": 50.5,
          "velocity": 0.7874015748031497
        },
        {
          "duration": 0.5,
          "durationTicks": 960,
          "midi": 57,
          "name": "A3",
          "ticks": 96960,
          "time": 50.5,
          "velocity": 0.7874015748031497
        },
        {
          "duration": 0.5,
          "durationTicks": 960,
          "midi": 65,
          "name": "F4",
          "ticks": 96960,
          "time": 50.5,
          "velocity": 0.7874015748031497
        },
        {
          "duration": 0.5,
          "durationTicks": 960,
          "midi": 60,
          "name": "C4",
          "ticks": 97920,
          "time": 51,
          "velocity": 0.7874015748031497
        },
        {
          "duration": 0.5,
          "durationTicks": 960,
          "midi": 65,
          "name": "F4",
          "ticks": 97920,
          "time": 51,
          "velocity": 0.7874015748031497
        },
        {
          "duration": 0.5,
          "durationTicks": 960,
          "midi": 57,
          "name": "A3",
          "ticks": 97920,
          "time": 51,
          "velocity": 0.7874015748031497
        },
        {
          "duration": 0.5,
          "durationTicks": 960,
          "midi": 64,
          "name": "E4",
          "ticks": 97920,
          "time": 51,
          "velocity": 0.7874015748031497
        },
        {
          "duration": 0.5,
          "durationTicks": 960,
          "midi": 67,
          "name": "G4",
          "ticks": 98880,
          "time": 51.5,
          "velocity": 0.7874015748031497
        },
        {
          "duration": 0.5,
          "durationTicks": 960,
          "midi": 60,
          "name": "C4",
          "ticks": 98880,
          "time": 51.5,
          "velocity": 0.7874015748031497
        },
        {
          "duration": 0.5,
          "durationTicks": 960,
          "midi": 64,
          "name": "E4",
          "ticks": 98880,
          "time": 51.5,
          "velocity": 0.7874015748031497
        },
        {
          "duration": 0.5,
          "durationTicks": 960,
          "midi": 57,
          "name": "A3",
          "ticks": 98880,
          "time": 51.5,
          "velocity": 0.7874015748031497
        },
        {
          "duration": 0.5,
          "durationTicks": 960,
          "midi": 67,
          "name": "G4",
          "ticks": 99840,
          "time": 52,
          "velocity": 0.7874015748031497
        },
        {
          "duration": 0.5,
          "durationTicks": 960,
          "midi": 64,
          "name": "E4",
          "ticks": 99840,
          "time": 52,
          "velocity": 0.7874015748031497
        },
        {
          "duration": 0.5,
          "durationTicks": 960,
          "midi": 62,
          "name": "D4",
          "ticks": 99840,
          "time": 52,
          "velocity": 0.7874015748031497
        },
        {
          "duration": 0.5,
          "durationTicks": 960,
          "midi": 57,
          "name": "A3",
          "ticks": 99840,
          "time": 52,
          "velocity": 0.7874015748031497
        },
        {
          "duration": 0.5,
          "durationTicks": 960,
          "midi": 62,
          "name": "D4",
          "ticks": 102720,
          "time": 53.5,
          "velocity": 0.7874015748031497
        },
        {
          "duration": 0.5,
          "durationTicks": 960,
          "midi": 65,
          "name": "F4",
          "ticks": 102720,
          "time": 53.5,
          "velocity": 0.7874015748031497
        },
        {
          "duration": 0.5,
          "durationTicks": 960,
          "midi": 59,
          "name": "B3",
          "ticks": 102720,
          "time": 53.5,
          "velocity": 0.7874015748031497
        },
        {
          "duration": 0.5,
          "durationTicks": 960,
          "midi": 67,
          "name": "G4",
          "ticks": 103680,
          "time": 54,
          "velocity": 0.7874015748031497
        },
        {
          "duration": 0.5,
          "durationTicks": 960,
          "midi": 62,
          "name": "D4",
          "ticks": 103680,
          "time": 54,
          "velocity": 0.7874015748031497
        },
        {
          "duration": 0.5,
          "durationTicks": 960,
          "midi": 59,
          "name": "B3",
          "ticks": 103680,
          "time": 54,
          "velocity": 0.7874015748031497
        },
        {
          "duration": 0.5,
          "durationTicks": 960,
          "midi": 67,
          "name": "G4",
          "ticks": 104640,
          "time": 54.5,
          "velocity": 0.7874015748031497
        },
        {
          "duration": 0.5,
          "durationTicks": 960,
          "midi": 59,
          "name": "B3",
          "ticks": 104640,
          "time": 54.5,
          "velocity": 0.7874015748031497
        },
        {
          "duration": 0.5,
          "durationTicks": 960,
          "midi": 64,
          "name": "E4",
          "ticks": 104640,
          "time": 54.5,
          "velocity": 0.7874015748031497
        },
        {
          "duration": 0.5,
          "durationTicks": 960,
          "midi": 60,
          "name": "C4",
          "ticks": 105600,
          "time": 55,
          "velocity": 0.7874015748031497
        },
        {
          "duration": 0.5,
          "durationTicks": 960,
          "midi": 64,
          "name": "E4",
          "ticks": 105600,
          "time": 55,
          "velocity": 0.7874015748031497
        },
        {
          "duration": 0.5,
          "durationTicks": 960,
          "midi": 67,
          "name": "G4",
          "ticks": 105600,
          "time": 55,
          "velocity": 0.7874015748031497
        },
        {
          "duration": 0.5,
          "durationTicks": 960,
          "midi": 59,
          "name": "B3",
          "ticks": 105600,
          "time": 55,
          "velocity": 0.7874015748031497
        },
        {
          "duration": 0.5,
          "durationTicks": 960,
          "midi": 67,
          "name": "G4",
          "ticks": 106560,
          "time": 55.5,
          "velocity": 0.7874015748031497
        },
        {
          "duration": 0.5,
          "durationTicks": 960,
          "midi": 59,
          "name": "B3",
          "ticks": 106560,
          "time": 55.5,
          "velocity": 0.7874015748031497
        },
        {
          "duration": 0.5,
          "durationTicks": 960,
          "midi": 64,
          "name": "E4",
          "ticks": 106560,
          "time": 55.5,
          "velocity": 0.7874015748031497
        },
        {
          "duration": 0.5,
          "durationTicks": 960,
          "midi": 62,
          "name": "D4",
          "ticks": 106560,
          "time": 55.5,
          "velocity": 0.7874015748031497
        },
        {
          "duration": 0.5,
          "durationTicks": 960,
          "midi": 62,
          "name": "D4",
          "ticks": 107520,
          "time": 56,
          "velocity": 0.7874015748031497
        },
        {
          "duration": 0.5,
          "durationTicks": 960,
          "midi": 67,
          "name": "G4",
          "ticks": 107520,
          "time": 56,
          "velocity": 0.7874015748031497
        },
        {
          "duration": 0.5,
          "durationTicks": 960,
          "midi": 65,
          "name": "F4",
          "ticks": 107520,
          "time": 56,
          "velocity": 0.7874015748031497
        },
        {
          "duration": 0.5,
          "durationTicks": 960,
          "midi": 59,
          "name": "B3",
          "ticks": 107520,
          "time": 56,
          "velocity": 0.7874015748031497
        },
        {
          "duration": 0.5,
          "durationTicks": 960,
          "midi": 59,
          "name": "B3",
          "ticks": 108480,
          "time": 56.5,
          "velocity": 0.7874015748031497
        },
        {
          "duration": 0.5,
          "durationTicks": 960,
          "midi": 65,
          "name": "F4",
          "ticks": 108480,
          "time": 56.5,
          "velocity": 0.7874015748031497
        },
        {
          "duration": 0.5,
          "durationTicks": 960,
          "midi": 69,
          "name": "A4",
          "ticks": 108480,
          "time": 56.5,
          "velocity": 0.7874015748031497
        },
        {
          "duration": 0.5,
          "durationTicks": 960,
          "midi": 62,
          "name": "D4",
          "ticks": 108480,
          "time": 56.5,
          "velocity": 0.7874015748031497
        }
      ]
    }
  ]
};

wtc1 = {
  "header": {
    "keySignatures": [],
    "meta": [],
    "name": "",
    "ppq": 384,
    "tempos": [
      {
        "bpm": 120,
        "ticks": 0
      }
    ],
    "timeSignatures": [
      {
        "ticks": 0,
        "timeSignature": [
          4,
          4
        ],
        "measures": 0
      }
    ]
  },
  "tracks": [
    {
      "channel": 0,
      "controlChanges": {},
      "instrument": {
        "family": "piano",
        "name": "harpsichord",
        "number": 6
      },
      "name": "Track 1",
      "notes": [
        {
          "duration": 1.2265625,
          "durationTicks": 942,
          "midi": 72,
          "name": "C5",
          "ticks": 64,
          "time": 0.08333333333333333,
          "velocity": 1
        },
        {
          "duration": 1.2265625,
          "durationTicks": 942,
          "midi": 48,
          "name": "C3",
          "ticks": 64,
          "time": 0.08333333333333333,
          "velocity": 1
        },
        {
          "duration": 0.13151041666666669,
          "durationTicks": 101,
          "midi": 63,
          "name": "D#4",
          "ticks": 183,
          "time": 0.23828125,
          "velocity": 1
        },
        {
          "duration": 0.13151041666666669,
          "durationTicks": 101,
          "midi": 55,
          "name": "G3",
          "ticks": 183,
          "time": 0.23828125,
          "velocity": 1
        },
        {
          "duration": 0.13151041666666669,
          "durationTicks": 101,
          "midi": 62,
          "name": "D4",
          "ticks": 302,
          "time": 0.3932291666666667,
          "velocity": 1
        },
        {
          "duration": 0.13151041666666669,
          "durationTicks": 101,
          "midi": 53,
          "name": "F3",
          "ticks": 302,
          "time": 0.3932291666666667,
          "velocity": 1
        },
        {
          "duration": 0.13151041666666663,
          "durationTicks": 101,
          "midi": 63,
          "name": "D#4",
          "ticks": 421,
          "time": 0.5481770833333334,
          "velocity": 1
        },
        {
          "duration": 0.13151041666666663,
          "durationTicks": 101,
          "midi": 55,
          "name": "G3",
          "ticks": 421,
          "time": 0.5481770833333334,
          "velocity": 1
        },
        {
          "duration": 0.59375,
          "durationTicks": 456,
          "midi": 60,
          "name": "C4",
          "ticks": 540,
          "time": 0.703125,
          "velocity": 1
        },
        {
          "duration": 0.59375,
          "durationTicks": 456,
          "midi": 51,
          "name": "D#3",
          "ticks": 540,
          "time": 0.703125,
          "velocity": 1
        },
        {
          "duration": 0.13151041666666674,
          "durationTicks": 101,
          "midi": 63,
          "name": "D#4",
          "ticks": 659,
          "time": 0.8580729166666666,
          "velocity": 1
        },
        {
          "duration": 0.13151041666666674,
          "durationTicks": 101,
          "midi": 55,
          "name": "G3",
          "ticks": 659,
          "time": 0.8580729166666666,
          "velocity": 1
        },
        {
          "duration": 0.13151041666666674,
          "durationTicks": 101,
          "midi": 62,
          "name": "D4",
          "ticks": 778,
          "time": 1.0130208333333333,
          "velocity": 1
        },
        {
          "duration": 0.13151041666666674,
          "durationTicks": 101,
          "midi": 53,
          "name": "F3",
          "ticks": 778,
          "time": 1.0130208333333333,
          "velocity": 1
        },
        {
          "duration": 0.13151041666666674,
          "durationTicks": 101,
          "midi": 63,
          "name": "D#4",
          "ticks": 897,
          "time": 1.16796875,
          "velocity": 1
        },
        {
          "duration": 0.13151041666666674,
          "durationTicks": 101,
          "midi": 55,
          "name": "G3",
          "ticks": 897,
          "time": 1.16796875,
          "velocity": 1
        },
        {
          "duration": 1.2265624999999998,
          "durationTicks": 942,
          "midi": 72,
          "name": "C5",
          "ticks": 1016,
          "time": 1.3229166666666667,
          "velocity": 1
        },
        {
          "duration": 1.2265624999999998,
          "durationTicks": 942,
          "midi": 48,
          "name": "C3",
          "ticks": 1016,
          "time": 1.3229166666666667,
          "velocity": 1
        },
        {
          "duration": 0.13151041666666674,
          "durationTicks": 101,
          "midi": 63,
          "name": "D#4",
          "ticks": 1135,
          "time": 1.4778645833333333,
          "velocity": 1
        },
        {
          "duration": 0.13151041666666674,
          "durationTicks": 101,
          "midi": 55,
          "name": "G3",
          "ticks": 1135,
          "time": 1.4778645833333333,
          "velocity": 1
        },
        {
          "duration": 0.13151041666666674,
          "durationTicks": 101,
          "midi": 62,
          "name": "D4",
          "ticks": 1254,
          "time": 1.6328125,
          "velocity": 1
        },
        {
          "duration": 0.13151041666666674,
          "durationTicks": 101,
          "midi": 53,
          "name": "F3",
          "ticks": 1254,
          "time": 1.6328125,
          "velocity": 1
        },
        {
          "duration": 0.13151041666666652,
          "durationTicks": 101,
          "midi": 63,
          "name": "D#4",
          "ticks": 1373,
          "time": 1.7877604166666667,
          "velocity": 1
        },
        {
          "duration": 0.13151041666666652,
          "durationTicks": 101,
          "midi": 55,
          "name": "G3",
          "ticks": 1373,
          "time": 1.7877604166666667,
          "velocity": 1
        },
        {
          "duration": 0.5937500000000002,
          "durationTicks": 456,
          "midi": 60,
          "name": "C4",
          "ticks": 1492,
          "time": 1.9427083333333333,
          "velocity": 1
        },
        {
          "duration": 0.5937500000000002,
          "durationTicks": 456,
          "midi": 51,
          "name": "D#3",
          "ticks": 1492,
          "time": 1.9427083333333333,
          "velocity": 1
        },
        {
          "duration": 0.13151041666666652,
          "durationTicks": 101,
          "midi": 63,
          "name": "D#4",
          "ticks": 1611,
          "time": 2.09765625,
          "velocity": 1
        },
        {
          "duration": 0.13151041666666652,
          "durationTicks": 101,
          "midi": 55,
          "name": "G3",
          "ticks": 1611,
          "time": 2.09765625,
          "velocity": 1
        },
        {
          "duration": 0.13151041666666696,
          "durationTicks": 101,
          "midi": 62,
          "name": "D4",
          "ticks": 1730,
          "time": 2.2526041666666665,
          "velocity": 1
        },
        {
          "duration": 0.13151041666666696,
          "durationTicks": 101,
          "midi": 53,
          "name": "F3",
          "ticks": 1730,
          "time": 2.2526041666666665,
          "velocity": 1
        },
        {
          "duration": 0.13151041666666652,
          "durationTicks": 101,
          "midi": 63,
          "name": "D#4",
          "ticks": 1849,
          "time": 2.4075520833333335,
          "velocity": 1
        },
        {
          "duration": 0.13151041666666652,
          "durationTicks": 101,
          "midi": 55,
          "name": "G3",
          "ticks": 1849,
          "time": 2.4075520833333335,
          "velocity": 1
        },
        {
          "duration": 1.2265625,
          "durationTicks": 942,
          "midi": 68,
          "name": "G#4",
          "ticks": 1968,
          "time": 2.5625,
          "velocity": 1
        },
        {
          "duration": 1.2265625,
          "durationTicks": 942,
          "midi": 48,
          "name": "C3",
          "ticks": 1968,
          "time": 2.5625,
          "velocity": 1
        },
        {
          "duration": 0.13151041666666696,
          "durationTicks": 101,
          "midi": 65,
          "name": "F4",
          "ticks": 2087,
          "time": 2.7174479166666665,
          "velocity": 1
        },
        {
          "duration": 0.13151041666666696,
          "durationTicks": 101,
          "midi": 56,
          "name": "G#3",
          "ticks": 2087,
          "time": 2.7174479166666665,
          "velocity": 1
        },
        {
          "duration": 0.13151041666666652,
          "durationTicks": 101,
          "midi": 64,
          "name": "E4",
          "ticks": 2206,
          "time": 2.8723958333333335,
          "velocity": 1
        },
        {
          "duration": 0.13151041666666652,
          "durationTicks": 101,
          "midi": 55,
          "name": "G3",
          "ticks": 2206,
          "time": 2.8723958333333335,
          "velocity": 1
        },
        {
          "duration": 0.13151041666666652,
          "durationTicks": 101,
          "midi": 65,
          "name": "F4",
          "ticks": 2325,
          "time": 3.02734375,
          "velocity": 1
        },
        {
          "duration": 0.13151041666666652,
          "durationTicks": 101,
          "midi": 56,
          "name": "G#3",
          "ticks": 2325,
          "time": 3.02734375,
          "velocity": 1
        },
        {
          "duration": 0.59375,
          "durationTicks": 456,
          "midi": 60,
          "name": "C4",
          "ticks": 2444,
          "time": 3.1822916666666665,
          "velocity": 1
        },
        {
          "duration": 0.59375,
          "durationTicks": 456,
          "midi": 53,
          "name": "F3",
          "ticks": 2444,
          "time": 3.1822916666666665,
          "velocity": 1
        },
        {
          "duration": 0.13151041666666652,
          "durationTicks": 101,
          "midi": 65,
          "name": "F4",
          "ticks": 2563,
          "time": 3.3372395833333335,
          "velocity": 1
        },
        {
          "duration": 0.13151041666666652,
          "durationTicks": 101,
          "midi": 56,
          "name": "G#3",
          "ticks": 2563,
          "time": 3.3372395833333335,
          "velocity": 1
        },
        {
          "duration": 0.13151041666666652,
          "durationTicks": 101,
          "midi": 64,
          "name": "E4",
          "ticks": 2682,
          "time": 3.4921875,
          "velocity": 1
        },
        {
          "duration": 0.13151041666666652,
          "durationTicks": 101,
          "midi": 55,
          "name": "G3",
          "ticks": 2682,
          "time": 3.4921875,
          "velocity": 1
        },
        {
          "duration": 0.13151041666666696,
          "durationTicks": 101,
          "midi": 65,
          "name": "F4",
          "ticks": 2801,
          "time": 3.6471354166666665,
          "velocity": 1
        },
        {
          "duration": 0.13151041666666696,
          "durationTicks": 101,
          "midi": 56,
          "name": "G#3",
          "ticks": 2801,
          "time": 3.6471354166666665,
          "velocity": 1
        },
        {
          "duration": 1.2265624999999996,
          "durationTicks": 942,
          "midi": 68,
          "name": "G#4",
          "ticks": 2920,
          "time": 3.8020833333333335,
          "velocity": 1
        },
        {
          "duration": 1.2265624999999996,
          "durationTicks": 942,
          "midi": 48,
          "name": "C3",
          "ticks": 2920,
          "time": 3.8020833333333335,
          "velocity": 1
        },
        {
          "duration": 0.13151041666666652,
          "durationTicks": 101,
          "midi": 65,
          "name": "F4",
          "ticks": 3040,
          "time": 3.9583333333333335,
          "velocity": 1
        },
        {
          "duration": 0.13151041666666652,
          "durationTicks": 101,
          "midi": 56,
          "name": "G#3",
          "ticks": 3040,
          "time": 3.9583333333333335,
          "velocity": 1
        },
        {
          "duration": 0.13151041666666696,
          "durationTicks": 101,
          "midi": 64,
          "name": "E4",
          "ticks": 3159,
          "time": 4.11328125,
          "velocity": 1
        },
        {
          "duration": 0.13151041666666696,
          "durationTicks": 101,
          "midi": 55,
          "name": "G3",
          "ticks": 3159,
          "time": 4.11328125,
          "velocity": 1
        },
        {
          "duration": 0.13151041666666607,
          "durationTicks": 101,
          "midi": 65,
          "name": "F4",
          "ticks": 3278,
          "time": 4.268229166666667,
          "velocity": 1
        },
        {
          "duration": 0.13151041666666607,
          "durationTicks": 101,
          "midi": 56,
          "name": "G#3",
          "ticks": 3278,
          "time": 4.268229166666667,
          "velocity": 1
        },
        {
          "duration": 0.59375,
          "durationTicks": 456,
          "midi": 60,
          "name": "C4",
          "ticks": 3397,
          "time": 4.423177083333333,
          "velocity": 1
        },
        {
          "duration": 0.59375,
          "durationTicks": 456,
          "midi": 53,
          "name": "F3",
          "ticks": 3397,
          "time": 4.423177083333333,
          "velocity": 1
        },
        {
          "duration": 0.13151041666666696,
          "durationTicks": 101,
          "midi": 65,
          "name": "F4",
          "ticks": 3516,
          "time": 4.578125,
          "velocity": 1
        },
        {
          "duration": 0.13151041666666696,
          "durationTicks": 101,
          "midi": 56,
          "name": "G#3",
          "ticks": 3516,
          "time": 4.578125,
          "velocity": 1
        },
        {
          "duration": 0.13151041666666607,
          "durationTicks": 101,
          "midi": 64,
          "name": "E4",
          "ticks": 3635,
          "time": 4.733072916666667,
          "velocity": 1
        },
        {
          "duration": 0.13151041666666607,
          "durationTicks": 101,
          "midi": 55,
          "name": "G3",
          "ticks": 3635,
          "time": 4.733072916666667,
          "velocity": 1
        },
        {
          "duration": 0.13151041666666696,
          "durationTicks": 101,
          "midi": 65,
          "name": "F4",
          "ticks": 3754,
          "time": 4.888020833333333,
          "velocity": 1
        },
        {
          "duration": 0.13151041666666696,
          "durationTicks": 101,
          "midi": 56,
          "name": "G#3",
          "ticks": 3754,
          "time": 4.888020833333333,
          "velocity": 1
        },
        {
          "duration": 1.2265625,
          "durationTicks": 942,
          "midi": 71,
          "name": "B4",
          "ticks": 3873,
          "time": 5.04296875,
          "velocity": 1
        },
        {
          "duration": 1.2265625,
          "durationTicks": 942,
          "midi": 48,
          "name": "C3",
          "ticks": 3873,
          "time": 5.04296875,
          "velocity": 1
        },
        {
          "duration": 0.13151041666666607,
          "durationTicks": 101,
          "midi": 65,
          "name": "F4",
          "ticks": 3992,
          "time": 5.197916666666667,
          "velocity": 1
        },
        {
          "duration": 0.13151041666666607,
          "durationTicks": 101,
          "midi": 56,
          "name": "G#3",
          "ticks": 3992,
          "time": 5.197916666666667,
          "velocity": 1
        },
        {
          "duration": 0.13151041666666696,
          "durationTicks": 101,
          "midi": 63,
          "name": "D#4",
          "ticks": 4111,
          "time": 5.352864583333333,
          "velocity": 1
        },
        {
          "duration": 0.13151041666666696,
          "durationTicks": 101,
          "midi": 55,
          "name": "G3",
          "ticks": 4111,
          "time": 5.352864583333333,
          "velocity": 1
        },
        {
          "duration": 0.13151041666666696,
          "durationTicks": 101,
          "midi": 65,
          "name": "F4",
          "ticks": 4230,
          "time": 5.5078125,
          "velocity": 1
        },
        {
          "duration": 0.13151041666666696,
          "durationTicks": 101,
          "midi": 56,
          "name": "G#3",
          "ticks": 4230,
          "time": 5.5078125,
          "velocity": 1
        },
        {
          "duration": 0.59375,
          "durationTicks": 456,
          "midi": 62,
          "name": "D4",
          "ticks": 4349,
          "time": 5.662760416666667,
          "velocity": 1
        },
        {
          "duration": 0.59375,
          "durationTicks": 456,
          "midi": 53,
          "name": "F3",
          "ticks": 4349,
          "time": 5.662760416666667,
          "velocity": 1
        },
        {
          "duration": 0.13151041666666696,
          "durationTicks": 101,
          "midi": 65,
          "name": "F4",
          "ticks": 4468,
          "time": 5.817708333333333,
          "velocity": 1
        },
        {
          "duration": 0.13151041666666696,
          "durationTicks": 101,
          "midi": 56,
          "name": "G#3",
          "ticks": 4468,
          "time": 5.817708333333333,
          "velocity": 1
        },
        {
          "duration": 0.13151041666666696,
          "durationTicks": 101,
          "midi": 63,
          "name": "D#4",
          "ticks": 4587,
          "time": 5.97265625,
          "velocity": 1
        },
        {
          "duration": 0.13151041666666696,
          "durationTicks": 101,
          "midi": 55,
          "name": "G3",
          "ticks": 4587,
          "time": 5.97265625,
          "velocity": 1
        },
        {
          "duration": 0.13151041666666607,
          "durationTicks": 101,
          "midi": 65,
          "name": "F4",
          "ticks": 4706,
          "time": 6.127604166666667,
          "velocity": 1
        },
        {
          "duration": 0.13151041666666607,
          "durationTicks": 101,
          "midi": 56,
          "name": "G#3",
          "ticks": 4706,
          "time": 6.127604166666667,
          "velocity": 1
        },
        {
          "duration": 1.2265625,
          "durationTicks": 942,
          "midi": 71,
          "name": "B4",
          "ticks": 4825,
          "time": 6.282552083333333,
          "velocity": 1
        },
        {
          "duration": 1.2265625,
          "durationTicks": 942,
          "midi": 48,
          "name": "C3",
          "ticks": 4825,
          "time": 6.282552083333333,
          "velocity": 1
        },
        {
          "duration": 0.13151041666666696,
          "durationTicks": 101,
          "midi": 65,
          "name": "F4",
          "ticks": 4944,
          "time": 6.4375,
          "velocity": 1
        },
        {
          "duration": 0.13151041666666696,
          "durationTicks": 101,
          "midi": 56,
          "name": "G#3",
          "ticks": 4944,
          "time": 6.4375,
          "velocity": 1
        },
        {
          "duration": 0.13151041666666607,
          "durationTicks": 101,
          "midi": 63,
          "name": "D#4",
          "ticks": 5063,
          "time": 6.592447916666667,
          "velocity": 1
        },
        {
          "duration": 0.13151041666666607,
          "durationTicks": 101,
          "midi": 55,
          "name": "G3",
          "ticks": 5063,
          "time": 6.592447916666667,
          "velocity": 1
        },
        {
          "duration": 0.13151041666666696,
          "durationTicks": 101,
          "midi": 65,
          "name": "F4",
          "ticks": 5182,
          "time": 6.747395833333333,
          "velocity": 1
        },
        {
          "duration": 0.13151041666666696,
          "durationTicks": 101,
          "midi": 56,
          "name": "G#3",
          "ticks": 5182,
          "time": 6.747395833333333,
          "velocity": 1
        },
        {
          "duration": 0.59375,
          "durationTicks": 456,
          "midi": 62,
          "name": "D4",
          "ticks": 5301,
          "time": 6.90234375,
          "velocity": 1
        },
        {
          "duration": 0.59375,
          "durationTicks": 456,
          "midi": 53,
          "name": "F3",
          "ticks": 5301,
          "time": 6.90234375,
          "velocity": 1
        },
        {
          "duration": 0.13151041666666607,
          "durationTicks": 101,
          "midi": 65,
          "name": "F4",
          "ticks": 5420,
          "time": 7.057291666666667,
          "velocity": 1
        },
        {
          "duration": 0.13151041666666607,
          "durationTicks": 101,
          "midi": 56,
          "name": "G#3",
          "ticks": 5420,
          "time": 7.057291666666667,
          "velocity": 1
        },
        {
          "duration": 0.13151041666666696,
          "durationTicks": 101,
          "midi": 63,
          "name": "D#4",
          "ticks": 5539,
          "time": 7.212239583333333,
          "velocity": 1
        },
        {
          "duration": 0.13151041666666696,
          "durationTicks": 101,
          "midi": 55,
          "name": "G3",
          "ticks": 5539,
          "time": 7.212239583333333,
          "velocity": 1
        },
        {
          "duration": 0.13151041666666696,
          "durationTicks": 101,
          "midi": 65,
          "name": "F4",
          "ticks": 5658,
          "time": 7.3671875,
          "velocity": 1
        },
        {
          "duration": 0.13151041666666696,
          "durationTicks": 101,
          "midi": 56,
          "name": "G#3",
          "ticks": 5658,
          "time": 7.3671875,
          "velocity": 1
        },
        {
          "duration": 1.2265624999999991,
          "durationTicks": 942,
          "midi": 72,
          "name": "C5",
          "ticks": 5777,
          "time": 7.522135416666667,
          "velocity": 1
        },
        {
          "duration": 1.2265624999999991,
          "durationTicks": 942,
          "midi": 48,
          "name": "C3",
          "ticks": 5777,
          "time": 7.522135416666667,
          "velocity": 1
        },
        {
          "duration": 0.13151041666666696,
          "durationTicks": 101,
          "midi": 67,
          "name": "G4",
          "ticks": 5896,
          "time": 7.677083333333333,
          "velocity": 1
        },
        {
          "duration": 0.13151041666666696,
          "durationTicks": 101,
          "midi": 51,
          "name": "D#3",
          "ticks": 5896,
          "time": 7.677083333333333,
          "velocity": 1
        },
        {
          "duration": 0.13151041666666696,
          "durationTicks": 101,
          "midi": 65,
          "name": "F4",
          "ticks": 6016,
          "time": 7.833333333333333,
          "velocity": 1
        },
        {
          "duration": 0.13151041666666696,
          "durationTicks": 101,
          "midi": 50,
          "name": "D3",
          "ticks": 6016,
          "time": 7.833333333333333,
          "velocity": 1
        },
        {
          "duration": 0.13151041666666607,
          "durationTicks": 101,
          "midi": 67,
          "name": "G4",
          "ticks": 6135,
          "time": 7.98828125,
          "velocity": 1
        },
        {
          "duration": 0.13151041666666607,
          "durationTicks": 101,
          "midi": 51,
          "name": "D#3",
          "ticks": 6135,
          "time": 7.98828125,
          "velocity": 1
        },
        {
          "duration": 0.59375,
          "durationTicks": 456,
          "midi": 63,
          "name": "D#4",
          "ticks": 6254,
          "time": 8.143229166666666,
          "velocity": 1
        },
        {
          "duration": 0.59375,
          "durationTicks": 456,
          "midi": 55,
          "name": "G3",
          "ticks": 6254,
          "time": 8.143229166666666,
          "velocity": 1
        },
        {
          "duration": 0.13151041666666607,
          "durationTicks": 101,
          "midi": 67,
          "name": "G4",
          "ticks": 6373,
          "time": 8.298177083333334,
          "velocity": 1
        },
        {
          "duration": 0.13151041666666607,
          "durationTicks": 101,
          "midi": 51,
          "name": "D#3",
          "ticks": 6373,
          "time": 8.298177083333334,
          "velocity": 1
        },
        {
          "duration": 0.13151041666666607,
          "durationTicks": 101,
          "midi": 65,
          "name": "F4",
          "ticks": 6492,
          "time": 8.453125,
          "velocity": 1
        },
        {
          "duration": 0.13151041666666607,
          "durationTicks": 101,
          "midi": 50,
          "name": "D3",
          "ticks": 6492,
          "time": 8.453125,
          "velocity": 1
        },
        {
          "duration": 0.13151041666666785,
          "durationTicks": 101,
          "midi": 67,
          "name": "G4",
          "ticks": 6611,
          "time": 8.608072916666666,
          "velocity": 1
        },
        {
          "duration": 0.13151041666666785,
          "durationTicks": 101,
          "midi": 51,
          "name": "D#3",
          "ticks": 6611,
          "time": 8.608072916666666,
          "velocity": 1
        },
        {
          "duration": 1.2265625,
          "durationTicks": 942,
          "midi": 72,
          "name": "C5",
          "ticks": 6730,
          "time": 8.763020833333334,
          "velocity": 1
        },
        {
          "duration": 1.2265625,
          "durationTicks": 942,
          "midi": 48,
          "name": "C3",
          "ticks": 6730,
          "time": 8.763020833333334,
          "velocity": 1
        },
        {
          "duration": 0.13151041666666607,
          "durationTicks": 101,
          "midi": 67,
          "name": "G4",
          "ticks": 6849,
          "time": 8.91796875,
          "velocity": 1
        },
        {
          "duration": 0.13151041666666607,
          "durationTicks": 101,
          "midi": 51,
          "name": "D#3",
          "ticks": 6849,
          "time": 8.91796875,
          "velocity": 1
        },
        {
          "duration": 0.13151041666666785,
          "durationTicks": 101,
          "midi": 65,
          "name": "F4",
          "ticks": 6968,
          "time": 9.072916666666666,
          "velocity": 1
        },
        {
          "duration": 0.13151041666666785,
          "durationTicks": 101,
          "midi": 50,
          "name": "D3",
          "ticks": 6968,
          "time": 9.072916666666666,
          "velocity": 1
        },
        {
          "duration": 0.13151041666666607,
          "durationTicks": 101,
          "midi": 67,
          "name": "G4",
          "ticks": 7087,
          "time": 9.227864583333334,
          "velocity": 1
        },
        {
          "duration": 0.13151041666666607,
          "durationTicks": 101,
          "midi": 51,
          "name": "D#3",
          "ticks": 7087,
          "time": 9.227864583333334,
          "velocity": 1
        },
        {
          "duration": 0.3645833333333339,
          "durationTicks": 280,
          "midi": 63,
          "name": "D#4",
          "ticks": 7206,
          "time": 9.3828125,
          "velocity": 1
        },
        {
          "duration": 0.3645833333333339,
          "durationTicks": 280,
          "midi": 55,
          "name": "G3",
          "ticks": 7206,
          "time": 9.3828125,
          "velocity": 1
        },
        {
          "duration": 0.13151041666666785,
          "durationTicks": 101,
          "midi": 67,
          "name": "G4",
          "ticks": 7325,
          "time": 9.537760416666666,
          "velocity": 1
        },
        {
          "duration": 0.13151041666666785,
          "durationTicks": 101,
          "midi": 51,
          "name": "D#3",
          "ticks": 7325,
          "time": 9.537760416666666,
          "velocity": 1
        },
        {
          "duration": 0.13151041666666607,
          "durationTicks": 101,
          "midi": 65,
          "name": "F4",
          "ticks": 7444,
          "time": 9.692708333333334,
          "velocity": 1
        },
        {
          "duration": 0.13151041666666607,
          "durationTicks": 101,
          "midi": 50,
          "name": "D3",
          "ticks": 7444,
          "time": 9.692708333333334,
          "velocity": 1
        },
        {
          "duration": 0.13151041666666607,
          "durationTicks": 101,
          "midi": 67,
          "name": "G4",
          "ticks": 7563,
          "time": 9.84765625,
          "velocity": 1
        },
        {
          "duration": 0.13151041666666607,
          "durationTicks": 101,
          "midi": 51,
          "name": "D#3",
          "ticks": 7563,
          "time": 9.84765625,
          "velocity": 1
        },
        {
          "duration": 1.2265625,
          "durationTicks": 942,
          "midi": 75,
          "name": "D#5",
          "ticks": 7682,
          "time": 10.002604166666666,
          "velocity": 1
        },
        {
          "duration": 1.2265625,
          "durationTicks": 942,
          "midi": 48,
          "name": "C3",
          "ticks": 7682,
          "time": 10.002604166666666,
          "velocity": 1
        },
        {
          "duration": 0.13151041666666607,
          "durationTicks": 101,
          "midi": 68,
          "name": "G#4",
          "ticks": 7801,
          "time": 10.157552083333334,
          "velocity": 1
        },
        {
          "duration": 0.13151041666666607,
          "durationTicks": 101,
          "midi": 60,
          "name": "C4",
          "ticks": 7801,
          "time": 10.157552083333334,
          "velocity": 1
        },
        {
          "duration": 0.13151041666666607,
          "durationTicks": 101,
          "midi": 67,
          "name": "G4",
          "ticks": 7920,
          "time": 10.3125,
          "velocity": 1
        },
        {
          "duration": 0.13151041666666607,
          "durationTicks": 101,
          "midi": 58,
          "name": "A#3",
          "ticks": 7920,
          "time": 10.3125,
          "velocity": 1
        },
        {
          "duration": 0.13151041666666785,
          "durationTicks": 101,
          "midi": 68,
          "name": "G#4",
          "ticks": 8039,
          "time": 10.467447916666666,
          "velocity": 1
        },
        {
          "duration": 0.13151041666666785,
          "durationTicks": 101,
          "midi": 60,
          "name": "C4",
          "ticks": 8039,
          "time": 10.467447916666666,
          "velocity": 1
        },
        {
          "duration": 0.59375,
          "durationTicks": 456,
          "midi": 63,
          "name": "D#4",
          "ticks": 8158,
          "time": 10.622395833333334,
          "velocity": 1
        },
        {
          "duration": 0.59375,
          "durationTicks": 456,
          "midi": 56,
          "name": "G#3",
          "ticks": 8158,
          "time": 10.622395833333334,
          "velocity": 1
        },
        {
          "duration": 0.13151041666666607,
          "durationTicks": 101,
          "midi": 68,
          "name": "G#4",
          "ticks": 8277,
          "time": 10.77734375,
          "velocity": 1
        },
        {
          "duration": 0.13151041666666607,
          "durationTicks": 101,
          "midi": 60,
          "name": "C4",
          "ticks": 8277,
          "time": 10.77734375,
          "velocity": 1
        },
        {
          "duration": 0.13151041666666785,
          "durationTicks": 101,
          "midi": 67,
          "name": "G4",
          "ticks": 8396,
          "time": 10.932291666666666,
          "velocity": 1
        },
        {
          "duration": 0.13151041666666785,
          "durationTicks": 101,
          "midi": 58,
          "name": "A#3",
          "ticks": 8396,
          "time": 10.932291666666666,
          "velocity": 1
        },
        {
          "duration": 0.13151041666666607,
          "durationTicks": 101,
          "midi": 68,
          "name": "G#4",
          "ticks": 8515,
          "time": 11.087239583333334,
          "velocity": 1
        },
        {
          "duration": 0.13151041666666607,
          "durationTicks": 101,
          "midi": 60,
          "name": "C4",
          "ticks": 8515,
          "time": 11.087239583333334,
          "velocity": 1
        },
        {
          "duration": 1.2265625,
          "durationTicks": 942,
          "midi": 75,
          "name": "D#5",
          "ticks": 8634,
          "time": 11.2421875,
          "velocity": 1
        },
        {
          "duration": 1.2265625,
          "durationTicks": 942,
          "midi": 48,
          "name": "C3",
          "ticks": 8634,
          "time": 11.2421875,
          "velocity": 1
        },
        {
          "duration": 0.13151041666666785,
          "durationTicks": 101,
          "midi": 68,
          "name": "G#4",
          "ticks": 8753,
          "time": 11.397135416666666,
          "velocity": 1
        },
        {
          "duration": 0.13151041666666785,
          "durationTicks": 101,
          "midi": 60,
          "name": "C4",
          "ticks": 8753,
          "time": 11.397135416666666,
          "velocity": 1
        },
        {
          "duration": 0.13151041666666607,
          "durationTicks": 101,
          "midi": 67,
          "name": "G4",
          "ticks": 8872,
          "time": 11.552083333333334,
          "velocity": 1
        },
        {
          "duration": 0.13151041666666607,
          "durationTicks": 101,
          "midi": 58,
          "name": "A#3",
          "ticks": 8872,
          "time": 11.552083333333334,
          "velocity": 1
        },
        {
          "duration": 0.13151041666666607,
          "durationTicks": 101,
          "midi": 68,
          "name": "G#4",
          "ticks": 8992,
          "time": 11.708333333333334,
          "velocity": 1
        },
        {
          "duration": 0.13151041666666607,
          "durationTicks": 101,
          "midi": 60,
          "name": "C4",
          "ticks": 8992,
          "time": 11.708333333333334,
          "velocity": 1
        },
        {
          "duration": 0.59375,
          "durationTicks": 456,
          "midi": 63,
          "name": "D#4",
          "ticks": 9111,
          "time": 11.86328125,
          "velocity": 1
        },
        {
          "duration": 0.59375,
          "durationTicks": 456,
          "midi": 56,
          "name": "G#3",
          "ticks": 9111,
          "time": 11.86328125,
          "velocity": 1
        },
        {
          "duration": 0.13151041666666785,
          "durationTicks": 101,
          "midi": 68,
          "name": "G#4",
          "ticks": 9230,
          "time": 12.018229166666666,
          "velocity": 1
        },
        {
          "duration": 0.13151041666666785,
          "durationTicks": 101,
          "midi": 60,
          "name": "C4",
          "ticks": 9230,
          "time": 12.018229166666666,
          "velocity": 1
        },
        {
          "duration": 0.13151041666666607,
          "durationTicks": 101,
          "midi": 67,
          "name": "G4",
          "ticks": 9349,
          "time": 12.173177083333334,
          "velocity": 1
        },
        {
          "duration": 0.13151041666666607,
          "durationTicks": 101,
          "midi": 58,
          "name": "A#3",
          "ticks": 9349,
          "time": 12.173177083333334,
          "velocity": 1
        },
        {
          "duration": 0.13151041666666607,
          "durationTicks": 101,
          "midi": 68,
          "name": "G#4",
          "ticks": 9468,
          "time": 12.328125,
          "velocity": 1
        },
        {
          "duration": 0.13151041666666607,
          "durationTicks": 101,
          "midi": 60,
          "name": "C4",
          "ticks": 9468,
          "time": 12.328125,
          "velocity": 1
        },
        {
          "duration": 1.2265625,
          "durationTicks": 942,
          "midi": 74,
          "name": "D5",
          "ticks": 9587,
          "time": 12.483072916666666,
          "velocity": 1
        },
        {
          "duration": 1.2265625,
          "durationTicks": 942,
          "midi": 48,
          "name": "C3",
          "ticks": 9587,
          "time": 12.483072916666666,
          "velocity": 1
        },
        {
          "duration": 0.13151041666666607,
          "durationTicks": 101,
          "midi": 66,
          "name": "F#4",
          "ticks": 9706,
          "time": 12.638020833333334,
          "velocity": 1
        },
        {
          "duration": 0.13151041666666607,
          "durationTicks": 101,
          "midi": 57,
          "name": "A3",
          "ticks": 9706,
          "time": 12.638020833333334,
          "velocity": 1
        },
        {
          "duration": 0.13151041666666607,
          "durationTicks": 101,
          "midi": 64,
          "name": "E4",
          "ticks": 9825,
          "time": 12.79296875,
          "velocity": 1
        },
        {
          "duration": 0.13151041666666607,
          "durationTicks": 101,
          "midi": 55,
          "name": "G3",
          "ticks": 9825,
          "time": 12.79296875,
          "velocity": 1
        },
        {
          "duration": 0.13151041666666785,
          "durationTicks": 101,
          "midi": 66,
          "name": "F#4",
          "ticks": 9944,
          "time": 12.947916666666666,
          "velocity": 1
        },
        {
          "duration": 0.13151041666666785,
          "durationTicks": 101,
          "midi": 57,
          "name": "A3",
          "ticks": 9944,
          "time": 12.947916666666666,
          "velocity": 1
        },
        {
          "duration": 0.59375,
          "durationTicks": 456,
          "midi": 62,
          "name": "D4",
          "ticks": 10063,
          "time": 13.102864583333334,
          "velocity": 1
        },
        {
          "duration": 0.59375,
          "durationTicks": 456,
          "midi": 54,
          "name": "F#3",
          "ticks": 10063,
          "time": 13.102864583333334,
          "velocity": 1
        },
        {
          "duration": 0.13151041666666607,
          "durationTicks": 101,
          "midi": 66,
          "name": "F#4",
          "ticks": 10182,
          "time": 13.2578125,
          "velocity": 1
        },
        {
          "duration": 0.13151041666666607,
          "durationTicks": 101,
          "midi": 57,
          "name": "A3",
          "ticks": 10182,
          "time": 13.2578125,
          "velocity": 1
        },
        {
          "duration": 0.13151041666666785,
          "durationTicks": 101,
          "midi": 64,
          "name": "E4",
          "ticks": 10301,
          "time": 13.412760416666666,
          "velocity": 1
        },
        {
          "duration": 0.13151041666666785,
          "durationTicks": 101,
          "midi": 55,
          "name": "G3",
          "ticks": 10301,
          "time": 13.412760416666666,
          "velocity": 1
        },
        {
          "duration": 0.13151041666666607,
          "durationTicks": 101,
          "midi": 66,
          "name": "F#4",
          "ticks": 10420,
          "time": 13.567708333333334,
          "velocity": 1
        },
        {
          "duration": 0.13151041666666607,
          "durationTicks": 101,
          "midi": 57,
          "name": "A3",
          "ticks": 10420,
          "time": 13.567708333333334,
          "velocity": 1
        },
        {
          "duration": 1.2265625,
          "durationTicks": 942,
          "midi": 74,
          "name": "D5",
          "ticks": 10539,
          "time": 13.72265625,
          "velocity": 1
        },
        {
          "duration": 1.2265625,
          "durationTicks": 942,
          "midi": 48,
          "name": "C3",
          "ticks": 10539,
          "time": 13.72265625,
          "velocity": 1
        },
        {
          "duration": 0.13151041666666785,
          "durationTicks": 101,
          "midi": 66,
          "name": "F#4",
          "ticks": 10658,
          "time": 13.877604166666666,
          "velocity": 1
        },
        {
          "duration": 0.13151041666666785,
          "durationTicks": 101,
          "midi": 57,
          "name": "A3",
          "ticks": 10658,
          "time": 13.877604166666666,
          "velocity": 1
        },
        {
          "duration": 0.13151041666666607,
          "durationTicks": 101,
          "midi": 64,
          "name": "E4",
          "ticks": 10777,
          "time": 14.032552083333334,
          "velocity": 1
        },
        {
          "duration": 0.13151041666666607,
          "durationTicks": 101,
          "midi": 55,
          "name": "G3",
          "ticks": 10777,
          "time": 14.032552083333334,
          "velocity": 1
        },
        {
          "duration": 0.13151041666666607,
          "durationTicks": 101,
          "midi": 66,
          "name": "F#4",
          "ticks": 10896,
          "time": 14.1875,
          "velocity": 1
        },
        {
          "duration": 0.13151041666666607,
          "durationTicks": 101,
          "midi": 57,
          "name": "A3",
          "ticks": 10896,
          "time": 14.1875,
          "velocity": 1
        },
        {
          "duration": 0.59375,
          "durationTicks": 456,
          "midi": 62,
          "name": "D4",
          "ticks": 11015,
          "time": 14.342447916666666,
          "velocity": 1
        },
        {
          "duration": 0.59375,
          "durationTicks": 456,
          "midi": 54,
          "name": "F#3",
          "ticks": 11015,
          "time": 14.342447916666666,
          "velocity": 1
        },
        {
          "duration": 0.13151041666666607,
          "durationTicks": 101,
          "midi": 66,
          "name": "F#4",
          "ticks": 11134,
          "time": 14.497395833333334,
          "velocity": 1
        },
        {
          "duration": 0.13151041666666607,
          "durationTicks": 101,
          "midi": 57,
          "name": "A3",
          "ticks": 11134,
          "time": 14.497395833333334,
          "velocity": 1
        },
        {
          "duration": 0.13151041666666607,
          "durationTicks": 101,
          "midi": 64,
          "name": "E4",
          "ticks": 11253,
          "time": 14.65234375,
          "velocity": 1
        },
        {
          "duration": 0.13151041666666607,
          "durationTicks": 101,
          "midi": 55,
          "name": "G3",
          "ticks": 11253,
          "time": 14.65234375,
          "velocity": 1
        },
        {
          "duration": 0.13151041666666785,
          "durationTicks": 101,
          "midi": 66,
          "name": "F#4",
          "ticks": 11372,
          "time": 14.807291666666666,
          "velocity": 1
        },
        {
          "duration": 0.13151041666666785,
          "durationTicks": 101,
          "midi": 57,
          "name": "A3",
          "ticks": 11372,
          "time": 14.807291666666666,
          "velocity": 1
        },
        {
          "duration": 1.2265624999999982,
          "durationTicks": 942,
          "midi": 74,
          "name": "D5",
          "ticks": 11491,
          "time": 14.962239583333334,
          "velocity": 1
        },
        {
          "duration": 1.2265624999999982,
          "durationTicks": 942,
          "midi": 46,
          "name": "A#2",
          "ticks": 11491,
          "time": 14.962239583333334,
          "velocity": 1
        },
        {
          "duration": 0.13151041666666607,
          "durationTicks": 101,
          "midi": 67,
          "name": "G4",
          "ticks": 11610,
          "time": 15.1171875,
          "velocity": 1
        },
        {
          "duration": 0.13151041666666607,
          "durationTicks": 101,
          "midi": 58,
          "name": "A#3",
          "ticks": 11610,
          "time": 15.1171875,
          "velocity": 1
        },
        {
          "duration": 0.13151041666666785,
          "durationTicks": 101,
          "midi": 66,
          "name": "F#4",
          "ticks": 11729,
          "time": 15.272135416666666,
          "velocity": 1
        },
        {
          "duration": 0.13151041666666785,
          "durationTicks": 101,
          "midi": 57,
          "name": "A3",
          "ticks": 11729,
          "time": 15.272135416666666,
          "velocity": 1
        },
        {
          "duration": 0.13151041666666607,
          "durationTicks": 101,
          "midi": 67,
          "name": "G4",
          "ticks": 11848,
          "time": 15.427083333333334,
          "velocity": 1
        },
        {
          "duration": 0.13151041666666607,
          "durationTicks": 101,
          "midi": 58,
          "name": "A#3",
          "ticks": 11848,
          "time": 15.427083333333334,
          "velocity": 1
        },
        {
          "duration": 0.5937499999999982,
          "durationTicks": 456,
          "midi": 62,
          "name": "D4",
          "ticks": 11968,
          "time": 15.583333333333334,
          "velocity": 1
        },
        {
          "duration": 0.5937499999999982,
          "durationTicks": 456,
          "midi": 55,
          "name": "G3",
          "ticks": 11968,
          "time": 15.583333333333334,
          "velocity": 1
        },
        {
          "duration": 0.13151041666666607,
          "durationTicks": 101,
          "midi": 67,
          "name": "G4",
          "ticks": 12087,
          "time": 15.73828125,
          "velocity": 1
        },
        {
          "duration": 0.13151041666666607,
          "durationTicks": 101,
          "midi": 58,
          "name": "A#3",
          "ticks": 12087,
          "time": 15.73828125,
          "velocity": 1
        },
        {
          "duration": 0.13151041666666607,
          "durationTicks": 101,
          "midi": 66,
          "name": "F#4",
          "ticks": 12206,
          "time": 15.893229166666666,
          "velocity": 1
        },
        {
          "duration": 0.13151041666666607,
          "durationTicks": 101,
          "midi": 57,
          "name": "A3",
          "ticks": 12206,
          "time": 15.893229166666666,
          "velocity": 1
        },
        {
          "duration": 0.13151041666666785,
          "durationTicks": 101,
          "midi": 67,
          "name": "G4",
          "ticks": 12325,
          "time": 16.048177083333332,
          "velocity": 1
        },
        {
          "duration": 0.13151041666666785,
          "durationTicks": 101,
          "midi": 58,
          "name": "A#3",
          "ticks": 12325,
          "time": 16.048177083333332,
          "velocity": 1
        },
        {
          "duration": 1.2265625,
          "durationTicks": 942,
          "midi": 74,
          "name": "D5",
          "ticks": 12444,
          "time": 16.203125,
          "velocity": 1
        },
        {
          "duration": 1.2265625,
          "durationTicks": 942,
          "midi": 46,
          "name": "A#2",
          "ticks": 12444,
          "time": 16.203125,
          "velocity": 1
        },
        {
          "duration": 0.1315104166666643,
          "durationTicks": 101,
          "midi": 67,
          "name": "G4",
          "ticks": 12563,
          "time": 16.358072916666668,
          "velocity": 1
        },
        {
          "duration": 0.1315104166666643,
          "durationTicks": 101,
          "midi": 58,
          "name": "A#3",
          "ticks": 12563,
          "time": 16.358072916666668,
          "velocity": 1
        },
        {
          "duration": 0.13151041666666785,
          "durationTicks": 101,
          "midi": 66,
          "name": "F#4",
          "ticks": 12682,
          "time": 16.513020833333332,
          "velocity": 1
        },
        {
          "duration": 0.13151041666666785,
          "durationTicks": 101,
          "midi": 57,
          "name": "A3",
          "ticks": 12682,
          "time": 16.513020833333332,
          "velocity": 1
        },
        {
          "duration": 0.13151041666666785,
          "durationTicks": 101,
          "midi": 67,
          "name": "G4",
          "ticks": 12801,
          "time": 16.66796875,
          "velocity": 1
        },
        {
          "duration": 0.13151041666666785,
          "durationTicks": 101,
          "midi": 58,
          "name": "A#3",
          "ticks": 12801,
          "time": 16.66796875,
          "velocity": 1
        },
        {
          "duration": 0.59375,
          "durationTicks": 456,
          "midi": 62,
          "name": "D4",
          "ticks": 12920,
          "time": 16.822916666666668,
          "velocity": 1
        },
        {
          "duration": 0.59375,
          "durationTicks": 456,
          "midi": 55,
          "name": "G3",
          "ticks": 12920,
          "time": 16.822916666666668,
          "velocity": 1
        },
        {
          "duration": 0.13151041666666785,
          "durationTicks": 101,
          "midi": 67,
          "name": "G4",
          "ticks": 13039,
          "time": 16.977864583333332,
          "velocity": 1
        },
        {
          "duration": 0.13151041666666785,
          "durationTicks": 101,
          "midi": 58,
          "name": "A#3",
          "ticks": 13039,
          "time": 16.977864583333332,
          "velocity": 1
        },
        {
          "duration": 0.13151041666666785,
          "durationTicks": 101,
          "midi": 66,
          "name": "F#4",
          "ticks": 13158,
          "time": 17.1328125,
          "velocity": 1
        },
        {
          "duration": 0.13151041666666785,
          "durationTicks": 101,
          "midi": 57,
          "name": "A3",
          "ticks": 13158,
          "time": 17.1328125,
          "velocity": 1
        },
        {
          "duration": 0.1315104166666643,
          "durationTicks": 101,
          "midi": 67,
          "name": "G4",
          "ticks": 13277,
          "time": 17.287760416666668,
          "velocity": 1
        },
        {
          "duration": 0.1315104166666643,
          "durationTicks": 101,
          "midi": 58,
          "name": "A#3",
          "ticks": 13277,
          "time": 17.287760416666668,
          "velocity": 1
        },
        {
          "duration": 1.2265625,
          "durationTicks": 942,
          "midi": 72,
          "name": "C5",
          "ticks": 13396,
          "time": 17.442708333333332,
          "velocity": 1
        },
        {
          "duration": 1.2265625,
          "durationTicks": 942,
          "midi": 46,
          "name": "A#2",
          "ticks": 13396,
          "time": 17.442708333333332,
          "velocity": 1
        },
        {
          "duration": 0.13151041666666785,
          "durationTicks": 101,
          "midi": 64,
          "name": "E4",
          "ticks": 13515,
          "time": 17.59765625,
          "velocity": 1
        },
        {
          "duration": 0.13151041666666785,
          "durationTicks": 101,
          "midi": 55,
          "name": "G3",
          "ticks": 13515,
          "time": 17.59765625,
          "velocity": 1
        },
        {
          "duration": 0.1315104166666643,
          "durationTicks": 101,
          "midi": 62,
          "name": "D4",
          "ticks": 13634,
          "time": 17.752604166666668,
          "velocity": 1
        },
        {
          "duration": 0.1315104166666643,
          "durationTicks": 101,
          "midi": 53,
          "name": "F3",
          "ticks": 13634,
          "time": 17.752604166666668,
          "velocity": 1
        },
        {
          "duration": 0.13151041666666785,
          "durationTicks": 101,
          "midi": 64,
          "name": "E4",
          "ticks": 13753,
          "time": 17.907552083333332,
          "velocity": 1
        },
        {
          "duration": 0.13151041666666785,
          "durationTicks": 101,
          "midi": 55,
          "name": "G3",
          "ticks": 13753,
          "time": 17.907552083333332,
          "velocity": 1
        },
        {
          "duration": 0.59375,
          "durationTicks": 456,
          "midi": 60,
          "name": "C4",
          "ticks": 13872,
          "time": 18.0625,
          "velocity": 1
        },
        {
          "duration": 0.59375,
          "durationTicks": 456,
          "midi": 52,
          "name": "E3",
          "ticks": 13872,
          "time": 18.0625,
          "velocity": 1
        },
        {
          "duration": 0.1315104166666643,
          "durationTicks": 101,
          "midi": 64,
          "name": "E4",
          "ticks": 13991,
          "time": 18.217447916666668,
          "velocity": 1
        },
        {
          "duration": 0.1315104166666643,
          "durationTicks": 101,
          "midi": 55,
          "name": "G3",
          "ticks": 13991,
          "time": 18.217447916666668,
          "velocity": 1
        },
        {
          "duration": 0.13151041666666785,
          "durationTicks": 101,
          "midi": 62,
          "name": "D4",
          "ticks": 14110,
          "time": 18.372395833333332,
          "velocity": 1
        },
        {
          "duration": 0.13151041666666785,
          "durationTicks": 101,
          "midi": 53,
          "name": "F3",
          "ticks": 14110,
          "time": 18.372395833333332,
          "velocity": 1
        },
        {
          "duration": 0.13151041666666785,
          "durationTicks": 101,
          "midi": 64,
          "name": "E4",
          "ticks": 14229,
          "time": 18.52734375,
          "velocity": 1
        },
        {
          "duration": 0.13151041666666785,
          "durationTicks": 101,
          "midi": 55,
          "name": "G3",
          "ticks": 14229,
          "time": 18.52734375,
          "velocity": 1
        },
        {
          "duration": 1.2265625,
          "durationTicks": 942,
          "midi": 72,
          "name": "C5",
          "ticks": 14348,
          "time": 18.682291666666668,
          "velocity": 1
        },
        {
          "duration": 1.2265625,
          "durationTicks": 942,
          "midi": 46,
          "name": "A#2",
          "ticks": 14348,
          "time": 18.682291666666668,
          "velocity": 1
        },
        {
          "duration": 0.13151041666666785,
          "durationTicks": 101,
          "midi": 64,
          "name": "E4",
          "ticks": 14467,
          "time": 18.837239583333332,
          "velocity": 1
        },
        {
          "duration": 0.13151041666666785,
          "durationTicks": 101,
          "midi": 55,
          "name": "G3",
          "ticks": 14467,
          "time": 18.837239583333332,
          "velocity": 1
        },
        {
          "duration": 0.13151041666666785,
          "durationTicks": 101,
          "midi": 62,
          "name": "D4",
          "ticks": 14586,
          "time": 18.9921875,
          "velocity": 1
        },
        {
          "duration": 0.13151041666666785,
          "durationTicks": 101,
          "midi": 53,
          "name": "F3",
          "ticks": 14586,
          "time": 18.9921875,
          "velocity": 1
        },
        {
          "duration": 0.1315104166666643,
          "durationTicks": 101,
          "midi": 64,
          "name": "E4",
          "ticks": 14705,
          "time": 19.147135416666668,
          "velocity": 1
        },
        {
          "duration": 0.1315104166666643,
          "durationTicks": 101,
          "midi": 55,
          "name": "G3",
          "ticks": 14705,
          "time": 19.147135416666668,
          "velocity": 1
        },
        {
          "duration": 0.59375,
          "durationTicks": 456,
          "midi": 60,
          "name": "C4",
          "ticks": 14824,
          "time": 19.302083333333332,
          "velocity": 1
        },
        {
          "duration": 0.59375,
          "durationTicks": 456,
          "midi": 52,
          "name": "E3",
          "ticks": 14824,
          "time": 19.302083333333332,
          "velocity": 1
        },
        {
          "duration": 0.13151041666666785,
          "durationTicks": 101,
          "midi": 64,
          "name": "E4",
          "ticks": 14944,
          "time": 19.458333333333332,
          "velocity": 1
        },
        {
          "duration": 0.13151041666666785,
          "durationTicks": 101,
          "midi": 55,
          "name": "G3",
          "ticks": 14944,
          "time": 19.458333333333332,
          "velocity": 1
        },
        {
          "duration": 0.13151041666666785,
          "durationTicks": 101,
          "midi": 62,
          "name": "D4",
          "ticks": 15063,
          "time": 19.61328125,
          "velocity": 1
        },
        {
          "duration": 0.13151041666666785,
          "durationTicks": 101,
          "midi": 53,
          "name": "F3",
          "ticks": 15063,
          "time": 19.61328125,
          "velocity": 1
        },
        {
          "duration": 0.1315104166666643,
          "durationTicks": 101,
          "midi": 64,
          "name": "E4",
          "ticks": 15182,
          "time": 19.768229166666668,
          "velocity": 1
        },
        {
          "duration": 0.1315104166666643,
          "durationTicks": 101,
          "midi": 55,
          "name": "G3",
          "ticks": 15182,
          "time": 19.768229166666668,
          "velocity": 1
        },
        {
          "duration": 1.2265625,
          "durationTicks": 942,
          "midi": 72,
          "name": "C5",
          "ticks": 15301,
          "time": 19.923177083333332,
          "velocity": 1
        },
        {
          "duration": 1.2265625,
          "durationTicks": 942,
          "midi": 44,
          "name": "G#2",
          "ticks": 15301,
          "time": 19.923177083333332,
          "velocity": 1
        },
        {
          "duration": 0.13151041666666785,
          "durationTicks": 101,
          "midi": 65,
          "name": "F4",
          "ticks": 15420,
          "time": 20.078125,
          "velocity": 1
        },
        {
          "duration": 0.13151041666666785,
          "durationTicks": 101,
          "midi": 56,
          "name": "G#3",
          "ticks": 15420,
          "time": 20.078125,
          "velocity": 1
        },
        {
          "duration": 0.1315104166666643,
          "durationTicks": 101,
          "midi": 64,
          "name": "E4",
          "ticks": 15539,
          "time": 20.233072916666668,
          "velocity": 1
        },
        {
          "duration": 0.1315104166666643,
          "durationTicks": 101,
          "midi": 55,
          "name": "G3",
          "ticks": 15539,
          "time": 20.233072916666668,
          "velocity": 1
        },
        {
          "duration": 0.13151041666666785,
          "durationTicks": 101,
          "midi": 65,
          "name": "F4",
          "ticks": 15658,
          "time": 20.388020833333332,
          "velocity": 1
        },
        {
          "duration": 0.13151041666666785,
          "durationTicks": 101,
          "midi": 56,
          "name": "G#3",
          "ticks": 15658,
          "time": 20.388020833333332,
          "velocity": 1
        },
        {
          "duration": 0.59375,
          "durationTicks": 456,
          "midi": 60,
          "name": "C4",
          "ticks": 15777,
          "time": 20.54296875,
          "velocity": 1
        },
        {
          "duration": 0.59375,
          "durationTicks": 456,
          "midi": 53,
          "name": "F3",
          "ticks": 15777,
          "time": 20.54296875,
          "velocity": 1
        },
        {
          "duration": 0.1315104166666643,
          "durationTicks": 101,
          "midi": 65,
          "name": "F4",
          "ticks": 15896,
          "time": 20.697916666666668,
          "velocity": 1
        },
        {
          "duration": 0.1315104166666643,
          "durationTicks": 101,
          "midi": 56,
          "name": "G#3",
          "ticks": 15896,
          "time": 20.697916666666668,
          "velocity": 1
        },
        {
          "duration": 0.13151041666666785,
          "durationTicks": 101,
          "midi": 64,
          "name": "E4",
          "ticks": 16015,
          "time": 20.852864583333332,
          "velocity": 1
        },
        {
          "duration": 0.13151041666666785,
          "durationTicks": 101,
          "midi": 55,
          "name": "G3",
          "ticks": 16015,
          "time": 20.852864583333332,
          "velocity": 1
        },
        {
          "duration": 0.13151041666666785,
          "durationTicks": 101,
          "midi": 65,
          "name": "F4",
          "ticks": 16134,
          "time": 21.0078125,
          "velocity": 1
        },
        {
          "duration": 0.13151041666666785,
          "durationTicks": 101,
          "midi": 56,
          "name": "G#3",
          "ticks": 16134,
          "time": 21.0078125,
          "velocity": 1
        },
        {
          "duration": 1.2265625,
          "durationTicks": 942,
          "midi": 72,
          "name": "C5",
          "ticks": 16253,
          "time": 21.162760416666668,
          "velocity": 1
        },
        {
          "duration": 1.2265625,
          "durationTicks": 942,
          "midi": 44,
          "name": "G#2",
          "ticks": 16253,
          "time": 21.162760416666668,
          "velocity": 1
        },
        {
          "duration": 0.13151041666666785,
          "durationTicks": 101,
          "midi": 65,
          "name": "F4",
          "ticks": 16372,
          "time": 21.317708333333332,
          "velocity": 1
        },
        {
          "duration": 0.13151041666666785,
          "durationTicks": 101,
          "midi": 56,
          "name": "G#3",
          "ticks": 16372,
          "time": 21.317708333333332,
          "velocity": 1
        },
        {
          "duration": 0.13151041666666785,
          "durationTicks": 101,
          "midi": 64,
          "name": "E4",
          "ticks": 16491,
          "time": 21.47265625,
          "velocity": 1
        },
        {
          "duration": 0.13151041666666785,
          "durationTicks": 101,
          "midi": 55,
          "name": "G3",
          "ticks": 16491,
          "time": 21.47265625,
          "velocity": 1
        },
        {
          "duration": 0.1315104166666643,
          "durationTicks": 101,
          "midi": 65,
          "name": "F4",
          "ticks": 16610,
          "time": 21.627604166666668,
          "velocity": 1
        },
        {
          "duration": 0.1315104166666643,
          "durationTicks": 101,
          "midi": 56,
          "name": "G#3",
          "ticks": 16610,
          "time": 21.627604166666668,
          "velocity": 1
        },
        {
          "duration": 0.59375,
          "durationTicks": 456,
          "midi": 60,
          "name": "C4",
          "ticks": 16729,
          "time": 21.782552083333332,
          "velocity": 1
        },
        {
          "duration": 0.59375,
          "durationTicks": 456,
          "midi": 53,
          "name": "F3",
          "ticks": 16729,
          "time": 21.782552083333332,
          "velocity": 1
        },
        {
          "duration": 0.13151041666666785,
          "durationTicks": 101,
          "midi": 65,
          "name": "F4",
          "ticks": 16848,
          "time": 21.9375,
          "velocity": 1
        },
        {
          "duration": 0.13151041666666785,
          "durationTicks": 101,
          "midi": 56,
          "name": "G#3",
          "ticks": 16848,
          "time": 21.9375,
          "velocity": 1
        },
        {
          "duration": 0.1315104166666643,
          "durationTicks": 101,
          "midi": 64,
          "name": "E4",
          "ticks": 16967,
          "time": 22.092447916666668,
          "velocity": 1
        },
        {
          "duration": 0.1315104166666643,
          "durationTicks": 101,
          "midi": 55,
          "name": "G3",
          "ticks": 16967,
          "time": 22.092447916666668,
          "velocity": 1
        },
        {
          "duration": 0.13151041666666785,
          "durationTicks": 101,
          "midi": 65,
          "name": "F4",
          "ticks": 17086,
          "time": 22.247395833333332,
          "velocity": 1
        },
        {
          "duration": 0.13151041666666785,
          "durationTicks": 101,
          "midi": 56,
          "name": "G#3",
          "ticks": 17086,
          "time": 22.247395833333332,
          "velocity": 1
        },
        {
          "duration": 1.2265625,
          "durationTicks": 942,
          "midi": 70,
          "name": "A#4",
          "ticks": 17205,
          "time": 22.40234375,
          "velocity": 1
        },
        {
          "duration": 1.2265625,
          "durationTicks": 942,
          "midi": 44,
          "name": "G#2",
          "ticks": 17205,
          "time": 22.40234375,
          "velocity": 1
        },
        {
          "duration": 0.1315104166666643,
          "durationTicks": 101,
          "midi": 65,
          "name": "F4",
          "ticks": 17324,
          "time": 22.557291666666668,
          "velocity": 1
        },
        {
          "duration": 0.1315104166666643,
          "durationTicks": 101,
          "midi": 50,
          "name": "D3",
          "ticks": 17324,
          "time": 22.557291666666668,
          "velocity": 1
        },
        {
          "duration": 0.13151041666666785,
          "durationTicks": 101,
          "midi": 63,
          "name": "D#4",
          "ticks": 17443,
          "time": 22.712239583333332,
          "velocity": 1
        },
        {
          "duration": 0.13151041666666785,
          "durationTicks": 101,
          "midi": 48,
          "name": "C3",
          "ticks": 17443,
          "time": 22.712239583333332,
          "velocity": 1
        },
        {
          "duration": 0.13151041666666785,
          "durationTicks": 101,
          "midi": 65,
          "name": "F4",
          "ticks": 17562,
          "time": 22.8671875,
          "velocity": 1
        },
        {
          "duration": 0.13151041666666785,
          "durationTicks": 101,
          "midi": 50,
          "name": "D3",
          "ticks": 17562,
          "time": 22.8671875,
          "velocity": 1
        },
        {
          "duration": 0.59375,
          "durationTicks": 456,
          "midi": 62,
          "name": "D4",
          "ticks": 17681,
          "time": 23.022135416666668,
          "velocity": 1
        },
        {
          "duration": 0.59375,
          "durationTicks": 456,
          "midi": 53,
          "name": "F3",
          "ticks": 17681,
          "time": 23.022135416666668,
          "velocity": 1
        },
        {
          "duration": 0.13151041666666785,
          "durationTicks": 101,
          "midi": 65,
          "name": "F4",
          "ticks": 17800,
          "time": 23.177083333333332,
          "velocity": 1
        },
        {
          "duration": 0.13151041666666785,
          "durationTicks": 101,
          "midi": 50,
          "name": "D3",
          "ticks": 17800,
          "time": 23.177083333333332,
          "velocity": 1
        },
        {
          "duration": 0.13151041666666785,
          "durationTicks": 101,
          "midi": 63,
          "name": "D#4",
          "ticks": 17920,
          "time": 23.333333333333332,
          "velocity": 1
        },
        {
          "duration": 0.13151041666666785,
          "durationTicks": 101,
          "midi": 48,
          "name": "C3",
          "ticks": 17920,
          "time": 23.333333333333332,
          "velocity": 1
        },
        {
          "duration": 0.13151041666666785,
          "durationTicks": 101,
          "midi": 65,
          "name": "F4",
          "ticks": 18039,
          "time": 23.48828125,
          "velocity": 1
        },
        {
          "duration": 0.13151041666666785,
          "durationTicks": 101,
          "midi": 50,
          "name": "D3",
          "ticks": 18039,
          "time": 23.48828125,
          "velocity": 1
        },
        {
          "duration": 1.2265625,
          "durationTicks": 942,
          "midi": 70,
          "name": "A#4",
          "ticks": 18158,
          "time": 23.643229166666668,
          "velocity": 1
        },
        {
          "duration": 1.2265625,
          "durationTicks": 942,
          "midi": 44,
          "name": "G#2",
          "ticks": 18158,
          "time": 23.643229166666668,
          "velocity": 1
        },
        {
          "duration": 0.13151041666666785,
          "durationTicks": 101,
          "midi": 65,
          "name": "F4",
          "ticks": 18277,
          "time": 23.798177083333332,
          "velocity": 1
        },
        {
          "duration": 0.13151041666666785,
          "durationTicks": 101,
          "midi": 50,
          "name": "D3",
          "ticks": 18277,
          "time": 23.798177083333332,
          "velocity": 1
        },
        {
          "duration": 0.13151041666666785,
          "durationTicks": 101,
          "midi": 63,
          "name": "D#4",
          "ticks": 18396,
          "time": 23.953125,
          "velocity": 1
        },
        {
          "duration": 0.13151041666666785,
          "durationTicks": 101,
          "midi": 48,
          "name": "C3",
          "ticks": 18396,
          "time": 23.953125,
          "velocity": 1
        },
        {
          "duration": 0.1315104166666643,
          "durationTicks": 101,
          "midi": 65,
          "name": "F4",
          "ticks": 18515,
          "time": 24.108072916666668,
          "velocity": 1
        },
        {
          "duration": 0.1315104166666643,
          "durationTicks": 101,
          "midi": 50,
          "name": "D3",
          "ticks": 18515,
          "time": 24.108072916666668,
          "velocity": 1
        },
        {
          "duration": 0.59375,
          "durationTicks": 456,
          "midi": 62,
          "name": "D4",
          "ticks": 18634,
          "time": 24.263020833333332,
          "velocity": 1
        },
        {
          "duration": 0.59375,
          "durationTicks": 456,
          "midi": 53,
          "name": "F3",
          "ticks": 18634,
          "time": 24.263020833333332,
          "velocity": 1
        },
        {
          "duration": 0.13151041666666785,
          "durationTicks": 101,
          "midi": 65,
          "name": "F4",
          "ticks": 18753,
          "time": 24.41796875,
          "velocity": 1
        },
        {
          "duration": 0.13151041666666785,
          "durationTicks": 101,
          "midi": 50,
          "name": "D3",
          "ticks": 18753,
          "time": 24.41796875,
          "velocity": 1
        },
        {
          "duration": 0.1315104166666643,
          "durationTicks": 101,
          "midi": 63,
          "name": "D#4",
          "ticks": 18872,
          "time": 24.572916666666668,
          "velocity": 1
        },
        {
          "duration": 0.1315104166666643,
          "durationTicks": 101,
          "midi": 48,
          "name": "C3",
          "ticks": 18872,
          "time": 24.572916666666668,
          "velocity": 1
        },
        {
          "duration": 0.13151041666666785,
          "durationTicks": 101,
          "midi": 65,
          "name": "F4",
          "ticks": 18991,
          "time": 24.727864583333332,
          "velocity": 1
        },
        {
          "duration": 0.13151041666666785,
          "durationTicks": 101,
          "midi": 50,
          "name": "D3",
          "ticks": 18991,
          "time": 24.727864583333332,
          "velocity": 1
        },
        {
          "duration": 1.2265625,
          "durationTicks": 942,
          "midi": 70,
          "name": "A#4",
          "ticks": 19110,
          "time": 24.8828125,
          "velocity": 1
        },
        {
          "duration": 1.2265625,
          "durationTicks": 942,
          "midi": 43,
          "name": "G2",
          "ticks": 19110,
          "time": 24.8828125,
          "velocity": 1
        },
        {
          "duration": 0.1315104166666643,
          "durationTicks": 101,
          "midi": 67,
          "name": "G4",
          "ticks": 19229,
          "time": 25.037760416666668,
          "velocity": 1
        },
        {
          "duration": 0.1315104166666643,
          "durationTicks": 101,
          "midi": 51,
          "name": "D#3",
          "ticks": 19229,
          "time": 25.037760416666668,
          "velocity": 1
        },
        {
          "duration": 0.13151041666666785,
          "durationTicks": 101,
          "midi": 65,
          "name": "F4",
          "ticks": 19348,
          "time": 25.192708333333332,
          "velocity": 1
        },
        {
          "duration": 0.13151041666666785,
          "durationTicks": 101,
          "midi": 50,
          "name": "D3",
          "ticks": 19348,
          "time": 25.192708333333332,
          "velocity": 1
        },
        {
          "duration": 0.13151041666666785,
          "durationTicks": 101,
          "midi": 67,
          "name": "G4",
          "ticks": 19467,
          "time": 25.34765625,
          "velocity": 1
        },
        {
          "duration": 0.13151041666666785,
          "durationTicks": 101,
          "midi": 51,
          "name": "D#3",
          "ticks": 19467,
          "time": 25.34765625,
          "velocity": 1
        },
        {
          "duration": 0.59375,
          "durationTicks": 456,
          "midi": 63,
          "name": "D#4",
          "ticks": 19586,
          "time": 25.502604166666668,
          "velocity": 1
        },
        {
          "duration": 0.59375,
          "durationTicks": 456,
          "midi": 55,
          "name": "G3",
          "ticks": 19586,
          "time": 25.502604166666668,
          "velocity": 1
        },
        {
          "duration": 0.13151041666666785,
          "durationTicks": 101,
          "midi": 67,
          "name": "G4",
          "ticks": 19705,
          "time": 25.657552083333332,
          "velocity": 1
        },
        {
          "duration": 0.13151041666666785,
          "durationTicks": 101,
          "midi": 51,
          "name": "D#3",
          "ticks": 19705,
          "time": 25.657552083333332,
          "velocity": 1
        },
        {
          "duration": 0.13151041666666785,
          "durationTicks": 101,
          "midi": 65,
          "name": "F4",
          "ticks": 19824,
          "time": 25.8125,
          "velocity": 1
        },
        {
          "duration": 0.13151041666666785,
          "durationTicks": 101,
          "midi": 50,
          "name": "D3",
          "ticks": 19824,
          "time": 25.8125,
          "velocity": 1
        },
        {
          "duration": 0.1315104166666643,
          "durationTicks": 101,
          "midi": 67,
          "name": "G4",
          "ticks": 19943,
          "time": 25.967447916666668,
          "velocity": 1
        },
        {
          "duration": 0.1315104166666643,
          "durationTicks": 101,
          "midi": 51,
          "name": "D#3",
          "ticks": 19943,
          "time": 25.967447916666668,
          "velocity": 1
        },
        {
          "duration": 1.2265625,
          "durationTicks": 942,
          "midi": 70,
          "name": "A#4",
          "ticks": 20062,
          "time": 26.122395833333332,
          "velocity": 1
        },
        {
          "duration": 1.2265625,
          "durationTicks": 942,
          "midi": 43,
          "name": "G2",
          "ticks": 20062,
          "time": 26.122395833333332,
          "velocity": 1
        },
        {
          "duration": 0.13151041666666785,
          "durationTicks": 101,
          "midi": 67,
          "name": "G4",
          "ticks": 20181,
          "time": 26.27734375,
          "velocity": 1
        },
        {
          "duration": 0.13151041666666785,
          "durationTicks": 101,
          "midi": 51,
          "name": "D#3",
          "ticks": 20181,
          "time": 26.27734375,
          "velocity": 1
        },
        {
          "duration": 0.1315104166666643,
          "durationTicks": 101,
          "midi": 65,
          "name": "F4",
          "ticks": 20300,
          "time": 26.432291666666668,
          "velocity": 1
        },
        {
          "duration": 0.1315104166666643,
          "durationTicks": 101,
          "midi": 50,
          "name": "D3",
          "ticks": 20300,
          "time": 26.432291666666668,
          "velocity": 1
        },
        {
          "duration": 0.13151041666666785,
          "durationTicks": 101,
          "midi": 67,
          "name": "G4",
          "ticks": 20419,
          "time": 26.587239583333332,
          "velocity": 1
        },
        {
          "duration": 0.13151041666666785,
          "durationTicks": 101,
          "midi": 51,
          "name": "D#3",
          "ticks": 20419,
          "time": 26.587239583333332,
          "velocity": 1
        },
        {
          "duration": 0.59375,
          "durationTicks": 456,
          "midi": 63,
          "name": "D#4",
          "ticks": 20538,
          "time": 26.7421875,
          "velocity": 1
        },
        {
          "duration": 0.59375,
          "durationTicks": 456,
          "midi": 55,
          "name": "G3",
          "ticks": 20538,
          "time": 26.7421875,
          "velocity": 1
        },
        {
          "duration": 0.1315104166666643,
          "durationTicks": 101,
          "midi": 67,
          "name": "G4",
          "ticks": 20657,
          "time": 26.897135416666668,
          "velocity": 1
        },
        {
          "duration": 0.1315104166666643,
          "durationTicks": 101,
          "midi": 51,
          "name": "D#3",
          "ticks": 20657,
          "time": 26.897135416666668,
          "velocity": 1
        },
        {
          "duration": 0.13151041666666785,
          "durationTicks": 101,
          "midi": 65,
          "name": "F4",
          "ticks": 20776,
          "time": 27.052083333333332,
          "velocity": 1
        },
        {
          "duration": 0.13151041666666785,
          "durationTicks": 101,
          "midi": 50,
          "name": "D3",
          "ticks": 20776,
          "time": 27.052083333333332,
          "velocity": 1
        },
        {
          "duration": 0.13151041666666785,
          "durationTicks": 101,
          "midi": 67,
          "name": "G4",
          "ticks": 20896,
          "time": 27.208333333333332,
          "velocity": 1
        },
        {
          "duration": 0.13151041666666785,
          "durationTicks": 101,
          "midi": 51,
          "name": "D#3",
          "ticks": 20896,
          "time": 27.208333333333332,
          "velocity": 1
        },
        {
          "duration": 1.2265625,
          "durationTicks": 942,
          "midi": 68,
          "name": "G#4",
          "ticks": 21015,
          "time": 27.36328125,
          "velocity": 1
        },
        {
          "duration": 1.2265625,
          "durationTicks": 942,
          "midi": 48,
          "name": "C3",
          "ticks": 21015,
          "time": 27.36328125,
          "velocity": 1
        },
        {
          "duration": 0.1315104166666643,
          "durationTicks": 101,
          "midi": 67,
          "name": "G4",
          "ticks": 21134,
          "time": 27.518229166666668,
          "velocity": 1
        },
        {
          "duration": 0.1315104166666643,
          "durationTicks": 101,
          "midi": 51,
          "name": "D#3",
          "ticks": 21134,
          "time": 27.518229166666668,
          "velocity": 1
        },
        {
          "duration": 0.13151041666666785,
          "durationTicks": 101,
          "midi": 65,
          "name": "F4",
          "ticks": 21253,
          "time": 27.673177083333332,
          "velocity": 1
        },
        {
          "duration": 0.13151041666666785,
          "durationTicks": 101,
          "midi": 50,
          "name": "D3",
          "ticks": 21253,
          "time": 27.673177083333332,
          "velocity": 1
        },
        {
          "duration": 0.13151041666666785,
          "durationTicks": 101,
          "midi": 67,
          "name": "G4",
          "ticks": 21372,
          "time": 27.828125,
          "velocity": 1
        },
        {
          "duration": 0.13151041666666785,
          "durationTicks": 101,
          "midi": 51,
          "name": "D#3",
          "ticks": 21372,
          "time": 27.828125,
          "velocity": 1
        },
        {
          "duration": 0.05208333333333215,
          "durationTicks": 40,
          "midi": 63,
          "name": "D#4",
          "ticks": 21491,
          "time": 27.983072916666668,
          "velocity": 1
        },
        {
          "duration": 0.5208333333333321,
          "durationTicks": 400,
          "midi": 56,
          "name": "G#3",
          "ticks": 21491,
          "time": 27.983072916666668,
          "velocity": 1
        },
        {
          "duration": 0.13151041666666785,
          "durationTicks": 101,
          "midi": 67,
          "name": "G4",
          "ticks": 21610,
          "time": 28.138020833333332,
          "velocity": 1
        },
        {
          "duration": 0.13151041666666785,
          "durationTicks": 101,
          "midi": 51,
          "name": "D#3",
          "ticks": 21610,
          "time": 28.138020833333332,
          "velocity": 1
        },
        {
          "duration": 0.13151041666666785,
          "durationTicks": 101,
          "midi": 65,
          "name": "F4",
          "ticks": 21729,
          "time": 28.29296875,
          "velocity": 1
        },
        {
          "duration": 0.13151041666666785,
          "durationTicks": 101,
          "midi": 50,
          "name": "D3",
          "ticks": 21729,
          "time": 28.29296875,
          "velocity": 1
        },
        {
          "duration": 0.1315104166666643,
          "durationTicks": 101,
          "midi": 67,
          "name": "G4",
          "ticks": 21848,
          "time": 28.447916666666668,
          "velocity": 1
        },
        {
          "duration": 0.1315104166666643,
          "durationTicks": 101,
          "midi": 51,
          "name": "D#3",
          "ticks": 21848,
          "time": 28.447916666666668,
          "velocity": 1
        },
        {
          "duration": 1.2265625,
          "durationTicks": 942,
          "midi": 68,
          "name": "G#4",
          "ticks": 21967,
          "time": 28.602864583333332,
          "velocity": 1
        },
        {
          "duration": 1.2265625,
          "durationTicks": 942,
          "midi": 48,
          "name": "C3",
          "ticks": 21967,
          "time": 28.602864583333332,
          "velocity": 1
        },
        {
          "duration": 0.13151041666666785,
          "durationTicks": 101,
          "midi": 67,
          "name": "G4",
          "ticks": 22086,
          "time": 28.7578125,
          "velocity": 1
        },
        {
          "duration": 0.13151041666666785,
          "durationTicks": 101,
          "midi": 51,
          "name": "D#3",
          "ticks": 22086,
          "time": 28.7578125,
          "velocity": 1
        },
        {
          "duration": 0.1315104166666643,
          "durationTicks": 101,
          "midi": 65,
          "name": "F4",
          "ticks": 22205,
          "time": 28.912760416666668,
          "velocity": 1
        },
        {
          "duration": 0.1315104166666643,
          "durationTicks": 101,
          "midi": 50,
          "name": "D3",
          "ticks": 22205,
          "time": 28.912760416666668,
          "velocity": 1
        },
        {
          "duration": 0.13151041666666785,
          "durationTicks": 101,
          "midi": 67,
          "name": "G4",
          "ticks": 22324,
          "time": 29.067708333333332,
          "velocity": 1
        },
        {
          "duration": 0.13151041666666785,
          "durationTicks": 101,
          "midi": 51,
          "name": "D#3",
          "ticks": 22324,
          "time": 29.067708333333332,
          "velocity": 1
        },
        {
          "duration": 0.45572916666666785,
          "durationTicks": 350,
          "midi": 63,
          "name": "D#4",
          "ticks": 22443,
          "time": 29.22265625,
          "velocity": 1
        },
        {
          "duration": 0.45572916666666785,
          "durationTicks": 350,
          "midi": 56,
          "name": "G#3",
          "ticks": 22443,
          "time": 29.22265625,
          "velocity": 1
        },
        {
          "duration": 0.1315104166666643,
          "durationTicks": 101,
          "midi": 67,
          "name": "G4",
          "ticks": 22562,
          "time": 29.377604166666668,
          "velocity": 1
        },
        {
          "duration": 0.1315104166666643,
          "durationTicks": 101,
          "midi": 51,
          "name": "D#3",
          "ticks": 22562,
          "time": 29.377604166666668,
          "velocity": 1
        },
        {
          "duration": 0.13151041666666785,
          "durationTicks": 101,
          "midi": 65,
          "name": "F4",
          "ticks": 22681,
          "time": 29.532552083333332,
          "velocity": 1
        },
        {
          "duration": 0.13151041666666785,
          "durationTicks": 101,
          "midi": 50,
          "name": "D3",
          "ticks": 22681,
          "time": 29.532552083333332,
          "velocity": 1
        },
        {
          "duration": 0.13151041666666785,
          "durationTicks": 101,
          "midi": 67,
          "name": "G4",
          "ticks": 22800,
          "time": 29.6875,
          "velocity": 1
        },
        {
          "duration": 0.13151041666666785,
          "durationTicks": 101,
          "midi": 51,
          "name": "D#3",
          "ticks": 22800,
          "time": 29.6875,
          "velocity": 1
        },
        {
          "duration": 1.2265625,
          "durationTicks": 942,
          "midi": 68,
          "name": "G#4",
          "ticks": 22919,
          "time": 29.842447916666668,
          "velocity": 1
        },
        {
          "duration": 1.2265625,
          "durationTicks": 942,
          "midi": 50,
          "name": "D3",
          "ticks": 22919,
          "time": 29.842447916666668,
          "velocity": 1
        },
        {
          "duration": 0.13151041666666785,
          "durationTicks": 101,
          "midi": 62,
          "name": "D4",
          "ticks": 23038,
          "time": 29.997395833333332,
          "velocity": 1
        },
        {
          "duration": 0.13151041666666785,
          "durationTicks": 101,
          "midi": 53,
          "name": "F3",
          "ticks": 23038,
          "time": 29.997395833333332,
          "velocity": 1
        },
        {
          "duration": 0.13151041666666785,
          "durationTicks": 101,
          "midi": 60,
          "name": "C4",
          "ticks": 23157,
          "time": 30.15234375,
          "velocity": 1
        },
        {
          "duration": 0.13151041666666785,
          "durationTicks": 101,
          "midi": 51,
          "name": "D#3",
          "ticks": 23157,
          "time": 30.15234375,
          "velocity": 1
        },
        {
          "duration": 0.1315104166666643,
          "durationTicks": 101,
          "midi": 62,
          "name": "D4",
          "ticks": 23276,
          "time": 30.307291666666668,
          "velocity": 1
        },
        {
          "duration": 0.1315104166666643,
          "durationTicks": 101,
          "midi": 53,
          "name": "F3",
          "ticks": 23276,
          "time": 30.307291666666668,
          "velocity": 1
        },
        {
          "duration": 0.45572916666666785,
          "durationTicks": 350,
          "midi": 58,
          "name": "A#3",
          "ticks": 23395,
          "time": 30.462239583333332,
          "velocity": 1
        },
        {
          "duration": 0.45572916666666785,
          "durationTicks": 350,
          "midi": 56,
          "name": "G#3",
          "ticks": 23395,
          "time": 30.462239583333332,
          "velocity": 1
        },
        {
          "duration": 0.13151041666666785,
          "durationTicks": 101,
          "midi": 62,
          "name": "D4",
          "ticks": 23514,
          "time": 30.6171875,
          "velocity": 1
        },
        {
          "duration": 0.13151041666666785,
          "durationTicks": 101,
          "midi": 53,
          "name": "F3",
          "ticks": 23514,
          "time": 30.6171875,
          "velocity": 1
        },
        {
          "duration": 0.1315104166666643,
          "durationTicks": 101,
          "midi": 60,
          "name": "C4",
          "ticks": 23633,
          "time": 30.772135416666668,
          "velocity": 1
        },
        {
          "duration": 0.1315104166666643,
          "durationTicks": 101,
          "midi": 51,
          "name": "D#3",
          "ticks": 23633,
          "time": 30.772135416666668,
          "velocity": 1
        },
        {
          "duration": 0.13151041666666785,
          "durationTicks": 101,
          "midi": 62,
          "name": "D4",
          "ticks": 23752,
          "time": 30.927083333333332,
          "velocity": 1
        },
        {
          "duration": 0.13151041666666785,
          "durationTicks": 101,
          "midi": 53,
          "name": "F3",
          "ticks": 23752,
          "time": 30.927083333333332,
          "velocity": 1
        },
        {
          "duration": 1.2265625000000036,
          "durationTicks": 942,
          "midi": 68,
          "name": "G#4",
          "ticks": 23872,
          "time": 31.083333333333332,
          "velocity": 1
        },
        {
          "duration": 1.2265625000000036,
          "durationTicks": 942,
          "midi": 50,
          "name": "D3",
          "ticks": 23872,
          "time": 31.083333333333332,
          "velocity": 1
        },
        {
          "duration": 0.13151041666666785,
          "durationTicks": 101,
          "midi": 62,
          "name": "D4",
          "ticks": 23991,
          "time": 31.23828125,
          "velocity": 1
        },
        {
          "duration": 0.13151041666666785,
          "durationTicks": 101,
          "midi": 53,
          "name": "F3",
          "ticks": 23991,
          "time": 31.23828125,
          "velocity": 1
        },
        {
          "duration": 0.1315104166666643,
          "durationTicks": 101,
          "midi": 60,
          "name": "C4",
          "ticks": 24110,
          "time": 31.393229166666668,
          "velocity": 1
        },
        {
          "duration": 0.1315104166666643,
          "durationTicks": 101,
          "midi": 51,
          "name": "D#3",
          "ticks": 24110,
          "time": 31.393229166666668,
          "velocity": 1
        },
        {
          "duration": 0.13151041666666785,
          "durationTicks": 101,
          "midi": 62,
          "name": "D4",
          "ticks": 24229,
          "time": 31.548177083333332,
          "velocity": 1
        },
        {
          "duration": 0.13151041666666785,
          "durationTicks": 101,
          "midi": 53,
          "name": "F3",
          "ticks": 24229,
          "time": 31.548177083333332,
          "velocity": 1
        },
        {
          "duration": 0.390625,
          "durationTicks": 300,
          "midi": 58,
          "name": "A#3",
          "ticks": 24348,
          "time": 31.703125,
          "velocity": 1
        },
        {
          "duration": 0.390625,
          "durationTicks": 300,
          "midi": 56,
          "name": "G#3",
          "ticks": 24348,
          "time": 31.703125,
          "velocity": 1
        },
        {
          "duration": 0.1315104166666643,
          "durationTicks": 101,
          "midi": 62,
          "name": "D4",
          "ticks": 24467,
          "time": 31.858072916666668,
          "velocity": 1
        },
        {
          "duration": 0.1315104166666643,
          "durationTicks": 101,
          "midi": 53,
          "name": "F3",
          "ticks": 24467,
          "time": 31.858072916666668,
          "velocity": 1
        },
        {
          "duration": 0.1315104166666643,
          "durationTicks": 101,
          "midi": 60,
          "name": "C4",
          "ticks": 24586,
          "time": 32.013020833333336,
          "velocity": 1
        },
        {
          "duration": 0.1315104166666643,
          "durationTicks": 101,
          "midi": 51,
          "name": "D#3",
          "ticks": 24586,
          "time": 32.013020833333336,
          "velocity": 1
        },
        {
          "duration": 0.1315104166666643,
          "durationTicks": 101,
          "midi": 62,
          "name": "D4",
          "ticks": 24705,
          "time": 32.16796875,
          "velocity": 1
        },
        {
          "duration": 0.1315104166666643,
          "durationTicks": 101,
          "midi": 53,
          "name": "F3",
          "ticks": 24705,
          "time": 32.16796875,
          "velocity": 1
        },
        {
          "duration": 0.61328125,
          "durationTicks": 471,
          "midi": 67,
          "name": "G4",
          "ticks": 24824,
          "time": 32.322916666666664,
          "velocity": 1
        },
        {
          "duration": 1.2265625,
          "durationTicks": 942,
          "midi": 51,
          "name": "D#3",
          "ticks": 24824,
          "time": 32.322916666666664,
          "velocity": 1
        },
        {
          "duration": 0.1315104166666643,
          "durationTicks": 101,
          "midi": 58,
          "name": "A#3",
          "ticks": 24943,
          "time": 32.477864583333336,
          "velocity": 1
        },
        {
          "duration": 0.1315104166666643,
          "durationTicks": 101,
          "midi": 55,
          "name": "G3",
          "ticks": 24943,
          "time": 32.477864583333336,
          "velocity": 1
        },
        {
          "duration": 0.1315104166666643,
          "durationTicks": 101,
          "midi": 56,
          "name": "G#3",
          "ticks": 25062,
          "time": 32.6328125,
          "velocity": 1
        },
        {
          "duration": 0.1315104166666643,
          "durationTicks": 101,
          "midi": 53,
          "name": "F3",
          "ticks": 25062,
          "time": 32.6328125,
          "velocity": 1
        },
        {
          "duration": 0.1315104166666714,
          "durationTicks": 101,
          "midi": 58,
          "name": "A#3",
          "ticks": 25181,
          "time": 32.787760416666664,
          "velocity": 1
        },
        {
          "duration": 0.1315104166666714,
          "durationTicks": 101,
          "midi": 55,
          "name": "G3",
          "ticks": 25181,
          "time": 32.787760416666664,
          "velocity": 1
        },
        {
          "duration": 0.61328125,
          "durationTicks": 471,
          "midi": 63,
          "name": "D#4",
          "ticks": 25300,
          "time": 32.942708333333336,
          "velocity": 1
        },
        {
          "duration": 0.1315104166666643,
          "durationTicks": 101,
          "midi": 56,
          "name": "G#3",
          "ticks": 25300,
          "time": 32.942708333333336,
          "velocity": 1
        },
        {
          "duration": 0.1315104166666643,
          "durationTicks": 101,
          "midi": 58,
          "name": "A#3",
          "ticks": 25419,
          "time": 33.09765625,
          "velocity": 1
        },
        {
          "duration": 0.1315104166666643,
          "durationTicks": 101,
          "midi": 55,
          "name": "G3",
          "ticks": 25419,
          "time": 33.09765625,
          "velocity": 1
        },
        {
          "duration": 0.1315104166666714,
          "durationTicks": 101,
          "midi": 56,
          "name": "G#3",
          "ticks": 25538,
          "time": 33.252604166666664,
          "velocity": 1
        },
        {
          "duration": 0.1315104166666714,
          "durationTicks": 101,
          "midi": 53,
          "name": "F3",
          "ticks": 25538,
          "time": 33.252604166666664,
          "velocity": 1
        },
        {
          "duration": 0.1315104166666643,
          "durationTicks": 101,
          "midi": 58,
          "name": "A#3",
          "ticks": 25657,
          "time": 33.407552083333336,
          "velocity": 1
        },
        {
          "duration": 0.1315104166666643,
          "durationTicks": 101,
          "midi": 55,
          "name": "G3",
          "ticks": 25657,
          "time": 33.407552083333336,
          "velocity": 1
        },
        {
          "duration": 0.61328125,
          "durationTicks": 471,
          "midi": 67,
          "name": "G4",
          "ticks": 25776,
          "time": 33.5625,
          "velocity": 1
        },
        {
          "duration": 1.2265625,
          "durationTicks": 942,
          "midi": 51,
          "name": "D#3",
          "ticks": 25776,
          "time": 33.5625,
          "velocity": 1
        },
        {
          "duration": 0.1315104166666714,
          "durationTicks": 101,
          "midi": 58,
          "name": "A#3",
          "ticks": 25895,
          "time": 33.717447916666664,
          "velocity": 1
        },
        {
          "duration": 0.1315104166666714,
          "durationTicks": 101,
          "midi": 55,
          "name": "G3",
          "ticks": 25895,
          "time": 33.717447916666664,
          "velocity": 1
        },
        {
          "duration": 0.1315104166666643,
          "durationTicks": 101,
          "midi": 56,
          "name": "G#3",
          "ticks": 26014,
          "time": 33.872395833333336,
          "velocity": 1
        },
        {
          "duration": 0.1315104166666643,
          "durationTicks": 101,
          "midi": 53,
          "name": "F3",
          "ticks": 26014,
          "time": 33.872395833333336,
          "velocity": 1
        },
        {
          "duration": 0.1315104166666643,
          "durationTicks": 101,
          "midi": 58,
          "name": "A#3",
          "ticks": 26133,
          "time": 34.02734375,
          "velocity": 1
        },
        {
          "duration": 0.1315104166666643,
          "durationTicks": 101,
          "midi": 55,
          "name": "G3",
          "ticks": 26133,
          "time": 34.02734375,
          "velocity": 1
        },
        {
          "duration": 0.61328125,
          "durationTicks": 471,
          "midi": 63,
          "name": "D#4",
          "ticks": 26252,
          "time": 34.182291666666664,
          "velocity": 1
        },
        {
          "duration": 0.1315104166666714,
          "durationTicks": 101,
          "midi": 56,
          "name": "G#3",
          "ticks": 26252,
          "time": 34.182291666666664,
          "velocity": 1
        },
        {
          "duration": 0.1315104166666643,
          "durationTicks": 101,
          "midi": 58,
          "name": "A#3",
          "ticks": 26371,
          "time": 34.337239583333336,
          "velocity": 1
        },
        {
          "duration": 0.1315104166666643,
          "durationTicks": 101,
          "midi": 55,
          "name": "G3",
          "ticks": 26371,
          "time": 34.337239583333336,
          "velocity": 1
        },
        {
          "duration": 0.1315104166666643,
          "durationTicks": 101,
          "midi": 56,
          "name": "G#3",
          "ticks": 26490,
          "time": 34.4921875,
          "velocity": 1
        },
        {
          "duration": 0.1315104166666643,
          "durationTicks": 101,
          "midi": 53,
          "name": "F3",
          "ticks": 26490,
          "time": 34.4921875,
          "velocity": 1
        },
        {
          "duration": 0.1315104166666714,
          "durationTicks": 101,
          "midi": 58,
          "name": "A#3",
          "ticks": 26609,
          "time": 34.647135416666664,
          "velocity": 1
        },
        {
          "duration": 0.1315104166666714,
          "durationTicks": 101,
          "midi": 55,
          "name": "G3",
          "ticks": 26609,
          "time": 34.647135416666664,
          "velocity": 1
        },
        {
          "duration": 1.2265625,
          "durationTicks": 942,
          "midi": 65,
          "name": "F4",
          "ticks": 26728,
          "time": 34.802083333333336,
          "velocity": 1
        },
        {
          "duration": 1.2265625,
          "durationTicks": 942,
          "midi": 51,
          "name": "D#3",
          "ticks": 26728,
          "time": 34.802083333333336,
          "velocity": 1
        },
        {
          "duration": 0.1315104166666643,
          "durationTicks": 101,
          "midi": 60,
          "name": "C4",
          "ticks": 26848,
          "time": 34.958333333333336,
          "velocity": 1
        },
        {
          "duration": 0.1315104166666643,
          "durationTicks": 101,
          "midi": 57,
          "name": "A3",
          "ticks": 26848,
          "time": 34.958333333333336,
          "velocity": 1
        },
        {
          "duration": 0.1315104166666643,
          "durationTicks": 101,
          "midi": 58,
          "name": "A#3",
          "ticks": 26967,
          "time": 35.11328125,
          "velocity": 1
        },
        {
          "duration": 0.1315104166666643,
          "durationTicks": 101,
          "midi": 55,
          "name": "G3",
          "ticks": 26967,
          "time": 35.11328125,
          "velocity": 1
        },
        {
          "duration": 0.1315104166666714,
          "durationTicks": 101,
          "midi": 60,
          "name": "C4",
          "ticks": 27086,
          "time": 35.268229166666664,
          "velocity": 1
        },
        {
          "duration": 0.1315104166666714,
          "durationTicks": 101,
          "midi": 57,
          "name": "A3",
          "ticks": 27086,
          "time": 35.268229166666664,
          "velocity": 1
        },
        {
          "duration": 0.1315104166666643,
          "durationTicks": 101,
          "midi": 57,
          "name": "A3",
          "ticks": 27205,
          "time": 35.423177083333336,
          "velocity": 1
        },
        {
          "duration": 0.59375,
          "durationTicks": 456,
          "midi": 53,
          "name": "F3",
          "ticks": 27205,
          "time": 35.423177083333336,
          "velocity": 1
        },
        {
          "duration": 0.1315104166666643,
          "durationTicks": 101,
          "midi": 60,
          "name": "C4",
          "ticks": 27324,
          "time": 35.578125,
          "velocity": 1
        },
        {
          "duration": 0.1315104166666643,
          "durationTicks": 101,
          "midi": 57,
          "name": "A3",
          "ticks": 27324,
          "time": 35.578125,
          "velocity": 1
        },
        {
          "duration": 0.1315104166666714,
          "durationTicks": 101,
          "midi": 58,
          "name": "A#3",
          "ticks": 27443,
          "time": 35.733072916666664,
          "velocity": 1
        },
        {
          "duration": 0.1315104166666714,
          "durationTicks": 101,
          "midi": 55,
          "name": "G3",
          "ticks": 27443,
          "time": 35.733072916666664,
          "velocity": 1
        },
        {
          "duration": 0.1315104166666643,
          "durationTicks": 101,
          "midi": 60,
          "name": "C4",
          "ticks": 27562,
          "time": 35.888020833333336,
          "velocity": 1
        },
        {
          "duration": 0.1315104166666643,
          "durationTicks": 101,
          "midi": 57,
          "name": "A3",
          "ticks": 27562,
          "time": 35.888020833333336,
          "velocity": 1
        },
        {
          "duration": 1.2265625,
          "durationTicks": 942,
          "midi": 65,
          "name": "F4",
          "ticks": 27681,
          "time": 36.04296875,
          "velocity": 1
        },
        {
          "duration": 1.2265625,
          "durationTicks": 942,
          "midi": 51,
          "name": "D#3",
          "ticks": 27681,
          "time": 36.04296875,
          "velocity": 1
        },
        {
          "duration": 0.1315104166666714,
          "durationTicks": 101,
          "midi": 60,
          "name": "C4",
          "ticks": 27800,
          "time": 36.197916666666664,
          "velocity": 1
        },
        {
          "duration": 0.1315104166666714,
          "durationTicks": 101,
          "midi": 57,
          "name": "A3",
          "ticks": 27800,
          "time": 36.197916666666664,
          "velocity": 1
        },
        {
          "duration": 0.1315104166666643,
          "durationTicks": 101,
          "midi": 58,
          "name": "A#3",
          "ticks": 27919,
          "time": 36.352864583333336,
          "velocity": 1
        },
        {
          "duration": 0.1315104166666643,
          "durationTicks": 101,
          "midi": 55,
          "name": "G3",
          "ticks": 27919,
          "time": 36.352864583333336,
          "velocity": 1
        },
        {
          "duration": 0.1315104166666643,
          "durationTicks": 101,
          "midi": 60,
          "name": "C4",
          "ticks": 28038,
          "time": 36.5078125,
          "velocity": 1
        },
        {
          "duration": 0.1315104166666643,
          "durationTicks": 101,
          "midi": 57,
          "name": "A3",
          "ticks": 28038,
          "time": 36.5078125,
          "velocity": 1
        },
        {
          "duration": 0.1315104166666714,
          "durationTicks": 101,
          "midi": 57,
          "name": "A3",
          "ticks": 28157,
          "time": 36.662760416666664,
          "velocity": 1
        },
        {
          "duration": 0.5885416666666714,
          "durationTicks": 452,
          "midi": 53,
          "name": "F3",
          "ticks": 28157,
          "time": 36.662760416666664,
          "velocity": 1
        },
        {
          "duration": 0.1315104166666643,
          "durationTicks": 101,
          "midi": 60,
          "name": "C4",
          "ticks": 28276,
          "time": 36.817708333333336,
          "velocity": 1
        },
        {
          "duration": 0.1315104166666643,
          "durationTicks": 101,
          "midi": 57,
          "name": "A3",
          "ticks": 28276,
          "time": 36.817708333333336,
          "velocity": 1
        },
        {
          "duration": 0.1315104166666643,
          "durationTicks": 101,
          "midi": 58,
          "name": "A#3",
          "ticks": 28395,
          "time": 36.97265625,
          "velocity": 1
        },
        {
          "duration": 0.1315104166666643,
          "durationTicks": 101,
          "midi": 55,
          "name": "G3",
          "ticks": 28395,
          "time": 36.97265625,
          "velocity": 1
        },
        {
          "duration": 0.1315104166666714,
          "durationTicks": 101,
          "midi": 60,
          "name": "C4",
          "ticks": 28514,
          "time": 37.127604166666664,
          "velocity": 1
        },
        {
          "duration": 0.1315104166666714,
          "durationTicks": 101,
          "midi": 57,
          "name": "A3",
          "ticks": 28514,
          "time": 37.127604166666664,
          "velocity": 1
        },
        {
          "duration": 1.2265625,
          "durationTicks": 942,
          "midi": 65,
          "name": "F4",
          "ticks": 28633,
          "time": 37.282552083333336,
          "velocity": 1
        },
        {
          "duration": 1.2265625,
          "durationTicks": 942,
          "midi": 50,
          "name": "D3",
          "ticks": 28633,
          "time": 37.282552083333336,
          "velocity": 1
        },
        {
          "duration": 0.1315104166666643,
          "durationTicks": 101,
          "midi": 62,
          "name": "D4",
          "ticks": 28752,
          "time": 37.4375,
          "velocity": 1
        },
        {
          "duration": 0.1315104166666643,
          "durationTicks": 101,
          "midi": 53,
          "name": "F3",
          "ticks": 28752,
          "time": 37.4375,
          "velocity": 1
        },
        {
          "duration": 0.1315104166666714,
          "durationTicks": 101,
          "midi": 60,
          "name": "C4",
          "ticks": 28871,
          "time": 37.592447916666664,
          "velocity": 1
        },
        {
          "duration": 0.1315104166666714,
          "durationTicks": 101,
          "midi": 51,
          "name": "D#3",
          "ticks": 28871,
          "time": 37.592447916666664,
          "velocity": 1
        },
        {
          "duration": 0.1315104166666643,
          "durationTicks": 101,
          "midi": 62,
          "name": "D4",
          "ticks": 28990,
          "time": 37.747395833333336,
          "velocity": 1
        },
        {
          "duration": 0.1315104166666643,
          "durationTicks": 101,
          "midi": 53,
          "name": "F3",
          "ticks": 28990,
          "time": 37.747395833333336,
          "velocity": 1
        },
        {
          "duration": 0.7161458333333357,
          "durationTicks": 550,
          "midi": 59,
          "name": "B3",
          "ticks": 29109,
          "time": 37.90234375,
          "velocity": 1
        },
        {
          "duration": 0.3059895833333357,
          "durationTicks": 235,
          "midi": 56,
          "name": "G#3",
          "ticks": 29109,
          "time": 37.90234375,
          "velocity": 1
        },
        {
          "duration": 0.1315104166666714,
          "durationTicks": 101,
          "midi": 62,
          "name": "D4",
          "ticks": 29228,
          "time": 38.057291666666664,
          "velocity": 1
        },
        {
          "duration": 0.1315104166666714,
          "durationTicks": 101,
          "midi": 53,
          "name": "F3",
          "ticks": 29228,
          "time": 38.057291666666664,
          "velocity": 1
        },
        {
          "duration": 0.1315104166666643,
          "durationTicks": 101,
          "midi": 60,
          "name": "C4",
          "ticks": 29347,
          "time": 38.212239583333336,
          "velocity": 1
        },
        {
          "duration": 0.1315104166666643,
          "durationTicks": 101,
          "midi": 51,
          "name": "D#3",
          "ticks": 29347,
          "time": 38.212239583333336,
          "velocity": 1
        },
        {
          "duration": 0.1315104166666643,
          "durationTicks": 101,
          "midi": 62,
          "name": "D4",
          "ticks": 29466,
          "time": 38.3671875,
          "velocity": 1
        },
        {
          "duration": 0.1315104166666643,
          "durationTicks": 101,
          "midi": 53,
          "name": "F3",
          "ticks": 29466,
          "time": 38.3671875,
          "velocity": 1
        },
        {
          "duration": 1.2265625,
          "durationTicks": 942,
          "midi": 65,
          "name": "F4",
          "ticks": 29585,
          "time": 38.522135416666664,
          "velocity": 1
        },
        {
          "duration": 1.2265625,
          "durationTicks": 942,
          "midi": 50,
          "name": "D3",
          "ticks": 29585,
          "time": 38.522135416666664,
          "velocity": 1
        },
        {
          "duration": 0.1315104166666643,
          "durationTicks": 101,
          "midi": 62,
          "name": "D4",
          "ticks": 29704,
          "time": 38.677083333333336,
          "velocity": 1
        },
        {
          "duration": 0.1315104166666643,
          "durationTicks": 101,
          "midi": 53,
          "name": "F3",
          "ticks": 29704,
          "time": 38.677083333333336,
          "velocity": 1
        },
        {
          "duration": 0.1315104166666643,
          "durationTicks": 101,
          "midi": 60,
          "name": "C4",
          "ticks": 29824,
          "time": 38.833333333333336,
          "velocity": 1
        },
        {
          "duration": 0.1315104166666643,
          "durationTicks": 101,
          "midi": 51,
          "name": "D#3",
          "ticks": 29824,
          "time": 38.833333333333336,
          "velocity": 1
        },
        {
          "duration": 0.1315104166666643,
          "durationTicks": 101,
          "midi": 62,
          "name": "D4",
          "ticks": 29943,
          "time": 38.98828125,
          "velocity": 1
        },
        {
          "duration": 0.1315104166666643,
          "durationTicks": 101,
          "midi": 53,
          "name": "F3",
          "ticks": 29943,
          "time": 38.98828125,
          "velocity": 1
        },
        {
          "duration": 0.5859375,
          "durationTicks": 450,
          "midi": 59,
          "name": "B3",
          "ticks": 30062,
          "time": 39.143229166666664,
          "velocity": 1
        },
        {
          "duration": 0.3059895833333357,
          "durationTicks": 235,
          "midi": 56,
          "name": "G#3",
          "ticks": 30062,
          "time": 39.143229166666664,
          "velocity": 1
        },
        {
          "duration": 0.1315104166666643,
          "durationTicks": 101,
          "midi": 62,
          "name": "D4",
          "ticks": 30181,
          "time": 39.298177083333336,
          "velocity": 1
        },
        {
          "duration": 0.1315104166666643,
          "durationTicks": 101,
          "midi": 53,
          "name": "F3",
          "ticks": 30181,
          "time": 39.298177083333336,
          "velocity": 1
        },
        {
          "duration": 0.1315104166666643,
          "durationTicks": 101,
          "midi": 60,
          "name": "C4",
          "ticks": 30300,
          "time": 39.453125,
          "velocity": 1
        },
        {
          "duration": 0.1315104166666643,
          "durationTicks": 101,
          "midi": 51,
          "name": "D#3",
          "ticks": 30300,
          "time": 39.453125,
          "velocity": 1
        },
        {
          "duration": 0.1315104166666714,
          "durationTicks": 101,
          "midi": 62,
          "name": "D4",
          "ticks": 30419,
          "time": 39.608072916666664,
          "velocity": 1
        },
        {
          "duration": 0.1315104166666714,
          "durationTicks": 101,
          "midi": 53,
          "name": "F3",
          "ticks": 30419,
          "time": 39.608072916666664,
          "velocity": 1
        },
        {
          "duration": 1.2265625,
          "durationTicks": 942,
          "midi": 65,
          "name": "F4",
          "ticks": 30538,
          "time": 39.763020833333336,
          "velocity": 1
        },
        {
          "duration": 1.2265625,
          "durationTicks": 942,
          "midi": 48,
          "name": "C3",
          "ticks": 30538,
          "time": 39.763020833333336,
          "velocity": 1
        },
        {
          "duration": 0.1315104166666643,
          "durationTicks": 101,
          "midi": 62,
          "name": "D4",
          "ticks": 30657,
          "time": 39.91796875,
          "velocity": 1
        },
        {
          "duration": 0.1315104166666643,
          "durationTicks": 101,
          "midi": 53,
          "name": "F3",
          "ticks": 30657,
          "time": 39.91796875,
          "velocity": 1
        },
        {
          "duration": 0.1315104166666714,
          "durationTicks": 101,
          "midi": 60,
          "name": "C4",
          "ticks": 30776,
          "time": 40.072916666666664,
          "velocity": 1
        },
        {
          "duration": 0.1315104166666714,
          "durationTicks": 101,
          "midi": 52,
          "name": "E3",
          "ticks": 30776,
          "time": 40.072916666666664,
          "velocity": 1
        },
        {
          "duration": 0.1315104166666643,
          "durationTicks": 101,
          "midi": 62,
          "name": "D4",
          "ticks": 30895,
          "time": 40.227864583333336,
          "velocity": 1
        },
        {
          "duration": 0.1315104166666643,
          "durationTicks": 101,
          "midi": 53,
          "name": "F3",
          "ticks": 30895,
          "time": 40.227864583333336,
          "velocity": 1
        },
        {
          "duration": 0.3645833333333357,
          "durationTicks": 280,
          "midi": 59,
          "name": "B3",
          "ticks": 31014,
          "time": 40.3828125,
          "velocity": 1
        },
        {
          "duration": 0.59375,
          "durationTicks": 456,
          "midi": 56,
          "name": "G#3",
          "ticks": 31014,
          "time": 40.3828125,
          "velocity": 1
        },
        {
          "duration": 0.1315104166666714,
          "durationTicks": 101,
          "midi": 62,
          "name": "D4",
          "ticks": 31133,
          "time": 40.537760416666664,
          "velocity": 1
        },
        {
          "duration": 0.1315104166666714,
          "durationTicks": 101,
          "midi": 53,
          "name": "F3",
          "ticks": 31133,
          "time": 40.537760416666664,
          "velocity": 1
        },
        {
          "duration": 0.1315104166666643,
          "durationTicks": 101,
          "midi": 60,
          "name": "C4",
          "ticks": 31252,
          "time": 40.692708333333336,
          "velocity": 1
        },
        {
          "duration": 0.1315104166666643,
          "durationTicks": 101,
          "midi": 52,
          "name": "E3",
          "ticks": 31252,
          "time": 40.692708333333336,
          "velocity": 1
        },
        {
          "duration": 0.1315104166666643,
          "durationTicks": 101,
          "midi": 62,
          "name": "D4",
          "ticks": 31371,
          "time": 40.84765625,
          "velocity": 1
        },
        {
          "duration": 0.1315104166666643,
          "durationTicks": 101,
          "midi": 53,
          "name": "F3",
          "ticks": 31371,
          "time": 40.84765625,
          "velocity": 1
        },
        {
          "duration": 1.2265625,
          "durationTicks": 942,
          "midi": 65,
          "name": "F4",
          "ticks": 31490,
          "time": 41.002604166666664,
          "velocity": 1
        },
        {
          "duration": 1.2265625,
          "durationTicks": 942,
          "midi": 48,
          "name": "C3",
          "ticks": 31490,
          "time": 41.002604166666664,
          "velocity": 1
        },
        {
          "duration": 0.1315104166666643,
          "durationTicks": 101,
          "midi": 62,
          "name": "D4",
          "ticks": 31609,
          "time": 41.157552083333336,
          "velocity": 1
        },
        {
          "duration": 0.1315104166666643,
          "durationTicks": 101,
          "midi": 53,
          "name": "F3",
          "ticks": 31609,
          "time": 41.157552083333336,
          "velocity": 1
        },
        {
          "duration": 0.1315104166666643,
          "durationTicks": 101,
          "midi": 60,
          "name": "C4",
          "ticks": 31728,
          "time": 41.3125,
          "velocity": 1
        },
        {
          "duration": 0.1315104166666643,
          "durationTicks": 101,
          "midi": 52,
          "name": "E3",
          "ticks": 31728,
          "time": 41.3125,
          "velocity": 1
        },
        {
          "duration": 0.1315104166666714,
          "durationTicks": 101,
          "midi": 62,
          "name": "D4",
          "ticks": 31847,
          "time": 41.467447916666664,
          "velocity": 1
        },
        {
          "duration": 0.1315104166666714,
          "durationTicks": 101,
          "midi": 53,
          "name": "F3",
          "ticks": 31847,
          "time": 41.467447916666664,
          "velocity": 1
        },
        {
          "duration": 0.1315104166666643,
          "durationTicks": 101,
          "midi": 59,
          "name": "B3",
          "ticks": 31966,
          "time": 41.622395833333336,
          "velocity": 1
        },
        {
          "duration": 0.3645833333333286,
          "durationTicks": 280,
          "midi": 56,
          "name": "G#3",
          "ticks": 31966,
          "time": 41.622395833333336,
          "velocity": 1
        },
        {
          "duration": 0.1315104166666643,
          "durationTicks": 101,
          "midi": 62,
          "name": "D4",
          "ticks": 32085,
          "time": 41.77734375,
          "velocity": 1
        },
        {
          "duration": 0.1315104166666643,
          "durationTicks": 101,
          "midi": 53,
          "name": "F3",
          "ticks": 32085,
          "time": 41.77734375,
          "velocity": 1
        },
        {
          "duration": 0.1315104166666714,
          "durationTicks": 101,
          "midi": 60,
          "name": "C4",
          "ticks": 32204,
          "time": 41.932291666666664,
          "velocity": 1
        },
        {
          "duration": 0.1315104166666714,
          "durationTicks": 101,
          "midi": 52,
          "name": "E3",
          "ticks": 32204,
          "time": 41.932291666666664,
          "velocity": 1
        },
        {
          "duration": 0.1315104166666643,
          "durationTicks": 101,
          "midi": 62,
          "name": "D4",
          "ticks": 32323,
          "time": 42.087239583333336,
          "velocity": 1
        },
        {
          "duration": 0.1315104166666643,
          "durationTicks": 101,
          "midi": 53,
          "name": "F3",
          "ticks": 32323,
          "time": 42.087239583333336,
          "velocity": 1
        },
        {
          "duration": 1.2265625,
          "durationTicks": 942,
          "midi": 63,
          "name": "D#4",
          "ticks": 32442,
          "time": 42.2421875,
          "velocity": 1
        },
        {
          "duration": 1.2265625,
          "durationTicks": 942,
          "midi": 48,
          "name": "C3",
          "ticks": 32442,
          "time": 42.2421875,
          "velocity": 1
        },
        {
          "duration": 0.1315104166666714,
          "durationTicks": 101,
          "midi": 60,
          "name": "C4",
          "ticks": 32561,
          "time": 42.397135416666664,
          "velocity": 1
        },
        {
          "duration": 0.1315104166666714,
          "durationTicks": 101,
          "midi": 51,
          "name": "D#3",
          "ticks": 32561,
          "time": 42.397135416666664,
          "velocity": 1
        },
        {
          "duration": 0.1315104166666643,
          "durationTicks": 101,
          "midi": 59,
          "name": "B3",
          "ticks": 32680,
          "time": 42.552083333333336,
          "velocity": 1
        },
        {
          "duration": 0.1315104166666643,
          "durationTicks": 101,
          "midi": 50,
          "name": "D3",
          "ticks": 32680,
          "time": 42.552083333333336,
          "velocity": 1
        },
        {
          "duration": 0.1315104166666643,
          "durationTicks": 101,
          "midi": 60,
          "name": "C4",
          "ticks": 32800,
          "time": 42.708333333333336,
          "velocity": 1
        },
        {
          "duration": 0.1315104166666643,
          "durationTicks": 101,
          "midi": 51,
          "name": "D#3",
          "ticks": 32800,
          "time": 42.708333333333336,
          "velocity": 1
        },
        {
          "duration": 0.3255208333333357,
          "durationTicks": 250,
          "midi": 55,
          "name": "G3",
          "ticks": 32919,
          "time": 42.86328125,
          "velocity": 1
        },
        {
          "duration": 0.1315104166666643,
          "durationTicks": 101,
          "midi": 53,
          "name": "F3",
          "ticks": 32919,
          "time": 42.86328125,
          "velocity": 1
        },
        {
          "duration": 0.1315104166666714,
          "durationTicks": 101,
          "midi": 60,
          "name": "C4",
          "ticks": 33038,
          "time": 43.018229166666664,
          "velocity": 1
        },
        {
          "duration": 0.1315104166666714,
          "durationTicks": 101,
          "midi": 51,
          "name": "D#3",
          "ticks": 33038,
          "time": 43.018229166666664,
          "velocity": 1
        },
        {
          "duration": 0.1315104166666643,
          "durationTicks": 101,
          "midi": 59,
          "name": "B3",
          "ticks": 33157,
          "time": 43.173177083333336,
          "velocity": 1
        },
        {
          "duration": 0.1315104166666643,
          "durationTicks": 101,
          "midi": 50,
          "name": "D3",
          "ticks": 33157,
          "time": 43.173177083333336,
          "velocity": 1
        },
        {
          "duration": 0.1315104166666643,
          "durationTicks": 101,
          "midi": 60,
          "name": "C4",
          "ticks": 33276,
          "time": 43.328125,
          "velocity": 1
        },
        {
          "duration": 0.1315104166666643,
          "durationTicks": 101,
          "midi": 51,
          "name": "D#3",
          "ticks": 33276,
          "time": 43.328125,
          "velocity": 1
        },
        {
          "duration": 1.2265625,
          "durationTicks": 942,
          "midi": 63,
          "name": "D#4",
          "ticks": 33395,
          "time": 43.483072916666664,
          "velocity": 1
        },
        {
          "duration": 1.2265625,
          "durationTicks": 942,
          "midi": 46,
          "name": "A#2",
          "ticks": 33395,
          "time": 43.483072916666664,
          "velocity": 1
        },
        {
          "duration": 0.1315104166666643,
          "durationTicks": 101,
          "midi": 60,
          "name": "C4",
          "ticks": 33514,
          "time": 43.638020833333336,
          "velocity": 1
        },
        {
          "duration": 0.1315104166666643,
          "durationTicks": 101,
          "midi": 51,
          "name": "D#3",
          "ticks": 33514,
          "time": 43.638020833333336,
          "velocity": 1
        },
        {
          "duration": 0.1315104166666643,
          "durationTicks": 101,
          "midi": 59,
          "name": "B3",
          "ticks": 33633,
          "time": 43.79296875,
          "velocity": 1
        },
        {
          "duration": 0.1315104166666643,
          "durationTicks": 101,
          "midi": 50,
          "name": "D3",
          "ticks": 33633,
          "time": 43.79296875,
          "velocity": 1
        },
        {
          "duration": 0.1315104166666714,
          "durationTicks": 101,
          "midi": 60,
          "name": "C4",
          "ticks": 33752,
          "time": 43.947916666666664,
          "velocity": 1
        },
        {
          "duration": 0.1315104166666714,
          "durationTicks": 101,
          "midi": 51,
          "name": "D#3",
          "ticks": 33752,
          "time": 43.947916666666664,
          "velocity": 1
        },
        {
          "duration": 0.2604166666666643,
          "durationTicks": 200,
          "midi": 55,
          "name": "G3",
          "ticks": 33871,
          "time": 44.102864583333336,
          "velocity": 1
        },
        {
          "duration": 0.1315104166666643,
          "durationTicks": 101,
          "midi": 53,
          "name": "F3",
          "ticks": 33871,
          "time": 44.102864583333336,
          "velocity": 1
        },
        {
          "duration": 0.1315104166666643,
          "durationTicks": 101,
          "midi": 60,
          "name": "C4",
          "ticks": 33990,
          "time": 44.2578125,
          "velocity": 1
        },
        {
          "duration": 0.1315104166666643,
          "durationTicks": 101,
          "midi": 51,
          "name": "D#3",
          "ticks": 33990,
          "time": 44.2578125,
          "velocity": 1
        },
        {
          "duration": 0.1315104166666714,
          "durationTicks": 101,
          "midi": 59,
          "name": "B3",
          "ticks": 34109,
          "time": 44.412760416666664,
          "velocity": 1
        },
        {
          "duration": 0.1315104166666714,
          "durationTicks": 101,
          "midi": 50,
          "name": "D3",
          "ticks": 34109,
          "time": 44.412760416666664,
          "velocity": 1
        },
        {
          "duration": 0.1315104166666643,
          "durationTicks": 101,
          "midi": 60,
          "name": "C4",
          "ticks": 34228,
          "time": 44.567708333333336,
          "velocity": 1
        },
        {
          "duration": 0.1315104166666643,
          "durationTicks": 101,
          "midi": 51,
          "name": "D#3",
          "ticks": 34228,
          "time": 44.567708333333336,
          "velocity": 1
        },
        {
          "duration": 1.2395833333333357,
          "durationTicks": 952,
          "midi": 53,
          "name": "F3",
          "ticks": 34347,
          "time": 44.72265625,
          "velocity": 1
        },
        {
          "duration": 1.2395833333333357,
          "durationTicks": 952,
          "midi": 44,
          "name": "G#2",
          "ticks": 34347,
          "time": 44.72265625,
          "velocity": 1
        },
        {
          "duration": 0.1328125,
          "durationTicks": 102,
          "midi": 63,
          "name": "D#4",
          "ticks": 34467,
          "time": 44.87890625,
          "velocity": 1
        },
        {
          "duration": 0.1328125,
          "durationTicks": 102,
          "midi": 48,
          "name": "C3",
          "ticks": 34467,
          "time": 44.87890625,
          "velocity": 1
        },
        {
          "duration": 0.1328125,
          "durationTicks": 102,
          "midi": 62,
          "name": "D4",
          "ticks": 34588,
          "time": 45.036458333333336,
          "velocity": 1
        },
        {
          "duration": 0.1328125,
          "durationTicks": 102,
          "midi": 47,
          "name": "B2",
          "ticks": 34588,
          "time": 45.036458333333336,
          "velocity": 1
        },
        {
          "duration": 0.1328125,
          "durationTicks": 102,
          "midi": 63,
          "name": "D#4",
          "ticks": 34708,
          "time": 45.192708333333336,
          "velocity": 1
        },
        {
          "duration": 0.1328125,
          "durationTicks": 102,
          "midi": 48,
          "name": "C3",
          "ticks": 34708,
          "time": 45.192708333333336,
          "velocity": 1
        },
        {
          "duration": 0.1328125,
          "durationTicks": 102,
          "midi": 65,
          "name": "F4",
          "ticks": 34828,
          "time": 45.348958333333336,
          "velocity": 1
        },
        {
          "duration": 0.1328125,
          "durationTicks": 102,
          "midi": 50,
          "name": "D3",
          "ticks": 34828,
          "time": 45.348958333333336,
          "velocity": 1
        },
        {
          "duration": 0.1328125,
          "durationTicks": 102,
          "midi": 63,
          "name": "D#4",
          "ticks": 34948,
          "time": 45.505208333333336,
          "velocity": 1
        },
        {
          "duration": 0.1328125,
          "durationTicks": 102,
          "midi": 48,
          "name": "C3",
          "ticks": 34948,
          "time": 45.505208333333336,
          "velocity": 1
        },
        {
          "duration": 0.1328125,
          "durationTicks": 102,
          "midi": 62,
          "name": "D4",
          "ticks": 35069,
          "time": 45.662760416666664,
          "velocity": 1
        },
        {
          "duration": 0.1328125,
          "durationTicks": 102,
          "midi": 47,
          "name": "B2",
          "ticks": 35069,
          "time": 45.662760416666664,
          "velocity": 1
        },
        {
          "duration": 0.1328125,
          "durationTicks": 102,
          "midi": 63,
          "name": "D#4",
          "ticks": 35189,
          "time": 45.819010416666664,
          "velocity": 1
        },
        {
          "duration": 0.1328125,
          "durationTicks": 102,
          "midi": 48,
          "name": "C3",
          "ticks": 35189,
          "time": 45.819010416666664,
          "velocity": 1
        },
        {
          "duration": 1.2109375,
          "durationTicks": 930,
          "midi": 53,
          "name": "F3",
          "ticks": 35309,
          "time": 45.975260416666664,
          "velocity": 1
        },
        {
          "duration": 1.2395833333333357,
          "durationTicks": 952,
          "midi": 44,
          "name": "G#2",
          "ticks": 35309,
          "time": 45.975260416666664,
          "velocity": 1
        },
        {
          "duration": 0.1328125,
          "durationTicks": 102,
          "midi": 63,
          "name": "D#4",
          "ticks": 35430,
          "time": 46.1328125,
          "velocity": 1
        },
        {
          "duration": 0.1328125,
          "durationTicks": 102,
          "midi": 48,
          "name": "C3",
          "ticks": 35430,
          "time": 46.1328125,
          "velocity": 1
        },
        {
          "duration": 0.1328125,
          "durationTicks": 102,
          "midi": 62,
          "name": "D4",
          "ticks": 35550,
          "time": 46.2890625,
          "velocity": 1
        },
        {
          "duration": 0.1328125,
          "durationTicks": 102,
          "midi": 47,
          "name": "B2",
          "ticks": 35550,
          "time": 46.2890625,
          "velocity": 1
        },
        {
          "duration": 0.1328125,
          "durationTicks": 102,
          "midi": 63,
          "name": "D#4",
          "ticks": 35670,
          "time": 46.4453125,
          "velocity": 1
        },
        {
          "duration": 0.1328125,
          "durationTicks": 102,
          "midi": 48,
          "name": "C3",
          "ticks": 35670,
          "time": 46.4453125,
          "velocity": 1
        },
        {
          "duration": 0.1328125,
          "durationTicks": 102,
          "midi": 65,
          "name": "F4",
          "ticks": 35790,
          "time": 46.6015625,
          "velocity": 1
        },
        {
          "duration": 0.1328125,
          "durationTicks": 102,
          "midi": 50,
          "name": "D3",
          "ticks": 35790,
          "time": 46.6015625,
          "velocity": 1
        },
        {
          "duration": 0.1328125,
          "durationTicks": 102,
          "midi": 63,
          "name": "D#4",
          "ticks": 35911,
          "time": 46.759114583333336,
          "velocity": 1
        },
        {
          "duration": 0.1328125,
          "durationTicks": 102,
          "midi": 48,
          "name": "C3",
          "ticks": 35911,
          "time": 46.759114583333336,
          "velocity": 1
        },
        {
          "duration": 0.1328125,
          "durationTicks": 102,
          "midi": 62,
          "name": "D4",
          "ticks": 36031,
          "time": 46.915364583333336,
          "velocity": 1
        },
        {
          "duration": 0.1328125,
          "durationTicks": 102,
          "midi": 47,
          "name": "B2",
          "ticks": 36031,
          "time": 46.915364583333336,
          "velocity": 1
        },
        {
          "duration": 0.1328125,
          "durationTicks": 102,
          "midi": 63,
          "name": "D#4",
          "ticks": 36151,
          "time": 47.071614583333336,
          "velocity": 1
        },
        {
          "duration": 0.1328125,
          "durationTicks": 102,
          "midi": 48,
          "name": "C3",
          "ticks": 36151,
          "time": 47.071614583333336,
          "velocity": 1
        },
        {
          "duration": 1.2395833333333357,
          "durationTicks": 952,
          "midi": 54,
          "name": "F#3",
          "ticks": 36272,
          "time": 47.229166666666664,
          "velocity": 1
        },
        {
          "duration": 1.2395833333333357,
          "durationTicks": 952,
          "midi": 45,
          "name": "A2",
          "ticks": 36272,
          "time": 47.229166666666664,
          "velocity": 1
        },
        {
          "duration": 0.1328125,
          "durationTicks": 102,
          "midi": 60,
          "name": "C4",
          "ticks": 36392,
          "time": 47.385416666666664,
          "velocity": 1
        },
        {
          "duration": 0.1328125,
          "durationTicks": 102,
          "midi": 51,
          "name": "D#3",
          "ticks": 36392,
          "time": 47.385416666666664,
          "velocity": 1
        },
        {
          "duration": 0.1328125,
          "durationTicks": 102,
          "midi": 59,
          "name": "B3",
          "ticks": 36512,
          "time": 47.541666666666664,
          "velocity": 1
        },
        {
          "duration": 0.1328125,
          "durationTicks": 102,
          "midi": 50,
          "name": "D3",
          "ticks": 36512,
          "time": 47.541666666666664,
          "velocity": 1
        },
        {
          "duration": 0.1328125,
          "durationTicks": 102,
          "midi": 60,
          "name": "C4",
          "ticks": 36632,
          "time": 47.697916666666664,
          "velocity": 1
        },
        {
          "duration": 0.1328125,
          "durationTicks": 102,
          "midi": 51,
          "name": "D#3",
          "ticks": 36632,
          "time": 47.697916666666664,
          "velocity": 1
        },
        {
          "duration": 0.1315104166666643,
          "durationTicks": 101,
          "midi": 63,
          "name": "D#4",
          "ticks": 36753,
          "time": 47.85546875,
          "velocity": 1
        },
        {
          "duration": 0.6002604166666643,
          "durationTicks": 461,
          "midi": 48,
          "name": "C3",
          "ticks": 36753,
          "time": 47.85546875,
          "velocity": 1
        },
        {
          "duration": 0.1328125,
          "durationTicks": 102,
          "midi": 60,
          "name": "C4",
          "ticks": 36873,
          "time": 48.01171875,
          "velocity": 1
        },
        {
          "duration": 0.1328125,
          "durationTicks": 102,
          "midi": 51,
          "name": "D#3",
          "ticks": 36873,
          "time": 48.01171875,
          "velocity": 1
        },
        {
          "duration": 0.1328125,
          "durationTicks": 102,
          "midi": 59,
          "name": "B3",
          "ticks": 36993,
          "time": 48.16796875,
          "velocity": 1
        },
        {
          "duration": 0.1328125,
          "durationTicks": 102,
          "midi": 50,
          "name": "D3",
          "ticks": 36993,
          "time": 48.16796875,
          "velocity": 1
        },
        {
          "duration": 0.1328125,
          "durationTicks": 102,
          "midi": 60,
          "name": "C4",
          "ticks": 37113,
          "time": 48.32421875,
          "velocity": 1
        },
        {
          "duration": 0.1328125,
          "durationTicks": 102,
          "midi": 51,
          "name": "D#3",
          "ticks": 37113,
          "time": 48.32421875,
          "velocity": 1
        },
        {
          "duration": 0.5859375,
          "durationTicks": 450,
          "midi": 54,
          "name": "F#3",
          "ticks": 37234,
          "time": 48.481770833333336,
          "velocity": 1
        },
        {
          "duration": 1.2395833333333286,
          "durationTicks": 952,
          "midi": 45,
          "name": "A2",
          "ticks": 37234,
          "time": 48.481770833333336,
          "velocity": 1
        },
        {
          "duration": 0.1328125,
          "durationTicks": 102,
          "midi": 60,
          "name": "C4",
          "ticks": 37354,
          "time": 48.638020833333336,
          "velocity": 1
        },
        {
          "duration": 0.1328125,
          "durationTicks": 102,
          "midi": 51,
          "name": "D#3",
          "ticks": 37354,
          "time": 48.638020833333336,
          "velocity": 1
        },
        {
          "duration": 0.1328125,
          "durationTicks": 102,
          "midi": 59,
          "name": "B3",
          "ticks": 37474,
          "time": 48.794270833333336,
          "velocity": 1
        },
        {
          "duration": 0.1328125,
          "durationTicks": 102,
          "midi": 50,
          "name": "D3",
          "ticks": 37474,
          "time": 48.794270833333336,
          "velocity": 1
        },
        {
          "duration": 0.1328125,
          "durationTicks": 102,
          "midi": 60,
          "name": "C4",
          "ticks": 37595,
          "time": 48.951822916666664,
          "velocity": 1
        },
        {
          "duration": 0.1328125,
          "durationTicks": 102,
          "midi": 51,
          "name": "D#3",
          "ticks": 37595,
          "time": 48.951822916666664,
          "velocity": 1
        },
        {
          "duration": 0.1315104166666714,
          "durationTicks": 101,
          "midi": 63,
          "name": "D#4",
          "ticks": 37715,
          "time": 49.108072916666664,
          "velocity": 1
        },
        {
          "duration": 0.6002604166666714,
          "durationTicks": 461,
          "midi": 48,
          "name": "C3",
          "ticks": 37715,
          "time": 49.108072916666664,
          "velocity": 1
        },
        {
          "duration": 0.1328125,
          "durationTicks": 102,
          "midi": 60,
          "name": "C4",
          "ticks": 37835,
          "time": 49.264322916666664,
          "velocity": 1
        },
        {
          "duration": 0.1328125,
          "durationTicks": 102,
          "midi": 51,
          "name": "D#3",
          "ticks": 37835,
          "time": 49.264322916666664,
          "velocity": 1
        },
        {
          "duration": 0.1328125,
          "durationTicks": 102,
          "midi": 59,
          "name": "B3",
          "ticks": 37955,
          "time": 49.420572916666664,
          "velocity": 1
        },
        {
          "duration": 0.1328125,
          "durationTicks": 102,
          "midi": 50,
          "name": "D3",
          "ticks": 37955,
          "time": 49.420572916666664,
          "velocity": 1
        },
        {
          "duration": 0.1328125,
          "durationTicks": 102,
          "midi": 60,
          "name": "C4",
          "ticks": 38076,
          "time": 49.578125,
          "velocity": 1
        },
        {
          "duration": 0.1328125,
          "durationTicks": 102,
          "midi": 51,
          "name": "D#3",
          "ticks": 38076,
          "time": 49.578125,
          "velocity": 1
        },
        {
          "duration": 1.2265625,
          "durationTicks": 942,
          "midi": 63,
          "name": "D#4",
          "ticks": 38196,
          "time": 49.734375,
          "velocity": 1
        },
        {
          "duration": 1.2265625,
          "durationTicks": 942,
          "midi": 43,
          "name": "G2",
          "ticks": 38196,
          "time": 49.734375,
          "velocity": 1
        },
        {
          "duration": 0.1315104166666714,
          "durationTicks": 101,
          "midi": 60,
          "name": "C4",
          "ticks": 38315,
          "time": 49.889322916666664,
          "velocity": 1
        },
        {
          "duration": 0.1315104166666714,
          "durationTicks": 101,
          "midi": 51,
          "name": "D#3",
          "ticks": 38315,
          "time": 49.889322916666664,
          "velocity": 1
        },
        {
          "duration": 0.1315104166666643,
          "durationTicks": 101,
          "midi": 59,
          "name": "B3",
          "ticks": 38434,
          "time": 50.044270833333336,
          "velocity": 1
        },
        {
          "duration": 0.1315104166666643,
          "durationTicks": 101,
          "midi": 50,
          "name": "D3",
          "ticks": 38434,
          "time": 50.044270833333336,
          "velocity": 1
        },
        {
          "duration": 0.1315104166666643,
          "durationTicks": 101,
          "midi": 60,
          "name": "C4",
          "ticks": 38553,
          "time": 50.19921875,
          "velocity": 1
        },
        {
          "duration": 0.1315104166666643,
          "durationTicks": 101,
          "midi": 51,
          "name": "D#3",
          "ticks": 38553,
          "time": 50.19921875,
          "velocity": 1
        },
        {
          "duration": 0.46875,
          "durationTicks": 360,
          "midi": 55,
          "name": "G3",
          "ticks": 38672,
          "time": 50.354166666666664,
          "velocity": 1
        },
        {
          "duration": 0.3645833333333357,
          "durationTicks": 280,
          "midi": 53,
          "name": "F3",
          "ticks": 38672,
          "time": 50.354166666666664,
          "velocity": 1
        },
        {
          "duration": 0.1315104166666643,
          "durationTicks": 101,
          "midi": 60,
          "name": "C4",
          "ticks": 38791,
          "time": 50.509114583333336,
          "velocity": 1
        },
        {
          "duration": 0.1315104166666643,
          "durationTicks": 101,
          "midi": 51,
          "name": "D#3",
          "ticks": 38791,
          "time": 50.509114583333336,
          "velocity": 1
        },
        {
          "duration": 0.1315104166666643,
          "durationTicks": 101,
          "midi": 59,
          "name": "B3",
          "ticks": 38910,
          "time": 50.6640625,
          "velocity": 1
        },
        {
          "duration": 0.1315104166666643,
          "durationTicks": 101,
          "midi": 50,
          "name": "D3",
          "ticks": 38910,
          "time": 50.6640625,
          "velocity": 1
        },
        {
          "duration": 0.1315104166666714,
          "durationTicks": 101,
          "midi": 60,
          "name": "C4",
          "ticks": 39029,
          "time": 50.819010416666664,
          "velocity": 1
        },
        {
          "duration": 0.1315104166666714,
          "durationTicks": 101,
          "midi": 51,
          "name": "D#3",
          "ticks": 39029,
          "time": 50.819010416666664,
          "velocity": 1
        },
        {
          "duration": 1.2265625,
          "durationTicks": 942,
          "midi": 63,
          "name": "D#4",
          "ticks": 39148,
          "time": 50.973958333333336,
          "velocity": 1
        },
        {
          "duration": 1.2265625,
          "durationTicks": 942,
          "midi": 43,
          "name": "G2",
          "ticks": 39148,
          "time": 50.973958333333336,
          "velocity": 1
        },
        {
          "duration": 0.1315104166666643,
          "durationTicks": 101,
          "midi": 60,
          "name": "C4",
          "ticks": 39267,
          "time": 51.12890625,
          "velocity": 1
        },
        {
          "duration": 0.1315104166666643,
          "durationTicks": 101,
          "midi": 51,
          "name": "D#3",
          "ticks": 39267,
          "time": 51.12890625,
          "velocity": 1
        },
        {
          "duration": 0.1315104166666714,
          "durationTicks": 101,
          "midi": 59,
          "name": "B3",
          "ticks": 39386,
          "time": 51.283854166666664,
          "velocity": 1
        },
        {
          "duration": 0.1315104166666714,
          "durationTicks": 101,
          "midi": 50,
          "name": "D3",
          "ticks": 39386,
          "time": 51.283854166666664,
          "velocity": 1
        },
        {
          "duration": 0.1315104166666643,
          "durationTicks": 101,
          "midi": 60,
          "name": "C4",
          "ticks": 39505,
          "time": 51.438802083333336,
          "velocity": 1
        },
        {
          "duration": 0.1315104166666643,
          "durationTicks": 101,
          "midi": 51,
          "name": "D#3",
          "ticks": 39505,
          "time": 51.438802083333336,
          "velocity": 1
        },
        {
          "duration": 0.4427083333333357,
          "durationTicks": 340,
          "midi": 55,
          "name": "G3",
          "ticks": 39624,
          "time": 51.59375,
          "velocity": 1
        },
        {
          "duration": 0.3645833333333357,
          "durationTicks": 280,
          "midi": 53,
          "name": "F3",
          "ticks": 39624,
          "time": 51.59375,
          "velocity": 1
        },
        {
          "duration": 0.1315104166666643,
          "durationTicks": 101,
          "midi": 60,
          "name": "C4",
          "ticks": 39744,
          "time": 51.75,
          "velocity": 1
        },
        {
          "duration": 0.1315104166666643,
          "durationTicks": 101,
          "midi": 51,
          "name": "D#3",
          "ticks": 39744,
          "time": 51.75,
          "velocity": 1
        },
        {
          "duration": 0.1315104166666714,
          "durationTicks": 101,
          "midi": 59,
          "name": "B3",
          "ticks": 39863,
          "time": 51.904947916666664,
          "velocity": 1
        },
        {
          "duration": 0.1315104166666714,
          "durationTicks": 101,
          "midi": 50,
          "name": "D3",
          "ticks": 39863,
          "time": 51.904947916666664,
          "velocity": 1
        },
        {
          "duration": 0.1315104166666643,
          "durationTicks": 101,
          "midi": 60,
          "name": "C4",
          "ticks": 39982,
          "time": 52.059895833333336,
          "velocity": 1
        },
        {
          "duration": 0.1315104166666643,
          "durationTicks": 101,
          "midi": 51,
          "name": "D#3",
          "ticks": 39982,
          "time": 52.059895833333336,
          "velocity": 1
        },
        {
          "duration": 1.2265625,
          "durationTicks": 942,
          "midi": 66,
          "name": "F#4",
          "ticks": 40101,
          "time": 52.21484375,
          "velocity": 1
        },
        {
          "duration": 1.2265625,
          "durationTicks": 942,
          "midi": 43,
          "name": "G2",
          "ticks": 40101,
          "time": 52.21484375,
          "velocity": 1
        },
        {
          "duration": 0.1315104166666714,
          "durationTicks": 101,
          "midi": 60,
          "name": "C4",
          "ticks": 40220,
          "time": 52.369791666666664,
          "velocity": 1
        },
        {
          "duration": 0.1315104166666714,
          "durationTicks": 101,
          "midi": 51,
          "name": "D#3",
          "ticks": 40220,
          "time": 52.369791666666664,
          "velocity": 1
        },
        {
          "duration": 0.1315104166666643,
          "durationTicks": 101,
          "midi": 59,
          "name": "B3",
          "ticks": 40339,
          "time": 52.524739583333336,
          "velocity": 1
        },
        {
          "duration": 0.1315104166666643,
          "durationTicks": 101,
          "midi": 50,
          "name": "D3",
          "ticks": 40339,
          "time": 52.524739583333336,
          "velocity": 1
        },
        {
          "duration": 0.1315104166666643,
          "durationTicks": 101,
          "midi": 60,
          "name": "C4",
          "ticks": 40458,
          "time": 52.6796875,
          "velocity": 1
        },
        {
          "duration": 0.1315104166666643,
          "durationTicks": 101,
          "midi": 51,
          "name": "D#3",
          "ticks": 40458,
          "time": 52.6796875,
          "velocity": 1
        },
        {
          "duration": 0.46875,
          "durationTicks": 360,
          "midi": 57,
          "name": "A3",
          "ticks": 40577,
          "time": 52.834635416666664,
          "velocity": 1
        },
        {
          "duration": 0.59375,
          "durationTicks": 456,
          "midi": 48,
          "name": "C3",
          "ticks": 40577,
          "time": 52.834635416666664,
          "velocity": 1
        },
        {
          "duration": 0.1315104166666643,
          "durationTicks": 101,
          "midi": 60,
          "name": "C4",
          "ticks": 40696,
          "time": 52.989583333333336,
          "velocity": 1
        },
        {
          "duration": 0.1315104166666643,
          "durationTicks": 101,
          "midi": 51,
          "name": "D#3",
          "ticks": 40696,
          "time": 52.989583333333336,
          "velocity": 1
        },
        {
          "duration": 0.1315104166666643,
          "durationTicks": 101,
          "midi": 59,
          "name": "B3",
          "ticks": 40815,
          "time": 53.14453125,
          "velocity": 1
        },
        {
          "duration": 0.1315104166666643,
          "durationTicks": 101,
          "midi": 50,
          "name": "D3",
          "ticks": 40815,
          "time": 53.14453125,
          "velocity": 1
        },
        {
          "duration": 0.1315104166666714,
          "durationTicks": 101,
          "midi": 60,
          "name": "C4",
          "ticks": 40934,
          "time": 53.299479166666664,
          "velocity": 1
        },
        {
          "duration": 0.1315104166666714,
          "durationTicks": 101,
          "midi": 51,
          "name": "D#3",
          "ticks": 40934,
          "time": 53.299479166666664,
          "velocity": 1
        },
        {
          "duration": 1.2265625,
          "durationTicks": 942,
          "midi": 66,
          "name": "F#4",
          "ticks": 41053,
          "time": 53.454427083333336,
          "velocity": 1
        },
        {
          "duration": 1.2265625,
          "durationTicks": 942,
          "midi": 43,
          "name": "G2",
          "ticks": 41053,
          "time": 53.454427083333336,
          "velocity": 1
        },
        {
          "duration": 0.1315104166666643,
          "durationTicks": 101,
          "midi": 60,
          "name": "C4",
          "ticks": 41172,
          "time": 53.609375,
          "velocity": 1
        },
        {
          "duration": 0.1315104166666643,
          "durationTicks": 101,
          "midi": 51,
          "name": "D#3",
          "ticks": 41172,
          "time": 53.609375,
          "velocity": 1
        },
        {
          "duration": 0.1315104166666714,
          "durationTicks": 101,
          "midi": 59,
          "name": "B3",
          "ticks": 41291,
          "time": 53.764322916666664,
          "velocity": 1
        },
        {
          "duration": 0.1315104166666714,
          "durationTicks": 101,
          "midi": 50,
          "name": "D3",
          "ticks": 41291,
          "time": 53.764322916666664,
          "velocity": 1
        },
        {
          "duration": 0.1315104166666643,
          "durationTicks": 101,
          "midi": 60,
          "name": "C4",
          "ticks": 41410,
          "time": 53.919270833333336,
          "velocity": 1
        },
        {
          "duration": 0.1315104166666643,
          "durationTicks": 101,
          "midi": 51,
          "name": "D#3",
          "ticks": 41410,
          "time": 53.919270833333336,
          "velocity": 1
        },
        {
          "duration": 0.46875,
          "durationTicks": 360,
          "midi": 57,
          "name": "A3",
          "ticks": 41529,
          "time": 54.07421875,
          "velocity": 1
        },
        {
          "duration": 0.59375,
          "durationTicks": 456,
          "midi": 48,
          "name": "C3",
          "ticks": 41529,
          "time": 54.07421875,
          "velocity": 1
        },
        {
          "duration": 0.1315104166666714,
          "durationTicks": 101,
          "midi": 60,
          "name": "C4",
          "ticks": 41648,
          "time": 54.229166666666664,
          "velocity": 1
        },
        {
          "duration": 0.1315104166666714,
          "durationTicks": 101,
          "midi": 51,
          "name": "D#3",
          "ticks": 41648,
          "time": 54.229166666666664,
          "velocity": 1
        },
        {
          "duration": 0.1315104166666643,
          "durationTicks": 101,
          "midi": 59,
          "name": "B3",
          "ticks": 41767,
          "time": 54.384114583333336,
          "velocity": 1
        },
        {
          "duration": 0.1315104166666643,
          "durationTicks": 101,
          "midi": 50,
          "name": "D3",
          "ticks": 41767,
          "time": 54.384114583333336,
          "velocity": 1
        },
        {
          "duration": 0.1315104166666643,
          "durationTicks": 101,
          "midi": 60,
          "name": "C4",
          "ticks": 41886,
          "time": 54.5390625,
          "velocity": 1
        },
        {
          "duration": 0.1315104166666643,
          "durationTicks": 101,
          "midi": 51,
          "name": "D#3",
          "ticks": 41886,
          "time": 54.5390625,
          "velocity": 1
        },
        {
          "duration": 1.2265625,
          "durationTicks": 942,
          "midi": 67,
          "name": "G4",
          "ticks": 42005,
          "time": 54.694010416666664,
          "velocity": 1
        },
        {
          "duration": 1.2265625,
          "durationTicks": 942,
          "midi": 43,
          "name": "G2",
          "ticks": 42005,
          "time": 54.694010416666664,
          "velocity": 1
        },
        {
          "duration": 0.1315104166666643,
          "durationTicks": 101,
          "midi": 60,
          "name": "C4",
          "ticks": 42124,
          "time": 54.848958333333336,
          "velocity": 1
        },
        {
          "duration": 0.1315104166666643,
          "durationTicks": 101,
          "midi": 51,
          "name": "D#3",
          "ticks": 42124,
          "time": 54.848958333333336,
          "velocity": 1
        },
        {
          "duration": 0.1315104166666643,
          "durationTicks": 101,
          "midi": 59,
          "name": "B3",
          "ticks": 42243,
          "time": 55.00390625,
          "velocity": 1
        },
        {
          "duration": 0.1315104166666643,
          "durationTicks": 101,
          "midi": 50,
          "name": "D3",
          "ticks": 42243,
          "time": 55.00390625,
          "velocity": 1
        },
        {
          "duration": 0.1315104166666714,
          "durationTicks": 101,
          "midi": 60,
          "name": "C4",
          "ticks": 42362,
          "time": 55.158854166666664,
          "velocity": 1
        },
        {
          "duration": 0.1315104166666714,
          "durationTicks": 101,
          "midi": 51,
          "name": "D#3",
          "ticks": 42362,
          "time": 55.158854166666664,
          "velocity": 1
        },
        {
          "duration": 0.4947916666666643,
          "durationTicks": 380,
          "midi": 62,
          "name": "D4",
          "ticks": 42481,
          "time": 55.313802083333336,
          "velocity": 1
        },
        {
          "duration": 0.3645833333333286,
          "durationTicks": 280,
          "midi": 53,
          "name": "F3",
          "ticks": 42481,
          "time": 55.313802083333336,
          "velocity": 1
        },
        {
          "duration": 0.1315104166666643,
          "durationTicks": 101,
          "midi": 60,
          "name": "C4",
          "ticks": 42600,
          "time": 55.46875,
          "velocity": 1
        },
        {
          "duration": 0.1315104166666643,
          "durationTicks": 101,
          "midi": 51,
          "name": "D#3",
          "ticks": 42600,
          "time": 55.46875,
          "velocity": 1
        },
        {
          "duration": 0.1315104166666643,
          "durationTicks": 101,
          "midi": 59,
          "name": "B3",
          "ticks": 42720,
          "time": 55.625,
          "velocity": 1
        },
        {
          "duration": 0.1315104166666643,
          "durationTicks": 101,
          "midi": 50,
          "name": "D3",
          "ticks": 42720,
          "time": 55.625,
          "velocity": 1
        },
        {
          "duration": 0.1315104166666714,
          "durationTicks": 101,
          "midi": 60,
          "name": "C4",
          "ticks": 42839,
          "time": 55.779947916666664,
          "velocity": 1
        },
        {
          "duration": 0.1315104166666714,
          "durationTicks": 101,
          "midi": 51,
          "name": "D#3",
          "ticks": 42839,
          "time": 55.779947916666664,
          "velocity": 1
        },
        {
          "duration": 1.2265625,
          "durationTicks": 942,
          "midi": 67,
          "name": "G4",
          "ticks": 42958,
          "time": 55.934895833333336,
          "velocity": 1
        },
        {
          "duration": 1.2265625,
          "durationTicks": 942,
          "midi": 43,
          "name": "G2",
          "ticks": 42958,
          "time": 55.934895833333336,
          "velocity": 1
        },
        {
          "duration": 0.1315104166666643,
          "durationTicks": 101,
          "midi": 60,
          "name": "C4",
          "ticks": 43077,
          "time": 56.08984375,
          "velocity": 1
        },
        {
          "duration": 0.1315104166666643,
          "durationTicks": 101,
          "midi": 51,
          "name": "D#3",
          "ticks": 43077,
          "time": 56.08984375,
          "velocity": 1
        },
        {
          "duration": 0.1315104166666714,
          "durationTicks": 101,
          "midi": 59,
          "name": "B3",
          "ticks": 43196,
          "time": 56.244791666666664,
          "velocity": 1
        },
        {
          "duration": 0.1315104166666714,
          "durationTicks": 101,
          "midi": 50,
          "name": "D3",
          "ticks": 43196,
          "time": 56.244791666666664,
          "velocity": 1
        },
        {
          "duration": 0.1315104166666643,
          "durationTicks": 101,
          "midi": 60,
          "name": "C4",
          "ticks": 43315,
          "time": 56.399739583333336,
          "velocity": 1
        },
        {
          "duration": 0.1315104166666643,
          "durationTicks": 101,
          "midi": 51,
          "name": "D#3",
          "ticks": 43315,
          "time": 56.399739583333336,
          "velocity": 1
        },
        {
          "duration": 0.1315104166666643,
          "durationTicks": 101,
          "midi": 62,
          "name": "D4",
          "ticks": 43434,
          "time": 56.5546875,
          "velocity": 1
        },
        {
          "duration": 0.1315104166666643,
          "durationTicks": 101,
          "midi": 53,
          "name": "F3",
          "ticks": 43434,
          "time": 56.5546875,
          "velocity": 1
        },
        {
          "duration": 0.1315104166666714,
          "durationTicks": 101,
          "midi": 60,
          "name": "C4",
          "ticks": 43553,
          "time": 56.709635416666664,
          "velocity": 1
        },
        {
          "duration": 0.1315104166666714,
          "durationTicks": 101,
          "midi": 51,
          "name": "D#3",
          "ticks": 43553,
          "time": 56.709635416666664,
          "velocity": 1
        },
        {
          "duration": 0.1315104166666643,
          "durationTicks": 101,
          "midi": 59,
          "name": "B3",
          "ticks": 43672,
          "time": 56.864583333333336,
          "velocity": 1
        },
        {
          "duration": 0.1315104166666643,
          "durationTicks": 101,
          "midi": 50,
          "name": "D3",
          "ticks": 43672,
          "time": 56.864583333333336,
          "velocity": 1
        },
        {
          "duration": 0.1315104166666643,
          "durationTicks": 101,
          "midi": 60,
          "name": "C4",
          "ticks": 43791,
          "time": 57.01953125,
          "velocity": 1
        },
        {
          "duration": 0.1315104166666643,
          "durationTicks": 101,
          "midi": 51,
          "name": "D#3",
          "ticks": 43791,
          "time": 57.01953125,
          "velocity": 1
        },
        {
          "duration": 1.2265625,
          "durationTicks": 942,
          "midi": 68,
          "name": "G#4",
          "ticks": 43910,
          "time": 57.174479166666664,
          "velocity": 1
        },
        {
          "duration": 1.2265625,
          "durationTicks": 942,
          "midi": 43,
          "name": "G2",
          "ticks": 43910,
          "time": 57.174479166666664,
          "velocity": 1
        },
        {
          "duration": 0.1315104166666643,
          "durationTicks": 101,
          "midi": 60,
          "name": "C4",
          "ticks": 44029,
          "time": 57.329427083333336,
          "velocity": 1
        },
        {
          "duration": 0.1315104166666643,
          "durationTicks": 101,
          "midi": 51,
          "name": "D#3",
          "ticks": 44029,
          "time": 57.329427083333336,
          "velocity": 1
        },
        {
          "duration": 0.1315104166666643,
          "durationTicks": 101,
          "midi": 59,
          "name": "B3",
          "ticks": 44148,
          "time": 57.484375,
          "velocity": 1
        },
        {
          "duration": 0.1315104166666643,
          "durationTicks": 101,
          "midi": 50,
          "name": "D3",
          "ticks": 44148,
          "time": 57.484375,
          "velocity": 1
        },
        {
          "duration": 0.1315104166666714,
          "durationTicks": 101,
          "midi": 60,
          "name": "C4",
          "ticks": 44267,
          "time": 57.639322916666664,
          "velocity": 1
        },
        {
          "duration": 0.1315104166666714,
          "durationTicks": 101,
          "midi": 51,
          "name": "D#3",
          "ticks": 44267,
          "time": 57.639322916666664,
          "velocity": 1
        },
        {
          "duration": 0.1315104166666643,
          "durationTicks": 101,
          "midi": 62,
          "name": "D4",
          "ticks": 44386,
          "time": 57.794270833333336,
          "velocity": 1
        },
        {
          "duration": 0.1315104166666643,
          "durationTicks": 101,
          "midi": 53,
          "name": "F3",
          "ticks": 44386,
          "time": 57.794270833333336,
          "velocity": 1
        },
        {
          "duration": 0.1315104166666643,
          "durationTicks": 101,
          "midi": 60,
          "name": "C4",
          "ticks": 44505,
          "time": 57.94921875,
          "velocity": 1
        },
        {
          "duration": 0.1315104166666643,
          "durationTicks": 101,
          "midi": 51,
          "name": "D#3",
          "ticks": 44505,
          "time": 57.94921875,
          "velocity": 1
        },
        {
          "duration": 0.1315104166666714,
          "durationTicks": 101,
          "midi": 59,
          "name": "B3",
          "ticks": 44624,
          "time": 58.104166666666664,
          "velocity": 1
        },
        {
          "duration": 0.1315104166666714,
          "durationTicks": 101,
          "midi": 50,
          "name": "D3",
          "ticks": 44624,
          "time": 58.104166666666664,
          "velocity": 1
        },
        {
          "duration": 0.1315104166666643,
          "durationTicks": 101,
          "midi": 60,
          "name": "C4",
          "ticks": 44743,
          "time": 58.259114583333336,
          "velocity": 1
        },
        {
          "duration": 0.1315104166666643,
          "durationTicks": 101,
          "midi": 51,
          "name": "D#3",
          "ticks": 44743,
          "time": 58.259114583333336,
          "velocity": 1
        },
        {
          "duration": 0.1315104166666643,
          "durationTicks": 101,
          "midi": 68,
          "name": "G#4",
          "ticks": 44862,
          "time": 58.4140625,
          "velocity": 1
        },
        {
          "duration": 1.2265625,
          "durationTicks": 942,
          "midi": 43,
          "name": "G2",
          "ticks": 44862,
          "time": 58.4140625,
          "velocity": 1
        },
        {
          "duration": 0.1315104166666714,
          "durationTicks": 101,
          "midi": 60,
          "name": "C4",
          "ticks": 44981,
          "time": 58.569010416666664,
          "velocity": 1
        },
        {
          "duration": 0.1171875,
          "durationTicks": 90,
          "midi": 51,
          "name": "D#3",
          "ticks": 44981,
          "time": 58.569010416666664,
          "velocity": 1
        },
        {
          "duration": 0.1315104166666643,
          "durationTicks": 101,
          "midi": 59,
          "name": "B3",
          "ticks": 45100,
          "time": 58.723958333333336,
          "velocity": 1
        },
        {
          "duration": 0.1171875,
          "durationTicks": 90,
          "midi": 50,
          "name": "D3",
          "ticks": 45100,
          "time": 58.723958333333336,
          "velocity": 1
        },
        {
          "duration": 0.1315104166666643,
          "durationTicks": 101,
          "midi": 60,
          "name": "C4",
          "ticks": 45219,
          "time": 58.87890625,
          "velocity": 1
        },
        {
          "duration": 0.1171875,
          "durationTicks": 90,
          "midi": 51,
          "name": "D#3",
          "ticks": 45219,
          "time": 58.87890625,
          "velocity": 1
        },
        {
          "duration": 0.1315104166666714,
          "durationTicks": 101,
          "midi": 62,
          "name": "D4",
          "ticks": 45338,
          "time": 59.033854166666664,
          "velocity": 1
        },
        {
          "duration": 0.1171875,
          "durationTicks": 90,
          "midi": 53,
          "name": "F3",
          "ticks": 45338,
          "time": 59.033854166666664,
          "velocity": 1
        },
        {
          "duration": 0.1315104166666643,
          "durationTicks": 101,
          "midi": 60,
          "name": "C4",
          "ticks": 45457,
          "time": 59.188802083333336,
          "velocity": 1
        },
        {
          "duration": 0.1171875,
          "durationTicks": 90,
          "midi": 51,
          "name": "D#3",
          "ticks": 45457,
          "time": 59.188802083333336,
          "velocity": 1
        },
        {
          "duration": 0.1315104166666643,
          "durationTicks": 101,
          "midi": 59,
          "name": "B3",
          "ticks": 45576,
          "time": 59.34375,
          "velocity": 1
        },
        {
          "duration": 0.1171875,
          "durationTicks": 90,
          "midi": 50,
          "name": "D3",
          "ticks": 45576,
          "time": 59.34375,
          "velocity": 1
        },
        {
          "duration": 0.1315104166666643,
          "durationTicks": 101,
          "midi": 60,
          "name": "C4",
          "ticks": 45696,
          "time": 59.5,
          "velocity": 1
        },
        {
          "duration": 0.1171875,
          "durationTicks": 90,
          "midi": 51,
          "name": "D#3",
          "ticks": 45696,
          "time": 59.5,
          "velocity": 1
        },
        {
          "duration": 0.6002604166666714,
          "durationTicks": 461,
          "midi": 59,
          "name": "B3",
          "ticks": 45824,
          "time": 59.666666666666664,
          "velocity": 1
        },
        {
          "duration": 2.41796875,
          "durationTicks": 1857,
          "midi": 43,
          "name": "G2",
          "ticks": 45824,
          "time": 59.666666666666664,
          "velocity": 1
        },
        {
          "duration": 2.2604166666666643,
          "durationTicks": 1736,
          "midi": 47,
          "name": "B2",
          "ticks": 45964,
          "time": 59.848958333333336,
          "velocity": 1
        },
        {
          "duration": 0.1419270833333357,
          "durationTicks": 109,
          "midi": 50,
          "name": "D3",
          "ticks": 46080,
          "time": 60,
          "velocity": 1
        },
        {
          "duration": 0.1419270833333357,
          "durationTicks": 109,
          "midi": 53,
          "name": "F3",
          "ticks": 46196,
          "time": 60.151041666666664,
          "velocity": 1
        },
        {
          "duration": 0.1419270833333357,
          "durationTicks": 109,
          "midi": 56,
          "name": "G#3",
          "ticks": 46313,
          "time": 60.303385416666664,
          "velocity": 1
        },
        {
          "duration": 0.1419270833333286,
          "durationTicks": 109,
          "midi": 53,
          "name": "F3",
          "ticks": 46429,
          "time": 60.454427083333336,
          "velocity": 1
        },
        {
          "duration": 0.1419270833333286,
          "durationTicks": 109,
          "midi": 52,
          "name": "E3",
          "ticks": 46546,
          "time": 60.606770833333336,
          "velocity": 1
        },
        {
          "duration": 0.1419270833333357,
          "durationTicks": 109,
          "midi": 53,
          "name": "F3",
          "ticks": 46662,
          "time": 60.7578125,
          "velocity": 1
        },
        {
          "duration": 0.1419270833333357,
          "durationTicks": 109,
          "midi": 59,
          "name": "B3",
          "ticks": 46779,
          "time": 60.91015625,
          "velocity": 1
        },
        {
          "duration": 0.1419270833333357,
          "durationTicks": 109,
          "midi": 53,
          "name": "F3",
          "ticks": 46896,
          "time": 61.0625,
          "velocity": 1
        },
        {
          "duration": 0.1419270833333357,
          "durationTicks": 109,
          "midi": 62,
          "name": "D4",
          "ticks": 47012,
          "time": 61.213541666666664,
          "velocity": 1
        },
        {
          "duration": 0.1419270833333357,
          "durationTicks": 109,
          "midi": 59,
          "name": "B3",
          "ticks": 47129,
          "time": 61.365885416666664,
          "velocity": 1
        },
        {
          "duration": 0.1419270833333286,
          "durationTicks": 109,
          "midi": 56,
          "name": "G#3",
          "ticks": 47245,
          "time": 61.516927083333336,
          "velocity": 1
        },
        {
          "duration": 0.1419270833333286,
          "durationTicks": 109,
          "midi": 53,
          "name": "F3",
          "ticks": 47362,
          "time": 61.669270833333336,
          "velocity": 1
        },
        {
          "duration": 0.1419270833333357,
          "durationTicks": 109,
          "midi": 52,
          "name": "E3",
          "ticks": 47478,
          "time": 61.8203125,
          "velocity": 1
        },
        {
          "duration": 0.1419270833333357,
          "durationTicks": 109,
          "midi": 53,
          "name": "F3",
          "ticks": 47595,
          "time": 61.97265625,
          "velocity": 1
        },
        {
          "duration": 2.4700520833333357,
          "durationTicks": 1897,
          "midi": 43,
          "name": "G2",
          "ticks": 47705,
          "time": 62.115885416666664,
          "velocity": 1
        },
        {
          "duration": 2.308593749999993,
          "durationTicks": 1773,
          "midi": 48,
          "name": "C3",
          "ticks": 47863,
          "time": 62.321614583333336,
          "velocity": 1
        },
        {
          "duration": 2.0989583333333286,
          "durationTicks": 1612,
          "midi": 51,
          "name": "D#3",
          "ticks": 47982,
          "time": 62.4765625,
          "velocity": 1
        },
        {
          "duration": 0.14453125,
          "durationTicks": 111,
          "midi": 55,
          "name": "G3",
          "ticks": 48101,
          "time": 62.631510416666664,
          "velocity": 1
        },
        {
          "duration": 0.14453125,
          "durationTicks": 111,
          "midi": 60,
          "name": "C4",
          "ticks": 48220,
          "time": 62.786458333333336,
          "velocity": 1
        },
        {
          "duration": 0.14453125,
          "durationTicks": 111,
          "midi": 55,
          "name": "G3",
          "ticks": 48339,
          "time": 62.94140625,
          "velocity": 1
        },
        {
          "duration": 0.14453125,
          "durationTicks": 111,
          "midi": 54,
          "name": "F#3",
          "ticks": 48458,
          "time": 63.096354166666664,
          "velocity": 1
        },
        {
          "duration": 0.14453125,
          "durationTicks": 111,
          "midi": 55,
          "name": "G3",
          "ticks": 48577,
          "time": 63.251302083333336,
          "velocity": 1
        },
        {
          "duration": 0.14453125,
          "durationTicks": 111,
          "midi": 63,
          "name": "D#4",
          "ticks": 48696,
          "time": 63.40625,
          "velocity": 1
        },
        {
          "duration": 0.14453125,
          "durationTicks": 111,
          "midi": 60,
          "name": "C4",
          "ticks": 48815,
          "time": 63.561197916666664,
          "velocity": 1
        },
        {
          "duration": 0.14453125,
          "durationTicks": 111,
          "midi": 67,
          "name": "G4",
          "ticks": 48934,
          "time": 63.716145833333336,
          "velocity": 1
        },
        {
          "duration": 0.14453125,
          "durationTicks": 111,
          "midi": 63,
          "name": "D#4",
          "ticks": 49053,
          "time": 63.87109375,
          "velocity": 1
        },
        {
          "duration": 0.14453125,
          "durationTicks": 111,
          "midi": 60,
          "name": "C4",
          "ticks": 49172,
          "time": 64.02604166666667,
          "velocity": 1
        },
        {
          "duration": 0.14453125,
          "durationTicks": 111,
          "midi": 56,
          "name": "G#3",
          "ticks": 49291,
          "time": 64.18098958333333,
          "velocity": 1
        },
        {
          "duration": 0.14453125,
          "durationTicks": 111,
          "midi": 55,
          "name": "G3",
          "ticks": 49410,
          "time": 64.3359375,
          "velocity": 1
        },
        {
          "duration": 0.14453125,
          "durationTicks": 111,
          "midi": 56,
          "name": "G#3",
          "ticks": 49529,
          "time": 64.49088541666667,
          "velocity": 1
        },
        {
          "duration": 2.65234375,
          "durationTicks": 2037,
          "midi": 43,
          "name": "G2",
          "ticks": 49655,
          "time": 64.65494791666667,
          "velocity": 1
        },
        {
          "duration": 2.453125,
          "durationTicks": 1884,
          "midi": 45,
          "name": "A2",
          "ticks": 49803,
          "time": 64.84765625,
          "velocity": 1
        },
        {
          "duration": 2.2903645833333286,
          "durationTicks": 1759,
          "midi": 54,
          "name": "F#3",
          "ticks": 49926,
          "time": 65.0078125,
          "velocity": 1
        },
        {
          "duration": 0.1497395833333286,
          "durationTicks": 115,
          "midi": 60,
          "name": "C4",
          "ticks": 50048,
          "time": 65.16666666666667,
          "velocity": 1
        },
        {
          "duration": 0.1497395833333286,
          "durationTicks": 115,
          "midi": 63,
          "name": "D#4",
          "ticks": 50171,
          "time": 65.32682291666667,
          "velocity": 1
        },
        {
          "duration": 0.1497395833333286,
          "durationTicks": 115,
          "midi": 60,
          "name": "C4",
          "ticks": 50294,
          "time": 65.48697916666667,
          "velocity": 1
        },
        {
          "duration": 0.1497395833333286,
          "durationTicks": 115,
          "midi": 59,
          "name": "B3",
          "ticks": 50417,
          "time": 65.64713541666667,
          "velocity": 1
        },
        {
          "duration": 0.1497395833333428,
          "durationTicks": 115,
          "midi": 60,
          "name": "C4",
          "ticks": 50539,
          "time": 65.80598958333333,
          "velocity": 1
        },
        {
          "duration": 0.1497395833333428,
          "durationTicks": 115,
          "midi": 66,
          "name": "F#4",
          "ticks": 50662,
          "time": 65.96614583333333,
          "velocity": 1
        },
        {
          "duration": 0.1497395833333428,
          "durationTicks": 115,
          "midi": 60,
          "name": "C4",
          "ticks": 50785,
          "time": 66.12630208333333,
          "velocity": 1
        },
        {
          "duration": 0.1497395833333428,
          "durationTicks": 115,
          "midi": 69,
          "name": "A4",
          "ticks": 50908,
          "time": 66.28645833333333,
          "velocity": 1
        },
        {
          "duration": 0.1497395833333428,
          "durationTicks": 115,
          "midi": 66,
          "name": "F#4",
          "ticks": 51031,
          "time": 66.44661458333333,
          "velocity": 1
        },
        {
          "duration": 0.1497395833333286,
          "durationTicks": 115,
          "midi": 63,
          "name": "D#4",
          "ticks": 51153,
          "time": 66.60546875,
          "velocity": 1
        },
        {
          "duration": 0.1497395833333286,
          "durationTicks": 115,
          "midi": 60,
          "name": "C4",
          "ticks": 51276,
          "time": 66.765625,
          "velocity": 1
        },
        {
          "duration": 0.1497395833333286,
          "durationTicks": 115,
          "midi": 59,
          "name": "B3",
          "ticks": 51399,
          "time": 66.92578125,
          "velocity": 1
        },
        {
          "duration": 0.1979166666666714,
          "durationTicks": 152,
          "midi": 60,
          "name": "C4",
          "ticks": 51540,
          "time": 67.109375,
          "velocity": 1
        },
        {
          "duration": 2.1328125,
          "durationTicks": 1638,
          "midi": 43,
          "name": "G2",
          "ticks": 51707,
          "time": 67.32682291666667,
          "velocity": 1
        },
        {
          "duration": 0.10546875,
          "durationTicks": 81,
          "midi": 74,
          "name": "D5",
          "ticks": 52111,
          "time": 67.85286458333333,
          "velocity": 1
        },
        {
          "duration": 0.10546875,
          "durationTicks": 81,
          "midi": 72,
          "name": "C5",
          "ticks": 52195,
          "time": 67.96223958333333,
          "velocity": 1
        },
        {
          "duration": 0.10546875,
          "durationTicks": 81,
          "midi": 74,
          "name": "D5",
          "ticks": 52279,
          "time": 68.07161458333333,
          "velocity": 1
        },
        {
          "duration": 0.2057291666666572,
          "durationTicks": 158,
          "midi": 75,
          "name": "D#5",
          "ticks": 52364,
          "time": 68.18229166666667,
          "velocity": 1
        },
        {
          "duration": 0.10546875,
          "durationTicks": 81,
          "midi": 72,
          "name": "C5",
          "ticks": 52448,
          "time": 68.29166666666667,
          "velocity": 1
        },
        {
          "duration": 0.10546875,
          "durationTicks": 81,
          "midi": 71,
          "name": "B4",
          "ticks": 52532,
          "time": 68.40104166666667,
          "velocity": 1
        },
        {
          "duration": 0.10546875,
          "durationTicks": 81,
          "midi": 72,
          "name": "C5",
          "ticks": 52617,
          "time": 68.51171875,
          "velocity": 1
        },
        {
          "duration": 0.2057291666666714,
          "durationTicks": 158,
          "midi": 69,
          "name": "A4",
          "ticks": 52701,
          "time": 68.62109375,
          "velocity": 1
        },
        {
          "duration": 0.10546875,
          "durationTicks": 81,
          "midi": 72,
          "name": "C5",
          "ticks": 52785,
          "time": 68.73046875,
          "velocity": 1
        },
        {
          "duration": 0.10546875,
          "durationTicks": 81,
          "midi": 71,
          "name": "B4",
          "ticks": 52870,
          "time": 68.84114583333333,
          "velocity": 1
        },
        {
          "duration": 0.10546875,
          "durationTicks": 81,
          "midi": 72,
          "name": "C5",
          "ticks": 52954,
          "time": 68.95052083333333,
          "velocity": 1
        },
        {
          "duration": 0.2057291666666714,
          "durationTicks": 158,
          "midi": 74,
          "name": "D5",
          "ticks": 53038,
          "time": 69.05989583333333,
          "velocity": 1
        },
        {
          "duration": 0.48828125,
          "durationTicks": 375,
          "midi": 55,
          "name": "G3",
          "ticks": 53038,
          "time": 69.05989583333333,
          "velocity": 1
        },
        {
          "duration": 0.10546875,
          "durationTicks": 81,
          "midi": 71,
          "name": "B4",
          "ticks": 53123,
          "time": 69.17057291666667,
          "velocity": 1
        },
        {
          "duration": 0.10546875,
          "durationTicks": 81,
          "midi": 69,
          "name": "A4",
          "ticks": 53207,
          "time": 69.27994791666667,
          "velocity": 1
        },
        {
          "duration": 0.10546875,
          "durationTicks": 81,
          "midi": 71,
          "name": "B4",
          "ticks": 53291,
          "time": 69.38932291666667,
          "velocity": 1
        },
        {
          "duration": 0.2057291666666714,
          "durationTicks": 158,
          "midi": 67,
          "name": "G4",
          "ticks": 53376,
          "time": 69.5,
          "velocity": 1
        },
        {
          "duration": 0.10546875,
          "durationTicks": 81,
          "midi": 71,
          "name": "B4",
          "ticks": 53460,
          "time": 69.609375,
          "velocity": 1
        },
        {
          "duration": 0.10546875,
          "durationTicks": 81,
          "midi": 62,
          "name": "D4",
          "ticks": 53460,
          "time": 69.609375,
          "velocity": 1
        },
        {
          "duration": 0.10546875,
          "durationTicks": 81,
          "midi": 69,
          "name": "A4",
          "ticks": 53544,
          "time": 69.71875,
          "velocity": 1
        },
        {
          "duration": 0.10546875,
          "durationTicks": 81,
          "midi": 60,
          "name": "C4",
          "ticks": 53544,
          "time": 69.71875,
          "velocity": 1
        },
        {
          "duration": 0.10546875,
          "durationTicks": 81,
          "midi": 71,
          "name": "B4",
          "ticks": 53629,
          "time": 69.82942708333333,
          "velocity": 1
        },
        {
          "duration": 0.10546875,
          "durationTicks": 81,
          "midi": 62,
          "name": "D4",
          "ticks": 53629,
          "time": 69.82942708333333,
          "velocity": 1
        },
        {
          "duration": 0.2057291666666714,
          "durationTicks": 158,
          "midi": 72,
          "name": "C5",
          "ticks": 53713,
          "time": 69.93880208333333,
          "velocity": 1
        },
        {
          "duration": 0.2057291666666714,
          "durationTicks": 158,
          "midi": 63,
          "name": "D#4",
          "ticks": 53713,
          "time": 69.93880208333333,
          "velocity": 1
        },
        {
          "duration": 0.10546875,
          "durationTicks": 81,
          "midi": 69,
          "name": "A4",
          "ticks": 53797,
          "time": 70.04817708333333,
          "velocity": 1
        },
        {
          "duration": 0.10546875,
          "durationTicks": 81,
          "midi": 60,
          "name": "C4",
          "ticks": 53797,
          "time": 70.04817708333333,
          "velocity": 1
        },
        {
          "duration": 0.10546875,
          "durationTicks": 81,
          "midi": 67,
          "name": "G4",
          "ticks": 53882,
          "time": 70.15885416666667,
          "velocity": 1
        },
        {
          "duration": 0.10546875,
          "durationTicks": 81,
          "midi": 59,
          "name": "B3",
          "ticks": 53882,
          "time": 70.15885416666667,
          "velocity": 1
        },
        {
          "duration": 0.10546875,
          "durationTicks": 81,
          "midi": 69,
          "name": "A4",
          "ticks": 53966,
          "time": 70.26822916666667,
          "velocity": 1
        },
        {
          "duration": 0.10546875,
          "durationTicks": 81,
          "midi": 60,
          "name": "C4",
          "ticks": 53966,
          "time": 70.26822916666667,
          "velocity": 1
        },
        {
          "duration": 0.2057291666666572,
          "durationTicks": 158,
          "midi": 66,
          "name": "F#4",
          "ticks": 54050,
          "time": 70.37760416666667,
          "velocity": 1
        },
        {
          "duration": 0.2057291666666572,
          "durationTicks": 158,
          "midi": 57,
          "name": "A3",
          "ticks": 54050,
          "time": 70.37760416666667,
          "velocity": 1
        },
        {
          "duration": 0.10546875,
          "durationTicks": 81,
          "midi": 69,
          "name": "A4",
          "ticks": 54135,
          "time": 70.48828125,
          "velocity": 1
        },
        {
          "duration": 0.10546875,
          "durationTicks": 81,
          "midi": 60,
          "name": "C4",
          "ticks": 54135,
          "time": 70.48828125,
          "velocity": 1
        },
        {
          "duration": 0.10546875,
          "durationTicks": 81,
          "midi": 67,
          "name": "G4",
          "ticks": 54219,
          "time": 70.59765625,
          "velocity": 1
        },
        {
          "duration": 0.10546875,
          "durationTicks": 81,
          "midi": 59,
          "name": "B3",
          "ticks": 54219,
          "time": 70.59765625,
          "velocity": 1
        },
        {
          "duration": 0.10546875,
          "durationTicks": 81,
          "midi": 69,
          "name": "A4",
          "ticks": 54303,
          "time": 70.70703125,
          "velocity": 1
        },
        {
          "duration": 0.10546875,
          "durationTicks": 81,
          "midi": 60,
          "name": "C4",
          "ticks": 54303,
          "time": 70.70703125,
          "velocity": 1
        },
        {
          "duration": 0.2057291666666714,
          "durationTicks": 158,
          "midi": 71,
          "name": "B4",
          "ticks": 54387,
          "time": 70.81640625,
          "velocity": 1
        },
        {
          "duration": 0.2057291666666714,
          "durationTicks": 158,
          "midi": 62,
          "name": "D4",
          "ticks": 54387,
          "time": 70.81640625,
          "velocity": 1
        },
        {
          "duration": 0.10546875,
          "durationTicks": 81,
          "midi": 67,
          "name": "G4",
          "ticks": 54472,
          "time": 70.92708333333333,
          "velocity": 1
        },
        {
          "duration": 0.10546875,
          "durationTicks": 81,
          "midi": 59,
          "name": "B3",
          "ticks": 54472,
          "time": 70.92708333333333,
          "velocity": 1
        },
        {
          "duration": 0.10546875,
          "durationTicks": 81,
          "midi": 66,
          "name": "F#4",
          "ticks": 54556,
          "time": 71.03645833333333,
          "velocity": 1
        },
        {
          "duration": 0.10546875,
          "durationTicks": 81,
          "midi": 57,
          "name": "A3",
          "ticks": 54556,
          "time": 71.03645833333333,
          "velocity": 1
        },
        {
          "duration": 0.10546875,
          "durationTicks": 81,
          "midi": 67,
          "name": "G4",
          "ticks": 54640,
          "time": 71.14583333333333,
          "velocity": 1
        },
        {
          "duration": 0.10546875,
          "durationTicks": 81,
          "midi": 59,
          "name": "B3",
          "ticks": 54640,
          "time": 71.14583333333333,
          "velocity": 1
        },
        {
          "duration": 0.10546875,
          "durationTicks": 81,
          "midi": 62,
          "name": "D4",
          "ticks": 54725,
          "time": 71.25651041666667,
          "velocity": 1
        },
        {
          "duration": 0.10546875,
          "durationTicks": 81,
          "midi": 55,
          "name": "G3",
          "ticks": 54725,
          "time": 71.25651041666667,
          "velocity": 1
        },
        {
          "duration": 0.10546875,
          "durationTicks": 81,
          "midi": 79,
          "name": "G5",
          "ticks": 54809,
          "time": 71.36588541666667,
          "velocity": 1
        },
        {
          "duration": 0.10546875,
          "durationTicks": 81,
          "midi": 59,
          "name": "B3",
          "ticks": 54809,
          "time": 71.36588541666667,
          "velocity": 1
        },
        {
          "duration": 0.10546875,
          "durationTicks": 81,
          "midi": 77,
          "name": "F5",
          "ticks": 54893,
          "time": 71.47526041666667,
          "velocity": 1
        },
        {
          "duration": 0.10546875,
          "durationTicks": 81,
          "midi": 57,
          "name": "A3",
          "ticks": 54893,
          "time": 71.47526041666667,
          "velocity": 1
        },
        {
          "duration": 0.10546875,
          "durationTicks": 81,
          "midi": 79,
          "name": "G5",
          "ticks": 54978,
          "time": 71.5859375,
          "velocity": 1
        },
        {
          "duration": 0.10546875,
          "durationTicks": 81,
          "midi": 59,
          "name": "B3",
          "ticks": 54978,
          "time": 71.5859375,
          "velocity": 1
        },
        {
          "duration": 0.2057291666666714,
          "durationTicks": 158,
          "midi": 80,
          "name": "G#5",
          "ticks": 55062,
          "time": 71.6953125,
          "velocity": 1
        },
        {
          "duration": 0.2057291666666714,
          "durationTicks": 158,
          "midi": 60,
          "name": "C4",
          "ticks": 55062,
          "time": 71.6953125,
          "velocity": 1
        },
        {
          "duration": 0.10546875,
          "durationTicks": 81,
          "midi": 77,
          "name": "F5",
          "ticks": 55146,
          "time": 71.8046875,
          "velocity": 1
        },
        {
          "duration": 0.10546875,
          "durationTicks": 81,
          "midi": 56,
          "name": "G#3",
          "ticks": 55146,
          "time": 71.8046875,
          "velocity": 1
        },
        {
          "duration": 0.10546875,
          "durationTicks": 81,
          "midi": 75,
          "name": "D#5",
          "ticks": 55231,
          "time": 71.91536458333333,
          "velocity": 1
        },
        {
          "duration": 0.10546875,
          "durationTicks": 81,
          "midi": 55,
          "name": "G3",
          "ticks": 55231,
          "time": 71.91536458333333,
          "velocity": 1
        },
        {
          "duration": 0.10546875,
          "durationTicks": 81,
          "midi": 77,
          "name": "F5",
          "ticks": 55315,
          "time": 72.02473958333333,
          "velocity": 1
        },
        {
          "duration": 0.10546875,
          "durationTicks": 81,
          "midi": 56,
          "name": "G#3",
          "ticks": 55315,
          "time": 72.02473958333333,
          "velocity": 1
        },
        {
          "duration": 0.2057291666666714,
          "durationTicks": 158,
          "midi": 74,
          "name": "D5",
          "ticks": 55399,
          "time": 72.13411458333333,
          "velocity": 1
        },
        {
          "duration": 0.2057291666666714,
          "durationTicks": 158,
          "midi": 53,
          "name": "F3",
          "ticks": 55399,
          "time": 72.13411458333333,
          "velocity": 1
        },
        {
          "duration": 0.10546875,
          "durationTicks": 81,
          "midi": 77,
          "name": "F5",
          "ticks": 55484,
          "time": 72.24479166666667,
          "velocity": 1
        },
        {
          "duration": 0.10546875,
          "durationTicks": 81,
          "midi": 57,
          "name": "A3",
          "ticks": 55484,
          "time": 72.24479166666667,
          "velocity": 1
        },
        {
          "duration": 0.10546875,
          "durationTicks": 81,
          "midi": 75,
          "name": "D#5",
          "ticks": 55568,
          "time": 72.35416666666667,
          "velocity": 1
        },
        {
          "duration": 0.10546875,
          "durationTicks": 81,
          "midi": 55,
          "name": "G3",
          "ticks": 55568,
          "time": 72.35416666666667,
          "velocity": 1
        },
        {
          "duration": 0.10546875,
          "durationTicks": 81,
          "midi": 77,
          "name": "F5",
          "ticks": 55652,
          "time": 72.46354166666667,
          "velocity": 1
        },
        {
          "duration": 0.10546875,
          "durationTicks": 81,
          "midi": 57,
          "name": "A3",
          "ticks": 55652,
          "time": 72.46354166666667,
          "velocity": 1
        },
        {
          "duration": 0.2057291666666714,
          "durationTicks": 158,
          "midi": 79,
          "name": "G5",
          "ticks": 55737,
          "time": 72.57421875,
          "velocity": 1
        },
        {
          "duration": 0.2057291666666714,
          "durationTicks": 158,
          "midi": 59,
          "name": "B3",
          "ticks": 55737,
          "time": 72.57421875,
          "velocity": 1
        },
        {
          "duration": 0.10546875,
          "durationTicks": 81,
          "midi": 75,
          "name": "D#5",
          "ticks": 55821,
          "time": 72.68359375,
          "velocity": 1
        },
        {
          "duration": 0.10546875,
          "durationTicks": 81,
          "midi": 55,
          "name": "G3",
          "ticks": 55821,
          "time": 72.68359375,
          "velocity": 1
        },
        {
          "duration": 0.10546875,
          "durationTicks": 81,
          "midi": 74,
          "name": "D5",
          "ticks": 55905,
          "time": 72.79296875,
          "velocity": 1
        },
        {
          "duration": 0.10546875,
          "durationTicks": 81,
          "midi": 53,
          "name": "F3",
          "ticks": 55905,
          "time": 72.79296875,
          "velocity": 1
        },
        {
          "duration": 0.10546875,
          "durationTicks": 81,
          "midi": 75,
          "name": "D#5",
          "ticks": 55990,
          "time": 72.90364583333333,
          "velocity": 1
        },
        {
          "duration": 0.10546875,
          "durationTicks": 81,
          "midi": 55,
          "name": "G3",
          "ticks": 55990,
          "time": 72.90364583333333,
          "velocity": 1
        },
        {
          "duration": 0.2057291666666714,
          "durationTicks": 158,
          "midi": 72,
          "name": "C5",
          "ticks": 56074,
          "time": 73.01302083333333,
          "velocity": 1
        },
        {
          "duration": 0.10546875,
          "durationTicks": 81,
          "midi": 51,
          "name": "D#3",
          "ticks": 56074,
          "time": 73.01302083333333,
          "velocity": 1
        },
        {
          "duration": 0.10546875,
          "durationTicks": 81,
          "midi": 75,
          "name": "D#5",
          "ticks": 56158,
          "time": 73.12239583333333,
          "velocity": 1
        },
        {
          "duration": 0.10546875,
          "durationTicks": 81,
          "midi": 67,
          "name": "G4",
          "ticks": 56158,
          "time": 73.12239583333333,
          "velocity": 1
        },
        {
          "duration": 0.10546875,
          "durationTicks": 81,
          "midi": 74,
          "name": "D5",
          "ticks": 56243,
          "time": 73.23307291666667,
          "velocity": 1
        },
        {
          "duration": 0.10546875,
          "durationTicks": 81,
          "midi": 65,
          "name": "F4",
          "ticks": 56243,
          "time": 73.23307291666667,
          "velocity": 1
        },
        {
          "duration": 0.10546875,
          "durationTicks": 81,
          "midi": 75,
          "name": "D#5",
          "ticks": 56327,
          "time": 73.34244791666667,
          "velocity": 1
        },
        {
          "duration": 0.10546875,
          "durationTicks": 81,
          "midi": 67,
          "name": "G4",
          "ticks": 56327,
          "time": 73.34244791666667,
          "velocity": 1
        },
        {
          "duration": 0.2057291666666572,
          "durationTicks": 158,
          "midi": 77,
          "name": "F5",
          "ticks": 56411,
          "time": 73.45182291666667,
          "velocity": 1
        },
        {
          "duration": 0.2057291666666572,
          "durationTicks": 158,
          "midi": 68,
          "name": "G#4",
          "ticks": 56411,
          "time": 73.45182291666667,
          "velocity": 1
        },
        {
          "duration": 0.10546875,
          "durationTicks": 81,
          "midi": 74,
          "name": "D5",
          "ticks": 56495,
          "time": 73.56119791666667,
          "velocity": 1
        },
        {
          "duration": 0.10546875,
          "durationTicks": 81,
          "midi": 65,
          "name": "F4",
          "ticks": 56495,
          "time": 73.56119791666667,
          "velocity": 1
        },
        {
          "duration": 0.10546875,
          "durationTicks": 81,
          "midi": 72,
          "name": "C5",
          "ticks": 56580,
          "time": 73.671875,
          "velocity": 1
        },
        {
          "duration": 0.10546875,
          "durationTicks": 81,
          "midi": 63,
          "name": "D#4",
          "ticks": 56580,
          "time": 73.671875,
          "velocity": 1
        },
        {
          "duration": 0.10546875,
          "durationTicks": 81,
          "midi": 74,
          "name": "D5",
          "ticks": 56664,
          "time": 73.78125,
          "velocity": 1
        },
        {
          "duration": 0.10546875,
          "durationTicks": 81,
          "midi": 65,
          "name": "F4",
          "ticks": 56664,
          "time": 73.78125,
          "velocity": 1
        },
        {
          "duration": 0.2057291666666714,
          "durationTicks": 158,
          "midi": 71,
          "name": "B4",
          "ticks": 56748,
          "time": 73.890625,
          "velocity": 1
        },
        {
          "duration": 0.2057291666666714,
          "durationTicks": 158,
          "midi": 62,
          "name": "D4",
          "ticks": 56748,
          "time": 73.890625,
          "velocity": 1
        },
        {
          "duration": 0.10546875,
          "durationTicks": 81,
          "midi": 74,
          "name": "D5",
          "ticks": 56833,
          "time": 74.00130208333333,
          "velocity": 1
        },
        {
          "duration": 0.10546875,
          "durationTicks": 81,
          "midi": 65,
          "name": "F4",
          "ticks": 56833,
          "time": 74.00130208333333,
          "velocity": 1
        },
        {
          "duration": 0.10546875,
          "durationTicks": 81,
          "midi": 72,
          "name": "C5",
          "ticks": 56917,
          "time": 74.11067708333333,
          "velocity": 1
        },
        {
          "duration": 0.10546875,
          "durationTicks": 81,
          "midi": 63,
          "name": "D#4",
          "ticks": 56917,
          "time": 74.11067708333333,
          "velocity": 1
        },
        {
          "duration": 0.10546875,
          "durationTicks": 81,
          "midi": 74,
          "name": "D5",
          "ticks": 57001,
          "time": 74.22005208333333,
          "velocity": 1
        },
        {
          "duration": 0.10546875,
          "durationTicks": 81,
          "midi": 65,
          "name": "F4",
          "ticks": 57001,
          "time": 74.22005208333333,
          "velocity": 1
        },
        {
          "duration": 0.2057291666666572,
          "durationTicks": 158,
          "midi": 75,
          "name": "D#5",
          "ticks": 57086,
          "time": 74.33072916666667,
          "velocity": 1
        },
        {
          "duration": 0.2057291666666572,
          "durationTicks": 158,
          "midi": 67,
          "name": "G4",
          "ticks": 57086,
          "time": 74.33072916666667,
          "velocity": 1
        },
        {
          "duration": 0.10546875,
          "durationTicks": 81,
          "midi": 72,
          "name": "C5",
          "ticks": 57170,
          "time": 74.44010416666667,
          "velocity": 1
        },
        {
          "duration": 0.10546875,
          "durationTicks": 81,
          "midi": 63,
          "name": "D#4",
          "ticks": 57170,
          "time": 74.44010416666667,
          "velocity": 1
        },
        {
          "duration": 0.10546875,
          "durationTicks": 81,
          "midi": 71,
          "name": "B4",
          "ticks": 57254,
          "time": 74.54947916666667,
          "velocity": 1
        },
        {
          "duration": 0.10546875,
          "durationTicks": 81,
          "midi": 62,
          "name": "D4",
          "ticks": 57254,
          "time": 74.54947916666667,
          "velocity": 1
        },
        {
          "duration": 0.10546875,
          "durationTicks": 81,
          "midi": 72,
          "name": "C5",
          "ticks": 57339,
          "time": 74.66015625,
          "velocity": 1
        },
        {
          "duration": 0.10546875,
          "durationTicks": 81,
          "midi": 63,
          "name": "D#4",
          "ticks": 57339,
          "time": 74.66015625,
          "velocity": 1
        },
        {
          "duration": 0.2057291666666714,
          "durationTicks": 158,
          "midi": 67,
          "name": "G4",
          "ticks": 57423,
          "time": 74.76953125,
          "velocity": 1
        },
        {
          "duration": 0.2057291666666714,
          "durationTicks": 158,
          "midi": 60,
          "name": "C4",
          "ticks": 57423,
          "time": 74.76953125,
          "velocity": 1
        },
        {
          "duration": 0.10546875,
          "durationTicks": 81,
          "midi": 72,
          "name": "C5",
          "ticks": 57507,
          "time": 74.87890625,
          "velocity": 1
        },
        {
          "duration": 0.10546875,
          "durationTicks": 81,
          "midi": 63,
          "name": "D#4",
          "ticks": 57507,
          "time": 74.87890625,
          "velocity": 1
        },
        {
          "duration": 0.10546875,
          "durationTicks": 81,
          "midi": 71,
          "name": "B4",
          "ticks": 57592,
          "time": 74.98958333333333,
          "velocity": 1
        },
        {
          "duration": 0.10546875,
          "durationTicks": 81,
          "midi": 62,
          "name": "D4",
          "ticks": 57592,
          "time": 74.98958333333333,
          "velocity": 1
        },
        {
          "duration": 0.10546875,
          "durationTicks": 81,
          "midi": 72,
          "name": "C5",
          "ticks": 57676,
          "time": 75.09895833333333,
          "velocity": 1
        },
        {
          "duration": 0.10546875,
          "durationTicks": 81,
          "midi": 63,
          "name": "D#4",
          "ticks": 57676,
          "time": 75.09895833333333,
          "velocity": 1
        },
        {
          "duration": 0.3138020833333428,
          "durationTicks": 241,
          "midi": 68,
          "name": "G#4",
          "ticks": 57760,
          "time": 75.20833333333333,
          "velocity": 1
        },
        {
          "duration": 0.3138020833333428,
          "durationTicks": 241,
          "midi": 65,
          "name": "F4",
          "ticks": 57760,
          "time": 75.20833333333333,
          "velocity": 1
        },
        {
          "duration": 0.109375,
          "durationTicks": 84,
          "midi": 77,
          "name": "F5",
          "ticks": 57845,
          "time": 75.31901041666667,
          "velocity": 1
        },
        {
          "duration": 0.109375,
          "durationTicks": 84,
          "midi": 62,
          "name": "D4",
          "ticks": 57845,
          "time": 75.31901041666667,
          "velocity": 1
        },
        {
          "duration": 0.109375,
          "durationTicks": 84,
          "midi": 75,
          "name": "D#5",
          "ticks": 57931,
          "time": 75.43098958333333,
          "velocity": 1
        },
        {
          "duration": 0.109375,
          "durationTicks": 84,
          "midi": 60,
          "name": "C4",
          "ticks": 57931,
          "time": 75.43098958333333,
          "velocity": 1
        },
        {
          "duration": 0.109375,
          "durationTicks": 84,
          "midi": 77,
          "name": "F5",
          "ticks": 58018,
          "time": 75.54427083333333,
          "velocity": 1
        },
        {
          "duration": 0.109375,
          "durationTicks": 84,
          "midi": 62,
          "name": "D4",
          "ticks": 58018,
          "time": 75.54427083333333,
          "velocity": 1
        },
        {
          "duration": 0.3177083333333428,
          "durationTicks": 244,
          "midi": 67,
          "name": "G4",
          "ticks": 58105,
          "time": 75.65755208333333,
          "velocity": 1
        },
        {
          "duration": 0.3177083333333428,
          "durationTicks": 244,
          "midi": 63,
          "name": "D#4",
          "ticks": 58105,
          "time": 75.65755208333333,
          "velocity": 1
        },
        {
          "duration": 0.109375,
          "durationTicks": 84,
          "midi": 75,
          "name": "D#5",
          "ticks": 58192,
          "time": 75.77083333333333,
          "velocity": 1
        },
        {
          "duration": 0.109375,
          "durationTicks": 84,
          "midi": 60,
          "name": "C4",
          "ticks": 58192,
          "time": 75.77083333333333,
          "velocity": 1
        },
        {
          "duration": 0.109375,
          "durationTicks": 84,
          "midi": 74,
          "name": "D5",
          "ticks": 58279,
          "time": 75.88411458333333,
          "velocity": 1
        },
        {
          "duration": 0.109375,
          "durationTicks": 84,
          "midi": 59,
          "name": "B3",
          "ticks": 58279,
          "time": 75.88411458333333,
          "velocity": 1
        },
        {
          "duration": 0.109375,
          "durationTicks": 84,
          "midi": 75,
          "name": "D#5",
          "ticks": 58365,
          "time": 75.99609375,
          "velocity": 1
        },
        {
          "duration": 0.109375,
          "durationTicks": 84,
          "midi": 60,
          "name": "C4",
          "ticks": 58365,
          "time": 75.99609375,
          "velocity": 1
        },
        {
          "duration": 0.3177083333333286,
          "durationTicks": 244,
          "midi": 65,
          "name": "F4",
          "ticks": 58452,
          "time": 76.109375,
          "velocity": 1
        },
        {
          "duration": 0.3177083333333286,
          "durationTicks": 244,
          "midi": 62,
          "name": "D4",
          "ticks": 58452,
          "time": 76.109375,
          "velocity": 1
        },
        {
          "duration": 0.109375,
          "durationTicks": 84,
          "midi": 74,
          "name": "D5",
          "ticks": 58539,
          "time": 76.22265625,
          "velocity": 1
        },
        {
          "duration": 0.109375,
          "durationTicks": 84,
          "midi": 59,
          "name": "B3",
          "ticks": 58539,
          "time": 76.22265625,
          "velocity": 1
        },
        {
          "duration": 0.109375,
          "durationTicks": 84,
          "midi": 72,
          "name": "C5",
          "ticks": 58626,
          "time": 76.3359375,
          "velocity": 1
        },
        {
          "duration": 0.109375,
          "durationTicks": 84,
          "midi": 57,
          "name": "A3",
          "ticks": 58626,
          "time": 76.3359375,
          "velocity": 1
        },
        {
          "duration": 0.109375,
          "durationTicks": 84,
          "midi": 74,
          "name": "D5",
          "ticks": 58713,
          "time": 76.44921875,
          "velocity": 1
        },
        {
          "duration": 0.109375,
          "durationTicks": 84,
          "midi": 59,
          "name": "B3",
          "ticks": 58713,
          "time": 76.44921875,
          "velocity": 1
        },
        {
          "duration": 0.109375,
          "durationTicks": 84,
          "midi": 63,
          "name": "D#4",
          "ticks": 58799,
          "time": 76.56119791666667,
          "velocity": 1
        },
        {
          "duration": 0.3177083333333286,
          "durationTicks": 244,
          "midi": 60,
          "name": "C4",
          "ticks": 58799,
          "time": 76.56119791666667,
          "velocity": 1
        },
        {
          "duration": 0.109375,
          "durationTicks": 84,
          "midi": 72,
          "name": "C5",
          "ticks": 58886,
          "time": 76.67447916666667,
          "velocity": 1
        },
        {
          "duration": 0.109375,
          "durationTicks": 84,
          "midi": 63,
          "name": "D#4",
          "ticks": 58886,
          "time": 76.67447916666667,
          "velocity": 1
        },
        {
          "duration": 0.109375,
          "durationTicks": 84,
          "midi": 71,
          "name": "B4",
          "ticks": 58973,
          "time": 76.78776041666667,
          "velocity": 1
        },
        {
          "duration": 0.109375,
          "durationTicks": 84,
          "midi": 62,
          "name": "D4",
          "ticks": 58973,
          "time": 76.78776041666667,
          "velocity": 1
        },
        {
          "duration": 0.109375,
          "durationTicks": 84,
          "midi": 72,
          "name": "C5",
          "ticks": 59060,
          "time": 76.90104166666667,
          "velocity": 1
        },
        {
          "duration": 0.109375,
          "durationTicks": 84,
          "midi": 63,
          "name": "D#4",
          "ticks": 59060,
          "time": 76.90104166666667,
          "velocity": 1
        },
        {
          "duration": 0.2265625,
          "durationTicks": 174,
          "midi": 68,
          "name": "G#4",
          "ticks": 59147,
          "time": 77.01432291666667,
          "velocity": 1
        },
        {
          "duration": 0.33984375,
          "durationTicks": 261,
          "midi": 53,
          "name": "F3",
          "ticks": 59147,
          "time": 77.01432291666667,
          "velocity": 1
        },
        {
          "duration": 0.1171875,
          "durationTicks": 90,
          "midi": 65,
          "name": "F4",
          "ticks": 59240,
          "time": 77.13541666666667,
          "velocity": 1
        },
        {
          "duration": 0.1171875,
          "durationTicks": 90,
          "midi": 62,
          "name": "D4",
          "ticks": 59240,
          "time": 77.13541666666667,
          "velocity": 1
        },
        {
          "duration": 0.1171875,
          "durationTicks": 90,
          "midi": 63,
          "name": "D#4",
          "ticks": 59333,
          "time": 77.25651041666667,
          "velocity": 1
        },
        {
          "duration": 0.1171875,
          "durationTicks": 90,
          "midi": 60,
          "name": "C4",
          "ticks": 59333,
          "time": 77.25651041666667,
          "velocity": 1
        },
        {
          "duration": 0.1171875,
          "durationTicks": 90,
          "midi": 65,
          "name": "F4",
          "ticks": 59426,
          "time": 77.37760416666667,
          "velocity": 1
        },
        {
          "duration": 0.1171875,
          "durationTicks": 90,
          "midi": 62,
          "name": "D4",
          "ticks": 59426,
          "time": 77.37760416666667,
          "velocity": 1
        },
        {
          "duration": 0.2265625,
          "durationTicks": 174,
          "midi": 67,
          "name": "G4",
          "ticks": 59519,
          "time": 77.49869791666667,
          "velocity": 1
        },
        {
          "duration": 0.33984375,
          "durationTicks": 261,
          "midi": 51,
          "name": "D#3",
          "ticks": 59519,
          "time": 77.49869791666667,
          "velocity": 1
        },
        {
          "duration": 0.1171875,
          "durationTicks": 90,
          "midi": 63,
          "name": "D#4",
          "ticks": 59612,
          "time": 77.61979166666667,
          "velocity": 1
        },
        {
          "duration": 0.1171875,
          "durationTicks": 90,
          "midi": 60,
          "name": "C4",
          "ticks": 59612,
          "time": 77.61979166666667,
          "velocity": 1
        },
        {
          "duration": 0.1171875,
          "durationTicks": 90,
          "midi": 62,
          "name": "D4",
          "ticks": 59705,
          "time": 77.74088541666667,
          "velocity": 1
        },
        {
          "duration": 0.1171875,
          "durationTicks": 90,
          "midi": 59,
          "name": "B3",
          "ticks": 59705,
          "time": 77.74088541666667,
          "velocity": 1
        },
        {
          "duration": 0.1171875,
          "durationTicks": 90,
          "midi": 63,
          "name": "D#4",
          "ticks": 59798,
          "time": 77.86197916666667,
          "velocity": 1
        },
        {
          "duration": 0.1171875,
          "durationTicks": 90,
          "midi": 60,
          "name": "C4",
          "ticks": 59798,
          "time": 77.86197916666667,
          "velocity": 1
        },
        {
          "duration": 0.2265625,
          "durationTicks": 174,
          "midi": 65,
          "name": "F4",
          "ticks": 59891,
          "time": 77.98307291666667,
          "velocity": 1
        },
        {
          "duration": 0.33984375,
          "durationTicks": 261,
          "midi": 50,
          "name": "D3",
          "ticks": 59891,
          "time": 77.98307291666667,
          "velocity": 1
        },
        {
          "duration": 0.1171875,
          "durationTicks": 90,
          "midi": 62,
          "name": "D4",
          "ticks": 59984,
          "time": 78.10416666666667,
          "velocity": 1
        },
        {
          "duration": 0.1171875,
          "durationTicks": 90,
          "midi": 59,
          "name": "B3",
          "ticks": 59984,
          "time": 78.10416666666667,
          "velocity": 1
        },
        {
          "duration": 0.1171875,
          "durationTicks": 90,
          "midi": 60,
          "name": "C4",
          "ticks": 60077,
          "time": 78.22526041666667,
          "velocity": 1
        },
        {
          "duration": 0.1171875,
          "durationTicks": 90,
          "midi": 57,
          "name": "A3",
          "ticks": 60077,
          "time": 78.22526041666667,
          "velocity": 1
        },
        {
          "duration": 0.1432291666666714,
          "durationTicks": 110,
          "midi": 62,
          "name": "D4",
          "ticks": 60180,
          "time": 78.359375,
          "velocity": 1
        },
        {
          "duration": 0.1432291666666714,
          "durationTicks": 110,
          "midi": 59,
          "name": "B3",
          "ticks": 60180,
          "time": 78.359375,
          "velocity": 1
        },
        {
          "duration": 3.3919270833333286,
          "durationTicks": 2605,
          "midi": 58,
          "name": "A#3",
          "ticks": 60311,
          "time": 78.52994791666667,
          "velocity": 1
        },
        {
          "duration": 3.3919270833333286,
          "durationTicks": 2605,
          "midi": 55,
          "name": "G3",
          "ticks": 60311,
          "time": 78.52994791666667,
          "velocity": 1
        },
        {
          "duration": 3.3919270833333286,
          "durationTicks": 2605,
          "midi": 48,
          "name": "C3",
          "ticks": 60311,
          "time": 78.52994791666667,
          "velocity": 1
        },
        {
          "duration": 0.3645833333333286,
          "durationTicks": 280,
          "midi": 65,
          "name": "F4",
          "ticks": 60311,
          "time": 78.52994791666667,
          "velocity": 1
        },
        {
          "duration": 0.0651041666666714,
          "durationTicks": 50,
          "midi": 64,
          "name": "E4",
          "ticks": 60582,
          "time": 78.8828125,
          "velocity": 1
        },
        {
          "duration": 0.0651041666666714,
          "durationTicks": 50,
          "midi": 65,
          "name": "F4",
          "ticks": 60637,
          "time": 78.95442708333333,
          "velocity": 1
        },
        {
          "duration": 0.0651041666666714,
          "durationTicks": 50,
          "midi": 64,
          "name": "E4",
          "ticks": 60691,
          "time": 79.02473958333333,
          "velocity": 1
        },
        {
          "duration": 0.06510416666665719,
          "durationTicks": 50,
          "midi": 65,
          "name": "F4",
          "ticks": 60746,
          "time": 79.09635416666667,
          "velocity": 1
        },
        {
          "duration": 0.06510416666665719,
          "durationTicks": 50,
          "midi": 64,
          "name": "E4",
          "ticks": 60800,
          "time": 79.16666666666667,
          "velocity": 1
        },
        {
          "duration": 0.0651041666666714,
          "durationTicks": 50,
          "midi": 65,
          "name": "F4",
          "ticks": 60855,
          "time": 79.23828125,
          "velocity": 1
        },
        {
          "duration": 1.2434895833333428,
          "durationTicks": 955,
          "midi": 64,
          "name": "E4",
          "ticks": 60910,
          "time": 79.30989583333333,
          "velocity": 1
        },
        {
          "duration": 0.13671875,
          "durationTicks": 105,
          "midi": 60,
          "name": "C4",
          "ticks": 61975,
          "time": 80.69661458333333,
          "velocity": 1
        },
        {
          "duration": 0.13671875,
          "durationTicks": 105,
          "midi": 62,
          "name": "D4",
          "ticks": 62084,
          "time": 80.83854166666667,
          "velocity": 1
        },
        {
          "duration": 0.13671875,
          "durationTicks": 105,
          "midi": 64,
          "name": "E4",
          "ticks": 62193,
          "time": 80.98046875,
          "velocity": 1
        },
        {
          "duration": 0.13671875,
          "durationTicks": 105,
          "midi": 65,
          "name": "F4",
          "ticks": 62302,
          "time": 81.12239583333333,
          "velocity": 1
        },
        {
          "duration": 0.13671875,
          "durationTicks": 105,
          "midi": 67,
          "name": "G4",
          "ticks": 62411,
          "time": 81.26432291666667,
          "velocity": 1
        },
        {
          "duration": 0.13671875,
          "durationTicks": 105,
          "midi": 68,
          "name": "G#4",
          "ticks": 62520,
          "time": 81.40625,
          "velocity": 1
        },
        {
          "duration": 0.13671875,
          "durationTicks": 105,
          "midi": 70,
          "name": "A#4",
          "ticks": 62630,
          "time": 81.54947916666667,
          "velocity": 1
        },
        {
          "duration": 0.13671875,
          "durationTicks": 105,
          "midi": 72,
          "name": "C5",
          "ticks": 62739,
          "time": 81.69140625,
          "velocity": 1
        },
        {
          "duration": 0.13671875,
          "durationTicks": 105,
          "midi": 70,
          "name": "A#4",
          "ticks": 62848,
          "time": 81.83333333333333,
          "velocity": 1
        },
        {
          "duration": 0.13671875,
          "durationTicks": 105,
          "midi": 68,
          "name": "G#4",
          "ticks": 62957,
          "time": 81.97526041666667,
          "velocity": 1
        },
        {
          "duration": 0.13671875,
          "durationTicks": 105,
          "midi": 67,
          "name": "G4",
          "ticks": 63066,
          "time": 82.1171875,
          "velocity": 1
        },
        {
          "duration": 0.2786458333333428,
          "durationTicks": 214,
          "midi": 65,
          "name": "F4",
          "ticks": 63175,
          "time": 82.25911458333333,
          "velocity": 1
        },
        {
          "duration": 0.13671875,
          "durationTicks": 105,
          "midi": 67,
          "name": "G4",
          "ticks": 63393,
          "time": 82.54296875,
          "velocity": 1
        },
        {
          "duration": 0.13671875,
          "durationTicks": 105,
          "midi": 64,
          "name": "E4",
          "ticks": 63503,
          "time": 82.68619791666667,
          "velocity": 1
        },
        {
          "duration": 0.0651041666666714,
          "durationTicks": 50,
          "midi": 65,
          "name": "F4",
          "ticks": 63612,
          "time": 82.828125,
          "velocity": 1
        },
        {
          "duration": 3.08984375,
          "durationTicks": 2373,
          "midi": 56,
          "name": "G#3",
          "ticks": 63612,
          "time": 82.828125,
          "velocity": 1
        },
        {
          "duration": 1.2578125,
          "durationTicks": 966,
          "midi": 60,
          "name": "C4",
          "ticks": 63612,
          "time": 82.828125,
          "velocity": 1
        },
        {
          "duration": 3.08984375,
          "durationTicks": 2373,
          "midi": 53,
          "name": "F3",
          "ticks": 63612,
          "time": 82.828125,
          "velocity": 1
        },
        {
          "duration": 3.08984375,
          "durationTicks": 2373,
          "midi": 48,
          "name": "C3",
          "ticks": 63612,
          "time": 82.828125,
          "velocity": 1
        },
        {
          "duration": 0.0651041666666714,
          "durationTicks": 50,
          "midi": 64,
          "name": "E4",
          "ticks": 63666,
          "time": 82.8984375,
          "velocity": 1
        },
        {
          "duration": 0.0651041666666714,
          "durationTicks": 50,
          "midi": 65,
          "name": "F4",
          "ticks": 63721,
          "time": 82.97005208333333,
          "velocity": 1
        },
        {
          "duration": 0.0651041666666714,
          "durationTicks": 50,
          "midi": 64,
          "name": "E4",
          "ticks": 63775,
          "time": 83.04036458333333,
          "velocity": 1
        },
        {
          "duration": 0.921875,
          "durationTicks": 708,
          "midi": 65,
          "name": "F4",
          "ticks": 63830,
          "time": 83.11197916666667,
          "velocity": 1
        },
        {
          "duration": 0.1614583333333286,
          "durationTicks": 124,
          "midi": 67,
          "name": "G4",
          "ticks": 64550,
          "time": 84.04947916666667,
          "velocity": 1
        },
        {
          "duration": 0.1484375,
          "durationTicks": 114,
          "midi": 65,
          "name": "F4",
          "ticks": 64678,
          "time": 84.21614583333333,
          "velocity": 1
        },
        {
          "duration": 0.1484375,
          "durationTicks": 114,
          "midi": 64,
          "name": "E4",
          "ticks": 64796,
          "time": 84.36979166666667,
          "velocity": 1
        },
        {
          "duration": 0.1484375,
          "durationTicks": 114,
          "midi": 65,
          "name": "F4",
          "ticks": 64914,
          "time": 84.5234375,
          "velocity": 1
        },
        {
          "duration": 0.1484375,
          "durationTicks": 114,
          "midi": 67,
          "name": "G4",
          "ticks": 65032,
          "time": 84.67708333333333,
          "velocity": 1
        },
        {
          "duration": 0.1484375,
          "durationTicks": 114,
          "midi": 68,
          "name": "G#4",
          "ticks": 65149,
          "time": 84.82942708333333,
          "velocity": 1
        },
        {
          "duration": 0.1484375,
          "durationTicks": 114,
          "midi": 67,
          "name": "G4",
          "ticks": 65267,
          "time": 84.98307291666667,
          "velocity": 1
        },
        {
          "duration": 0.1484375,
          "durationTicks": 114,
          "midi": 65,
          "name": "F4",
          "ticks": 65385,
          "time": 85.13671875,
          "velocity": 1
        },
        {
          "duration": 0.1484375,
          "durationTicks": 114,
          "midi": 63,
          "name": "D#4",
          "ticks": 65503,
          "time": 85.29036458333333,
          "velocity": 1
        },
        {
          "duration": 0.1484375,
          "durationTicks": 114,
          "midi": 62,
          "name": "D4",
          "ticks": 65621,
          "time": 85.44401041666667,
          "velocity": 1
        },
        {
          "duration": 0.1484375,
          "durationTicks": 114,
          "midi": 63,
          "name": "D#4",
          "ticks": 65738,
          "time": 85.59635416666667,
          "velocity": 1
        },
        {
          "duration": 0.1484375,
          "durationTicks": 114,
          "midi": 65,
          "name": "F4",
          "ticks": 65856,
          "time": 85.75,
          "velocity": 1
        },
        {
          "duration": 0.1484375,
          "durationTicks": 114,
          "midi": 62,
          "name": "D4",
          "ticks": 65974,
          "time": 85.90364583333333,
          "velocity": 1
        },
        {
          "duration": 0.1484375,
          "durationTicks": 114,
          "midi": 63,
          "name": "D#4",
          "ticks": 66092,
          "time": 86.05729166666667,
          "velocity": 1
        },
        {
          "duration": 0.1484375,
          "durationTicks": 114,
          "midi": 65,
          "name": "F4",
          "ticks": 66210,
          "time": 86.2109375,
          "velocity": 1
        },
        {
          "duration": 0.7643229166666714,
          "durationTicks": 587,
          "midi": 59,
          "name": "B3",
          "ticks": 66327,
          "time": 86.36328125,
          "velocity": 1
        },
        {
          "duration": 2.203125,
          "durationTicks": 1692,
          "midi": 36,
          "name": "C2",
          "ticks": 66530,
          "time": 86.62760416666667,
          "velocity": 1
        },
        {
          "duration": 2.0598958333333286,
          "durationTicks": 1582,
          "midi": 47,
          "name": "B2",
          "ticks": 66648,
          "time": 86.78125,
          "velocity": 1
        },
        {
          "duration": 0.1484375,
          "durationTicks": 114,
          "midi": 50,
          "name": "D3",
          "ticks": 66765,
          "time": 86.93359375,
          "velocity": 1
        },
        {
          "duration": 0.1484375,
          "durationTicks": 114,
          "midi": 53,
          "name": "F3",
          "ticks": 66883,
          "time": 87.08723958333333,
          "velocity": 1
        },
        {
          "duration": 0.1484375,
          "durationTicks": 114,
          "midi": 56,
          "name": "G#3",
          "ticks": 67001,
          "time": 87.24088541666667,
          "velocity": 1
        },
        {
          "duration": 0.1484375,
          "durationTicks": 114,
          "midi": 55,
          "name": "G3",
          "ticks": 67119,
          "time": 87.39453125,
          "velocity": 1
        },
        {
          "duration": 0.1484375,
          "durationTicks": 114,
          "midi": 53,
          "name": "F3",
          "ticks": 67237,
          "time": 87.54817708333333,
          "velocity": 1
        },
        {
          "duration": 0.2864583333333428,
          "durationTicks": 220,
          "midi": 59,
          "name": "B3",
          "ticks": 67354,
          "time": 87.70052083333333,
          "velocity": 1
        },
        {
          "duration": 0.1484375,
          "durationTicks": 114,
          "midi": 53,
          "name": "F3",
          "ticks": 67472,
          "time": 87.85416666666667,
          "velocity": 1
        },
        {
          "duration": 0.2864583333333286,
          "durationTicks": 220,
          "midi": 62,
          "name": "D4",
          "ticks": 67590,
          "time": 88.0078125,
          "velocity": 1
        },
        {
          "duration": 0.1484375,
          "durationTicks": 114,
          "midi": 53,
          "name": "F3",
          "ticks": 67708,
          "time": 88.16145833333333,
          "velocity": 1
        },
        {
          "duration": 0.1484375,
          "durationTicks": 114,
          "midi": 59,
          "name": "B3",
          "ticks": 67826,
          "time": 88.31510416666667,
          "velocity": 1
        },
        {
          "duration": 0.1484375,
          "durationTicks": 114,
          "midi": 56,
          "name": "G#3",
          "ticks": 67943,
          "time": 88.46744791666667,
          "velocity": 1
        },
        {
          "duration": 0.1484375,
          "durationTicks": 114,
          "midi": 55,
          "name": "G3",
          "ticks": 68061,
          "time": 88.62109375,
          "velocity": 1
        },
        {
          "duration": 0.1458333333333428,
          "durationTicks": 112,
          "midi": 53,
          "name": "F3",
          "ticks": 68179,
          "time": 88.77473958333333,
          "velocity": 1
        },
        {
          "duration": 3.3671875,
          "durationTicks": 2586,
          "midi": 36,
          "name": "C2",
          "ticks": 68296,
          "time": 88.92708333333333,
          "velocity": 1
        },
        {
          "duration": 0.57421875,
          "durationTicks": 441,
          "midi": 52,
          "name": "E3",
          "ticks": 68296,
          "time": 88.92708333333333,
          "velocity": 1
        },
        {
          "duration": 0.1484375,
          "durationTicks": 114,
          "midi": 61,
          "name": "C#4",
          "ticks": 68413,
          "time": 89.07942708333333,
          "velocity": 1
        },
        {
          "duration": 0.1484375,
          "durationTicks": 114,
          "midi": 58,
          "name": "A#3",
          "ticks": 68531,
          "time": 89.23307291666667,
          "velocity": 1
        },
        {
          "duration": 0.1484375,
          "durationTicks": 114,
          "midi": 55,
          "name": "G3",
          "ticks": 68649,
          "time": 89.38671875,
          "velocity": 1
        },
        {
          "duration": 0.1484375,
          "durationTicks": 114,
          "midi": 60,
          "name": "C4",
          "ticks": 68767,
          "time": 89.54036458333333,
          "velocity": 1
        },
        {
          "duration": 0.1484375,
          "durationTicks": 114,
          "midi": 56,
          "name": "G#3",
          "ticks": 68885,
          "time": 89.69401041666667,
          "velocity": 1
        },
        {
          "duration": 0.1484375,
          "durationTicks": 114,
          "midi": 53,
          "name": "F3",
          "ticks": 69002,
          "time": 89.84635416666667,
          "velocity": 1
        },
        {
          "duration": 0.1484375,
          "durationTicks": 114,
          "midi": 56,
          "name": "G#3",
          "ticks": 69120,
          "time": 90,
          "velocity": 1
        },
        {
          "duration": 0.2864583333333428,
          "durationTicks": 220,
          "midi": 55,
          "name": "G3",
          "ticks": 69238,
          "time": 90.15364583333333,
          "velocity": 1
        },
        {
          "duration": 0.1484375,
          "durationTicks": 114,
          "midi": 58,
          "name": "A#3",
          "ticks": 69356,
          "time": 90.30729166666667,
          "velocity": 1
        },
        {
          "duration": 0.1484375,
          "durationTicks": 114,
          "midi": 55,
          "name": "G3",
          "ticks": 69474,
          "time": 90.4609375,
          "velocity": 1
        },
        {
          "duration": 0.1484375,
          "durationTicks": 114,
          "midi": 52,
          "name": "E3",
          "ticks": 69591,
          "time": 90.61328125,
          "velocity": 1
        },
        {
          "duration": 0.1484375,
          "durationTicks": 114,
          "midi": 56,
          "name": "G#3",
          "ticks": 69709,
          "time": 90.76692708333333,
          "velocity": 1
        },
        {
          "duration": 0.1484375,
          "durationTicks": 114,
          "midi": 53,
          "name": "F3",
          "ticks": 69827,
          "time": 90.92057291666667,
          "velocity": 1
        },
        {
          "duration": 0.1497395833333286,
          "durationTicks": 115,
          "midi": 50,
          "name": "D3",
          "ticks": 69945,
          "time": 91.07421875,
          "velocity": 1
        },
        {
          "duration": 0.1497395833333286,
          "durationTicks": 115,
          "midi": 53,
          "name": "F3",
          "ticks": 70064,
          "time": 91.22916666666667,
          "velocity": 1
        },
        {
          "duration": 0.2903645833333428,
          "durationTicks": 223,
          "midi": 52,
          "name": "E3",
          "ticks": 70183,
          "time": 91.38411458333333,
          "velocity": 1
        },
        {
          "duration": 0.1497395833333286,
          "durationTicks": 115,
          "midi": 55,
          "name": "G3",
          "ticks": 70302,
          "time": 91.5390625,
          "velocity": 1
        },
        {
          "duration": 0.1497395833333286,
          "durationTicks": 115,
          "midi": 52,
          "name": "E3",
          "ticks": 70421,
          "time": 91.69401041666667,
          "velocity": 1
        },
        {
          "duration": 0.1497395833333428,
          "durationTicks": 115,
          "midi": 48,
          "name": "C3",
          "ticks": 70540,
          "time": 91.84895833333333,
          "velocity": 1
        },
        {
          "duration": 0.2903645833333286,
          "durationTicks": 223,
          "midi": 53,
          "name": "F3",
          "ticks": 70659,
          "time": 92.00390625,
          "velocity": 1
        },
        {
          "duration": 0.1497395833333286,
          "durationTicks": 115,
          "midi": 50,
          "name": "D3",
          "ticks": 70778,
          "time": 92.15885416666667,
          "velocity": 1
        },
        {
          "duration": 0.1497395833333428,
          "durationTicks": 115,
          "midi": 47,
          "name": "B2",
          "ticks": 70897,
          "time": 92.31380208333333,
          "velocity": 1
        },
        {
          "duration": 0.1770833333333286,
          "durationTicks": 136,
          "midi": 50,
          "name": "D3",
          "ticks": 71016,
          "time": 92.46875,
          "velocity": 1
        },
        {
          "duration": 7.9921875,
          "durationTicks": 6138,
          "midi": 36,
          "name": "C2",
          "ticks": 71181,
          "time": 92.68359375,
          "velocity": 1
        },
        {
          "duration": 4.885416666666671,
          "durationTicks": 3752,
          "midi": 43,
          "name": "G2",
          "ticks": 71347,
          "time": 92.89973958333333,
          "velocity": 1
        },
        {
          "duration": 7.60546875,
          "durationTicks": 5841,
          "midi": 48,
          "name": "C3",
          "ticks": 71488,
          "time": 93.08333333333333,
          "velocity": 1
        },
        {
          "duration": 0.1770833333333286,
          "durationTicks": 136,
          "midi": 50,
          "name": "D3",
          "ticks": 71630,
          "time": 93.26822916666667,
          "velocity": 1
        },
        {
          "duration": 0.515625,
          "durationTicks": 396,
          "midi": 52,
          "name": "E3",
          "ticks": 71771,
          "time": 93.45182291666667,
          "velocity": 1
        },
        {
          "duration": 0.1770833333333286,
          "durationTicks": 136,
          "midi": 55,
          "name": "G3",
          "ticks": 71912,
          "time": 93.63541666666667,
          "velocity": 1
        },
        {
          "duration": 0.1770833333333286,
          "durationTicks": 136,
          "midi": 58,
          "name": "A#3",
          "ticks": 72054,
          "time": 93.8203125,
          "velocity": 1
        },
        {
          "duration": 0.1770833333333286,
          "durationTicks": 136,
          "midi": 55,
          "name": "G3",
          "ticks": 72195,
          "time": 94.00390625,
          "velocity": 1
        },
        {
          "duration": 0.515625,
          "durationTicks": 396,
          "midi": 56,
          "name": "G#3",
          "ticks": 72336,
          "time": 94.1875,
          "velocity": 1
        },
        {
          "duration": 0.1770833333333428,
          "durationTicks": 136,
          "midi": 60,
          "name": "C4",
          "ticks": 72478,
          "time": 94.37239583333333,
          "velocity": 1
        },
        {
          "duration": 0.1770833333333428,
          "durationTicks": 136,
          "midi": 65,
          "name": "F4",
          "ticks": 72619,
          "time": 94.55598958333333,
          "velocity": 1
        },
        {
          "duration": 0.1770833333333428,
          "durationTicks": 136,
          "midi": 62,
          "name": "D4",
          "ticks": 72760,
          "time": 94.73958333333333,
          "velocity": 1
        },
        {
          "duration": 0.3450520833333286,
          "durationTicks": 265,
          "midi": 65,
          "name": "F4",
          "ticks": 72902,
          "time": 94.92447916666667,
          "velocity": 1
        },
        {
          "duration": 0.1783854166666572,
          "durationTicks": 137,
          "midi": 68,
          "name": "G#4",
          "ticks": 73043,
          "time": 95.10807291666667,
          "velocity": 1
        },
        {
          "duration": 0.2291666666666714,
          "durationTicks": 176,
          "midi": 72,
          "name": "C5",
          "ticks": 73186,
          "time": 95.29427083333333,
          "velocity": 1
        },
        {
          "duration": 0.2591145833333428,
          "durationTicks": 199,
          "midi": 71,
          "name": "B4",
          "ticks": 73363,
          "time": 95.52473958333333,
          "velocity": 1
        },
        {
          "duration": 4.899739583333329,
          "durationTicks": 3763,
          "midi": 72,
          "name": "C5",
          "ticks": 73568,
          "time": 95.79166666666667,
          "velocity": 1
        },
        {
          "duration": 0.4947916666666714,
          "durationTicks": 380,
          "midi": 67,
          "name": "G4",
          "ticks": 73948,
          "time": 96.28645833333333,
          "velocity": 1
        },
        {
          "duration": 0.9791666666666714,
          "durationTicks": 752,
          "midi": 65,
          "name": "F4",
          "ticks": 74329,
          "time": 96.78255208333333,
          "velocity": 1
        },
        {
          "duration": 0.4869791666666714,
          "durationTicks": 374,
          "midi": 62,
          "name": "D4",
          "ticks": 74710,
          "time": 97.27864583333333,
          "velocity": 1
        },
        {
          "duration": 2.9205729166666714,
          "durationTicks": 2243,
          "midi": 64,
          "name": "E4",
          "ticks": 75090,
          "time": 97.7734375,
          "velocity": 1
        },
        {
          "duration": 0.2161458333333286,
          "durationTicks": 166,
          "midi": 72,
          "name": "C5",
          "ticks": 78399,
          "time": 102.08203125,
          "velocity": 1
        },
        {
          "duration": 0.2161458333333286,
          "durationTicks": 166,
          "midi": 71,
          "name": "B4",
          "ticks": 78566,
          "time": 102.29947916666667,
          "velocity": 1
        },
        {
          "duration": 0.4348958333333286,
          "durationTicks": 334,
          "midi": 72,
          "name": "C5",
          "ticks": 78734,
          "time": 102.51822916666667,
          "velocity": 1
        },
        {
          "duration": 0.3645833333333286,
          "durationTicks": 280,
          "midi": 67,
          "name": "G4",
          "ticks": 79070,
          "time": 102.95572916666667,
          "velocity": 1
        },
        {
          "duration": 0.4348958333333286,
          "durationTicks": 334,
          "midi": 68,
          "name": "G#4",
          "ticks": 79406,
          "time": 103.39322916666667,
          "velocity": 1
        },
        {
          "duration": 0.2161458333333286,
          "durationTicks": 166,
          "midi": 72,
          "name": "C5",
          "ticks": 79742,
          "time": 103.83072916666667,
          "velocity": 1
        },
        {
          "duration": 0.2161458333333428,
          "durationTicks": 166,
          "midi": 71,
          "name": "B4",
          "ticks": 79909,
          "time": 104.04817708333333,
          "velocity": 1
        },
        {
          "duration": 0.4348958333333286,
          "durationTicks": 334,
          "midi": 72,
          "name": "C5",
          "ticks": 80076,
          "time": 104.265625,
          "velocity": 1
        },
        {
          "duration": 0.37109375,
          "durationTicks": 285,
          "midi": 74,
          "name": "D5",
          "ticks": 80412,
          "time": 104.703125,
          "velocity": 1
        },
        {
          "duration": 0.4348958333333428,
          "durationTicks": 334,
          "midi": 67,
          "name": "G4",
          "ticks": 80749,
          "time": 105.14192708333333,
          "velocity": 1
        },
        {
          "duration": 0.2161458333333428,
          "durationTicks": 166,
          "midi": 72,
          "name": "C5",
          "ticks": 81085,
          "time": 105.57942708333333,
          "velocity": 1
        },
        {
          "duration": 0.2161458333333286,
          "durationTicks": 166,
          "midi": 71,
          "name": "B4",
          "ticks": 81252,
          "time": 105.796875,
          "velocity": 1
        },
        {
          "duration": 0.4348958333333286,
          "durationTicks": 334,
          "midi": 72,
          "name": "C5",
          "ticks": 81419,
          "time": 106.01432291666667,
          "velocity": 1
        },
        {
          "duration": 0.3776041666666572,
          "durationTicks": 290,
          "midi": 74,
          "name": "D5",
          "ticks": 81755,
          "time": 106.45182291666667,
          "velocity": 1
        },
        {
          "duration": 0.2161458333333286,
          "durationTicks": 166,
          "midi": 65,
          "name": "F4",
          "ticks": 82091,
          "time": 106.88932291666667,
          "velocity": 1
        },
        {
          "duration": 0.2252604166666572,
          "durationTicks": 173,
          "midi": 67,
          "name": "G4",
          "ticks": 82259,
          "time": 107.10807291666667,
          "velocity": 1
        },
        {
          "duration": 0.09375,
          "durationTicks": 72,
          "midi": 68,
          "name": "G#4",
          "ticks": 82426,
          "time": 107.32552083333333,
          "velocity": 1
        },
        {
          "duration": 0.09375,
          "durationTicks": 72,
          "midi": 67,
          "name": "G4",
          "ticks": 82496,
          "time": 107.41666666666667,
          "velocity": 1
        },
        {
          "duration": 0.70703125,
          "durationTicks": 543,
          "midi": 68,
          "name": "G#4",
          "ticks": 82566,
          "time": 107.5078125,
          "velocity": 1
        },
        {
          "duration": 0.2109375,
          "durationTicks": 162,
          "midi": 67,
          "name": "G4",
          "ticks": 83097,
          "time": 108.19921875,
          "velocity": 1
        },
        {
          "duration": 0.2109375,
          "durationTicks": 162,
          "midi": 65,
          "name": "F4",
          "ticks": 83266,
          "time": 108.41927083333333,
          "velocity": 1
        },
        {
          "duration": 0.2161458333333428,
          "durationTicks": 166,
          "midi": 63,
          "name": "D#4",
          "ticks": 83434,
          "time": 108.63802083333333,
          "velocity": 1
        },
        {
          "duration": 0.2161458333333428,
          "durationTicks": 166,
          "midi": 72,
          "name": "C5",
          "ticks": 83602,
          "time": 108.85677083333333,
          "velocity": 1
        },
        {
          "duration": 0.2161458333333286,
          "durationTicks": 166,
          "midi": 79,
          "name": "G5",
          "ticks": 83769,
          "time": 109.07421875,
          "velocity": 1
        },
        {
          "duration": 0.2161458333333286,
          "durationTicks": 166,
          "midi": 71,
          "name": "B4",
          "ticks": 83769,
          "time": 109.07421875,
          "velocity": 1
        },
        {
          "duration": 0.2161458333333286,
          "durationTicks": 166,
          "midi": 78,
          "name": "F#5",
          "ticks": 83937,
          "time": 109.29296875,
          "velocity": 1
        },
        {
          "duration": 0.2161458333333286,
          "durationTicks": 166,
          "midi": 69,
          "name": "A4",
          "ticks": 83937,
          "time": 109.29296875,
          "velocity": 1
        },
        {
          "duration": 0.43359375,
          "durationTicks": 333,
          "midi": 79,
          "name": "G5",
          "ticks": 84104,
          "time": 109.51041666666667,
          "velocity": 1
        },
        {
          "duration": 0.2161458333333286,
          "durationTicks": 166,
          "midi": 67,
          "name": "G4",
          "ticks": 84104,
          "time": 109.51041666666667,
          "velocity": 1
        },
        {
          "duration": 0.2161458333333428,
          "durationTicks": 166,
          "midi": 65,
          "name": "F4",
          "ticks": 84271,
          "time": 109.72786458333333,
          "velocity": 1
        },
        {
          "duration": 0.2864583333333428,
          "durationTicks": 220,
          "midi": 72,
          "name": "C5",
          "ticks": 84439,
          "time": 109.94661458333333,
          "velocity": 1
        },
        {
          "duration": 0.2161458333333428,
          "durationTicks": 166,
          "midi": 63,
          "name": "D#4",
          "ticks": 84439,
          "time": 109.94661458333333,
          "velocity": 1
        },
        {
          "duration": 0.2161458333333286,
          "durationTicks": 166,
          "midi": 62,
          "name": "D4",
          "ticks": 84606,
          "time": 110.1640625,
          "velocity": 1
        },
        {
          "duration": 0.4348958333333286,
          "durationTicks": 334,
          "midi": 75,
          "name": "D#5",
          "ticks": 84774,
          "time": 110.3828125,
          "velocity": 1
        },
        {
          "duration": 0.4348958333333286,
          "durationTicks": 334,
          "midi": 60,
          "name": "C4",
          "ticks": 84774,
          "time": 110.3828125,
          "velocity": 1
        },
        {
          "duration": 0.2161458333333286,
          "durationTicks": 166,
          "midi": 79,
          "name": "G5",
          "ticks": 85110,
          "time": 110.8203125,
          "velocity": 1
        },
        {
          "duration": 0.43359375,
          "durationTicks": 333,
          "midi": 75,
          "name": "D#5",
          "ticks": 85110,
          "time": 110.8203125,
          "velocity": 1
        },
        {
          "duration": 0.2161458333333286,
          "durationTicks": 166,
          "midi": 78,
          "name": "F#5",
          "ticks": 85277,
          "time": 111.03776041666667,
          "velocity": 1
        },
        {
          "duration": 0.4348958333333428,
          "durationTicks": 334,
          "midi": 79,
          "name": "G5",
          "ticks": 85444,
          "time": 111.25520833333333,
          "velocity": 1
        },
        {
          "duration": 0.4348958333333428,
          "durationTicks": 334,
          "midi": 74,
          "name": "D5",
          "ticks": 85444,
          "time": 111.25520833333333,
          "velocity": 1
        },
        {
          "duration": 0.3125,
          "durationTicks": 240,
          "midi": 81,
          "name": "A5",
          "ticks": 85780,
          "time": 111.69270833333333,
          "velocity": 1
        },
        {
          "duration": 0.4348958333333428,
          "durationTicks": 334,
          "midi": 72,
          "name": "C5",
          "ticks": 85780,
          "time": 111.69270833333333,
          "velocity": 1
        },
        {
          "duration": 0.4348958333333428,
          "durationTicks": 334,
          "midi": 74,
          "name": "D5",
          "ticks": 86116,
          "time": 112.13020833333333,
          "velocity": 1
        },
        {
          "duration": 0.4348958333333428,
          "durationTicks": 334,
          "midi": 70,
          "name": "A#4",
          "ticks": 86116,
          "time": 112.13020833333333,
          "velocity": 1
        },
        {
          "duration": 0.2161458333333286,
          "durationTicks": 166,
          "midi": 79,
          "name": "G5",
          "ticks": 86453,
          "time": 112.56901041666667,
          "velocity": 1
        },
        {
          "duration": 0.43359375,
          "durationTicks": 333,
          "midi": 69,
          "name": "A4",
          "ticks": 86453,
          "time": 112.56901041666667,
          "velocity": 1
        },
        {
          "duration": 0.2161458333333428,
          "durationTicks": 166,
          "midi": 78,
          "name": "F#5",
          "ticks": 86620,
          "time": 112.78645833333333,
          "velocity": 1
        },
        {
          "duration": 0.4348958333333286,
          "durationTicks": 334,
          "midi": 79,
          "name": "G5",
          "ticks": 86787,
          "time": 113.00390625,
          "velocity": 1
        },
        {
          "duration": 0.4348958333333286,
          "durationTicks": 334,
          "midi": 70,
          "name": "A#4",
          "ticks": 86787,
          "time": 113.00390625,
          "velocity": 1
        },
        {
          "duration": 0.390625,
          "durationTicks": 300,
          "midi": 81,
          "name": "A5",
          "ticks": 87123,
          "time": 113.44140625,
          "velocity": 1
        },
        {
          "duration": 0.4348958333333286,
          "durationTicks": 334,
          "midi": 72,
          "name": "C5",
          "ticks": 87123,
          "time": 113.44140625,
          "velocity": 1
        },
        {
          "duration": 0.2161458333333286,
          "durationTicks": 166,
          "midi": 72,
          "name": "C5",
          "ticks": 87459,
          "time": 113.87890625,
          "velocity": 1
        },
        {
          "duration": 0.43359375,
          "durationTicks": 333,
          "midi": 66,
          "name": "F#4",
          "ticks": 87459,
          "time": 113.87890625,
          "velocity": 1
        },
        {
          "duration": 0.2161458333333286,
          "durationTicks": 166,
          "midi": 74,
          "name": "D5",
          "ticks": 87627,
          "time": 114.09765625,
          "velocity": 1
        },
        {
          "duration": 0.10546875,
          "durationTicks": 81,
          "midi": 72,
          "name": "C5",
          "ticks": 87794,
          "time": 114.31510416666667,
          "velocity": 1
        },
        {
          "duration": 0.4322916666666572,
          "durationTicks": 332,
          "midi": 67,
          "name": "G4",
          "ticks": 87794,
          "time": 114.31510416666667,
          "velocity": 1
        },
        {
          "duration": 0.10546875,
          "durationTicks": 81,
          "midi": 74,
          "name": "D5",
          "ticks": 87877,
          "time": 114.42317708333333,
          "velocity": 1
        },
        {
          "duration": 0.6627604166666714,
          "durationTicks": 509,
          "midi": 75,
          "name": "D#5",
          "ticks": 87960,
          "time": 114.53125,
          "velocity": 1
        },
        {
          "duration": 0.4348958333333286,
          "durationTicks": 334,
          "midi": 69,
          "name": "A4",
          "ticks": 88128,
          "time": 114.75,
          "velocity": 1
        },
        {
          "duration": 0.2161458333333286,
          "durationTicks": 166,
          "midi": 74,
          "name": "D5",
          "ticks": 88464,
          "time": 115.1875,
          "velocity": 1
        },
        {
          "duration": 0.43359375,
          "durationTicks": 333,
          "midi": 66,
          "name": "F#4",
          "ticks": 88464,
          "time": 115.1875,
          "velocity": 1
        },
        {
          "duration": 0.2161458333333286,
          "durationTicks": 166,
          "midi": 72,
          "name": "C5",
          "ticks": 88631,
          "time": 115.40494791666667,
          "velocity": 1
        },
        {
          "duration": 0.4348958333333286,
          "durationTicks": 334,
          "midi": 70,
          "name": "A#4",
          "ticks": 88799,
          "time": 115.62369791666667,
          "velocity": 1
        },
        {
          "duration": 0.63671875,
          "durationTicks": 489,
          "midi": 67,
          "name": "G4",
          "ticks": 88799,
          "time": 115.62369791666667,
          "velocity": 1
        },
        {
          "duration": 0.2161458333333286,
          "durationTicks": 166,
          "midi": 75,
          "name": "D#5",
          "ticks": 89135,
          "time": 116.06119791666667,
          "velocity": 1
        },
        {
          "duration": 0.2161458333333428,
          "durationTicks": 166,
          "midi": 74,
          "name": "D5",
          "ticks": 89302,
          "time": 116.27864583333333,
          "velocity": 1
        },
        {
          "duration": 0.3515625,
          "durationTicks": 270,
          "midi": 75,
          "name": "D#5",
          "ticks": 89469,
          "time": 116.49609375,
          "velocity": 1
        },
        {
          "duration": 0.2161458333333428,
          "durationTicks": 166,
          "midi": 60,
          "name": "C4",
          "ticks": 89638,
          "time": 116.71614583333333,
          "velocity": 1
        },
        {
          "duration": 0.43359375,
          "durationTicks": 333,
          "midi": 67,
          "name": "G4",
          "ticks": 89805,
          "time": 116.93359375,
          "velocity": 1
        },
        {
          "duration": 0.2161458333333286,
          "durationTicks": 166,
          "midi": 62,
          "name": "D4",
          "ticks": 89805,
          "time": 116.93359375,
          "velocity": 1
        },
        {
          "duration": 0.2161458333333286,
          "durationTicks": 166,
          "midi": 63,
          "name": "D#4",
          "ticks": 89973,
          "time": 117.15234375,
          "velocity": 1
        },
        {
          "duration": 0.43359375,
          "durationTicks": 333,
          "midi": 68,
          "name": "G#4",
          "ticks": 90140,
          "time": 117.36979166666667,
          "velocity": 1
        },
        {
          "duration": 0.2161458333333286,
          "durationTicks": 166,
          "midi": 65,
          "name": "F4",
          "ticks": 90140,
          "time": 117.36979166666667,
          "velocity": 1
        },
        {
          "duration": 0.2161458333333286,
          "durationTicks": 166,
          "midi": 67,
          "name": "G4",
          "ticks": 90308,
          "time": 117.58854166666667,
          "velocity": 1
        },
        {
          "duration": 0.2161458333333428,
          "durationTicks": 166,
          "midi": 77,
          "name": "F5",
          "ticks": 90475,
          "time": 117.80598958333333,
          "velocity": 1
        },
        {
          "duration": 0.5455729166666714,
          "durationTicks": 419,
          "midi": 68,
          "name": "G#4",
          "ticks": 90475,
          "time": 117.80598958333333,
          "velocity": 1
        },
        {
          "duration": 0.2161458333333286,
          "durationTicks": 166,
          "midi": 75,
          "name": "D#5",
          "ticks": 90642,
          "time": 118.0234375,
          "velocity": 1
        },
        {
          "duration": 0.3515625,
          "durationTicks": 270,
          "midi": 77,
          "name": "F5",
          "ticks": 90810,
          "time": 118.2421875,
          "velocity": 1
        },
        {
          "duration": 0.2161458333333428,
          "durationTicks": 166,
          "midi": 62,
          "name": "D4",
          "ticks": 90979,
          "time": 118.46223958333333,
          "velocity": 1
        },
        {
          "duration": 0.43359375,
          "durationTicks": 333,
          "midi": 69,
          "name": "A4",
          "ticks": 91146,
          "time": 118.6796875,
          "velocity": 1
        },
        {
          "duration": 0.2161458333333286,
          "durationTicks": 166,
          "midi": 63,
          "name": "D#4",
          "ticks": 91146,
          "time": 118.6796875,
          "velocity": 1
        },
        {
          "duration": 0.2161458333333286,
          "durationTicks": 166,
          "midi": 65,
          "name": "F4",
          "ticks": 91313,
          "time": 118.89713541666667,
          "velocity": 1
        },
        {
          "duration": 0.43359375,
          "durationTicks": 333,
          "midi": 70,
          "name": "A#4",
          "ticks": 91481,
          "time": 119.11588541666667,
          "velocity": 1
        },
        {
          "duration": 0.2161458333333286,
          "durationTicks": 166,
          "midi": 67,
          "name": "G4",
          "ticks": 91481,
          "time": 119.11588541666667,
          "velocity": 1
        },
        {
          "duration": 0.2161458333333428,
          "durationTicks": 166,
          "midi": 69,
          "name": "A4",
          "ticks": 91648,
          "time": 119.33333333333333,
          "velocity": 1
        },
        {
          "duration": 0.2161458333333428,
          "durationTicks": 166,
          "midi": 79,
          "name": "G5",
          "ticks": 91816,
          "time": 119.55208333333333,
          "velocity": 1
        },
        {
          "duration": 0.5455729166666714,
          "durationTicks": 419,
          "midi": 70,
          "name": "A#4",
          "ticks": 91816,
          "time": 119.55208333333333,
          "velocity": 1
        },
        {
          "duration": 0.2161458333333286,
          "durationTicks": 166,
          "midi": 77,
          "name": "F5",
          "ticks": 91983,
          "time": 119.76953125,
          "velocity": 1
        },
        {
          "duration": 0.3515625,
          "durationTicks": 270,
          "midi": 79,
          "name": "G5",
          "ticks": 92150,
          "time": 119.98697916666667,
          "velocity": 1
        },
        {
          "duration": 0.2161458333333286,
          "durationTicks": 166,
          "midi": 63,
          "name": "D#4",
          "ticks": 92319,
          "time": 120.20703125,
          "velocity": 1
        },
        {
          "duration": 0.43359375,
          "durationTicks": 333,
          "midi": 71,
          "name": "B4",
          "ticks": 92486,
          "time": 120.42447916666667,
          "velocity": 1
        },
        {
          "duration": 0.2161458333333286,
          "durationTicks": 166,
          "midi": 65,
          "name": "F4",
          "ticks": 92486,
          "time": 120.42447916666667,
          "velocity": 1
        },
        {
          "duration": 0.2161458333333286,
          "durationTicks": 166,
          "midi": 67,
          "name": "G4",
          "ticks": 92654,
          "time": 120.64322916666667,
          "velocity": 1
        },
        {
          "duration": 0.10546875,
          "durationTicks": 81,
          "midi": 72,
          "name": "C5",
          "ticks": 92821,
          "time": 120.86067708333333,
          "velocity": 1
        },
        {
          "duration": 0.2135416666666714,
          "durationTicks": 164,
          "midi": 68,
          "name": "G#4",
          "ticks": 92821,
          "time": 120.86067708333333,
          "velocity": 1
        },
        {
          "duration": 0.10546875,
          "durationTicks": 81,
          "midi": 71,
          "name": "B4",
          "ticks": 92904,
          "time": 120.96875,
          "velocity": 1
        },
        {
          "duration": 0.2161458333333286,
          "durationTicks": 166,
          "midi": 72,
          "name": "C5",
          "ticks": 92987,
          "time": 121.07682291666667,
          "velocity": 1
        },
        {
          "duration": 0.2161458333333286,
          "durationTicks": 166,
          "midi": 67,
          "name": "G4",
          "ticks": 92987,
          "time": 121.07682291666667,
          "velocity": 1
        },
        {
          "duration": 0.2161458333333286,
          "durationTicks": 166,
          "midi": 74,
          "name": "D5",
          "ticks": 93155,
          "time": 121.29557291666667,
          "velocity": 1
        },
        {
          "duration": 0.2161458333333286,
          "durationTicks": 166,
          "midi": 65,
          "name": "F4",
          "ticks": 93155,
          "time": 121.29557291666667,
          "velocity": 1
        },
        {
          "duration": 0.2161458333333428,
          "durationTicks": 166,
          "midi": 75,
          "name": "D#5",
          "ticks": 93322,
          "time": 121.51302083333333,
          "velocity": 1
        },
        {
          "duration": 0.2161458333333428,
          "durationTicks": 166,
          "midi": 63,
          "name": "D#4",
          "ticks": 93322,
          "time": 121.51302083333333,
          "velocity": 1
        },
        {
          "duration": 1.3229166666666714,
          "durationTicks": 1016,
          "midi": 77,
          "name": "F5",
          "ticks": 93490,
          "time": 121.73177083333333,
          "velocity": 1
        },
        {
          "duration": 0.4348958333333428,
          "durationTicks": 334,
          "midi": 62,
          "name": "D4",
          "ticks": 93490,
          "time": 121.73177083333333,
          "velocity": 1
        },
        {
          "duration": 0.2161458333333428,
          "durationTicks": 166,
          "midi": 72,
          "name": "C5",
          "ticks": 93826,
          "time": 122.16927083333333,
          "velocity": 1
        },
        {
          "duration": 0.2161458333333286,
          "durationTicks": 166,
          "midi": 71,
          "name": "B4",
          "ticks": 93993,
          "time": 122.38671875,
          "velocity": 1
        },
        {
          "duration": 0.6549479166666572,
          "durationTicks": 503,
          "midi": 72,
          "name": "C5",
          "ticks": 94160,
          "time": 122.60416666666667,
          "velocity": 1
        },
        {
          "duration": 0.23046875,
          "durationTicks": 177,
          "midi": 75,
          "name": "D#5",
          "ticks": 94496,
          "time": 123.04166666666667,
          "velocity": 1
        },
        {
          "duration": 0.2161458333333286,
          "durationTicks": 166,
          "midi": 60,
          "name": "C4",
          "ticks": 94496,
          "time": 123.04166666666667,
          "velocity": 1
        },
        {
          "duration": 0.2161458333333286,
          "durationTicks": 166,
          "midi": 74,
          "name": "D5",
          "ticks": 94664,
          "time": 123.26041666666667,
          "velocity": 1
        },
        {
          "duration": 0.2161458333333286,
          "durationTicks": 166,
          "midi": 59,
          "name": "B3",
          "ticks": 94664,
          "time": 123.26041666666667,
          "velocity": 1
        },
        {
          "duration": 0.2161458333333428,
          "durationTicks": 166,
          "midi": 72,
          "name": "C5",
          "ticks": 94831,
          "time": 123.47786458333333,
          "velocity": 1
        },
        {
          "duration": 0.43359375,
          "durationTicks": 333,
          "midi": 60,
          "name": "C4",
          "ticks": 94831,
          "time": 123.47786458333333,
          "velocity": 1
        },
        {
          "duration": 0.2161458333333428,
          "durationTicks": 166,
          "midi": 70,
          "name": "A#4",
          "ticks": 94999,
          "time": 123.69661458333333,
          "velocity": 1
        },
        {
          "duration": 0.2161458333333286,
          "durationTicks": 166,
          "midi": 68,
          "name": "G#4",
          "ticks": 95166,
          "time": 123.9140625,
          "velocity": 1
        },
        {
          "duration": 0.3776041666666714,
          "durationTicks": 290,
          "midi": 55,
          "name": "G3",
          "ticks": 95166,
          "time": 123.9140625,
          "velocity": 1
        },
        {
          "duration": 0.2161458333333286,
          "durationTicks": 166,
          "midi": 67,
          "name": "G4",
          "ticks": 95333,
          "time": 124.13151041666667,
          "velocity": 1
        },
        {
          "duration": 0.4348958333333286,
          "durationTicks": 334,
          "midi": 65,
          "name": "F4",
          "ticks": 95501,
          "time": 124.35026041666667,
          "velocity": 1
        },
        {
          "duration": 0.4348958333333286,
          "durationTicks": 334,
          "midi": 56,
          "name": "G#3",
          "ticks": 95501,
          "time": 124.35026041666667,
          "velocity": 1
        },
        {
          "duration": 0.43359375,
          "durationTicks": 333,
          "midi": 80,
          "name": "G#5",
          "ticks": 95837,
          "time": 124.78776041666667,
          "velocity": 1
        },
        {
          "duration": 0.43359375,
          "durationTicks": 333,
          "midi": 77,
          "name": "F5",
          "ticks": 95837,
          "time": 124.78776041666667,
          "velocity": 1
        },
        {
          "duration": 0.2161458333333286,
          "durationTicks": 166,
          "midi": 60,
          "name": "C4",
          "ticks": 95837,
          "time": 124.78776041666667,
          "velocity": 1
        },
        {
          "duration": 0.2161458333333428,
          "durationTicks": 166,
          "midi": 59,
          "name": "B3",
          "ticks": 96004,
          "time": 125.00520833333333,
          "velocity": 1
        },
        {
          "duration": 0.4348958333333428,
          "durationTicks": 334,
          "midi": 79,
          "name": "G5",
          "ticks": 96172,
          "time": 125.22395833333333,
          "velocity": 1
        },
        {
          "duration": 0.4348958333333428,
          "durationTicks": 334,
          "midi": 75,
          "name": "D#5",
          "ticks": 96172,
          "time": 125.22395833333333,
          "velocity": 1
        },
        {
          "duration": 0.4348958333333428,
          "durationTicks": 334,
          "midi": 60,
          "name": "C4",
          "ticks": 96172,
          "time": 125.22395833333333,
          "velocity": 1
        },
        {
          "duration": 0.43359375,
          "durationTicks": 333,
          "midi": 77,
          "name": "F5",
          "ticks": 96508,
          "time": 125.66145833333333,
          "velocity": 1
        },
        {
          "duration": 0.4322916666666714,
          "durationTicks": 332,
          "midi": 74,
          "name": "D5",
          "ticks": 96508,
          "time": 125.66145833333333,
          "velocity": 1
        },
        {
          "duration": 0.3776041666666714,
          "durationTicks": 290,
          "midi": 62,
          "name": "D4",
          "ticks": 96508,
          "time": 125.66145833333333,
          "velocity": 1
        },
        {
          "duration": 0.4348958333333286,
          "durationTicks": 334,
          "midi": 75,
          "name": "D#5",
          "ticks": 96842,
          "time": 126.09635416666667,
          "velocity": 1
        },
        {
          "duration": 0.4348958333333286,
          "durationTicks": 334,
          "midi": 55,
          "name": "G3",
          "ticks": 96842,
          "time": 126.09635416666667,
          "velocity": 1
        },
        {
          "duration": 0.43359375,
          "durationTicks": 333,
          "midi": 74,
          "name": "D5",
          "ticks": 97179,
          "time": 126.53515625,
          "velocity": 1
        },
        {
          "duration": 0.43359375,
          "durationTicks": 333,
          "midi": 68,
          "name": "G#4",
          "ticks": 97179,
          "time": 126.53515625,
          "velocity": 1
        },
        {
          "duration": 0.2161458333333286,
          "durationTicks": 166,
          "midi": 60,
          "name": "C4",
          "ticks": 97179,
          "time": 126.53515625,
          "velocity": 1
        },
        {
          "duration": 0.2161458333333286,
          "durationTicks": 166,
          "midi": 59,
          "name": "B3",
          "ticks": 97346,
          "time": 126.75260416666667,
          "velocity": 1
        },
        {
          "duration": 0.4348958333333428,
          "durationTicks": 334,
          "midi": 75,
          "name": "D#5",
          "ticks": 97513,
          "time": 126.97005208333333,
          "velocity": 1
        },
        {
          "duration": 0.4348958333333428,
          "durationTicks": 334,
          "midi": 67,
          "name": "G4",
          "ticks": 97513,
          "time": 126.97005208333333,
          "velocity": 1
        },
        {
          "duration": 0.4348958333333428,
          "durationTicks": 334,
          "midi": 60,
          "name": "C4",
          "ticks": 97513,
          "time": 126.97005208333333,
          "velocity": 1
        },
        {
          "duration": 0.4348958333333428,
          "durationTicks": 334,
          "midi": 77,
          "name": "F5",
          "ticks": 97849,
          "time": 127.40755208333333,
          "velocity": 1
        },
        {
          "duration": 0.4348958333333428,
          "durationTicks": 334,
          "midi": 65,
          "name": "F4",
          "ticks": 97849,
          "time": 127.40755208333333,
          "velocity": 1
        },
        {
          "duration": 0.3776041666666714,
          "durationTicks": 290,
          "midi": 62,
          "name": "D4",
          "ticks": 97849,
          "time": 127.40755208333333,
          "velocity": 1
        },
        {
          "duration": 0.4335937500000142,
          "durationTicks": 333,
          "midi": 71,
          "name": "B4",
          "ticks": 98185,
          "time": 127.84505208333333,
          "velocity": 1
        },
        {
          "duration": 0.4335937500000142,
          "durationTicks": 333,
          "midi": 67,
          "name": "G4",
          "ticks": 98185,
          "time": 127.84505208333333,
          "velocity": 1
        },
        {
          "duration": 0.2161458333333286,
          "durationTicks": 166,
          "midi": 53,
          "name": "F3",
          "ticks": 98185,
          "time": 127.84505208333333,
          "velocity": 1
        },
        {
          "duration": 0.21614583333331439,
          "durationTicks": 166,
          "midi": 55,
          "name": "G3",
          "ticks": 98353,
          "time": 128.06380208333334,
          "velocity": 1
        },
        {
          "duration": 0.43359375,
          "durationTicks": 333,
          "midi": 72,
          "name": "C5",
          "ticks": 98520,
          "time": 128.28125,
          "velocity": 1
        },
        {
          "duration": 0.2161458333333428,
          "durationTicks": 166,
          "midi": 65,
          "name": "F4",
          "ticks": 98520,
          "time": 128.28125,
          "velocity": 1
        },
        {
          "duration": 0.87109375,
          "durationTicks": 669,
          "midi": 56,
          "name": "G#3",
          "ticks": 98520,
          "time": 128.28125,
          "velocity": 1
        },
        {
          "duration": 0.2161458333333428,
          "durationTicks": 166,
          "midi": 63,
          "name": "D#4",
          "ticks": 98688,
          "time": 128.5,
          "velocity": 1
        },
        {
          "duration": 0.4348958333333428,
          "durationTicks": 334,
          "midi": 74,
          "name": "D5",
          "ticks": 98855,
          "time": 128.71744791666666,
          "velocity": 1
        },
        {
          "duration": 0.4348958333333428,
          "durationTicks": 334,
          "midi": 65,
          "name": "F4",
          "ticks": 98855,
          "time": 128.71744791666666,
          "velocity": 1
        },
        {
          "duration": 0.10546875,
          "durationTicks": 81,
          "midi": 72,
          "name": "C5",
          "ticks": 99191,
          "time": 129.15494791666666,
          "velocity": 1
        },
        {
          "duration": 0.4309895833333428,
          "durationTicks": 331,
          "midi": 62,
          "name": "D4",
          "ticks": 99191,
          "time": 129.15494791666666,
          "velocity": 1
        },
        {
          "duration": 0.21354166666668561,
          "durationTicks": 164,
          "midi": 55,
          "name": "G3",
          "ticks": 99191,
          "time": 129.15494791666666,
          "velocity": 1
        },
        {
          "duration": 0.10546875,
          "durationTicks": 81,
          "midi": 71,
          "name": "B4",
          "ticks": 99274,
          "time": 129.26302083333334,
          "velocity": 1
        },
        {
          "duration": 0.10546875,
          "durationTicks": 81,
          "midi": 69,
          "name": "A4",
          "ticks": 99357,
          "time": 129.37109375,
          "velocity": 1
        },
        {
          "duration": 0.2135416666666572,
          "durationTicks": 164,
          "midi": 53,
          "name": "F3",
          "ticks": 99357,
          "time": 129.37109375,
          "velocity": 1
        },
        {
          "duration": 0.10546875,
          "durationTicks": 81,
          "midi": 71,
          "name": "B4",
          "ticks": 99440,
          "time": 129.47916666666666,
          "velocity": 1
        },
        {
          "duration": 0.43359375,
          "durationTicks": 333,
          "midi": 72,
          "name": "C5",
          "ticks": 99523,
          "time": 129.58723958333334,
          "velocity": 1
        },
        {
          "duration": 1.08984375,
          "durationTicks": 837,
          "midi": 67,
          "name": "G4",
          "ticks": 99523,
          "time": 129.58723958333334,
          "velocity": 1
        },
        {
          "duration": 0.21614583333331439,
          "durationTicks": 166,
          "midi": 51,
          "name": "D#3",
          "ticks": 99523,
          "time": 129.58723958333334,
          "velocity": 1
        },
        {
          "duration": 0.21614583333331439,
          "durationTicks": 166,
          "midi": 60,
          "name": "C4",
          "ticks": 99691,
          "time": 129.80598958333334,
          "velocity": 1
        },
        {
          "duration": 0.2161458333333428,
          "durationTicks": 166,
          "midi": 79,
          "name": "G5",
          "ticks": 99858,
          "time": 130.0234375,
          "velocity": 1
        },
        {
          "duration": 0.2161458333333428,
          "durationTicks": 166,
          "midi": 59,
          "name": "B3",
          "ticks": 99858,
          "time": 130.0234375,
          "velocity": 1
        },
        {
          "duration": 0.2161458333333428,
          "durationTicks": 166,
          "midi": 78,
          "name": "F#5",
          "ticks": 100026,
          "time": 130.2421875,
          "velocity": 1
        },
        {
          "duration": 0.2161458333333428,
          "durationTicks": 166,
          "midi": 57,
          "name": "A3",
          "ticks": 100026,
          "time": 130.2421875,
          "velocity": 1
        },
        {
          "duration": 0.3515625,
          "durationTicks": 270,
          "midi": 79,
          "name": "G5",
          "ticks": 100193,
          "time": 130.45963541666666,
          "velocity": 1
        },
        {
          "duration": 0.2161458333333428,
          "durationTicks": 166,
          "midi": 55,
          "name": "G3",
          "ticks": 100193,
          "time": 130.45963541666666,
          "velocity": 1
        },
        {
          "duration": 0.21614583333331439,
          "durationTicks": 166,
          "midi": 53,
          "name": "F3",
          "ticks": 100360,
          "time": 130.67708333333334,
          "velocity": 1
        },
        {
          "duration": 0.43359375,
          "durationTicks": 333,
          "midi": 74,
          "name": "D5",
          "ticks": 100528,
          "time": 130.89583333333334,
          "velocity": 1
        },
        {
          "duration": 0.43359375,
          "durationTicks": 333,
          "midi": 71,
          "name": "B4",
          "ticks": 100528,
          "time": 130.89583333333334,
          "velocity": 1
        },
        {
          "duration": 0.21614583333331439,
          "durationTicks": 166,
          "midi": 51,
          "name": "D#3",
          "ticks": 100528,
          "time": 130.89583333333334,
          "velocity": 1
        },
        {
          "duration": 0.2161458333333428,
          "durationTicks": 166,
          "midi": 50,
          "name": "D3",
          "ticks": 100695,
          "time": 131.11328125,
          "velocity": 1
        },
        {
          "duration": 1.08984375,
          "durationTicks": 837,
          "midi": 75,
          "name": "D#5",
          "ticks": 100863,
          "time": 131.33203125,
          "velocity": 1
        },
        {
          "duration": 0.43359375,
          "durationTicks": 333,
          "midi": 72,
          "name": "C5",
          "ticks": 100863,
          "time": 131.33203125,
          "velocity": 1
        },
        {
          "duration": 0.2161458333333428,
          "durationTicks": 166,
          "midi": 48,
          "name": "C3",
          "ticks": 100863,
          "time": 131.33203125,
          "velocity": 1
        },
        {
          "duration": 0.2161458333333428,
          "durationTicks": 166,
          "midi": 50,
          "name": "D3",
          "ticks": 101030,
          "time": 131.54947916666666,
          "velocity": 1
        },
        {
          "duration": 0.21614583333331439,
          "durationTicks": 166,
          "midi": 72,
          "name": "C5",
          "ticks": 101197,
          "time": 131.76692708333334,
          "velocity": 1
        },
        {
          "duration": 0.21614583333331439,
          "durationTicks": 166,
          "midi": 51,
          "name": "D#3",
          "ticks": 101197,
          "time": 131.76692708333334,
          "velocity": 1
        },
        {
          "duration": 0.21614583333331439,
          "durationTicks": 166,
          "midi": 71,
          "name": "B4",
          "ticks": 101365,
          "time": 131.98567708333334,
          "velocity": 1
        },
        {
          "duration": 0.21614583333331439,
          "durationTicks": 166,
          "midi": 50,
          "name": "D3",
          "ticks": 101365,
          "time": 131.98567708333334,
          "velocity": 1
        },
        {
          "duration": 0.43359375,
          "durationTicks": 333,
          "midi": 72,
          "name": "C5",
          "ticks": 101532,
          "time": 132.203125,
          "velocity": 1
        },
        {
          "duration": 0.2161458333333428,
          "durationTicks": 166,
          "midi": 48,
          "name": "C3",
          "ticks": 101532,
          "time": 132.203125,
          "velocity": 1
        },
        {
          "duration": 0.2161458333333428,
          "durationTicks": 166,
          "midi": 46,
          "name": "A#2",
          "ticks": 101700,
          "time": 132.421875,
          "velocity": 1
        },
        {
          "duration": 0.43359375,
          "durationTicks": 333,
          "midi": 76,
          "name": "E5",
          "ticks": 101867,
          "time": 132.63932291666666,
          "velocity": 1
        },
        {
          "duration": 0.43359375,
          "durationTicks": 333,
          "midi": 67,
          "name": "G4",
          "ticks": 101867,
          "time": 132.63932291666666,
          "velocity": 1
        },
        {
          "duration": 0.2161458333333428,
          "durationTicks": 166,
          "midi": 44,
          "name": "G#2",
          "ticks": 101867,
          "time": 132.63932291666666,
          "velocity": 1
        },
        {
          "duration": 0.21614583333331439,
          "durationTicks": 166,
          "midi": 43,
          "name": "G2",
          "ticks": 102034,
          "time": 132.85677083333334,
          "velocity": 1
        },
        {
          "duration": 0.43359375,
          "durationTicks": 333,
          "midi": 77,
          "name": "F5",
          "ticks": 102202,
          "time": 133.07552083333334,
          "velocity": 1
        },
        {
          "duration": 1.08984375,
          "durationTicks": 837,
          "midi": 68,
          "name": "G#4",
          "ticks": 102202,
          "time": 133.07552083333334,
          "velocity": 1
        },
        {
          "duration": 0.21614583333331439,
          "durationTicks": 166,
          "midi": 41,
          "name": "F2",
          "ticks": 102202,
          "time": 133.07552083333334,
          "velocity": 1
        },
        {
          "duration": 0.2161458333333428,
          "durationTicks": 166,
          "midi": 58,
          "name": "A#3",
          "ticks": 102369,
          "time": 133.29296875,
          "velocity": 1
        },
        {
          "duration": 0.2161458333333428,
          "durationTicks": 166,
          "midi": 77,
          "name": "F5",
          "ticks": 102537,
          "time": 133.51171875,
          "velocity": 1
        },
        {
          "duration": 0.2161458333333428,
          "durationTicks": 166,
          "midi": 56,
          "name": "G#3",
          "ticks": 102537,
          "time": 133.51171875,
          "velocity": 1
        },
        {
          "duration": 0.2161458333333428,
          "durationTicks": 166,
          "midi": 76,
          "name": "E5",
          "ticks": 102704,
          "time": 133.72916666666666,
          "velocity": 1
        },
        {
          "duration": 0.2161458333333428,
          "durationTicks": 166,
          "midi": 55,
          "name": "G3",
          "ticks": 102704,
          "time": 133.72916666666666,
          "velocity": 1
        },
        {
          "duration": 0.3515625,
          "durationTicks": 270,
          "midi": 77,
          "name": "F5",
          "ticks": 102871,
          "time": 133.94661458333334,
          "velocity": 1
        },
        {
          "duration": 0.21614583333331439,
          "durationTicks": 166,
          "midi": 53,
          "name": "F3",
          "ticks": 102871,
          "time": 133.94661458333334,
          "velocity": 1
        },
        {
          "duration": 0.21614583333331439,
          "durationTicks": 166,
          "midi": 51,
          "name": "D#3",
          "ticks": 103039,
          "time": 134.16536458333334,
          "velocity": 1
        },
        {
          "duration": 0.43359375,
          "durationTicks": 333,
          "midi": 72,
          "name": "C5",
          "ticks": 103206,
          "time": 134.3828125,
          "velocity": 1
        },
        {
          "duration": 0.43359375,
          "durationTicks": 333,
          "midi": 69,
          "name": "A4",
          "ticks": 103206,
          "time": 134.3828125,
          "velocity": 1
        },
        {
          "duration": 0.2161458333333428,
          "durationTicks": 166,
          "midi": 50,
          "name": "D3",
          "ticks": 103206,
          "time": 134.3828125,
          "velocity": 1
        },
        {
          "duration": 0.2161458333333428,
          "durationTicks": 166,
          "midi": 48,
          "name": "C3",
          "ticks": 103374,
          "time": 134.6015625,
          "velocity": 1
        },
        {
          "duration": 1.08984375,
          "durationTicks": 837,
          "midi": 74,
          "name": "D5",
          "ticks": 103541,
          "time": 134.81901041666666,
          "velocity": 1
        },
        {
          "duration": 0.43359375,
          "durationTicks": 333,
          "midi": 70,
          "name": "A#4",
          "ticks": 103541,
          "time": 134.81901041666666,
          "velocity": 1
        },
        {
          "duration": 0.2161458333333428,
          "durationTicks": 166,
          "midi": 46,
          "name": "A#2",
          "ticks": 103541,
          "time": 134.81901041666666,
          "velocity": 1
        },
        {
          "duration": 0.21614583333331439,
          "durationTicks": 166,
          "midi": 48,
          "name": "C3",
          "ticks": 103708,
          "time": 135.03645833333334,
          "velocity": 1
        },
        {
          "duration": 0.21614583333331439,
          "durationTicks": 166,
          "midi": 70,
          "name": "A#4",
          "ticks": 103876,
          "time": 135.25520833333334,
          "velocity": 1
        },
        {
          "duration": 0.21614583333331439,
          "durationTicks": 166,
          "midi": 50,
          "name": "D3",
          "ticks": 103876,
          "time": 135.25520833333334,
          "velocity": 1
        },
        {
          "duration": 0.2161458333333428,
          "durationTicks": 166,
          "midi": 69,
          "name": "A4",
          "ticks": 104043,
          "time": 135.47265625,
          "velocity": 1
        },
        {
          "duration": 0.2161458333333428,
          "durationTicks": 166,
          "midi": 48,
          "name": "C3",
          "ticks": 104043,
          "time": 135.47265625,
          "velocity": 1
        },
        {
          "duration": 0.43359375,
          "durationTicks": 333,
          "midi": 70,
          "name": "A#4",
          "ticks": 104211,
          "time": 135.69140625,
          "velocity": 1
        },
        {
          "duration": 0.2161458333333428,
          "durationTicks": 166,
          "midi": 46,
          "name": "A#2",
          "ticks": 104211,
          "time": 135.69140625,
          "velocity": 1
        },
        {
          "duration": 0.2161458333333428,
          "durationTicks": 166,
          "midi": 44,
          "name": "G#2",
          "ticks": 104378,
          "time": 135.90885416666666,
          "velocity": 1
        },
        {
          "duration": 0.43359375,
          "durationTicks": 333,
          "midi": 74,
          "name": "D5",
          "ticks": 104545,
          "time": 136.12630208333334,
          "velocity": 1
        },
        {
          "duration": 0.43359375,
          "durationTicks": 333,
          "midi": 65,
          "name": "F4",
          "ticks": 104545,
          "time": 136.12630208333334,
          "velocity": 1
        },
        {
          "duration": 0.21614583333331439,
          "durationTicks": 166,
          "midi": 43,
          "name": "G2",
          "ticks": 104545,
          "time": 136.12630208333334,
          "velocity": 1
        },
        {
          "duration": 0.21614583333331439,
          "durationTicks": 166,
          "midi": 41,
          "name": "F2",
          "ticks": 104713,
          "time": 136.34505208333334,
          "velocity": 1
        },
        {
          "duration": 0.43359375,
          "durationTicks": 333,
          "midi": 75,
          "name": "D#5",
          "ticks": 104880,
          "time": 136.5625,
          "velocity": 1
        },
        {
          "duration": 1.08984375,
          "durationTicks": 837,
          "midi": 67,
          "name": "G4",
          "ticks": 104880,
          "time": 136.5625,
          "velocity": 1
        },
        {
          "duration": 0.2161458333333428,
          "durationTicks": 166,
          "midi": 39,
          "name": "D#2",
          "ticks": 104880,
          "time": 136.5625,
          "velocity": 1
        },
        {
          "duration": 0.2161458333333428,
          "durationTicks": 166,
          "midi": 56,
          "name": "G#3",
          "ticks": 105048,
          "time": 136.78125,
          "velocity": 1
        },
        {
          "duration": 0.2161458333333428,
          "durationTicks": 166,
          "midi": 75,
          "name": "D#5",
          "ticks": 105215,
          "time": 136.99869791666666,
          "velocity": 1
        },
        {
          "duration": 0.2161458333333428,
          "durationTicks": 166,
          "midi": 55,
          "name": "G3",
          "ticks": 105215,
          "time": 136.99869791666666,
          "velocity": 1
        },
        {
          "duration": 0.21614583333331439,
          "durationTicks": 166,
          "midi": 74,
          "name": "D5",
          "ticks": 105382,
          "time": 137.21614583333334,
          "velocity": 1
        },
        {
          "duration": 0.21614583333331439,
          "durationTicks": 166,
          "midi": 53,
          "name": "F3",
          "ticks": 105382,
          "time": 137.21614583333334,
          "velocity": 1
        },
        {
          "duration": 0.3515625,
          "durationTicks": 270,
          "midi": 75,
          "name": "D#5",
          "ticks": 105550,
          "time": 137.43489583333334,
          "velocity": 1
        },
        {
          "duration": 0.21614583333331439,
          "durationTicks": 166,
          "midi": 51,
          "name": "D#3",
          "ticks": 105550,
          "time": 137.43489583333334,
          "velocity": 1
        },
        {
          "duration": 0.2161458333333428,
          "durationTicks": 166,
          "midi": 49,
          "name": "C#3",
          "ticks": 105717,
          "time": 137.65234375,
          "velocity": 1
        },
        {
          "duration": 0.43359375,
          "durationTicks": 333,
          "midi": 70,
          "name": "A#4",
          "ticks": 105885,
          "time": 137.87109375,
          "velocity": 1
        },
        {
          "duration": 0.43359375,
          "durationTicks": 333,
          "midi": 67,
          "name": "G4",
          "ticks": 105885,
          "time": 137.87109375,
          "velocity": 1
        },
        {
          "duration": 0.2161458333333428,
          "durationTicks": 166,
          "midi": 48,
          "name": "C3",
          "ticks": 105885,
          "time": 137.87109375,
          "velocity": 1
        },
        {
          "duration": 0.2161458333333428,
          "durationTicks": 166,
          "midi": 46,
          "name": "A#2",
          "ticks": 106052,
          "time": 138.08854166666666,
          "velocity": 1
        },
        {
          "duration": 0.4348958333333144,
          "durationTicks": 334,
          "midi": 72,
          "name": "C5",
          "ticks": 106219,
          "time": 138.30598958333334,
          "velocity": 1
        },
        {
          "duration": 0.4348958333333144,
          "durationTicks": 334,
          "midi": 68,
          "name": "G#4",
          "ticks": 106219,
          "time": 138.30598958333334,
          "velocity": 1
        },
        {
          "duration": 0.4348958333333144,
          "durationTicks": 334,
          "midi": 44,
          "name": "G#2",
          "ticks": 106219,
          "time": 138.30598958333334,
          "velocity": 1
        },
        {
          "duration": 0.21614583333331439,
          "durationTicks": 166,
          "midi": 75,
          "name": "D#5",
          "ticks": 106555,
          "time": 138.74348958333334,
          "velocity": 1
        },
        {
          "duration": 0.43359375,
          "durationTicks": 333,
          "midi": 68,
          "name": "G#4",
          "ticks": 106555,
          "time": 138.74348958333334,
          "velocity": 1
        },
        {
          "duration": 0.43359375,
          "durationTicks": 333,
          "midi": 60,
          "name": "C4",
          "ticks": 106555,
          "time": 138.74348958333334,
          "velocity": 1
        },
        {
          "duration": 0.21614583333331439,
          "durationTicks": 166,
          "midi": 74,
          "name": "D5",
          "ticks": 106723,
          "time": 138.96223958333334,
          "velocity": 1
        },
        {
          "duration": 0.4348958333333428,
          "durationTicks": 334,
          "midi": 75,
          "name": "D#5",
          "ticks": 106890,
          "time": 139.1796875,
          "velocity": 1
        },
        {
          "duration": 0.4348958333333428,
          "durationTicks": 334,
          "midi": 67,
          "name": "G4",
          "ticks": 106890,
          "time": 139.1796875,
          "velocity": 1
        },
        {
          "duration": 0.4348958333333428,
          "durationTicks": 334,
          "midi": 58,
          "name": "A#3",
          "ticks": 106890,
          "time": 139.1796875,
          "velocity": 1
        },
        {
          "duration": 0.3515625,
          "durationTicks": 270,
          "midi": 77,
          "name": "F5",
          "ticks": 107226,
          "time": 139.6171875,
          "velocity": 1
        },
        {
          "duration": 0.4322916666666572,
          "durationTicks": 332,
          "midi": 65,
          "name": "F4",
          "ticks": 107226,
          "time": 139.6171875,
          "velocity": 1
        },
        {
          "duration": 0.43359375,
          "durationTicks": 333,
          "midi": 56,
          "name": "G#3",
          "ticks": 107226,
          "time": 139.6171875,
          "velocity": 1
        },
        {
          "duration": 0.4348958333333428,
          "durationTicks": 334,
          "midi": 70,
          "name": "A#4",
          "ticks": 107561,
          "time": 140.05338541666666,
          "velocity": 1
        },
        {
          "duration": 0.4348958333333428,
          "durationTicks": 334,
          "midi": 55,
          "name": "G3",
          "ticks": 107561,
          "time": 140.05338541666666,
          "velocity": 1
        },
        {
          "duration": 0.2161458333333428,
          "durationTicks": 166,
          "midi": 75,
          "name": "D#5",
          "ticks": 107897,
          "time": 140.49088541666666,
          "velocity": 1
        },
        {
          "duration": 0.43359375,
          "durationTicks": 333,
          "midi": 56,
          "name": "G#3",
          "ticks": 107897,
          "time": 140.49088541666666,
          "velocity": 1
        },
        {
          "duration": 0.43359375,
          "durationTicks": 333,
          "midi": 53,
          "name": "F3",
          "ticks": 107897,
          "time": 140.49088541666666,
          "velocity": 1
        },
        {
          "duration": 0.21614583333331439,
          "durationTicks": 166,
          "midi": 74,
          "name": "D5",
          "ticks": 108064,
          "time": 140.70833333333334,
          "velocity": 1
        },
        {
          "duration": 0.4348958333333144,
          "durationTicks": 334,
          "midi": 75,
          "name": "D#5",
          "ticks": 108232,
          "time": 140.92708333333334,
          "velocity": 1
        },
        {
          "duration": 0.4348958333333144,
          "durationTicks": 334,
          "midi": 58,
          "name": "A#3",
          "ticks": 108232,
          "time": 140.92708333333334,
          "velocity": 1
        },
        {
          "duration": 0.4348958333333144,
          "durationTicks": 334,
          "midi": 55,
          "name": "G3",
          "ticks": 108232,
          "time": 140.92708333333334,
          "velocity": 1
        },
        {
          "duration": 0.3515625,
          "durationTicks": 270,
          "midi": 77,
          "name": "F5",
          "ticks": 108568,
          "time": 141.36458333333334,
          "velocity": 1
        },
        {
          "duration": 0.63671875,
          "durationTicks": 489,
          "midi": 60,
          "name": "C4",
          "ticks": 108568,
          "time": 141.36458333333334,
          "velocity": 1
        },
        {
          "duration": 0.4348958333333144,
          "durationTicks": 334,
          "midi": 56,
          "name": "G#3",
          "ticks": 108568,
          "time": 141.36458333333334,
          "velocity": 1
        },
        {
          "duration": 0.21614583333331439,
          "durationTicks": 166,
          "midi": 68,
          "name": "G#4",
          "ticks": 108904,
          "time": 141.80208333333334,
          "velocity": 1
        },
        {
          "duration": 0.43359375,
          "durationTicks": 333,
          "midi": 50,
          "name": "D3",
          "ticks": 108904,
          "time": 141.80208333333334,
          "velocity": 1
        },
        {
          "duration": 0.2161458333333428,
          "durationTicks": 166,
          "midi": 70,
          "name": "A#4",
          "ticks": 109071,
          "time": 142.01953125,
          "velocity": 1
        },
        {
          "duration": 0.10546875,
          "durationTicks": 81,
          "midi": 68,
          "name": "G#4",
          "ticks": 109239,
          "time": 142.23828125,
          "velocity": 1
        },
        {
          "duration": 0.2135416666666572,
          "durationTicks": 164,
          "midi": 56,
          "name": "G#3",
          "ticks": 109239,
          "time": 142.23828125,
          "velocity": 1
        },
        {
          "duration": 0.4322916666666572,
          "durationTicks": 332,
          "midi": 51,
          "name": "D#3",
          "ticks": 109239,
          "time": 142.23828125,
          "velocity": 1
        },
        {
          "duration": 0.10546875,
          "durationTicks": 81,
          "midi": 70,
          "name": "A#4",
          "ticks": 109322,
          "time": 142.34635416666666,
          "velocity": 1
        },
        {
          "duration": 0.6536458333333144,
          "durationTicks": 502,
          "midi": 72,
          "name": "C5",
          "ticks": 109405,
          "time": 142.45442708333334,
          "velocity": 1
        },
        {
          "duration": 0.21614583333331439,
          "durationTicks": 166,
          "midi": 55,
          "name": "G3",
          "ticks": 109405,
          "time": 142.45442708333334,
          "velocity": 1
        },
        {
          "duration": 0.4348958333333428,
          "durationTicks": 334,
          "midi": 56,
          "name": "G#3",
          "ticks": 109572,
          "time": 142.671875,
          "velocity": 1
        },
        {
          "duration": 0.4348958333333428,
          "durationTicks": 334,
          "midi": 53,
          "name": "F3",
          "ticks": 109572,
          "time": 142.671875,
          "velocity": 1
        },
        {
          "duration": 0.2161458333333428,
          "durationTicks": 166,
          "midi": 70,
          "name": "A#4",
          "ticks": 109908,
          "time": 143.109375,
          "velocity": 1
        },
        {
          "duration": 0.43359375,
          "durationTicks": 333,
          "midi": 53,
          "name": "F3",
          "ticks": 109908,
          "time": 143.109375,
          "velocity": 1
        },
        {
          "duration": 0.43359375,
          "durationTicks": 333,
          "midi": 50,
          "name": "D3",
          "ticks": 109908,
          "time": 143.109375,
          "velocity": 1
        },
        {
          "duration": 0.2161458333333428,
          "durationTicks": 166,
          "midi": 68,
          "name": "G#4",
          "ticks": 110076,
          "time": 143.328125,
          "velocity": 1
        },
        {
          "duration": 0.2161458333333428,
          "durationTicks": 166,
          "midi": 67,
          "name": "G4",
          "ticks": 110243,
          "time": 143.54557291666666,
          "velocity": 1
        },
        {
          "duration": 0.43359375,
          "durationTicks": 333,
          "midi": 58,
          "name": "A#3",
          "ticks": 110243,
          "time": 143.54557291666666,
          "velocity": 1
        },
        {
          "duration": 0.43359375,
          "durationTicks": 333,
          "midi": 51,
          "name": "D#3",
          "ticks": 110243,
          "time": 143.54557291666666,
          "velocity": 1
        },
        {
          "duration": 0.2161458333333428,
          "durationTicks": 166,
          "midi": 63,
          "name": "D#4",
          "ticks": 110411,
          "time": 143.76432291666666,
          "velocity": 1
        },
        {
          "duration": 0.21614583333331439,
          "durationTicks": 166,
          "midi": 65,
          "name": "F4",
          "ticks": 110578,
          "time": 143.98177083333334,
          "velocity": 1
        },
        {
          "duration": 0.43359375,
          "durationTicks": 333,
          "midi": 60,
          "name": "C4",
          "ticks": 110578,
          "time": 143.98177083333334,
          "velocity": 1
        },
        {
          "duration": 0.43359375,
          "durationTicks": 333,
          "midi": 56,
          "name": "G#3",
          "ticks": 110578,
          "time": 143.98177083333334,
          "velocity": 1
        },
        {
          "duration": 0.2161458333333428,
          "durationTicks": 166,
          "midi": 67,
          "name": "G4",
          "ticks": 110745,
          "time": 144.19921875,
          "velocity": 1
        },
        {
          "duration": 0.2161458333333428,
          "durationTicks": 166,
          "midi": 68,
          "name": "G#4",
          "ticks": 110913,
          "time": 144.41796875,
          "velocity": 1
        },
        {
          "duration": 0.43359375,
          "durationTicks": 333,
          "midi": 58,
          "name": "A#3",
          "ticks": 110913,
          "time": 144.41796875,
          "velocity": 1
        },
        {
          "duration": 0.43359375,
          "durationTicks": 333,
          "midi": 55,
          "name": "G3",
          "ticks": 110913,
          "time": 144.41796875,
          "velocity": 1
        },
        {
          "duration": 0.2161458333333428,
          "durationTicks": 166,
          "midi": 70,
          "name": "A#4",
          "ticks": 111080,
          "time": 144.63541666666666,
          "velocity": 1
        },
        {
          "duration": 0.2161458333333428,
          "durationTicks": 166,
          "midi": 72,
          "name": "C5",
          "ticks": 111248,
          "time": 144.85416666666666,
          "velocity": 1
        },
        {
          "duration": 0.43359375,
          "durationTicks": 333,
          "midi": 56,
          "name": "G#3",
          "ticks": 111248,
          "time": 144.85416666666666,
          "velocity": 1
        },
        {
          "duration": 0.43359375,
          "durationTicks": 333,
          "midi": 53,
          "name": "F3",
          "ticks": 111248,
          "time": 144.85416666666666,
          "velocity": 1
        },
        {
          "duration": 0.21614583333331439,
          "durationTicks": 166,
          "midi": 74,
          "name": "D5",
          "ticks": 111415,
          "time": 145.07161458333334,
          "velocity": 1
        },
        {
          "duration": 0.2161458333333428,
          "durationTicks": 166,
          "midi": 75,
          "name": "D#5",
          "ticks": 111582,
          "time": 145.2890625,
          "velocity": 1
        },
        {
          "duration": 0.4088541666666572,
          "durationTicks": 314,
          "midi": 58,
          "name": "A#3",
          "ticks": 111582,
          "time": 145.2890625,
          "velocity": 1
        },
        {
          "duration": 0.4088541666666572,
          "durationTicks": 314,
          "midi": 55,
          "name": "G3",
          "ticks": 111582,
          "time": 145.2890625,
          "velocity": 1
        },
        {
          "duration": 0.2174479166666572,
          "durationTicks": 167,
          "midi": 74,
          "name": "D5",
          "ticks": 111750,
          "time": 145.5078125,
          "velocity": 1
        },
        {
          "duration": 0.2161458333333428,
          "durationTicks": 166,
          "midi": 72,
          "name": "C5",
          "ticks": 111918,
          "time": 145.7265625,
          "velocity": 1
        },
        {
          "duration": 0.43359375,
          "durationTicks": 333,
          "midi": 55,
          "name": "G3",
          "ticks": 111918,
          "time": 145.7265625,
          "velocity": 1
        },
        {
          "duration": 0.43359375,
          "durationTicks": 333,
          "midi": 51,
          "name": "D#3",
          "ticks": 111918,
          "time": 145.7265625,
          "velocity": 1
        },
        {
          "duration": 0.2161458333333428,
          "durationTicks": 166,
          "midi": 74,
          "name": "D5",
          "ticks": 112086,
          "time": 145.9453125,
          "velocity": 1
        },
        {
          "duration": 0.2161458333333428,
          "durationTicks": 166,
          "midi": 75,
          "name": "D#5",
          "ticks": 112253,
          "time": 146.16276041666666,
          "velocity": 1
        },
        {
          "duration": 0.43359375,
          "durationTicks": 333,
          "midi": 53,
          "name": "F3",
          "ticks": 112253,
          "time": 146.16276041666666,
          "velocity": 1
        },
        {
          "duration": 0.43359375,
          "durationTicks": 333,
          "midi": 50,
          "name": "D3",
          "ticks": 112253,
          "time": 146.16276041666666,
          "velocity": 1
        },
        {
          "duration": 0.2161458333333428,
          "durationTicks": 166,
          "midi": 77,
          "name": "F5",
          "ticks": 112421,
          "time": 146.38151041666666,
          "velocity": 1
        },
        {
          "duration": 0.21614583333331439,
          "durationTicks": 166,
          "midi": 79,
          "name": "G5",
          "ticks": 112588,
          "time": 146.59895833333334,
          "velocity": 1
        },
        {
          "duration": 0.43359375,
          "durationTicks": 333,
          "midi": 51,
          "name": "D#3",
          "ticks": 112588,
          "time": 146.59895833333334,
          "velocity": 1
        },
        {
          "duration": 0.43359375,
          "durationTicks": 333,
          "midi": 48,
          "name": "C3",
          "ticks": 112588,
          "time": 146.59895833333334,
          "velocity": 1
        },
        {
          "duration": 0.2161458333333428,
          "durationTicks": 166,
          "midi": 81,
          "name": "A5",
          "ticks": 112755,
          "time": 146.81640625,
          "velocity": 1
        },
        {
          "duration": 0.2161458333333428,
          "durationTicks": 166,
          "midi": 82,
          "name": "A#5",
          "ticks": 112923,
          "time": 147.03515625,
          "velocity": 1
        },
        {
          "duration": 0.3854166666666572,
          "durationTicks": 296,
          "midi": 53,
          "name": "F3",
          "ticks": 112923,
          "time": 147.03515625,
          "velocity": 1
        },
        {
          "duration": 0.3854166666666572,
          "durationTicks": 296,
          "midi": 50,
          "name": "D3",
          "ticks": 112923,
          "time": 147.03515625,
          "velocity": 1
        },
        {
          "duration": 0.2161458333333428,
          "durationTicks": 166,
          "midi": 65,
          "name": "F4",
          "ticks": 113090,
          "time": 147.25260416666666,
          "velocity": 1
        },
        {
          "duration": 0.2161458333333428,
          "durationTicks": 166,
          "midi": 67,
          "name": "G4",
          "ticks": 113258,
          "time": 147.47135416666666,
          "velocity": 1
        },
        {
          "duration": 0.43359375,
          "durationTicks": 333,
          "midi": 61,
          "name": "C#4",
          "ticks": 113258,
          "time": 147.47135416666666,
          "velocity": 1
        },
        {
          "duration": 0.43359375,
          "durationTicks": 333,
          "midi": 58,
          "name": "A#3",
          "ticks": 113258,
          "time": 147.47135416666666,
          "velocity": 1
        },
        {
          "duration": 0.21614583333331439,
          "durationTicks": 166,
          "midi": 68,
          "name": "G#4",
          "ticks": 113425,
          "time": 147.68880208333334,
          "velocity": 1
        },
        {
          "duration": 0.2161458333333428,
          "durationTicks": 166,
          "midi": 70,
          "name": "A#4",
          "ticks": 113592,
          "time": 147.90625,
          "velocity": 1
        },
        {
          "duration": 0.43359375,
          "durationTicks": 333,
          "midi": 60,
          "name": "C4",
          "ticks": 113592,
          "time": 147.90625,
          "velocity": 1
        },
        {
          "duration": 0.43359375,
          "durationTicks": 333,
          "midi": 56,
          "name": "G#3",
          "ticks": 113592,
          "time": 147.90625,
          "velocity": 1
        },
        {
          "duration": 0.2161458333333428,
          "durationTicks": 166,
          "midi": 72,
          "name": "C5",
          "ticks": 113760,
          "time": 148.125,
          "velocity": 1
        },
        {
          "duration": 0.2161458333333428,
          "durationTicks": 166,
          "midi": 74,
          "name": "D5",
          "ticks": 113927,
          "time": 148.34244791666666,
          "velocity": 1
        },
        {
          "duration": 0.43359375,
          "durationTicks": 333,
          "midi": 58,
          "name": "A#3",
          "ticks": 113927,
          "time": 148.34244791666666,
          "velocity": 1
        },
        {
          "duration": 0.43359375,
          "durationTicks": 333,
          "midi": 55,
          "name": "G3",
          "ticks": 113927,
          "time": 148.34244791666666,
          "velocity": 1
        },
        {
          "duration": 0.2161458333333428,
          "durationTicks": 166,
          "midi": 76,
          "name": "E5",
          "ticks": 114095,
          "time": 148.56119791666666,
          "velocity": 1
        },
        {
          "duration": 0.21614583333331439,
          "durationTicks": 166,
          "midi": 77,
          "name": "F5",
          "ticks": 114262,
          "time": 148.77864583333334,
          "velocity": 1
        },
        {
          "duration": 0.4088541666666572,
          "durationTicks": 314,
          "midi": 60,
          "name": "C4",
          "ticks": 114262,
          "time": 148.77864583333334,
          "velocity": 1
        },
        {
          "duration": 0.4088541666666572,
          "durationTicks": 314,
          "midi": 56,
          "name": "G#3",
          "ticks": 114262,
          "time": 148.77864583333334,
          "velocity": 1
        },
        {
          "duration": 0.2174479166666572,
          "durationTicks": 167,
          "midi": 75,
          "name": "D#5",
          "ticks": 114429,
          "time": 148.99609375,
          "velocity": 1
        },
        {
          "duration": 0.21614583333331439,
          "durationTicks": 166,
          "midi": 74,
          "name": "D5",
          "ticks": 114598,
          "time": 149.21614583333334,
          "velocity": 1
        },
        {
          "duration": 0.43359375,
          "durationTicks": 333,
          "midi": 56,
          "name": "G#3",
          "ticks": 114598,
          "time": 149.21614583333334,
          "velocity": 1
        },
        {
          "duration": 0.43359375,
          "durationTicks": 333,
          "midi": 53,
          "name": "F3",
          "ticks": 114598,
          "time": 149.21614583333334,
          "velocity": 1
        },
        {
          "duration": 0.2161458333333428,
          "durationTicks": 166,
          "midi": 75,
          "name": "D#5",
          "ticks": 114765,
          "time": 149.43359375,
          "velocity": 1
        },
        {
          "duration": 0.2161458333333428,
          "durationTicks": 166,
          "midi": 77,
          "name": "F5",
          "ticks": 114933,
          "time": 149.65234375,
          "velocity": 1
        },
        {
          "duration": 0.43359375,
          "durationTicks": 333,
          "midi": 55,
          "name": "G3",
          "ticks": 114933,
          "time": 149.65234375,
          "velocity": 1
        },
        {
          "duration": 0.43359375,
          "durationTicks": 333,
          "midi": 51,
          "name": "D#3",
          "ticks": 114933,
          "time": 149.65234375,
          "velocity": 1
        },
        {
          "duration": 0.2161458333333428,
          "durationTicks": 166,
          "midi": 79,
          "name": "G5",
          "ticks": 115100,
          "time": 149.86979166666666,
          "velocity": 1
        },
        {
          "duration": 0.2161458333333428,
          "durationTicks": 166,
          "midi": 81,
          "name": "A5",
          "ticks": 115268,
          "time": 150.08854166666666,
          "velocity": 1
        },
        {
          "duration": 0.43359375,
          "durationTicks": 333,
          "midi": 53,
          "name": "F3",
          "ticks": 115268,
          "time": 150.08854166666666,
          "velocity": 1
        },
        {
          "duration": 0.43359375,
          "durationTicks": 333,
          "midi": 50,
          "name": "D3",
          "ticks": 115268,
          "time": 150.08854166666666,
          "velocity": 1
        },
        {
          "duration": 0.21614583333331439,
          "durationTicks": 166,
          "midi": 83,
          "name": "B5",
          "ticks": 115435,
          "time": 150.30598958333334,
          "velocity": 1
        },
        {
          "duration": 0.43359375,
          "durationTicks": 333,
          "midi": 84,
          "name": "C6",
          "ticks": 115602,
          "time": 150.5234375,
          "velocity": 1
        },
        {
          "duration": 0.4453125,
          "durationTicks": 342,
          "midi": 55,
          "name": "G3",
          "ticks": 115602,
          "time": 150.5234375,
          "velocity": 1
        },
        {
          "duration": 0.4453125,
          "durationTicks": 342,
          "midi": 51,
          "name": "D#3",
          "ticks": 115602,
          "time": 150.5234375,
          "velocity": 1
        },
        {
          "duration": 0.2161458333333428,
          "durationTicks": 166,
          "midi": 83,
          "name": "B5",
          "ticks": 115937,
          "time": 150.95963541666666,
          "velocity": 1
        },
        {
          "duration": 0.2161458333333428,
          "durationTicks": 166,
          "midi": 67,
          "name": "G4",
          "ticks": 115937,
          "time": 150.95963541666666,
          "velocity": 1
        },
        {
          "duration": 0.2161458333333428,
          "durationTicks": 166,
          "midi": 81,
          "name": "A5",
          "ticks": 116105,
          "time": 151.17838541666666,
          "velocity": 1
        },
        {
          "duration": 0.2161458333333428,
          "durationTicks": 166,
          "midi": 66,
          "name": "F#4",
          "ticks": 116105,
          "time": 151.17838541666666,
          "velocity": 1
        },
        {
          "duration": 0.21614583333331439,
          "durationTicks": 166,
          "midi": 79,
          "name": "G5",
          "ticks": 116272,
          "time": 151.39583333333334,
          "velocity": 1
        },
        {
          "duration": 0.43359375,
          "durationTicks": 333,
          "midi": 67,
          "name": "G4",
          "ticks": 116272,
          "time": 151.39583333333334,
          "velocity": 1
        },
        {
          "duration": 0.2161458333333428,
          "durationTicks": 166,
          "midi": 77,
          "name": "F5",
          "ticks": 116439,
          "time": 151.61328125,
          "velocity": 1
        },
        {
          "duration": 0.2161458333333428,
          "durationTicks": 166,
          "midi": 75,
          "name": "D#5",
          "ticks": 116607,
          "time": 151.83203125,
          "velocity": 1
        },
        {
          "duration": 0.43359375,
          "durationTicks": 333,
          "midi": 60,
          "name": "C4",
          "ticks": 116607,
          "time": 151.83203125,
          "velocity": 1
        },
        {
          "duration": 0.2161458333333428,
          "durationTicks": 166,
          "midi": 74,
          "name": "D5",
          "ticks": 116774,
          "time": 152.04947916666666,
          "velocity": 1
        },
        {
          "duration": 0.4348958333333428,
          "durationTicks": 334,
          "midi": 72,
          "name": "C5",
          "ticks": 116942,
          "time": 152.26822916666666,
          "velocity": 1
        },
        {
          "duration": 0.4348958333333428,
          "durationTicks": 334,
          "midi": 63,
          "name": "D#4",
          "ticks": 116942,
          "time": 152.26822916666666,
          "velocity": 1
        },
        {
          "duration": 0.43359375,
          "durationTicks": 333,
          "midi": 75,
          "name": "D#5",
          "ticks": 117278,
          "time": 152.70572916666666,
          "velocity": 1
        },
        {
          "duration": 0.2161458333333428,
          "durationTicks": 166,
          "midi": 67,
          "name": "G4",
          "ticks": 117278,
          "time": 152.70572916666666,
          "velocity": 1
        },
        {
          "duration": 0.43359375,
          "durationTicks": 333,
          "midi": 48,
          "name": "C3",
          "ticks": 117278,
          "time": 152.70572916666666,
          "velocity": 1
        },
        {
          "duration": 0.21614583333331439,
          "durationTicks": 166,
          "midi": 66,
          "name": "F#4",
          "ticks": 117445,
          "time": 152.92317708333334,
          "velocity": 1
        },
        {
          "duration": 0.4348958333333428,
          "durationTicks": 334,
          "midi": 74,
          "name": "D5",
          "ticks": 117612,
          "time": 153.140625,
          "velocity": 1
        },
        {
          "duration": 0.4348958333333428,
          "durationTicks": 334,
          "midi": 67,
          "name": "G4",
          "ticks": 117612,
          "time": 153.140625,
          "velocity": 1
        },
        {
          "duration": 0.4348958333333428,
          "durationTicks": 334,
          "midi": 46,
          "name": "A#2",
          "ticks": 117612,
          "time": 153.140625,
          "velocity": 1
        },
        {
          "duration": 0.43359375,
          "durationTicks": 333,
          "midi": 72,
          "name": "C5",
          "ticks": 117949,
          "time": 153.57942708333334,
          "velocity": 1
        },
        {
          "duration": 0.43359375,
          "durationTicks": 333,
          "midi": 69,
          "name": "A4",
          "ticks": 117949,
          "time": 153.57942708333334,
          "velocity": 1
        },
        {
          "duration": 0.4322916666666572,
          "durationTicks": 332,
          "midi": 45,
          "name": "A2",
          "ticks": 117949,
          "time": 153.57942708333334,
          "velocity": 1
        },
        {
          "duration": 0.4348958333333428,
          "durationTicks": 334,
          "midi": 70,
          "name": "A#4",
          "ticks": 118283,
          "time": 154.01432291666666,
          "velocity": 1
        },
        {
          "duration": 0.4348958333333428,
          "durationTicks": 334,
          "midi": 62,
          "name": "D4",
          "ticks": 118283,
          "time": 154.01432291666666,
          "velocity": 1
        },
        {
          "duration": 0.43359375,
          "durationTicks": 333,
          "midi": 69,
          "name": "A4",
          "ticks": 118619,
          "time": 154.45182291666666,
          "velocity": 1
        },
        {
          "duration": 0.2161458333333428,
          "durationTicks": 166,
          "midi": 67,
          "name": "G4",
          "ticks": 118619,
          "time": 154.45182291666666,
          "velocity": 1
        },
        {
          "duration": 0.43359375,
          "durationTicks": 333,
          "midi": 51,
          "name": "D#3",
          "ticks": 118619,
          "time": 154.45182291666666,
          "velocity": 1
        },
        {
          "duration": 0.2161458333333428,
          "durationTicks": 166,
          "midi": 66,
          "name": "F#4",
          "ticks": 118787,
          "time": 154.67057291666666,
          "velocity": 1
        },
        {
          "duration": 0.4348958333333144,
          "durationTicks": 334,
          "midi": 70,
          "name": "A#4",
          "ticks": 118954,
          "time": 154.88802083333334,
          "velocity": 1
        },
        {
          "duration": 0.4348958333333144,
          "durationTicks": 334,
          "midi": 67,
          "name": "G4",
          "ticks": 118954,
          "time": 154.88802083333334,
          "velocity": 1
        },
        {
          "duration": 0.4348958333333144,
          "durationTicks": 334,
          "midi": 50,
          "name": "D3",
          "ticks": 118954,
          "time": 154.88802083333334,
          "velocity": 1
        },
        {
          "duration": 0.4348958333333144,
          "durationTicks": 334,
          "midi": 72,
          "name": "C5",
          "ticks": 119290,
          "time": 155.32552083333334,
          "velocity": 1
        },
        {
          "duration": 0.4348958333333144,
          "durationTicks": 334,
          "midi": 69,
          "name": "A4",
          "ticks": 119290,
          "time": 155.32552083333334,
          "velocity": 1
        },
        {
          "duration": 0.4348958333333144,
          "durationTicks": 334,
          "midi": 48,
          "name": "C3",
          "ticks": 119290,
          "time": 155.32552083333334,
          "velocity": 1
        },
        {
          "duration": 0.43359375,
          "durationTicks": 333,
          "midi": 66,
          "name": "F#4",
          "ticks": 119626,
          "time": 155.76302083333334,
          "velocity": 1
        },
        {
          "duration": 0.21614583333331439,
          "durationTicks": 166,
          "midi": 60,
          "name": "C4",
          "ticks": 119626,
          "time": 155.76302083333334,
          "velocity": 1
        },
        {
          "duration": 0.43359375,
          "durationTicks": 333,
          "midi": 50,
          "name": "D3",
          "ticks": 119626,
          "time": 155.76302083333334,
          "velocity": 1
        },
        {
          "duration": 0.21614583333331439,
          "durationTicks": 166,
          "midi": 62,
          "name": "D4",
          "ticks": 119794,
          "time": 155.98177083333334,
          "velocity": 1
        },
        {
          "duration": 0.4322916666666572,
          "durationTicks": 332,
          "midi": 67,
          "name": "G4",
          "ticks": 119961,
          "time": 156.19921875,
          "velocity": 1
        },
        {
          "duration": 0.10546875,
          "durationTicks": 81,
          "midi": 60,
          "name": "C4",
          "ticks": 119961,
          "time": 156.19921875,
          "velocity": 1
        },
        {
          "duration": 0.2135416666666572,
          "durationTicks": 164,
          "midi": 48,
          "name": "C3",
          "ticks": 119961,
          "time": 156.19921875,
          "velocity": 1
        },
        {
          "duration": 0.10546875,
          "durationTicks": 81,
          "midi": 62,
          "name": "D4",
          "ticks": 120044,
          "time": 156.30729166666666,
          "velocity": 1
        },
        {
          "duration": 0.6536458333333144,
          "durationTicks": 502,
          "midi": 63,
          "name": "D#4",
          "ticks": 120127,
          "time": 156.41536458333334,
          "velocity": 1
        },
        {
          "duration": 0.21614583333331439,
          "durationTicks": 166,
          "midi": 46,
          "name": "A#2",
          "ticks": 120127,
          "time": 156.41536458333334,
          "velocity": 1
        },
        {
          "duration": 0.4348958333333144,
          "durationTicks": 334,
          "midi": 69,
          "name": "A4",
          "ticks": 120295,
          "time": 156.63411458333334,
          "velocity": 1
        },
        {
          "duration": 0.4348958333333144,
          "durationTicks": 334,
          "midi": 48,
          "name": "C3",
          "ticks": 120295,
          "time": 156.63411458333334,
          "velocity": 1
        },
        {
          "duration": 0.43359375,
          "durationTicks": 333,
          "midi": 66,
          "name": "F#4",
          "ticks": 120631,
          "time": 157.07161458333334,
          "velocity": 1
        },
        {
          "duration": 0.21614583333331439,
          "durationTicks": 166,
          "midi": 62,
          "name": "D4",
          "ticks": 120631,
          "time": 157.07161458333334,
          "velocity": 1
        },
        {
          "duration": 0.43359375,
          "durationTicks": 333,
          "midi": 50,
          "name": "D3",
          "ticks": 120631,
          "time": 157.07161458333334,
          "velocity": 1
        },
        {
          "duration": 0.2161458333333428,
          "durationTicks": 166,
          "midi": 60,
          "name": "C4",
          "ticks": 120798,
          "time": 157.2890625,
          "velocity": 1
        },
        {
          "duration": 0.43359375,
          "durationTicks": 333,
          "midi": 67,
          "name": "G4",
          "ticks": 120965,
          "time": 157.50651041666666,
          "velocity": 1
        },
        {
          "duration": 0.4322916666666856,
          "durationTicks": 332,
          "midi": 58,
          "name": "A#3",
          "ticks": 120965,
          "time": 157.50651041666666,
          "velocity": 1
        },
        {
          "duration": 0.43359375,
          "durationTicks": 333,
          "midi": 43,
          "name": "G2",
          "ticks": 120965,
          "time": 157.50651041666666,
          "velocity": 1
        },
        {
          "duration": 0.21614583333331439,
          "durationTicks": 166,
          "midi": 74,
          "name": "D5",
          "ticks": 121300,
          "time": 157.94270833333334,
          "velocity": 1
        },
        {
          "duration": 0.21614583333331439,
          "durationTicks": 166,
          "midi": 58,
          "name": "A#3",
          "ticks": 121300,
          "time": 157.94270833333334,
          "velocity": 1
        },
        {
          "duration": 0.21614583333331439,
          "durationTicks": 166,
          "midi": 72,
          "name": "C5",
          "ticks": 121468,
          "time": 158.16145833333334,
          "velocity": 1
        },
        {
          "duration": 0.21614583333331439,
          "durationTicks": 166,
          "midi": 57,
          "name": "A3",
          "ticks": 121468,
          "time": 158.16145833333334,
          "velocity": 1
        },
        {
          "duration": 1.0911458333333428,
          "durationTicks": 838,
          "midi": 74,
          "name": "D5",
          "ticks": 121635,
          "time": 158.37890625,
          "velocity": 1
        },
        {
          "duration": 0.4348958333333428,
          "durationTicks": 334,
          "midi": 58,
          "name": "A#3",
          "ticks": 121635,
          "time": 158.37890625,
          "velocity": 1
        },
        {
          "duration": 0.21614583333331439,
          "durationTicks": 166,
          "midi": 62,
          "name": "D4",
          "ticks": 121804,
          "time": 158.59895833333334,
          "velocity": 1
        },
        {
          "duration": 0.2161458333333428,
          "durationTicks": 166,
          "midi": 64,
          "name": "E4",
          "ticks": 121971,
          "time": 158.81640625,
          "velocity": 1
        },
        {
          "duration": 0.43359375,
          "durationTicks": 333,
          "midi": 50,
          "name": "D3",
          "ticks": 121971,
          "time": 158.81640625,
          "velocity": 1
        },
        {
          "duration": 0.2161458333333428,
          "durationTicks": 166,
          "midi": 66,
          "name": "F#4",
          "ticks": 122138,
          "time": 159.03385416666666,
          "velocity": 1
        },
        {
          "duration": 0.2161458333333428,
          "durationTicks": 166,
          "midi": 67,
          "name": "G4",
          "ticks": 122306,
          "time": 159.25260416666666,
          "velocity": 1
        },
        {
          "duration": 0.43359375,
          "durationTicks": 333,
          "midi": 51,
          "name": "D#3",
          "ticks": 122306,
          "time": 159.25260416666666,
          "velocity": 1
        },
        {
          "duration": 0.21614583333331439,
          "durationTicks": 166,
          "midi": 69,
          "name": "A4",
          "ticks": 122473,
          "time": 159.47005208333334,
          "velocity": 1
        },
        {
          "duration": 0.21614583333331439,
          "durationTicks": 166,
          "midi": 76,
          "name": "E5",
          "ticks": 122641,
          "time": 159.68880208333334,
          "velocity": 1
        },
        {
          "duration": 0.6510416666666572,
          "durationTicks": 500,
          "midi": 70,
          "name": "A#4",
          "ticks": 122641,
          "time": 159.68880208333334,
          "velocity": 1
        },
        {
          "duration": 0.21614583333331439,
          "durationTicks": 166,
          "midi": 60,
          "name": "C4",
          "ticks": 122641,
          "time": 159.68880208333334,
          "velocity": 1
        },
        {
          "duration": 0.2161458333333428,
          "durationTicks": 166,
          "midi": 74,
          "name": "D5",
          "ticks": 122808,
          "time": 159.90625,
          "velocity": 1
        },
        {
          "duration": 0.2161458333333428,
          "durationTicks": 166,
          "midi": 58,
          "name": "A#3",
          "ticks": 122808,
          "time": 159.90625,
          "velocity": 1
        },
        {
          "duration": 0.86328125,
          "durationTicks": 663,
          "midi": 76,
          "name": "E5",
          "ticks": 122975,
          "time": 160.12369791666666,
          "velocity": 1
        },
        {
          "duration": 0.43359375,
          "durationTicks": 333,
          "midi": 60,
          "name": "C4",
          "ticks": 122975,
          "time": 160.12369791666666,
          "velocity": 1
        },
        {
          "duration": 0.2161458333333428,
          "durationTicks": 166,
          "midi": 64,
          "name": "E4",
          "ticks": 123143,
          "time": 160.34244791666666,
          "velocity": 1
        },
        {
          "duration": 0.21614583333331439,
          "durationTicks": 166,
          "midi": 65,
          "name": "F4",
          "ticks": 123310,
          "time": 160.55989583333334,
          "velocity": 1
        },
        {
          "duration": 0.43359375,
          "durationTicks": 333,
          "midi": 52,
          "name": "E3",
          "ticks": 123310,
          "time": 160.55989583333334,
          "velocity": 1
        },
        {
          "duration": 0.21614583333331439,
          "durationTicks": 166,
          "midi": 67,
          "name": "G4",
          "ticks": 123478,
          "time": 160.77864583333334,
          "velocity": 1
        },
        {
          "duration": 0.2161458333333428,
          "durationTicks": 166,
          "midi": 69,
          "name": "A4",
          "ticks": 123645,
          "time": 160.99609375,
          "velocity": 1
        },
        {
          "duration": 0.43359375,
          "durationTicks": 333,
          "midi": 53,
          "name": "F3",
          "ticks": 123645,
          "time": 160.99609375,
          "velocity": 1
        },
        {
          "duration": 0.2161458333333428,
          "durationTicks": 166,
          "midi": 70,
          "name": "A#4",
          "ticks": 123812,
          "time": 161.21354166666666,
          "velocity": 1
        },
        {
          "duration": 0.2161458333333428,
          "durationTicks": 166,
          "midi": 78,
          "name": "F#5",
          "ticks": 123980,
          "time": 161.43229166666666,
          "velocity": 1
        },
        {
          "duration": 0.6510416666666856,
          "durationTicks": 500,
          "midi": 72,
          "name": "C5",
          "ticks": 123980,
          "time": 161.43229166666666,
          "velocity": 1
        },
        {
          "duration": 0.2161458333333428,
          "durationTicks": 166,
          "midi": 62,
          "name": "D4",
          "ticks": 123980,
          "time": 161.43229166666666,
          "velocity": 1
        },
        {
          "duration": 0.21614583333331439,
          "durationTicks": 166,
          "midi": 76,
          "name": "E5",
          "ticks": 124147,
          "time": 161.64973958333334,
          "velocity": 1
        },
        {
          "duration": 0.21614583333331439,
          "durationTicks": 166,
          "midi": 60,
          "name": "C4",
          "ticks": 124147,
          "time": 161.64973958333334,
          "velocity": 1
        },
        {
          "duration": 0.4322916666666572,
          "durationTicks": 332,
          "midi": 78,
          "name": "F#5",
          "ticks": 124315,
          "time": 161.86848958333334,
          "velocity": 1
        },
        {
          "duration": 0.43359375,
          "durationTicks": 333,
          "midi": 62,
          "name": "D4",
          "ticks": 124315,
          "time": 161.86848958333334,
          "velocity": 1
        },
        {
          "duration": 0.2161458333333428,
          "durationTicks": 166,
          "midi": 66,
          "name": "F#4",
          "ticks": 124482,
          "time": 162.0859375,
          "velocity": 1
        },
        {
          "duration": 0.2161458333333428,
          "durationTicks": 166,
          "midi": 67,
          "name": "G4",
          "ticks": 124649,
          "time": 162.30338541666666,
          "velocity": 1
        },
        {
          "duration": 0.43359375,
          "durationTicks": 333,
          "midi": 54,
          "name": "F#3",
          "ticks": 124649,
          "time": 162.30338541666666,
          "velocity": 1
        },
        {
          "duration": 0.2161458333333428,
          "durationTicks": 166,
          "midi": 69,
          "name": "A4",
          "ticks": 124817,
          "time": 162.52213541666666,
          "velocity": 1
        },
        {
          "duration": 0.4348958333333144,
          "durationTicks": 334,
          "midi": 70,
          "name": "A#4",
          "ticks": 124984,
          "time": 162.73958333333334,
          "velocity": 1
        },
        {
          "duration": 1,
          "durationTicks": 768,
          "midi": 55,
          "name": "G3",
          "ticks": 124984,
          "time": 162.73958333333334,
          "velocity": 1
        },
        {
          "duration": 0.21614583333331439,
          "durationTicks": 166,
          "midi": 67,
          "name": "G4",
          "ticks": 125320,
          "time": 163.17708333333334,
          "velocity": 1
        },
        {
          "duration": 0.21614583333331439,
          "durationTicks": 166,
          "midi": 63,
          "name": "D#4",
          "ticks": 125320,
          "time": 163.17708333333334,
          "velocity": 1
        },
        {
          "duration": 0.21614583333331439,
          "durationTicks": 166,
          "midi": 65,
          "name": "F4",
          "ticks": 125488,
          "time": 163.39583333333334,
          "velocity": 1
        },
        {
          "duration": 0.21614583333331439,
          "durationTicks": 166,
          "midi": 62,
          "name": "D4",
          "ticks": 125488,
          "time": 163.39583333333334,
          "velocity": 1
        },
        {
          "duration": 0.86328125,
          "durationTicks": 663,
          "midi": 67,
          "name": "G4",
          "ticks": 125655,
          "time": 163.61328125,
          "velocity": 1
        },
        {
          "duration": 0.43359375,
          "durationTicks": 333,
          "midi": 63,
          "name": "D#4",
          "ticks": 125655,
          "time": 163.61328125,
          "velocity": 1
        },
        {
          "duration": 0.2161458333333428,
          "durationTicks": 166,
          "midi": 43,
          "name": "G2",
          "ticks": 125823,
          "time": 163.83203125,
          "velocity": 1
        },
        {
          "duration": 0.43359375,
          "durationTicks": 333,
          "midi": 55,
          "name": "G3",
          "ticks": 125990,
          "time": 164.04947916666666,
          "velocity": 1
        },
        {
          "duration": 0.2161458333333428,
          "durationTicks": 166,
          "midi": 45,
          "name": "A2",
          "ticks": 125990,
          "time": 164.04947916666666,
          "velocity": 1
        },
        {
          "duration": 0.21614583333331439,
          "durationTicks": 166,
          "midi": 47,
          "name": "B2",
          "ticks": 126157,
          "time": 164.26692708333334,
          "velocity": 1
        },
        {
          "duration": 0.43359375,
          "durationTicks": 333,
          "midi": 56,
          "name": "G#3",
          "ticks": 126325,
          "time": 164.48567708333334,
          "velocity": 1
        },
        {
          "duration": 0.21614583333331439,
          "durationTicks": 166,
          "midi": 48,
          "name": "C3",
          "ticks": 126325,
          "time": 164.48567708333334,
          "velocity": 1
        },
        {
          "duration": 0.2161458333333428,
          "durationTicks": 166,
          "midi": 50,
          "name": "D3",
          "ticks": 126492,
          "time": 164.703125,
          "velocity": 1
        },
        {
          "duration": 0.2161458333333428,
          "durationTicks": 166,
          "midi": 69,
          "name": "A4",
          "ticks": 126660,
          "time": 164.921875,
          "velocity": 1
        },
        {
          "duration": 0.2161458333333428,
          "durationTicks": 166,
          "midi": 65,
          "name": "F4",
          "ticks": 126660,
          "time": 164.921875,
          "velocity": 1
        },
        {
          "duration": 0.5455729166666572,
          "durationTicks": 419,
          "midi": 51,
          "name": "D#3",
          "ticks": 126660,
          "time": 164.921875,
          "velocity": 1
        },
        {
          "duration": 0.2161458333333428,
          "durationTicks": 166,
          "midi": 67,
          "name": "G4",
          "ticks": 126827,
          "time": 165.13932291666666,
          "velocity": 1
        },
        {
          "duration": 0.2161458333333428,
          "durationTicks": 166,
          "midi": 63,
          "name": "D#4",
          "ticks": 126827,
          "time": 165.13932291666666,
          "velocity": 1
        },
        {
          "duration": 0.8645833333333144,
          "durationTicks": 664,
          "midi": 69,
          "name": "A4",
          "ticks": 126994,
          "time": 165.35677083333334,
          "velocity": 1
        },
        {
          "duration": 0.4348958333333144,
          "durationTicks": 334,
          "midi": 65,
          "name": "F4",
          "ticks": 126994,
          "time": 165.35677083333334,
          "velocity": 1
        },
        {
          "duration": 0.2161458333333428,
          "durationTicks": 166,
          "midi": 45,
          "name": "A2",
          "ticks": 127163,
          "time": 165.57682291666666,
          "velocity": 1
        },
        {
          "duration": 0.43359375,
          "durationTicks": 333,
          "midi": 57,
          "name": "A3",
          "ticks": 127330,
          "time": 165.79427083333334,
          "velocity": 1
        },
        {
          "duration": 0.21614583333331439,
          "durationTicks": 166,
          "midi": 46,
          "name": "A#2",
          "ticks": 127330,
          "time": 165.79427083333334,
          "velocity": 1
        },
        {
          "duration": 0.21614583333331439,
          "durationTicks": 166,
          "midi": 48,
          "name": "C3",
          "ticks": 127498,
          "time": 166.01302083333334,
          "velocity": 1
        },
        {
          "duration": 0.43359375,
          "durationTicks": 333,
          "midi": 58,
          "name": "A#3",
          "ticks": 127665,
          "time": 166.23046875,
          "velocity": 1
        },
        {
          "duration": 0.2161458333333428,
          "durationTicks": 166,
          "midi": 50,
          "name": "D3",
          "ticks": 127665,
          "time": 166.23046875,
          "velocity": 1
        },
        {
          "duration": 0.2161458333333428,
          "durationTicks": 166,
          "midi": 51,
          "name": "D#3",
          "ticks": 127833,
          "time": 166.44921875,
          "velocity": 1
        },
        {
          "duration": 0.2161458333333428,
          "durationTicks": 166,
          "midi": 71,
          "name": "B4",
          "ticks": 128000,
          "time": 166.66666666666666,
          "velocity": 1
        },
        {
          "duration": 0.2161458333333428,
          "durationTicks": 166,
          "midi": 67,
          "name": "G4",
          "ticks": 128000,
          "time": 166.66666666666666,
          "velocity": 1
        },
        {
          "duration": 0.5455729166666856,
          "durationTicks": 419,
          "midi": 53,
          "name": "F3",
          "ticks": 128000,
          "time": 166.66666666666666,
          "velocity": 1
        },
        {
          "duration": 0.21614583333331439,
          "durationTicks": 166,
          "midi": 69,
          "name": "A4",
          "ticks": 128167,
          "time": 166.88411458333334,
          "velocity": 1
        },
        {
          "duration": 0.21614583333331439,
          "durationTicks": 166,
          "midi": 65,
          "name": "F4",
          "ticks": 128167,
          "time": 166.88411458333334,
          "velocity": 1
        },
        {
          "duration": 0.8645833333333144,
          "durationTicks": 664,
          "midi": 71,
          "name": "B4",
          "ticks": 128335,
          "time": 167.10286458333334,
          "velocity": 1
        },
        {
          "duration": 0.4348958333333144,
          "durationTicks": 334,
          "midi": 67,
          "name": "G4",
          "ticks": 128335,
          "time": 167.10286458333334,
          "velocity": 1
        },
        {
          "duration": 0.21614583333331439,
          "durationTicks": 166,
          "midi": 47,
          "name": "B2",
          "ticks": 128503,
          "time": 167.32161458333334,
          "velocity": 1
        },
        {
          "duration": 0.43359375,
          "durationTicks": 333,
          "midi": 59,
          "name": "B3",
          "ticks": 128671,
          "time": 167.54036458333334,
          "velocity": 1
        },
        {
          "duration": 0.21614583333331439,
          "durationTicks": 166,
          "midi": 48,
          "name": "C3",
          "ticks": 128671,
          "time": 167.54036458333334,
          "velocity": 1
        },
        {
          "duration": 0.2161458333333428,
          "durationTicks": 166,
          "midi": 50,
          "name": "D3",
          "ticks": 128838,
          "time": 167.7578125,
          "velocity": 1
        },
        {
          "duration": 0.2161458333333428,
          "durationTicks": 166,
          "midi": 60,
          "name": "C4",
          "ticks": 129006,
          "time": 167.9765625,
          "velocity": 1
        },
        {
          "duration": 1.0416666666666572,
          "durationTicks": 800,
          "midi": 51,
          "name": "D#3",
          "ticks": 129006,
          "time": 167.9765625,
          "velocity": 1
        },
        {
          "duration": 0.2161458333333428,
          "durationTicks": 166,
          "midi": 65,
          "name": "F4",
          "ticks": 129173,
          "time": 168.19401041666666,
          "velocity": 1
        },
        {
          "duration": 0.21614583333331439,
          "durationTicks": 166,
          "midi": 72,
          "name": "C5",
          "ticks": 129340,
          "time": 168.41145833333334,
          "velocity": 1
        },
        {
          "duration": 0.21614583333331439,
          "durationTicks": 166,
          "midi": 63,
          "name": "D#4",
          "ticks": 129340,
          "time": 168.41145833333334,
          "velocity": 1
        },
        {
          "duration": 0.21614583333331439,
          "durationTicks": 166,
          "midi": 71,
          "name": "B4",
          "ticks": 129508,
          "time": 168.63020833333334,
          "velocity": 1
        },
        {
          "duration": 0.21614583333331439,
          "durationTicks": 166,
          "midi": 62,
          "name": "D4",
          "ticks": 129508,
          "time": 168.63020833333334,
          "velocity": 1
        },
        {
          "duration": 0.43359375,
          "durationTicks": 333,
          "midi": 72,
          "name": "C5",
          "ticks": 129675,
          "time": 168.84765625,
          "velocity": 1
        },
        {
          "duration": 0.2161458333333428,
          "durationTicks": 166,
          "midi": 60,
          "name": "C4",
          "ticks": 129675,
          "time": 168.84765625,
          "velocity": 1
        },
        {
          "duration": 0.2161458333333428,
          "durationTicks": 166,
          "midi": 58,
          "name": "A#3",
          "ticks": 129843,
          "time": 169.06640625,
          "velocity": 1
        },
        {
          "duration": 0.43359375,
          "durationTicks": 333,
          "midi": 67,
          "name": "G4",
          "ticks": 130010,
          "time": 169.28385416666666,
          "velocity": 1
        },
        {
          "duration": 0.2161458333333428,
          "durationTicks": 166,
          "midi": 56,
          "name": "G#3",
          "ticks": 130010,
          "time": 169.28385416666666,
          "velocity": 1
        },
        {
          "duration": 0.43359375,
          "durationTicks": 333,
          "midi": 52,
          "name": "E3",
          "ticks": 130010,
          "time": 169.28385416666666,
          "velocity": 1
        },
        {
          "duration": 0.21614583333331439,
          "durationTicks": 166,
          "midi": 55,
          "name": "G3",
          "ticks": 130177,
          "time": 169.50130208333334,
          "velocity": 1
        },
        {
          "duration": 0.4348958333333144,
          "durationTicks": 334,
          "midi": 68,
          "name": "G#4",
          "ticks": 130345,
          "time": 169.72005208333334,
          "velocity": 1
        },
        {
          "duration": 0.4348958333333144,
          "durationTicks": 334,
          "midi": 53,
          "name": "F3",
          "ticks": 130345,
          "time": 169.72005208333334,
          "velocity": 1
        },
        {
          "duration": 0.21614583333331439,
          "durationTicks": 166,
          "midi": 72,
          "name": "C5",
          "ticks": 130681,
          "time": 170.15755208333334,
          "velocity": 1
        },
        {
          "duration": 0.43359375,
          "durationTicks": 333,
          "midi": 68,
          "name": "G#4",
          "ticks": 130681,
          "time": 170.15755208333334,
          "velocity": 1
        },
        {
          "duration": 0.43359375,
          "durationTicks": 333,
          "midi": 41,
          "name": "F2",
          "ticks": 130681,
          "time": 170.15755208333334,
          "velocity": 1
        },
        {
          "duration": 0.2161458333333428,
          "durationTicks": 166,
          "midi": 71,
          "name": "B4",
          "ticks": 130848,
          "time": 170.375,
          "velocity": 1
        },
        {
          "duration": 0.4348958333333428,
          "durationTicks": 334,
          "midi": 72,
          "name": "C5",
          "ticks": 131016,
          "time": 170.59375,
          "velocity": 1
        },
        {
          "duration": 0.4348958333333428,
          "durationTicks": 334,
          "midi": 67,
          "name": "G4",
          "ticks": 131016,
          "time": 170.59375,
          "velocity": 1
        },
        {
          "duration": 0.4348958333333428,
          "durationTicks": 334,
          "midi": 39,
          "name": "D#2",
          "ticks": 131016,
          "time": 170.59375,
          "velocity": 1
        },
        {
          "duration": 0.43359375,
          "durationTicks": 333,
          "midi": 74,
          "name": "D5",
          "ticks": 131352,
          "time": 171.03125,
          "velocity": 1
        },
        {
          "duration": 0.43359375,
          "durationTicks": 333,
          "midi": 65,
          "name": "F4",
          "ticks": 131352,
          "time": 171.03125,
          "velocity": 1
        },
        {
          "duration": 0.4322916666666572,
          "durationTicks": 332,
          "midi": 38,
          "name": "D2",
          "ticks": 131352,
          "time": 171.03125,
          "velocity": 1
        },
        {
          "duration": 0.4348958333333144,
          "durationTicks": 334,
          "midi": 67,
          "name": "G4",
          "ticks": 131686,
          "time": 171.46614583333334,
          "velocity": 1
        },
        {
          "duration": 0.4348958333333144,
          "durationTicks": 334,
          "midi": 63,
          "name": "D#4",
          "ticks": 131686,
          "time": 171.46614583333334,
          "velocity": 1
        },
        {
          "duration": 0.2161458333333428,
          "durationTicks": 166,
          "midi": 72,
          "name": "C5",
          "ticks": 132023,
          "time": 171.90494791666666,
          "velocity": 1
        },
        {
          "duration": 0.43359375,
          "durationTicks": 333,
          "midi": 62,
          "name": "D4",
          "ticks": 132023,
          "time": 171.90494791666666,
          "velocity": 1
        },
        {
          "duration": 0.43359375,
          "durationTicks": 333,
          "midi": 44,
          "name": "G#2",
          "ticks": 132023,
          "time": 171.90494791666666,
          "velocity": 1
        },
        {
          "duration": 0.21614583333331439,
          "durationTicks": 166,
          "midi": 71,
          "name": "B4",
          "ticks": 132190,
          "time": 172.12239583333334,
          "velocity": 1
        },
        {
          "duration": 0.4348958333333428,
          "durationTicks": 334,
          "midi": 72,
          "name": "C5",
          "ticks": 132357,
          "time": 172.33984375,
          "velocity": 1
        },
        {
          "duration": 0.4348958333333428,
          "durationTicks": 334,
          "midi": 63,
          "name": "D#4",
          "ticks": 132357,
          "time": 172.33984375,
          "velocity": 1
        },
        {
          "duration": 0.4348958333333428,
          "durationTicks": 334,
          "midi": 43,
          "name": "G2",
          "ticks": 132357,
          "time": 172.33984375,
          "velocity": 1
        },
        {
          "duration": 0.3515625,
          "durationTicks": 270,
          "midi": 74,
          "name": "D5",
          "ticks": 132693,
          "time": 172.77734375,
          "velocity": 1
        },
        {
          "duration": 0.4348958333333428,
          "durationTicks": 334,
          "midi": 65,
          "name": "F4",
          "ticks": 132693,
          "time": 172.77734375,
          "velocity": 1
        },
        {
          "duration": 0.4348958333333428,
          "durationTicks": 334,
          "midi": 41,
          "name": "F2",
          "ticks": 132693,
          "time": 172.77734375,
          "velocity": 1
        },
        {
          "duration": 0.2161458333333428,
          "durationTicks": 166,
          "midi": 65,
          "name": "F4",
          "ticks": 133029,
          "time": 173.21484375,
          "velocity": 1
        },
        {
          "duration": 0.43359375,
          "durationTicks": 333,
          "midi": 59,
          "name": "B3",
          "ticks": 133029,
          "time": 173.21484375,
          "velocity": 1
        },
        {
          "duration": 0.43359375,
          "durationTicks": 333,
          "midi": 43,
          "name": "G2",
          "ticks": 133029,
          "time": 173.21484375,
          "velocity": 1
        },
        {
          "duration": 0.2161458333333428,
          "durationTicks": 166,
          "midi": 67,
          "name": "G4",
          "ticks": 133197,
          "time": 173.43359375,
          "velocity": 1
        },
        {
          "duration": 0.10546875,
          "durationTicks": 81,
          "midi": 65,
          "name": "F4",
          "ticks": 133364,
          "time": 173.65104166666666,
          "velocity": 1
        },
        {
          "duration": 0.4322916666666856,
          "durationTicks": 332,
          "midi": 60,
          "name": "C4",
          "ticks": 133364,
          "time": 173.65104166666666,
          "velocity": 1
        },
        {
          "duration": 0.21354166666668561,
          "durationTicks": 164,
          "midi": 41,
          "name": "F2",
          "ticks": 133364,
          "time": 173.65104166666666,
          "velocity": 1
        },
        {
          "duration": 0.10546875,
          "durationTicks": 81,
          "midi": 67,
          "name": "G4",
          "ticks": 133447,
          "time": 173.75911458333334,
          "velocity": 1
        },
        {
          "duration": 0.6536458333333428,
          "durationTicks": 502,
          "midi": 68,
          "name": "G#4",
          "ticks": 133530,
          "time": 173.8671875,
          "velocity": 1
        },
        {
          "duration": 0.2161458333333428,
          "durationTicks": 166,
          "midi": 39,
          "name": "D#2",
          "ticks": 133530,
          "time": 173.8671875,
          "velocity": 1
        },
        {
          "duration": 0.4348958333333428,
          "durationTicks": 334,
          "midi": 62,
          "name": "D4",
          "ticks": 133698,
          "time": 174.0859375,
          "velocity": 1
        },
        {
          "duration": 0.4348958333333428,
          "durationTicks": 334,
          "midi": 41,
          "name": "F2",
          "ticks": 133698,
          "time": 174.0859375,
          "velocity": 1
        },
        {
          "duration": 0.2161458333333428,
          "durationTicks": 166,
          "midi": 67,
          "name": "G4",
          "ticks": 134034,
          "time": 174.5234375,
          "velocity": 1
        },
        {
          "duration": 0.43359375,
          "durationTicks": 333,
          "midi": 59,
          "name": "B3",
          "ticks": 134034,
          "time": 174.5234375,
          "velocity": 1
        },
        {
          "duration": 0.43359375,
          "durationTicks": 333,
          "midi": 43,
          "name": "G2",
          "ticks": 134034,
          "time": 174.5234375,
          "velocity": 1
        },
        {
          "duration": 0.2161458333333428,
          "durationTicks": 166,
          "midi": 65,
          "name": "F4",
          "ticks": 134201,
          "time": 174.74088541666666,
          "velocity": 1
        },
        {
          "duration": 0.43359375,
          "durationTicks": 333,
          "midi": 63,
          "name": "D#4",
          "ticks": 134369,
          "time": 174.95963541666666,
          "velocity": 1
        },
        {
          "duration": 0.86328125,
          "durationTicks": 663,
          "midi": 60,
          "name": "C4",
          "ticks": 134369,
          "time": 174.95963541666666,
          "velocity": 1
        },
        {
          "duration": 0.2161458333333428,
          "durationTicks": 166,
          "midi": 48,
          "name": "C3",
          "ticks": 134369,
          "time": 174.95963541666666,
          "velocity": 1
        },
        {
          "duration": 0.21614583333331439,
          "durationTicks": 166,
          "midi": 50,
          "name": "D3",
          "ticks": 134536,
          "time": 175.17708333333334,
          "velocity": 1
        },
        {
          "duration": 0.2161458333333428,
          "durationTicks": 166,
          "midi": 72,
          "name": "C5",
          "ticks": 134703,
          "time": 175.39453125,
          "velocity": 1
        },
        {
          "duration": 0.2161458333333428,
          "durationTicks": 166,
          "midi": 51,
          "name": "D#3",
          "ticks": 134703,
          "time": 175.39453125,
          "velocity": 1
        },
        {
          "duration": 0.2161458333333428,
          "durationTicks": 166,
          "midi": 71,
          "name": "B4",
          "ticks": 134871,
          "time": 175.61328125,
          "velocity": 1
        },
        {
          "duration": 0.2161458333333428,
          "durationTicks": 166,
          "midi": 50,
          "name": "D3",
          "ticks": 134871,
          "time": 175.61328125,
          "velocity": 1
        },
        {
          "duration": 0.3515625,
          "durationTicks": 270,
          "midi": 72,
          "name": "C5",
          "ticks": 135038,
          "time": 175.83072916666666,
          "velocity": 1
        },
        {
          "duration": 0.2161458333333428,
          "durationTicks": 166,
          "midi": 48,
          "name": "C3",
          "ticks": 135038,
          "time": 175.83072916666666,
          "velocity": 1
        },
        {
          "duration": 0.2161458333333428,
          "durationTicks": 166,
          "midi": 46,
          "name": "A#2",
          "ticks": 135206,
          "time": 176.04947916666666,
          "velocity": 1
        },
        {
          "duration": 0.43359375,
          "durationTicks": 333,
          "midi": 67,
          "name": "G4",
          "ticks": 135373,
          "time": 176.26692708333334,
          "velocity": 1
        },
        {
          "duration": 0.43359375,
          "durationTicks": 333,
          "midi": 64,
          "name": "E4",
          "ticks": 135373,
          "time": 176.26692708333334,
          "velocity": 1
        },
        {
          "duration": 0.21614583333331439,
          "durationTicks": 166,
          "midi": 44,
          "name": "G#2",
          "ticks": 135373,
          "time": 176.26692708333334,
          "velocity": 1
        },
        {
          "duration": 0.2161458333333428,
          "durationTicks": 166,
          "midi": 43,
          "name": "G2",
          "ticks": 135540,
          "time": 176.484375,
          "velocity": 1
        },
        {
          "duration": 1.1796875,
          "durationTicks": 906,
          "midi": 68,
          "name": "G#4",
          "ticks": 135708,
          "time": 176.703125,
          "velocity": 1
        },
        {
          "duration": 0.43359375,
          "durationTicks": 333,
          "midi": 65,
          "name": "F4",
          "ticks": 135708,
          "time": 176.703125,
          "velocity": 1
        },
        {
          "duration": 0.2161458333333428,
          "durationTicks": 166,
          "midi": 41,
          "name": "F2",
          "ticks": 135708,
          "time": 176.703125,
          "velocity": 1
        },
        {
          "duration": 0.2161458333333428,
          "durationTicks": 166,
          "midi": 58,
          "name": "A#3",
          "ticks": 135875,
          "time": 176.92057291666666,
          "velocity": 1
        },
        {
          "duration": 0.2161458333333428,
          "durationTicks": 166,
          "midi": 65,
          "name": "F4",
          "ticks": 136043,
          "time": 177.13932291666666,
          "velocity": 1
        },
        {
          "duration": 0.2161458333333428,
          "durationTicks": 166,
          "midi": 56,
          "name": "G#3",
          "ticks": 136043,
          "time": 177.13932291666666,
          "velocity": 1
        },
        {
          "duration": 0.21614583333331439,
          "durationTicks": 166,
          "midi": 64,
          "name": "E4",
          "ticks": 136210,
          "time": 177.35677083333334,
          "velocity": 1
        },
        {
          "duration": 0.21614583333331439,
          "durationTicks": 166,
          "midi": 55,
          "name": "G3",
          "ticks": 136210,
          "time": 177.35677083333334,
          "velocity": 1
        },
        {
          "duration": 0.43359375,
          "durationTicks": 333,
          "midi": 65,
          "name": "F4",
          "ticks": 136377,
          "time": 177.57421875,
          "velocity": 1
        },
        {
          "duration": 0.2161458333333428,
          "durationTicks": 166,
          "midi": 53,
          "name": "F3",
          "ticks": 136377,
          "time": 177.57421875,
          "velocity": 1
        },
        {
          "duration": 0.2161458333333428,
          "durationTicks": 166,
          "midi": 51,
          "name": "D#3",
          "ticks": 136545,
          "time": 177.79296875,
          "velocity": 1
        },
        {
          "duration": 0.43359375,
          "durationTicks": 333,
          "midi": 69,
          "name": "A4",
          "ticks": 136712,
          "time": 178.01041666666666,
          "velocity": 1
        },
        {
          "duration": 0.43359375,
          "durationTicks": 333,
          "midi": 60,
          "name": "C4",
          "ticks": 136712,
          "time": 178.01041666666666,
          "velocity": 1
        },
        {
          "duration": 0.2161458333333428,
          "durationTicks": 166,
          "midi": 50,
          "name": "D3",
          "ticks": 136712,
          "time": 178.01041666666666,
          "velocity": 1
        },
        {
          "duration": 0.2161458333333428,
          "durationTicks": 166,
          "midi": 48,
          "name": "C3",
          "ticks": 136880,
          "time": 178.22916666666666,
          "velocity": 1
        },
        {
          "duration": 0.43359375,
          "durationTicks": 333,
          "midi": 70,
          "name": "A#4",
          "ticks": 137047,
          "time": 178.44661458333334,
          "velocity": 1
        },
        {
          "duration": 1.08984375,
          "durationTicks": 837,
          "midi": 62,
          "name": "D4",
          "ticks": 137047,
          "time": 178.44661458333334,
          "velocity": 1
        },
        {
          "duration": 0.21614583333331439,
          "durationTicks": 166,
          "midi": 46,
          "name": "A#2",
          "ticks": 137047,
          "time": 178.44661458333334,
          "velocity": 1
        },
        {
          "duration": 0.2161458333333428,
          "durationTicks": 166,
          "midi": 48,
          "name": "C3",
          "ticks": 137214,
          "time": 178.6640625,
          "velocity": 1
        },
        {
          "duration": 0.2161458333333428,
          "durationTicks": 166,
          "midi": 70,
          "name": "A#4",
          "ticks": 137382,
          "time": 178.8828125,
          "velocity": 1
        },
        {
          "duration": 0.2161458333333428,
          "durationTicks": 166,
          "midi": 50,
          "name": "D3",
          "ticks": 137382,
          "time": 178.8828125,
          "velocity": 1
        },
        {
          "duration": 0.2161458333333428,
          "durationTicks": 166,
          "midi": 69,
          "name": "A4",
          "ticks": 137549,
          "time": 179.10026041666666,
          "velocity": 1
        },
        {
          "duration": 0.2161458333333428,
          "durationTicks": 166,
          "midi": 48,
          "name": "C3",
          "ticks": 137549,
          "time": 179.10026041666666,
          "velocity": 1
        },
        {
          "duration": 0.3515625,
          "durationTicks": 270,
          "midi": 70,
          "name": "A#4",
          "ticks": 137717,
          "time": 179.31901041666666,
          "velocity": 1
        },
        {
          "duration": 0.2161458333333428,
          "durationTicks": 166,
          "midi": 46,
          "name": "A#2",
          "ticks": 137717,
          "time": 179.31901041666666,
          "velocity": 1
        },
        {
          "duration": 0.21614583333331439,
          "durationTicks": 166,
          "midi": 44,
          "name": "G#2",
          "ticks": 137884,
          "time": 179.53645833333334,
          "velocity": 1
        },
        {
          "duration": 0.43359375,
          "durationTicks": 333,
          "midi": 65,
          "name": "F4",
          "ticks": 138051,
          "time": 179.75390625,
          "velocity": 1
        },
        {
          "duration": 0.43359375,
          "durationTicks": 333,
          "midi": 62,
          "name": "D4",
          "ticks": 138051,
          "time": 179.75390625,
          "velocity": 1
        },
        {
          "duration": 0.2161458333333428,
          "durationTicks": 166,
          "midi": 43,
          "name": "G2",
          "ticks": 138051,
          "time": 179.75390625,
          "velocity": 1
        },
        {
          "duration": 0.2161458333333428,
          "durationTicks": 166,
          "midi": 41,
          "name": "F2",
          "ticks": 138219,
          "time": 179.97265625,
          "velocity": 1
        },
        {
          "duration": 1.2044270833333428,
          "durationTicks": 925,
          "midi": 67,
          "name": "G4",
          "ticks": 138386,
          "time": 180.19010416666666,
          "velocity": 1
        },
        {
          "duration": 0.43359375,
          "durationTicks": 333,
          "midi": 63,
          "name": "D#4",
          "ticks": 138386,
          "time": 180.19010416666666,
          "velocity": 1
        },
        {
          "duration": 0.2161458333333428,
          "durationTicks": 166,
          "midi": 39,
          "name": "D#2",
          "ticks": 138386,
          "time": 180.19010416666666,
          "velocity": 1
        },
        {
          "duration": 0.2161458333333428,
          "durationTicks": 166,
          "midi": 56,
          "name": "G#3",
          "ticks": 138554,
          "time": 180.40885416666666,
          "velocity": 1
        },
        {
          "duration": 0.21614583333331439,
          "durationTicks": 166,
          "midi": 63,
          "name": "D#4",
          "ticks": 138721,
          "time": 180.62630208333334,
          "velocity": 1
        },
        {
          "duration": 0.21614583333331439,
          "durationTicks": 166,
          "midi": 55,
          "name": "G3",
          "ticks": 138721,
          "time": 180.62630208333334,
          "velocity": 1
        },
        {
          "duration": 0.2161458333333428,
          "durationTicks": 166,
          "midi": 62,
          "name": "D4",
          "ticks": 138888,
          "time": 180.84375,
          "velocity": 1
        },
        {
          "duration": 0.2161458333333428,
          "durationTicks": 166,
          "midi": 53,
          "name": "F3",
          "ticks": 138888,
          "time": 180.84375,
          "velocity": 1
        },
        {
          "duration": 0.4348958333333428,
          "durationTicks": 334,
          "midi": 63,
          "name": "D#4",
          "ticks": 139056,
          "time": 181.0625,
          "velocity": 1
        },
        {
          "duration": 0.2161458333333428,
          "durationTicks": 166,
          "midi": 51,
          "name": "D#3",
          "ticks": 139056,
          "time": 181.0625,
          "velocity": 1
        },
        {
          "duration": 0.21744791666668561,
          "durationTicks": 167,
          "midi": 49,
          "name": "C#3",
          "ticks": 139223,
          "time": 181.27994791666666,
          "velocity": 1
        },
        {
          "duration": 0.8697916666666572,
          "durationTicks": 668,
          "midi": 67,
          "name": "G4",
          "ticks": 139392,
          "time": 181.5,
          "velocity": 1
        },
        {
          "duration": 0.43359375,
          "durationTicks": 333,
          "midi": 58,
          "name": "A#3",
          "ticks": 139392,
          "time": 181.5,
          "velocity": 1
        },
        {
          "duration": 0.2161458333333428,
          "durationTicks": 166,
          "midi": 48,
          "name": "C3",
          "ticks": 139392,
          "time": 181.5,
          "velocity": 1
        },
        {
          "duration": 0.2161458333333428,
          "durationTicks": 166,
          "midi": 46,
          "name": "A#2",
          "ticks": 139559,
          "time": 181.71744791666666,
          "velocity": 1
        },
        {
          "duration": 2.04296875,
          "durationTicks": 1569,
          "midi": 60,
          "name": "C4",
          "ticks": 139727,
          "time": 181.93619791666666,
          "velocity": 1
        },
        {
          "duration": 0.2161458333333428,
          "durationTicks": 166,
          "midi": 44,
          "name": "G#2",
          "ticks": 139727,
          "time": 181.93619791666666,
          "velocity": 1
        },
        {
          "duration": 0.21614583333331439,
          "durationTicks": 166,
          "midi": 46,
          "name": "A#2",
          "ticks": 139894,
          "time": 182.15364583333334,
          "velocity": 1
        },
        {
          "duration": 0.2161458333333428,
          "durationTicks": 166,
          "midi": 68,
          "name": "G#4",
          "ticks": 140061,
          "time": 182.37109375,
          "velocity": 1
        },
        {
          "duration": 0.2161458333333428,
          "durationTicks": 166,
          "midi": 48,
          "name": "C3",
          "ticks": 140061,
          "time": 182.37109375,
          "velocity": 1
        },
        {
          "duration": 0.2161458333333428,
          "durationTicks": 166,
          "midi": 70,
          "name": "A#4",
          "ticks": 140229,
          "time": 182.58984375,
          "velocity": 1
        },
        {
          "duration": 0.2161458333333428,
          "durationTicks": 166,
          "midi": 46,
          "name": "A#2",
          "ticks": 140229,
          "time": 182.58984375,
          "velocity": 1
        },
        {
          "duration": 0.2161458333333428,
          "durationTicks": 166,
          "midi": 72,
          "name": "C5",
          "ticks": 140396,
          "time": 182.80729166666666,
          "velocity": 1
        },
        {
          "duration": 0.2161458333333428,
          "durationTicks": 166,
          "midi": 44,
          "name": "G#2",
          "ticks": 140396,
          "time": 182.80729166666666,
          "velocity": 1
        },
        {
          "duration": 0.2161458333333428,
          "durationTicks": 166,
          "midi": 71,
          "name": "B4",
          "ticks": 140564,
          "time": 183.02604166666666,
          "velocity": 1
        },
        {
          "duration": 0.2161458333333428,
          "durationTicks": 166,
          "midi": 43,
          "name": "G2",
          "ticks": 140564,
          "time": 183.02604166666666,
          "velocity": 1
        },
        {
          "duration": 0.21614583333331439,
          "durationTicks": 166,
          "midi": 72,
          "name": "C5",
          "ticks": 140731,
          "time": 183.24348958333334,
          "velocity": 1
        },
        {
          "duration": 0.21614583333331439,
          "durationTicks": 166,
          "midi": 41,
          "name": "F2",
          "ticks": 140731,
          "time": 183.24348958333334,
          "velocity": 1
        },
        {
          "duration": 0.2161458333333428,
          "durationTicks": 166,
          "midi": 68,
          "name": "G#4",
          "ticks": 140898,
          "time": 183.4609375,
          "velocity": 1
        },
        {
          "duration": 0.2161458333333428,
          "durationTicks": 166,
          "midi": 39,
          "name": "D#2",
          "ticks": 140898,
          "time": 183.4609375,
          "velocity": 1
        },
        {
          "duration": 0.86328125,
          "durationTicks": 663,
          "midi": 65,
          "name": "F4",
          "ticks": 141066,
          "time": 183.6796875,
          "velocity": 1
        },
        {
          "duration": 0.2161458333333428,
          "durationTicks": 166,
          "midi": 38,
          "name": "D2",
          "ticks": 141066,
          "time": 183.6796875,
          "velocity": 1
        },
        {
          "duration": 0.2161458333333428,
          "durationTicks": 166,
          "midi": 55,
          "name": "G3",
          "ticks": 141233,
          "time": 183.89713541666666,
          "velocity": 1
        },
        {
          "duration": 0.2161458333333428,
          "durationTicks": 166,
          "midi": 62,
          "name": "D4",
          "ticks": 141401,
          "time": 184.11588541666666,
          "velocity": 1
        },
        {
          "duration": 0.2161458333333428,
          "durationTicks": 166,
          "midi": 53,
          "name": "F3",
          "ticks": 141401,
          "time": 184.11588541666666,
          "velocity": 1
        },
        {
          "duration": 0.21614583333331439,
          "durationTicks": 166,
          "midi": 63,
          "name": "D#4",
          "ticks": 141568,
          "time": 184.33333333333334,
          "velocity": 1
        },
        {
          "duration": 0.21614583333331439,
          "durationTicks": 166,
          "midi": 51,
          "name": "D#3",
          "ticks": 141568,
          "time": 184.33333333333334,
          "velocity": 1
        },
        {
          "duration": 0.2161458333333428,
          "durationTicks": 166,
          "midi": 65,
          "name": "F4",
          "ticks": 141735,
          "time": 184.55078125,
          "velocity": 1
        },
        {
          "duration": 0.2161458333333428,
          "durationTicks": 166,
          "midi": 50,
          "name": "D3",
          "ticks": 141735,
          "time": 184.55078125,
          "velocity": 1
        },
        {
          "duration": 0.2161458333333428,
          "durationTicks": 166,
          "midi": 63,
          "name": "D#4",
          "ticks": 141903,
          "time": 184.76953125,
          "velocity": 1
        },
        {
          "duration": 0.2161458333333428,
          "durationTicks": 166,
          "midi": 48,
          "name": "C3",
          "ticks": 141903,
          "time": 184.76953125,
          "velocity": 1
        },
        {
          "duration": 0.4322916666666856,
          "durationTicks": 332,
          "midi": 65,
          "name": "F4",
          "ticks": 142070,
          "time": 184.98697916666666,
          "velocity": 1
        },
        {
          "duration": 0.2161458333333428,
          "durationTicks": 166,
          "midi": 47,
          "name": "B2",
          "ticks": 142070,
          "time": 184.98697916666666,
          "velocity": 1
        },
        {
          "duration": 0.2161458333333428,
          "durationTicks": 166,
          "midi": 62,
          "name": "D4",
          "ticks": 142238,
          "time": 185.20572916666666,
          "velocity": 1
        },
        {
          "duration": 0.2161458333333428,
          "durationTicks": 166,
          "midi": 45,
          "name": "A2",
          "ticks": 142238,
          "time": 185.20572916666666,
          "velocity": 1
        },
        {
          "duration": 0.4322916666666572,
          "durationTicks": 332,
          "midi": 59,
          "name": "B3",
          "ticks": 142405,
          "time": 185.42317708333334,
          "velocity": 1
        },
        {
          "duration": 1.8203125,
          "durationTicks": 1398,
          "midi": 43,
          "name": "G2",
          "ticks": 142405,
          "time": 185.42317708333334,
          "velocity": 1
        },
        {
          "duration": 0.21614583333331439,
          "durationTicks": 166,
          "midi": 74,
          "name": "D5",
          "ticks": 142741,
          "time": 185.86067708333334,
          "velocity": 1
        },
        {
          "duration": 0.2161458333333428,
          "durationTicks": 166,
          "midi": 72,
          "name": "C5",
          "ticks": 142908,
          "time": 186.078125,
          "velocity": 1
        },
        {
          "duration": 0.3515625,
          "durationTicks": 270,
          "midi": 74,
          "name": "D5",
          "ticks": 143076,
          "time": 186.296875,
          "velocity": 1
        },
        {
          "duration": 0.4348958333333428,
          "durationTicks": 334,
          "midi": 65,
          "name": "F4",
          "ticks": 143412,
          "time": 186.734375,
          "velocity": 1
        },
        {
          "duration": 0.4348958333333428,
          "durationTicks": 334,
          "midi": 59,
          "name": "B3",
          "ticks": 143412,
          "time": 186.734375,
          "velocity": 1
        },
        {
          "duration": 0.43359375,
          "durationTicks": 333,
          "midi": 63,
          "name": "D#4",
          "ticks": 143748,
          "time": 187.171875,
          "velocity": 1
        },
        {
          "duration": 0.4322916666666572,
          "durationTicks": 332,
          "midi": 60,
          "name": "C4",
          "ticks": 143748,
          "time": 187.171875,
          "velocity": 1
        },
        {
          "duration": 0.2161458333333428,
          "durationTicks": 166,
          "midi": 43,
          "name": "G2",
          "ticks": 143915,
          "time": 187.38932291666666,
          "velocity": 1
        },
        {
          "duration": 0.2161458333333428,
          "durationTicks": 166,
          "midi": 75,
          "name": "D#5",
          "ticks": 144083,
          "time": 187.60807291666666,
          "velocity": 1
        },
        {
          "duration": 0.2161458333333428,
          "durationTicks": 166,
          "midi": 45,
          "name": "A2",
          "ticks": 144083,
          "time": 187.60807291666666,
          "velocity": 1
        },
        {
          "duration": 0.21614583333331439,
          "durationTicks": 166,
          "midi": 74,
          "name": "D5",
          "ticks": 144250,
          "time": 187.82552083333334,
          "velocity": 1
        },
        {
          "duration": 0.21614583333331439,
          "durationTicks": 166,
          "midi": 47,
          "name": "B2",
          "ticks": 144250,
          "time": 187.82552083333334,
          "velocity": 1
        },
        {
          "duration": 0.3515625,
          "durationTicks": 270,
          "midi": 75,
          "name": "D#5",
          "ticks": 144418,
          "time": 188.04427083333334,
          "velocity": 1
        },
        {
          "duration": 0.21614583333331439,
          "durationTicks": 166,
          "midi": 48,
          "name": "C3",
          "ticks": 144418,
          "time": 188.04427083333334,
          "velocity": 1
        },
        {
          "duration": 0.2161458333333428,
          "durationTicks": 166,
          "midi": 50,
          "name": "D3",
          "ticks": 144585,
          "time": 188.26171875,
          "velocity": 1
        },
        {
          "duration": 0.43359375,
          "durationTicks": 333,
          "midi": 67,
          "name": "G4",
          "ticks": 144752,
          "time": 188.47916666666666,
          "velocity": 1
        },
        {
          "duration": 0.43359375,
          "durationTicks": 333,
          "midi": 63,
          "name": "D#4",
          "ticks": 144752,
          "time": 188.47916666666666,
          "velocity": 1
        },
        {
          "duration": 0.2161458333333428,
          "durationTicks": 166,
          "midi": 51,
          "name": "D#3",
          "ticks": 144752,
          "time": 188.47916666666666,
          "velocity": 1
        },
        {
          "duration": 0.2161458333333428,
          "durationTicks": 166,
          "midi": 53,
          "name": "F3",
          "ticks": 144920,
          "time": 188.69791666666666,
          "velocity": 1
        },
        {
          "duration": 0.43359375,
          "durationTicks": 333,
          "midi": 65,
          "name": "F4",
          "ticks": 145087,
          "time": 188.91536458333334,
          "velocity": 1
        },
        {
          "duration": 1.08984375,
          "durationTicks": 837,
          "midi": 62,
          "name": "D4",
          "ticks": 145087,
          "time": 188.91536458333334,
          "velocity": 1
        },
        {
          "duration": 0.21614583333331439,
          "durationTicks": 166,
          "midi": 55,
          "name": "G3",
          "ticks": 145087,
          "time": 188.91536458333334,
          "velocity": 1
        },
        {
          "duration": 0.21614583333331439,
          "durationTicks": 166,
          "midi": 53,
          "name": "F3",
          "ticks": 145255,
          "time": 189.13411458333334,
          "velocity": 1
        },
        {
          "duration": 0.2161458333333428,
          "durationTicks": 166,
          "midi": 77,
          "name": "F5",
          "ticks": 145422,
          "time": 189.3515625,
          "velocity": 1
        },
        {
          "duration": 0.2161458333333428,
          "durationTicks": 166,
          "midi": 56,
          "name": "G#3",
          "ticks": 145422,
          "time": 189.3515625,
          "velocity": 1
        },
        {
          "duration": 0.2161458333333428,
          "durationTicks": 166,
          "midi": 75,
          "name": "D#5",
          "ticks": 145589,
          "time": 189.56901041666666,
          "velocity": 1
        },
        {
          "duration": 0.2161458333333428,
          "durationTicks": 166,
          "midi": 55,
          "name": "G3",
          "ticks": 145589,
          "time": 189.56901041666666,
          "velocity": 1
        },
        {
          "duration": 0.3515625,
          "durationTicks": 270,
          "midi": 77,
          "name": "F5",
          "ticks": 145757,
          "time": 189.78776041666666,
          "velocity": 1
        },
        {
          "duration": 0.2161458333333428,
          "durationTicks": 166,
          "midi": 53,
          "name": "F3",
          "ticks": 145757,
          "time": 189.78776041666666,
          "velocity": 1
        },
        {
          "duration": 0.21614583333331439,
          "durationTicks": 166,
          "midi": 51,
          "name": "D#3",
          "ticks": 145924,
          "time": 190.00520833333334,
          "velocity": 1
        },
        {
          "duration": 0.43359375,
          "durationTicks": 333,
          "midi": 68,
          "name": "G#4",
          "ticks": 146092,
          "time": 190.22395833333334,
          "velocity": 1
        },
        {
          "duration": 0.86328125,
          "durationTicks": 663,
          "midi": 65,
          "name": "F4",
          "ticks": 146092,
          "time": 190.22395833333334,
          "velocity": 1
        },
        {
          "duration": 0.21614583333331439,
          "durationTicks": 166,
          "midi": 50,
          "name": "D3",
          "ticks": 146092,
          "time": 190.22395833333334,
          "velocity": 1
        },
        {
          "duration": 0.2161458333333428,
          "durationTicks": 166,
          "midi": 48,
          "name": "C3",
          "ticks": 146259,
          "time": 190.44140625,
          "velocity": 1
        },
        {
          "duration": 0.2161458333333428,
          "durationTicks": 166,
          "midi": 67,
          "name": "G4",
          "ticks": 146426,
          "time": 190.65885416666666,
          "velocity": 1
        },
        {
          "duration": 0.43359375,
          "durationTicks": 333,
          "midi": 47,
          "name": "B2",
          "ticks": 146426,
          "time": 190.65885416666666,
          "velocity": 1
        },
        {
          "duration": 0.2161458333333428,
          "durationTicks": 166,
          "midi": 77,
          "name": "F5",
          "ticks": 146594,
          "time": 190.87760416666666,
          "velocity": 1
        },
        {
          "duration": 0.21614583333331439,
          "durationTicks": 166,
          "midi": 75,
          "name": "D#5",
          "ticks": 146761,
          "time": 191.09505208333334,
          "velocity": 1
        },
        {
          "duration": 0.21614583333331439,
          "durationTicks": 166,
          "midi": 48,
          "name": "C3",
          "ticks": 146761,
          "time": 191.09505208333334,
          "velocity": 1
        },
        {
          "duration": 0.21614583333331439,
          "durationTicks": 166,
          "midi": 74,
          "name": "D5",
          "ticks": 146929,
          "time": 191.31380208333334,
          "velocity": 1
        },
        {
          "duration": 0.21614583333331439,
          "durationTicks": 166,
          "midi": 47,
          "name": "B2",
          "ticks": 146929,
          "time": 191.31380208333334,
          "velocity": 1
        },
        {
          "duration": 0.2161458333333428,
          "durationTicks": 166,
          "midi": 72,
          "name": "C5",
          "ticks": 147096,
          "time": 191.53125,
          "velocity": 1
        },
        {
          "duration": 0.43359375,
          "durationTicks": 333,
          "midi": 48,
          "name": "C3",
          "ticks": 147096,
          "time": 191.53125,
          "velocity": 1
        },
        {
          "duration": 0.2161458333333428,
          "durationTicks": 166,
          "midi": 71,
          "name": "B4",
          "ticks": 147263,
          "time": 191.74869791666666,
          "velocity": 1
        },
        {
          "duration": 0.2161458333333428,
          "durationTicks": 166,
          "midi": 69,
          "name": "A4",
          "ticks": 147431,
          "time": 191.96744791666666,
          "velocity": 1
        },
        {
          "duration": 0.43359375,
          "durationTicks": 333,
          "midi": 65,
          "name": "F4",
          "ticks": 147431,
          "time": 191.96744791666666,
          "velocity": 1
        },
        {
          "duration": 0.43359375,
          "durationTicks": 333,
          "midi": 43,
          "name": "G2",
          "ticks": 147431,
          "time": 191.96744791666666,
          "velocity": 1
        },
        {
          "duration": 0.21614583333331439,
          "durationTicks": 166,
          "midi": 67,
          "name": "G4",
          "ticks": 147598,
          "time": 192.18489583333334,
          "velocity": 1
        },
        {
          "duration": 0.4348958333333144,
          "durationTicks": 334,
          "midi": 72,
          "name": "C5",
          "ticks": 147766,
          "time": 192.40364583333334,
          "velocity": 1
        },
        {
          "duration": 0.4348958333333144,
          "durationTicks": 334,
          "midi": 63,
          "name": "D#4",
          "ticks": 147766,
          "time": 192.40364583333334,
          "velocity": 1
        },
        {
          "duration": 0.4348958333333144,
          "durationTicks": 334,
          "midi": 44,
          "name": "G#2",
          "ticks": 147766,
          "time": 192.40364583333334,
          "velocity": 1
        },
        {
          "duration": 0.43359375,
          "durationTicks": 333,
          "midi": 77,
          "name": "F5",
          "ticks": 148102,
          "time": 192.84114583333334,
          "velocity": 1
        },
        {
          "duration": 0.43359375,
          "durationTicks": 333,
          "midi": 68,
          "name": "G#4",
          "ticks": 148102,
          "time": 192.84114583333334,
          "velocity": 1
        },
        {
          "duration": 0.21614583333331439,
          "durationTicks": 166,
          "midi": 48,
          "name": "C3",
          "ticks": 148102,
          "time": 192.84114583333334,
          "velocity": 1
        },
        {
          "duration": 0.2161458333333428,
          "durationTicks": 166,
          "midi": 47,
          "name": "B2",
          "ticks": 148269,
          "time": 193.05859375,
          "velocity": 1
        },
        {
          "duration": 0.4348958333333428,
          "durationTicks": 334,
          "midi": 75,
          "name": "D#5",
          "ticks": 148436,
          "time": 193.27604166666666,
          "velocity": 1
        },
        {
          "duration": 0.4348958333333428,
          "durationTicks": 334,
          "midi": 67,
          "name": "G4",
          "ticks": 148436,
          "time": 193.27604166666666,
          "velocity": 1
        },
        {
          "duration": 0.4348958333333428,
          "durationTicks": 334,
          "midi": 48,
          "name": "C3",
          "ticks": 148436,
          "time": 193.27604166666666,
          "velocity": 1
        },
        {
          "duration": 0.4322916666666856,
          "durationTicks": 332,
          "midi": 74,
          "name": "D5",
          "ticks": 148772,
          "time": 193.71354166666666,
          "velocity": 1
        },
        {
          "duration": 0.43359375,
          "durationTicks": 333,
          "midi": 65,
          "name": "F4",
          "ticks": 148772,
          "time": 193.71354166666666,
          "velocity": 1
        },
        {
          "duration": 0.43359375,
          "durationTicks": 333,
          "midi": 50,
          "name": "D3",
          "ticks": 148772,
          "time": 193.71354166666666,
          "velocity": 1
        },
        {
          "duration": 0.4348958333333144,
          "durationTicks": 334,
          "midi": 63,
          "name": "D#4",
          "ticks": 149107,
          "time": 194.14973958333334,
          "velocity": 1
        },
        {
          "duration": 0.4348958333333144,
          "durationTicks": 334,
          "midi": 43,
          "name": "G2",
          "ticks": 149107,
          "time": 194.14973958333334,
          "velocity": 1
        },
        {
          "duration": 0.43359375,
          "durationTicks": 333,
          "midi": 68,
          "name": "G#4",
          "ticks": 149443,
          "time": 194.58723958333334,
          "velocity": 1
        },
        {
          "duration": 0.43359375,
          "durationTicks": 333,
          "midi": 62,
          "name": "D4",
          "ticks": 149443,
          "time": 194.58723958333334,
          "velocity": 1
        },
        {
          "duration": 0.21614583333331439,
          "durationTicks": 166,
          "midi": 48,
          "name": "C3",
          "ticks": 149443,
          "time": 194.58723958333334,
          "velocity": 1
        },
        {
          "duration": 0.21614583333331439,
          "durationTicks": 166,
          "midi": 47,
          "name": "B2",
          "ticks": 149611,
          "time": 194.80598958333334,
          "velocity": 1
        },
        {
          "duration": 0.4348958333333428,
          "durationTicks": 334,
          "midi": 67,
          "name": "G4",
          "ticks": 149778,
          "time": 195.0234375,
          "velocity": 1
        },
        {
          "duration": 0.4348958333333428,
          "durationTicks": 334,
          "midi": 63,
          "name": "D#4",
          "ticks": 149778,
          "time": 195.0234375,
          "velocity": 1
        },
        {
          "duration": 0.4348958333333428,
          "durationTicks": 334,
          "midi": 48,
          "name": "C3",
          "ticks": 149778,
          "time": 195.0234375,
          "velocity": 1
        },
        {
          "duration": 0.4348958333333428,
          "durationTicks": 334,
          "midi": 65,
          "name": "F4",
          "ticks": 150114,
          "time": 195.4609375,
          "velocity": 1
        },
        {
          "duration": 0.4348958333333428,
          "durationTicks": 334,
          "midi": 62,
          "name": "D4",
          "ticks": 150114,
          "time": 195.4609375,
          "velocity": 1
        },
        {
          "duration": 0.4348958333333428,
          "durationTicks": 334,
          "midi": 50,
          "name": "D3",
          "ticks": 150114,
          "time": 195.4609375,
          "velocity": 1
        },
        {
          "duration": 0.4427083333333428,
          "durationTicks": 340,
          "midi": 67,
          "name": "G4",
          "ticks": 150450,
          "time": 195.8984375,
          "velocity": 1
        },
        {
          "duration": 0.4427083333333428,
          "durationTicks": 340,
          "midi": 59,
          "name": "B3",
          "ticks": 150450,
          "time": 195.8984375,
          "velocity": 1
        },
        {
          "duration": 0.2291666666666572,
          "durationTicks": 176,
          "midi": 41,
          "name": "F2",
          "ticks": 150450,
          "time": 195.8984375,
          "velocity": 1
        },
        {
          "duration": 0.22916666666668561,
          "durationTicks": 176,
          "midi": 43,
          "name": "G2",
          "ticks": 150629,
          "time": 196.13151041666666,
          "velocity": 1
        },
        {
          "duration": 0.2291666666666572,
          "durationTicks": 176,
          "midi": 65,
          "name": "F4",
          "ticks": 150807,
          "time": 196.36328125,
          "velocity": 1
        },
        {
          "duration": 0.4427083333333428,
          "durationTicks": 340,
          "midi": 60,
          "name": "C4",
          "ticks": 150807,
          "time": 196.36328125,
          "velocity": 1
        },
        {
          "duration": 0.4609375,
          "durationTicks": 354,
          "midi": 44,
          "name": "G#2",
          "ticks": 150807,
          "time": 196.36328125,
          "velocity": 1
        },
        {
          "duration": 0.203125,
          "durationTicks": 156,
          "midi": 63,
          "name": "D#4",
          "ticks": 150986,
          "time": 196.59635416666666,
          "velocity": 1
        },
        {
          "duration": 0.4296875,
          "durationTicks": 330,
          "midi": 65,
          "name": "F4",
          "ticks": 151164,
          "time": 196.828125,
          "velocity": 1
        },
        {
          "duration": 0.4296875,
          "durationTicks": 330,
          "midi": 62,
          "name": "D4",
          "ticks": 151164,
          "time": 196.828125,
          "velocity": 1
        },
        {
          "duration": 0.4609375,
          "durationTicks": 354,
          "midi": 44,
          "name": "G#2",
          "ticks": 151164,
          "time": 196.828125,
          "velocity": 1
        },
        {
          "duration": 0.4166666666666572,
          "durationTicks": 320,
          "midi": 62,
          "name": "D4",
          "ticks": 151522,
          "time": 197.29427083333334,
          "velocity": 1
        },
        {
          "duration": 0.4166666666666572,
          "durationTicks": 320,
          "midi": 59,
          "name": "B3",
          "ticks": 151522,
          "time": 197.29427083333334,
          "velocity": 1
        },
        {
          "duration": 0.2291666666666572,
          "durationTicks": 176,
          "midi": 43,
          "name": "G2",
          "ticks": 151522,
          "time": 197.29427083333334,
          "velocity": 1
        },
        {
          "duration": 0.22916666666668561,
          "durationTicks": 176,
          "midi": 41,
          "name": "F2",
          "ticks": 151700,
          "time": 197.52604166666666,
          "velocity": 1
        },
        {
          "duration": 1.5364583333333428,
          "durationTicks": 1180,
          "midi": 39,
          "name": "D#2",
          "ticks": 151895,
          "time": 197.77994791666666,
          "velocity": 1
        },
        {
          "duration": 0.5091145833333428,
          "durationTicks": 391,
          "midi": 59,
          "name": "B3",
          "ticks": 151895,
          "time": 197.77994791666666,
          "velocity": 1
        },
        {
          "duration": 0.5091145833333428,
          "durationTicks": 391,
          "midi": 68,
          "name": "G#4",
          "ticks": 151895,
          "time": 197.77994791666666,
          "velocity": 1
        },
        {
          "duration": 0.5091145833333428,
          "durationTicks": 391,
          "midi": 62,
          "name": "D4",
          "ticks": 151895,
          "time": 197.77994791666666,
          "velocity": 1
        },
        {
          "duration": 1.0026041666666856,
          "durationTicks": 770,
          "midi": 60,
          "name": "C4",
          "ticks": 152321,
          "time": 198.33463541666666,
          "velocity": 1
        },
        {
          "duration": 1.0026041666666856,
          "durationTicks": 770,
          "midi": 67,
          "name": "G4",
          "ticks": 152321,
          "time": 198.33463541666666,
          "velocity": 1
        },
        {
          "duration": 0.5091145833333428,
          "durationTicks": 391,
          "midi": 69,
          "name": "A4",
          "ticks": 153126,
          "time": 199.3828125,
          "velocity": 1
        },
        {
          "duration": 0.5091145833333428,
          "durationTicks": 391,
          "midi": 60,
          "name": "C4",
          "ticks": 153126,
          "time": 199.3828125,
          "velocity": 1
        },
        {
          "duration": 0.5091145833333428,
          "durationTicks": 391,
          "midi": 51,
          "name": "D#3",
          "ticks": 153126,
          "time": 199.3828125,
          "velocity": 1
        },
        {
          "duration": 0.5091145833333144,
          "durationTicks": 391,
          "midi": 71,
          "name": "B4",
          "ticks": 153520,
          "time": 199.89583333333334,
          "velocity": 1
        },
        {
          "duration": 0.2526041666666572,
          "durationTicks": 194,
          "midi": 65,
          "name": "F4",
          "ticks": 153520,
          "time": 199.89583333333334,
          "velocity": 1
        },
        {
          "duration": 0.5091145833333144,
          "durationTicks": 391,
          "midi": 50,
          "name": "D3",
          "ticks": 153520,
          "time": 199.89583333333334,
          "velocity": 1
        },
        {
          "duration": 0.2526041666666572,
          "durationTicks": 194,
          "midi": 62,
          "name": "D4",
          "ticks": 153717,
          "time": 200.15234375,
          "velocity": 1
        },
        {
          "duration": 0.5091145833333428,
          "durationTicks": 391,
          "midi": 72,
          "name": "C5",
          "ticks": 153914,
          "time": 200.40885416666666,
          "velocity": 1
        },
        {
          "duration": 0.2526041666666856,
          "durationTicks": 194,
          "midi": 63,
          "name": "D#4",
          "ticks": 153914,
          "time": 200.40885416666666,
          "velocity": 1
        },
        {
          "duration": 0.5078125,
          "durationTicks": 390,
          "midi": 48,
          "name": "C3",
          "ticks": 153914,
          "time": 200.40885416666666,
          "velocity": 1
        },
        {
          "duration": 0.7578125,
          "durationTicks": 582,
          "midi": 60,
          "name": "C4",
          "ticks": 154111,
          "time": 200.66536458333334,
          "velocity": 1
        },
        {
          "duration": 0.2526041666666572,
          "durationTicks": 194,
          "midi": 65,
          "name": "F4",
          "ticks": 154309,
          "time": 200.92317708333334,
          "velocity": 1
        },
        {
          "duration": 0.5091145833333144,
          "durationTicks": 391,
          "midi": 55,
          "name": "G3",
          "ticks": 154309,
          "time": 200.92317708333334,
          "velocity": 1
        },
        {
          "duration": 0.2526041666666572,
          "durationTicks": 194,
          "midi": 63,
          "name": "D#4",
          "ticks": 154506,
          "time": 201.1796875,
          "velocity": 1
        },
        {
          "duration": 0.2526041666666856,
          "durationTicks": 194,
          "midi": 62,
          "name": "D4",
          "ticks": 154703,
          "time": 201.43619791666666,
          "velocity": 1
        },
        {
          "duration": 0.3255208333333428,
          "durationTicks": 250,
          "midi": 59,
          "name": "B3",
          "ticks": 154703,
          "time": 201.43619791666666,
          "velocity": 1
        },
        {
          "duration": 0.5091145833333428,
          "durationTicks": 391,
          "midi": 43,
          "name": "G2",
          "ticks": 154703,
          "time": 201.43619791666666,
          "velocity": 1
        },
        {
          "duration": 0.2526041666666572,
          "durationTicks": 194,
          "midi": 60,
          "name": "C4",
          "ticks": 154900,
          "time": 201.69270833333334,
          "velocity": 1
        },
        {
          "duration": 1.5364583333333428,
          "durationTicks": 1180,
          "midi": 60,
          "name": "C4",
          "ticks": 155097,
          "time": 201.94921875,
          "velocity": 1
        },
        {
          "duration": 13.98046875,
          "durationTicks": 10737,
          "midi": 36,
          "name": "C2",
          "ticks": 155097,
          "time": 201.94921875,
          "velocity": 1
        },
        {
          "duration": 2.049479166666657,
          "durationTicks": 1574,
          "midi": 48,
          "name": "C3",
          "ticks": 155097,
          "time": 201.94921875,
          "velocity": 1
        },
        {
          "duration": 0.2526041666666856,
          "durationTicks": 194,
          "midi": 72,
          "name": "C5",
          "ticks": 155492,
          "time": 202.46354166666666,
          "velocity": 1
        },
        {
          "duration": 0.2526041666666572,
          "durationTicks": 194,
          "midi": 71,
          "name": "B4",
          "ticks": 155689,
          "time": 202.72005208333334,
          "velocity": 1
        },
        {
          "duration": 0.5091145833333428,
          "durationTicks": 391,
          "midi": 72,
          "name": "C5",
          "ticks": 155886,
          "time": 202.9765625,
          "velocity": 1
        },
        {
          "duration": 0.5091145833333144,
          "durationTicks": 391,
          "midi": 67,
          "name": "G4",
          "ticks": 156280,
          "time": 203.48958333333334,
          "velocity": 1
        },
        {
          "duration": 0.5091145833333144,
          "durationTicks": 391,
          "midi": 64,
          "name": "E4",
          "ticks": 156280,
          "time": 203.48958333333334,
          "velocity": 1
        },
        {
          "duration": 0.5091145833333428,
          "durationTicks": 391,
          "midi": 68,
          "name": "G#4",
          "ticks": 156674,
          "time": 204.00260416666666,
          "velocity": 1
        },
        {
          "duration": 1.5364583333333428,
          "durationTicks": 1180,
          "midi": 65,
          "name": "F4",
          "ticks": 156674,
          "time": 204.00260416666666,
          "velocity": 1
        },
        {
          "duration": 2.0494791666666856,
          "durationTicks": 1574,
          "midi": 48,
          "name": "C3",
          "ticks": 156674,
          "time": 204.00260416666666,
          "velocity": 1
        },
        {
          "duration": 0.2526041666666572,
          "durationTicks": 194,
          "midi": 72,
          "name": "C5",
          "ticks": 157069,
          "time": 204.51692708333334,
          "velocity": 1
        },
        {
          "duration": 0.2526041666666572,
          "durationTicks": 194,
          "midi": 71,
          "name": "B4",
          "ticks": 157266,
          "time": 204.7734375,
          "velocity": 1
        },
        {
          "duration": 0.5091145833333428,
          "durationTicks": 391,
          "midi": 72,
          "name": "C5",
          "ticks": 157463,
          "time": 205.02994791666666,
          "velocity": 1
        },
        {
          "duration": 0.5091145833333428,
          "durationTicks": 391,
          "midi": 74,
          "name": "D5",
          "ticks": 157857,
          "time": 205.54296875,
          "velocity": 1
        },
        {
          "duration": 0.5091145833333428,
          "durationTicks": 391,
          "midi": 71,
          "name": "B4",
          "ticks": 157857,
          "time": 205.54296875,
          "velocity": 1
        },
        {
          "duration": 0.5091145833333428,
          "durationTicks": 391,
          "midi": 68,
          "name": "G#4",
          "ticks": 157857,
          "time": 205.54296875,
          "velocity": 1
        },
        {
          "duration": 0.5091145833333428,
          "durationTicks": 391,
          "midi": 65,
          "name": "F4",
          "ticks": 157857,
          "time": 205.54296875,
          "velocity": 1
        },
        {
          "duration": 0.5091145833333428,
          "durationTicks": 391,
          "midi": 67,
          "name": "G4",
          "ticks": 158252,
          "time": 206.05729166666666,
          "velocity": 1
        },
        {
          "duration": 0.5091145833333428,
          "durationTicks": 391,
          "midi": 65,
          "name": "F4",
          "ticks": 158252,
          "time": 206.05729166666666,
          "velocity": 1
        },
        {
          "duration": 4.485677083333343,
          "durationTicks": 3445,
          "midi": 48,
          "name": "C3",
          "ticks": 158252,
          "time": 206.05729166666666,
          "velocity": 1
        },
        {
          "duration": 0.2526041666666572,
          "durationTicks": 194,
          "midi": 72,
          "name": "C5",
          "ticks": 158646,
          "time": 206.5703125,
          "velocity": 1
        },
        {
          "duration": 0.2526041666666572,
          "durationTicks": 194,
          "midi": 63,
          "name": "D#4",
          "ticks": 158646,
          "time": 206.5703125,
          "velocity": 1
        },
        {
          "duration": 0.2526041666666856,
          "durationTicks": 194,
          "midi": 71,
          "name": "B4",
          "ticks": 158843,
          "time": 206.82682291666666,
          "velocity": 1
        },
        {
          "duration": 0.2526041666666856,
          "durationTicks": 194,
          "midi": 62,
          "name": "D4",
          "ticks": 158843,
          "time": 206.82682291666666,
          "velocity": 1
        },
        {
          "duration": 0.5091145833333144,
          "durationTicks": 391,
          "midi": 72,
          "name": "C5",
          "ticks": 159040,
          "time": 207.08333333333334,
          "velocity": 1
        },
        {
          "duration": 0.5091145833333144,
          "durationTicks": 391,
          "midi": 63,
          "name": "D#4",
          "ticks": 159040,
          "time": 207.08333333333334,
          "velocity": 1
        },
        {
          "duration": 0.5091145833333428,
          "durationTicks": 391,
          "midi": 74,
          "name": "D5",
          "ticks": 159435,
          "time": 207.59765625,
          "velocity": 1
        },
        {
          "duration": 0.5091145833333428,
          "durationTicks": 391,
          "midi": 68,
          "name": "G#4",
          "ticks": 159435,
          "time": 207.59765625,
          "velocity": 1
        },
        {
          "duration": 0.5091145833333428,
          "durationTicks": 391,
          "midi": 65,
          "name": "F4",
          "ticks": 159435,
          "time": 207.59765625,
          "velocity": 1
        },
        {
          "duration": 1.0807291666666856,
          "durationTicks": 830,
          "midi": 62,
          "name": "D4",
          "ticks": 159845,
          "time": 208.13151041666666,
          "velocity": 1
        },
        {
          "duration": 1.0807291666666856,
          "durationTicks": 830,
          "midi": 59,
          "name": "B3",
          "ticks": 159845,
          "time": 208.13151041666666,
          "velocity": 1
        },
        {
          "duration": 0.2669270833333428,
          "durationTicks": 205,
          "midi": 65,
          "name": "F4",
          "ticks": 159845,
          "time": 208.13151041666666,
          "velocity": 1
        },
        {
          "duration": 0.2669270833333428,
          "durationTicks": 205,
          "midi": 67,
          "name": "G4",
          "ticks": 160053,
          "time": 208.40234375,
          "velocity": 1
        },
        {
          "duration": 1.171875,
          "durationTicks": 900,
          "midi": 68,
          "name": "G#4",
          "ticks": 160262,
          "time": 208.67447916666666,
          "velocity": 1
        },
        {
          "duration": 1.34765625,
          "durationTicks": 1035,
          "midi": 62,
          "name": "D4",
          "ticks": 160726,
          "time": 209.27864583333334,
          "velocity": 1
        },
        {
          "duration": 1.0130208333333144,
          "durationTicks": 778,
          "midi": 65,
          "name": "F4",
          "ticks": 160726,
          "time": 209.27864583333334,
          "velocity": 1
        },
        {
          "duration": 1.34765625,
          "durationTicks": 1035,
          "midi": 59,
          "name": "B3",
          "ticks": 160726,
          "time": 209.27864583333334,
          "velocity": 1
        },
        {
          "duration": 0.3333333333333428,
          "durationTicks": 256,
          "midi": 67,
          "name": "G4",
          "ticks": 161246,
          "time": 209.95572916666666,
          "velocity": 1
        },
        {
          "duration": 0.3333333333333428,
          "durationTicks": 256,
          "midi": 65,
          "name": "F4",
          "ticks": 161505,
          "time": 210.29296875,
          "velocity": 1
        },
        {
          "duration": 5.389322916666657,
          "durationTicks": 4139,
          "midi": 64,
          "name": "E4",
          "ticks": 161764,
          "time": 210.63020833333334,
          "velocity": 1
        },
        {
          "duration": 5.389322916666657,
          "durationTicks": 4139,
          "midi": 60,
          "name": "C4",
          "ticks": 161764,
          "time": 210.63020833333334,
          "velocity": 1
        },
        {
          "duration": 5.389322916666657,
          "durationTicks": 4139,
          "midi": 55,
          "name": "G3",
          "ticks": 161764,
          "time": 210.63020833333334,
          "velocity": 1
        },
        {
          "duration": 5.389322916666657,
          "durationTicks": 4139,
          "midi": 48,
          "name": "C3",
          "ticks": 161764,
          "time": 210.63020833333334,
          "velocity": 1
        }
      ]
    },
    {
      "channel": 0,
      "controlChanges": {},
      "instrument": {
        "family": "piano",
        "name": "acoustic grand piano",
        "number": 0
      },
      "name": "MIDI",
      "notes": []
    }
  ]
};

_8bars = {
  "header": {
    "keySignatures": [
      {
        "key": "C",
        "scale": "major",
        "ticks": 0
      }
    ],
    "meta": [
      {
        "text": "Steinway Grand Piano",
        "ticks": 0,
        "type": "instrumentName"
      },
      {
        "ticks": 0,
        "type": "smpteOffset"
      }
    ],
    "name": "Inst 1",
    "ppq": 480,
    "tempos": [
      {
        "bpm": 120,
        "ticks": 0
      }
    ],
    "timeSignatures": [
      {
        "ticks": 0,
        "timeSignature": [
          4,
          4
        ],
        "measures": 0
      }
    ]
  },
  "tracks": [
    {
      "channel": 0,
      "controlChanges": {
        "64": [
          {
            "number": 64,
            "ticks": 139,
            "time": 0.14479166666666668,
            "value": 0.2677165354330709
          },
          {
            "number": 64,
            "ticks": 150,
            "time": 0.15625,
            "value": 0.6299212598425197
          },
          {
            "number": 64,
            "ticks": 162,
            "time": 0.16875,
            "value": 1
          },
          {
            "number": 64,
            "ticks": 713,
            "time": 0.7427083333333333,
            "value": 0.6456692913385826
          },
          {
            "number": 64,
            "ticks": 725,
            "time": 0.7552083333333334,
            "value": 0.28346456692913385
          },
          {
            "number": 64,
            "ticks": 736,
            "time": 0.7666666666666667,
            "value": 0
          },
          {
            "number": 64,
            "ticks": 1140,
            "time": 1.1875,
            "value": 0.4251968503937008
          },
          {
            "number": 64,
            "ticks": 1152,
            "time": 1.2,
            "value": 0.9133858267716536
          },
          {
            "number": 64,
            "ticks": 1163,
            "time": 1.2114583333333333,
            "value": 1
          },
          {
            "number": 64,
            "ticks": 1946,
            "time": 2.027083333333333,
            "value": 0.5511811023622047
          },
          {
            "number": 64,
            "ticks": 1960,
            "time": 2.0416666666666665,
            "value": 0.12598425196850394
          },
          {
            "number": 64,
            "ticks": 1969,
            "time": 2.051041666666667,
            "value": 0
          },
          {
            "number": 64,
            "ticks": 2512,
            "time": 2.6166666666666667,
            "value": 0.4409448818897638
          },
          {
            "number": 64,
            "ticks": 2523,
            "time": 2.628125,
            "value": 1
          },
          {
            "number": 64,
            "ticks": 3790,
            "time": 3.9479166666666665,
            "value": 0.8503937007874016
          },
          {
            "number": 64,
            "ticks": 3802,
            "time": 3.9604166666666667,
            "value": 0.47244094488188976
          },
          {
            "number": 64,
            "ticks": 3814,
            "time": 3.972916666666667,
            "value": 0.15748031496062992
          },
          {
            "number": 64,
            "ticks": 3825,
            "time": 3.984375,
            "value": 0
          },
          {
            "number": 64,
            "ticks": 4010,
            "time": 4.177083333333333,
            "value": 0.11023622047244094
          },
          {
            "number": 64,
            "ticks": 4022,
            "time": 4.189583333333333,
            "value": 0.6141732283464567
          },
          {
            "number": 64,
            "ticks": 4033,
            "time": 4.201041666666667,
            "value": 1
          },
          {
            "number": 64,
            "ticks": 4607,
            "time": 4.798958333333333,
            "value": 0.984251968503937
          },
          {
            "number": 64,
            "ticks": 4619,
            "time": 4.811458333333333,
            "value": 0.6456692913385826
          },
          {
            "number": 64,
            "ticks": 4631,
            "time": 4.823958333333334,
            "value": 0.1889763779527559
          },
          {
            "number": 64,
            "ticks": 4642,
            "time": 4.835416666666666,
            "value": 0
          },
          {
            "number": 64,
            "ticks": 4838,
            "time": 5.039583333333334,
            "value": 0.36220472440944884
          },
          {
            "number": 64,
            "ticks": 4850,
            "time": 5.052083333333333,
            "value": 0.7716535433070866
          },
          {
            "number": 64,
            "ticks": 4861,
            "time": 5.063541666666667,
            "value": 1
          },
          {
            "number": 64,
            "ticks": 5586,
            "time": 5.81875,
            "value": 0.7874015748031497
          },
          {
            "number": 64,
            "ticks": 5597,
            "time": 5.830208333333333,
            "value": 0.4251968503937008
          },
          {
            "number": 64,
            "ticks": 5609,
            "time": 5.842708333333333,
            "value": 0.015748031496062992
          },
          {
            "number": 64,
            "ticks": 5621,
            "time": 5.855208333333334,
            "value": 0
          },
          {
            "number": 64,
            "ticks": 5851,
            "time": 6.094791666666667,
            "value": 0.4251968503937008
          },
          {
            "number": 64,
            "ticks": 5863,
            "time": 6.107291666666667,
            "value": 0.9448818897637795
          },
          {
            "number": 64,
            "ticks": 5875,
            "time": 6.119791666666667,
            "value": 1
          },
          {
            "number": 64,
            "ticks": 7569,
            "time": 7.884375,
            "value": 0.9448818897637795
          },
          {
            "number": 64,
            "ticks": 7581,
            "time": 7.896875,
            "value": 0.5196850393700787
          },
          {
            "number": 64,
            "ticks": 7592,
            "time": 7.908333333333333,
            "value": 0.14173228346456693
          },
          {
            "number": 64,
            "ticks": 7604,
            "time": 7.920833333333333,
            "value": 0
          },
          {
            "number": 64,
            "ticks": 7812,
            "time": 8.1375,
            "value": 0.2992125984251969
          },
          {
            "number": 64,
            "ticks": 7823,
            "time": 8.148958333333333,
            "value": 0.6456692913385826
          },
          {
            "number": 64,
            "ticks": 7832,
            "time": 8.158333333333333,
            "value": 1
          },
          {
            "number": 64,
            "ticks": 8479,
            "time": 8.832291666666666,
            "value": 0.5669291338582677
          },
          {
            "number": 64,
            "ticks": 8490,
            "time": 8.84375,
            "value": 0.015748031496062992
          },
          {
            "number": 64,
            "ticks": 8502,
            "time": 8.85625,
            "value": 0
          },
          {
            "number": 64,
            "ticks": 8663,
            "time": 9.023958333333333,
            "value": 0.3937007874015748
          },
          {
            "number": 64,
            "ticks": 8675,
            "time": 9.036458333333334,
            "value": 0.8110236220472441
          },
          {
            "number": 64,
            "ticks": 8686,
            "time": 9.047916666666667,
            "value": 1
          },
          {
            "number": 64,
            "ticks": 9226,
            "time": 9.610416666666667,
            "value": 0.968503937007874
          },
          {
            "number": 64,
            "ticks": 9238,
            "time": 9.622916666666667,
            "value": 0.889763779527559
          },
          {
            "number": 64,
            "ticks": 9249,
            "time": 9.634375,
            "value": 0.8110236220472441
          },
          {
            "number": 64,
            "ticks": 9261,
            "time": 9.646875,
            "value": 0.6929133858267716
          },
          {
            "number": 64,
            "ticks": 9272,
            "time": 9.658333333333333,
            "value": 0.5354330708661418
          },
          {
            "number": 64,
            "ticks": 9285,
            "time": 9.671875,
            "value": 0.33070866141732286
          },
          {
            "number": 64,
            "ticks": 9296,
            "time": 9.683333333333334,
            "value": 0.015748031496062992
          },
          {
            "number": 64,
            "ticks": 9307,
            "time": 9.694791666666667,
            "value": 0
          },
          {
            "number": 64,
            "ticks": 9573,
            "time": 9.971875,
            "value": 0.12598425196850394
          },
          {
            "number": 64,
            "ticks": 9584,
            "time": 9.983333333333333,
            "value": 0.6299212598425197
          },
          {
            "number": 64,
            "ticks": 9596,
            "time": 9.995833333333334,
            "value": 1
          },
          {
            "number": 64,
            "ticks": 10690,
            "time": 11.135416666666666,
            "value": 0.7874015748031497
          },
          {
            "number": 64,
            "ticks": 10702,
            "time": 11.147916666666667,
            "value": 0.4094488188976378
          },
          {
            "number": 64,
            "ticks": 10713,
            "time": 11.159375,
            "value": 0.09448818897637795
          },
          {
            "number": 64,
            "ticks": 10725,
            "time": 11.171875,
            "value": 0
          },
          {
            "number": 64,
            "ticks": 11556,
            "time": 12.0375,
            "value": 0.1732283464566929
          },
          {
            "number": 64,
            "ticks": 11565,
            "time": 12.046875,
            "value": 0.8346456692913385
          },
          {
            "number": 64,
            "ticks": 11576,
            "time": 12.058333333333334,
            "value": 1
          },
          {
            "number": 64,
            "ticks": 12269,
            "time": 12.780208333333333,
            "value": 0.968503937007874
          },
          {
            "number": 64,
            "ticks": 12280,
            "time": 12.791666666666666,
            "value": 0.6456692913385826
          },
          {
            "number": 64,
            "ticks": 12292,
            "time": 12.804166666666667,
            "value": 0.2047244094488189
          },
          {
            "number": 64,
            "ticks": 12304,
            "time": 12.816666666666666,
            "value": 0
          },
          {
            "number": 64,
            "ticks": 12535,
            "time": 13.057291666666666,
            "value": 0.3779527559055118
          },
          {
            "number": 64,
            "ticks": 12546,
            "time": 13.06875,
            "value": 0.984251968503937
          },
          {
            "number": 64,
            "ticks": 12558,
            "time": 13.08125,
            "value": 1
          },
          {
            "number": 64,
            "ticks": 13167,
            "time": 13.715625,
            "value": 0.9448818897637795
          },
          {
            "number": 64,
            "ticks": 13178,
            "time": 13.727083333333333,
            "value": 0.7086614173228346
          },
          {
            "number": 64,
            "ticks": 13190,
            "time": 13.739583333333334,
            "value": 0.3937007874015748
          },
          {
            "number": 64,
            "ticks": 13201,
            "time": 13.751041666666667,
            "value": 0.06299212598425197
          },
          {
            "number": 64,
            "ticks": 13213,
            "time": 13.763541666666667,
            "value": 0
          },
          {
            "number": 64,
            "ticks": 13352,
            "time": 13.908333333333333,
            "value": 0.47244094488188976
          },
          {
            "number": 64,
            "ticks": 13363,
            "time": 13.919791666666667,
            "value": 1
          },
          {
            "number": 64,
            "ticks": 15239,
            "time": 15.873958333333333,
            "value": 0.6141732283464567
          },
          {
            "number": 64,
            "ticks": 15252,
            "time": 15.8875,
            "value": 0.11023622047244094
          },
          {
            "number": 64,
            "ticks": 15263,
            "time": 15.898958333333333,
            "value": 0
          }
        ]
      },
      "instrument": {
        "family": "piano",
        "name": "acoustic grand piano",
        "number": 0
      },
      "name": "Inst 1",
      "notes": [
        {
          "duration": 0.4708333333333333,
          "durationTicks": 452,
          "midi": 36,
          "name": "C2",
          "ticks": 4,
          "time": 0.004166666666666667,
          "velocity": 0.5669291338582677
        },
        {
          "duration": 0.054166666666666696,
          "durationTicks": 52,
          "midi": 43,
          "name": "G2",
          "ticks": 471,
          "time": 0.490625,
          "velocity": 0.4330708661417323
        },
        {
          "duration": 0.6552083333333334,
          "durationTicks": 629,
          "midi": 58,
          "name": "A#3",
          "ticks": 739,
          "time": 0.7697916666666667,
          "velocity": 0.6062992125984252
        },
        {
          "duration": 0.7333333333333333,
          "durationTicks": 704,
          "midi": 72,
          "name": "C5",
          "ticks": 748,
          "time": 0.7791666666666667,
          "velocity": 0.5826771653543307
        },
        {
          "duration": 0.5531250000000001,
          "durationTicks": 531,
          "midi": 53,
          "name": "F3",
          "ticks": 762,
          "time": 0.79375,
          "velocity": 0.3228346456692913
        },
        {
          "duration": 0.7124999999999999,
          "durationTicks": 684,
          "midi": 65,
          "name": "F4",
          "ticks": 765,
          "time": 0.796875,
          "velocity": 0.4566929133858268
        },
        {
          "duration": 0.6677083333333332,
          "durationTicks": 641,
          "midi": 67,
          "name": "G4",
          "ticks": 774,
          "time": 0.80625,
          "velocity": 0.5039370078740157
        },
        {
          "duration": 0.5416666666666667,
          "durationTicks": 520,
          "midi": 48,
          "name": "C3",
          "ticks": 788,
          "time": 0.8208333333333333,
          "velocity": 0.2755905511811024
        },
        {
          "duration": 0.9354166666666668,
          "durationTicks": 898,
          "midi": 60,
          "name": "C4",
          "ticks": 1943,
          "time": 2.0239583333333333,
          "velocity": 0.48031496062992124
        },
        {
          "duration": 1.072916666666667,
          "durationTicks": 1030,
          "midi": 70,
          "name": "A#4",
          "ticks": 1946,
          "time": 2.027083333333333,
          "velocity": 0.5039370078740157
        },
        {
          "duration": 1.0916666666666668,
          "durationTicks": 1048,
          "midi": 74,
          "name": "D5",
          "ticks": 1949,
          "time": 2.0302083333333334,
          "velocity": 0.49606299212598426
        },
        {
          "duration": 0.9708333333333337,
          "durationTicks": 932,
          "midi": 55,
          "name": "G3",
          "ticks": 1952,
          "time": 2.033333333333333,
          "velocity": 0.48031496062992124
        },
        {
          "duration": 1.1062500000000002,
          "durationTicks": 1062,
          "midi": 67,
          "name": "G4",
          "ticks": 1952,
          "time": 2.033333333333333,
          "velocity": 0.3700787401574803
        },
        {
          "duration": 1.0291666666666668,
          "durationTicks": 988,
          "midi": 50,
          "name": "D3",
          "ticks": 1957,
          "time": 2.0385416666666667,
          "velocity": 0.3937007874015748
        },
        {
          "duration": 0.4968750000000002,
          "durationTicks": 477,
          "midi": 79,
          "name": "G5",
          "ticks": 3868,
          "time": 4.029166666666667,
          "velocity": 0.4015748031496063
        },
        {
          "duration": 0.4541666666666666,
          "durationTicks": 436,
          "midi": 70,
          "name": "A#4",
          "ticks": 3871,
          "time": 4.032291666666667,
          "velocity": 0.4330708661417323
        },
        {
          "duration": 0.16249999999999964,
          "durationTicks": 156,
          "midi": 36,
          "name": "C2",
          "ticks": 3880,
          "time": 4.041666666666667,
          "velocity": 0.44881889763779526
        },
        {
          "duration": 0.18333333333333357,
          "durationTicks": 176,
          "midi": 43,
          "name": "G2",
          "ticks": 3892,
          "time": 4.054166666666666,
          "velocity": 0.4645669291338583
        },
        {
          "duration": 0.505208333333333,
          "durationTicks": 485,
          "midi": 67,
          "name": "G4",
          "ticks": 3897,
          "time": 4.059375,
          "velocity": 0.3228346456692913
        },
        {
          "duration": 0.2041666666666666,
          "durationTicks": 196,
          "midi": 48,
          "name": "C3",
          "ticks": 3900,
          "time": 4.0625,
          "velocity": 0.3464566929133858
        },
        {
          "duration": 0.35520833333333357,
          "durationTicks": 341,
          "midi": 58,
          "name": "A#3",
          "ticks": 4590,
          "time": 4.78125,
          "velocity": 0.5590551181102362
        },
        {
          "duration": 0.7156250000000002,
          "durationTicks": 687,
          "midi": 72,
          "name": "C5",
          "ticks": 4590,
          "time": 4.78125,
          "velocity": 0.48031496062992124
        },
        {
          "duration": 0.7427083333333337,
          "durationTicks": 713,
          "midi": 79,
          "name": "G5",
          "ticks": 4596,
          "time": 4.7875,
          "velocity": 0.4015748031496063
        },
        {
          "duration": 0.6937499999999996,
          "durationTicks": 666,
          "midi": 67,
          "name": "G4",
          "ticks": 4602,
          "time": 4.79375,
          "velocity": 0.4015748031496063
        },
        {
          "duration": 0.30416666666666625,
          "durationTicks": 292,
          "midi": 53,
          "name": "F3",
          "ticks": 4613,
          "time": 4.805208333333334,
          "velocity": 0.44881889763779526
        },
        {
          "duration": 0.31875000000000053,
          "durationTicks": 306,
          "midi": 48,
          "name": "C3",
          "ticks": 4625,
          "time": 4.817708333333333,
          "velocity": 0.33858267716535434
        },
        {
          "duration": 1.2177083333333334,
          "durationTicks": 1169,
          "midi": 74,
          "name": "D5",
          "ticks": 5563,
          "time": 5.794791666666667,
          "velocity": 0.41732283464566927
        },
        {
          "duration": 1.1812500000000004,
          "durationTicks": 1134,
          "midi": 67,
          "name": "G4",
          "ticks": 5569,
          "time": 5.801041666666666,
          "velocity": 0.4645669291338583
        },
        {
          "duration": 1.091666666666666,
          "durationTicks": 1048,
          "midi": 60,
          "name": "C4",
          "ticks": 5574,
          "time": 5.80625,
          "velocity": 0.4645669291338583
        },
        {
          "duration": 1.1395833333333334,
          "durationTicks": 1094,
          "midi": 50,
          "name": "D3",
          "ticks": 5577,
          "time": 5.809375,
          "velocity": 0.4094488188976378
        },
        {
          "duration": 1.1072916666666668,
          "durationTicks": 1063,
          "midi": 55,
          "name": "G3",
          "ticks": 5577,
          "time": 5.809375,
          "velocity": 0.44881889763779526
        },
        {
          "duration": 1.145833333333333,
          "durationTicks": 1100,
          "midi": 79,
          "name": "G5",
          "ticks": 5595,
          "time": 5.828125,
          "velocity": 0.3779527559055118
        },
        {
          "duration": 0.24062500000000053,
          "durationTicks": 231,
          "midi": 43,
          "name": "G2",
          "ticks": 7465,
          "time": 7.776041666666667,
          "velocity": 0.48031496062992124
        },
        {
          "duration": 0.37916666666666643,
          "durationTicks": 364,
          "midi": 36,
          "name": "C2",
          "ticks": 7713,
          "time": 8.034375,
          "velocity": 0.6535433070866141
        },
        {
          "duration": 0.46041666666666536,
          "durationTicks": 442,
          "midi": 58,
          "name": "A#3",
          "ticks": 8435,
          "time": 8.786458333333334,
          "velocity": 0.6062992125984252
        },
        {
          "duration": 0.3885416666666668,
          "durationTicks": 373,
          "midi": 53,
          "name": "F3",
          "ticks": 8458,
          "time": 8.810416666666667,
          "velocity": 0.41732283464566927
        },
        {
          "duration": 0.41249999999999964,
          "durationTicks": 396,
          "midi": 48,
          "name": "C3",
          "ticks": 8461,
          "time": 8.813541666666667,
          "velocity": 0.41732283464566927
        },
        {
          "duration": 0.12291666666666679,
          "durationTicks": 118,
          "midi": 65,
          "name": "F4",
          "ticks": 8854,
          "time": 9.222916666666666,
          "velocity": 0.41732283464566927
        },
        {
          "duration": 0.15625,
          "durationTicks": 150,
          "midi": 67,
          "name": "G4",
          "ticks": 9108,
          "time": 9.4875,
          "velocity": 0.8110236220472441
        },
        {
          "duration": 1.1104166666666675,
          "durationTicks": 1066,
          "midi": 67,
          "name": "G4",
          "ticks": 9347,
          "time": 9.736458333333333,
          "velocity": 0.5669291338582677
        },
        {
          "duration": 0.796875,
          "durationTicks": 765,
          "midi": 60,
          "name": "C4",
          "ticks": 9365,
          "time": 9.755208333333334,
          "velocity": 0.5590551181102362
        },
        {
          "duration": 0.8239583333333336,
          "durationTicks": 791,
          "midi": 55,
          "name": "G3",
          "ticks": 9368,
          "time": 9.758333333333333,
          "velocity": 0.5354330708661418
        },
        {
          "duration": 0.8927083333333332,
          "durationTicks": 857,
          "midi": 50,
          "name": "D3",
          "ticks": 9371,
          "time": 9.761458333333334,
          "velocity": 0.5196850393700787
        },
        {
          "duration": 0.047916666666667496,
          "durationTicks": 46,
          "midi": 55,
          "name": "G3",
          "ticks": 10300,
          "time": 10.729166666666666,
          "velocity": 0.5196850393700787
        },
        {
          "duration": 0.11354166666666643,
          "durationTicks": 109,
          "midi": 70,
          "name": "A#4",
          "ticks": 10537,
          "time": 10.976041666666667,
          "velocity": 0.7401574803149606
        },
        {
          "duration": 0.11145833333333321,
          "durationTicks": 107,
          "midi": 72,
          "name": "C5",
          "ticks": 10785,
          "time": 11.234375,
          "velocity": 0.8267716535433071
        },
        {
          "duration": 0.13229166666666714,
          "durationTicks": 127,
          "midi": 72,
          "name": "C5",
          "ticks": 11016,
          "time": 11.475,
          "velocity": 0.8110236220472441
        },
        {
          "duration": 0.17812499999999964,
          "durationTicks": 171,
          "midi": 74,
          "name": "D5",
          "ticks": 11137,
          "time": 11.601041666666667,
          "velocity": 0.6614173228346457
        },
        {
          "duration": 0.29375000000000107,
          "durationTicks": 282,
          "midi": 43,
          "name": "G2",
          "ticks": 11204,
          "time": 11.670833333333333,
          "velocity": 0.4330708661417323
        },
        {
          "duration": 0.12083333333333357,
          "durationTicks": 116,
          "midi": 70,
          "name": "A#4",
          "ticks": 11310,
          "time": 11.78125,
          "velocity": 0.5669291338582677
        },
        {
          "duration": 0.24375000000000036,
          "durationTicks": 234,
          "midi": 36,
          "name": "C2",
          "ticks": 11512,
          "time": 11.991666666666667,
          "velocity": 0.5669291338582677
        },
        {
          "duration": 0.4499999999999993,
          "durationTicks": 432,
          "midi": 67,
          "name": "G4",
          "ticks": 11525,
          "time": 12.005208333333334,
          "velocity": 0.5984251968503937
        },
        {
          "duration": 0.060416666666666785,
          "durationTicks": 58,
          "midi": 43,
          "name": "G2",
          "ticks": 11755,
          "time": 12.244791666666666,
          "velocity": 0.2992125984251969
        },
        {
          "duration": 0.47812500000000036,
          "durationTicks": 459,
          "midi": 70,
          "name": "A#4",
          "ticks": 12266,
          "time": 12.777083333333334,
          "velocity": 0.5984251968503937
        },
        {
          "duration": 0.5020833333333332,
          "durationTicks": 482,
          "midi": 79,
          "name": "G5",
          "ticks": 12272,
          "time": 12.783333333333333,
          "velocity": 0.5669291338582677
        },
        {
          "duration": 0.4385416666666657,
          "durationTicks": 421,
          "midi": 58,
          "name": "A#3",
          "ticks": 12275,
          "time": 12.786458333333334,
          "velocity": 0.6377952755905512
        },
        {
          "duration": 0.40000000000000036,
          "durationTicks": 384,
          "midi": 48,
          "name": "C3",
          "ticks": 12298,
          "time": 12.810416666666667,
          "velocity": 0.4645669291338583
        },
        {
          "duration": 0.3937500000000007,
          "durationTicks": 378,
          "midi": 53,
          "name": "F3",
          "ticks": 12304,
          "time": 12.816666666666666,
          "velocity": 0.4330708661417323
        },
        {
          "duration": 0.16249999999999964,
          "durationTicks": 156,
          "midi": 77,
          "name": "F5",
          "ticks": 13256,
          "time": 13.808333333333334,
          "velocity": 0.4645669291338583
        },
        {
          "duration": 0.15625,
          "durationTicks": 150,
          "midi": 60,
          "name": "C4",
          "ticks": 13259,
          "time": 13.811458333333333,
          "velocity": 0.3937007874015748
        },
        {
          "duration": 0.16249999999999964,
          "durationTicks": 156,
          "midi": 50,
          "name": "D3",
          "ticks": 13262,
          "time": 13.814583333333333,
          "velocity": 0.36220472440944884
        },
        {
          "duration": 0.12291666666666679,
          "durationTicks": 118,
          "midi": 72,
          "name": "C5",
          "ticks": 13271,
          "time": 13.823958333333334,
          "velocity": 0.48031496062992124
        },
        {
          "duration": 0.15729166666666572,
          "durationTicks": 151,
          "midi": 55,
          "name": "G3",
          "ticks": 13273,
          "time": 13.826041666666667,
          "velocity": 0.4645669291338583
        },
        {
          "duration": 0.11770833333333286,
          "durationTicks": 113,
          "midi": 67,
          "name": "G4",
          "ticks": 13276,
          "time": 13.829166666666667,
          "velocity": 0.4015748031496063
        }
      ]
    }
  ]
}